<svg width="177" height="156" viewBox="0 0 177 156" fill="none" xmlns="http://www.w3.org/2000/svg">
<path d="M113.075 64.5008C116.53 70.2963 117.926 75.6606 117.926 80.7016C117.926 86.4885 116.077 91.87 113.264 96.9411C109.047 104.548 102.66 111.404 97.2891 117.717C94.6039 120.878 92.1696 123.901 90.3912 126.85C88.6128 129.795 87.4727 132.68 87.4727 135.561H89.0398C89.0398 133.914 89.48 132.193 90.2811 130.391C91.681 127.234 94.1945 123.853 97.1835 120.257C101.669 114.858 107.22 108.976 111.675 102.452C116.125 95.9278 119.488 88.7308 119.493 80.7016C119.493 75.3804 118.005 69.7185 114.426 63.7246L113.075 64.5008Z" fill="white"/>
<path d="M89.0393 135.561C89.0393 132.375 90.2983 129.089 92.2571 125.622C95.1933 120.417 99.6745 114.846 103.447 108.576C107.211 102.306 110.275 95.303 110.275 87.2134C110.275 84.8676 110.015 82.4355 109.447 79.9129L113.677 73.8673C114.927 72.082 115.5 70.1028 115.5 68.1839C115.5 65.5534 114.443 63.0308 112.612 61.1507C110.798 59.2749 108.192 58.0503 105.173 58.0503H97.8037L90.4391 60.4867L90.9409 61.9399L98.0634 59.5811H105.177C107.765 59.5811 109.94 60.6117 111.481 62.2029C113.035 63.7984 113.937 65.9545 113.937 68.1752C113.937 69.8009 113.457 71.4611 112.387 72.9919L107.774 79.5852L107.919 80.2363C108.465 82.6554 108.712 84.9754 108.712 87.2091C108.712 92.3405 107.418 97.0365 105.459 101.426C102.523 108.011 98.0766 113.893 94.3261 119.425C92.4508 122.194 90.7517 124.88 89.5059 127.545C88.2645 130.21 87.4766 132.866 87.4766 135.557H89.0437L89.0393 135.561Z" fill="white"/>
<path d="M89.0398 135.56C89.0398 135.353 89.0398 135.155 89.0486 134.974C89.141 132.218 89.973 129.161 91.1967 125.94C93.028 121.106 95.7308 115.919 97.9846 110.748C100.234 105.574 102.056 100.412 102.061 95.5436C102.061 93.504 101.735 91.5118 100.974 89.623L99.5165 90.1879C100.199 91.874 100.494 93.6635 100.494 95.5479C100.507 101.529 97.4124 108.437 94.2033 115.276C92.601 118.7 90.981 122.106 89.7265 125.41C88.4763 128.713 87.5827 131.908 87.4815 134.927C87.4727 135.142 87.4727 135.358 87.4727 135.565H89.0398V135.56Z" fill="white"/>
<path d="M90.2674 104.138C90.9718 104.841 91.4472 105.643 91.7597 106.57C92.0723 107.493 92.2131 108.541 92.2131 109.696C92.2175 112.922 91.1082 116.958 89.9417 121.3C88.784 125.643 87.5778 130.3 87.4766 134.879L88.2601 134.897L87.4766 134.871C87.4678 135.112 87.4678 135.341 87.4678 135.565H89.0349C89.0349 135.341 89.0349 135.129 89.0437 134.922V134.914C89.1361 130.576 90.2983 126.022 91.456 121.693C92.6093 117.359 93.7714 113.258 93.7758 109.701C93.7758 108.424 93.6218 107.212 93.2476 106.091C92.8734 104.97 92.2659 103.944 91.3855 103.064L90.2674 104.138Z" fill="white"/>
<path d="M62.0862 63.7246C58.5074 69.7185 57.0195 75.3804 57.0195 80.7016C57.0195 86.8162 58.9784 92.4565 61.8749 97.6742C66.2241 105.501 72.6862 112.422 78.0215 118.7C80.6891 121.84 83.075 124.815 84.7741 127.631C86.4777 130.451 87.4769 133.09 87.4769 135.561H89.0441C89.0441 133.642 88.5334 131.714 87.6706 129.778C86.1563 126.385 83.568 122.926 80.5482 119.287C76.0141 113.836 70.5028 107.993 66.1449 101.598C61.7825 95.2033 58.591 88.2909 58.591 80.7016C58.591 75.6606 59.9909 70.292 63.4421 64.5008L62.0906 63.7246H62.0862Z" fill="white"/>
<path d="M85.8708 60.4177L78.7131 58.0503H71.3442C68.32 58.0503 65.714 59.2749 63.9004 61.155C62.0692 63.0308 61.0127 65.5578 61.0127 68.1839C61.0127 70.1071 61.585 72.082 62.8351 73.8673L67.0654 79.9129C66.4976 82.4398 66.2379 84.8719 66.2379 87.2177C66.2379 92.6079 67.5981 97.5194 69.623 102.052C72.656 108.847 77.1724 114.794 80.8877 120.283C82.7454 123.026 84.4049 125.652 85.5891 128.192C86.7732 130.732 87.4775 133.172 87.4775 135.566H89.0446C89.0446 131.974 87.6492 128.459 85.6287 124.88C82.5913 119.516 78.1189 113.957 74.4212 107.8C70.7235 101.642 67.8094 94.9149 67.8094 87.2177C67.8094 84.984 68.0559 82.6641 68.6017 80.245L68.6766 79.9172L68.747 79.5938L64.1381 73.0005C63.0684 71.4697 62.593 69.8095 62.5886 68.1839C62.5886 65.9631 63.491 63.8027 65.0449 62.2115C66.5856 60.6203 68.7602 59.5854 71.3486 59.5854H78.4578L85.369 61.8752L85.8708 60.422V60.4177Z" fill="white"/>
<path d="M75.5385 89.623C74.777 91.5161 74.4468 93.504 74.4512 95.5436C74.4644 102.029 77.6823 109.054 80.8825 115.91C82.4849 119.338 84.0916 122.719 85.3153 125.94C86.5391 129.161 87.3711 132.218 87.4635 134.97C87.4723 135.155 87.4723 135.353 87.4723 135.56H89.0394C89.0394 135.353 89.0394 135.138 89.0306 134.918V134.901V134.922C88.9294 131.904 88.0402 128.708 86.7856 125.405C84.906 120.455 82.1943 115.254 79.9713 110.145C77.7439 105.039 76.0139 100.028 76.0183 95.5436C76.0183 93.6635 76.3177 91.874 77 90.1879L75.5429 89.623H75.5385Z" fill="white"/>
<path d="M89.0395 135.56C89.0395 135.336 89.0395 135.107 89.0307 134.866L88.2471 134.892L89.0307 134.874C88.9295 130.295 87.7277 125.638 86.5656 121.295C85.4035 116.957 84.2898 112.917 84.2942 109.696C84.2942 108.54 84.435 107.492 84.7476 106.565C85.0601 105.642 85.5355 104.836 86.2398 104.133L85.1217 103.059C84.2413 103.935 83.6339 104.965 83.2597 106.086C82.8811 107.208 82.7314 108.419 82.7314 109.696C82.7358 113.249 83.898 117.35 85.0513 121.688C86.2134 126.017 87.3756 130.571 87.4636 134.909V134.918C87.4724 135.124 87.4724 135.34 87.4724 135.564H89.0395V135.56Z" fill="white"/>
<path d="M80.0107 99.7475L88.2557 94.4694L96.4962 99.7432L97.3502 98.4624L88.2557 92.6367L79.1523 98.4581L80.0107 99.7475Z" fill="white"/>
<path d="M89.0398 93.5549V87.3152H87.4727V93.5549" fill="white"/>
<path d="M74.751 71.8781H80.2095V83.4002L87.8293 88.2169L88.6789 86.9276L81.7766 82.5637V70.343H74.751V71.8781Z" fill="white"/>
<path d="M100.665 70.343H94.7358V82.5637L87.8291 86.9276L88.6787 88.2169L96.3029 83.4002V71.8781H100.665V70.343Z" fill="white"/>
<path d="M74.5703 58.3981L69.1954 50.3474L82.7712 50.2007L88.3793 38.2561L93.9963 50.2007L107.576 50.3474L102.197 58.3981L103.509 59.239L110.451 48.8424L95.0043 48.6785L88.3793 34.5864L81.7631 48.6785L66.3165 48.8424L73.2585 59.239L74.5703 58.4025V58.3981Z" fill="white"/>
<path d="M76.6484 49.2485L73.0651 39.572L84.8713 44.5439L85.492 43.1339L70.3535 36.7605L75.1781 49.7746L76.6484 49.2485Z" fill="white"/>
<path d="M101.595 49.7746L106.41 36.7605L91.2764 43.1339L91.8971 44.5439L103.703 39.572L100.12 49.2485L101.595 49.7746Z" fill="white"/>
<path d="M91.1575 103.357L91.6285 103.969L98.6453 98.799C100.005 97.7986 100.824 96.2462 100.877 94.5817L100.978 91.4425C101.009 90.4205 101.445 89.4503 102.193 88.7387L105.121 85.9315C105.997 85.0907 106.569 83.9911 106.745 82.8052L108.484 71.2098C108.523 70.9425 108.545 70.6751 108.545 70.4121C108.545 68.9675 107.96 67.5661 106.903 66.5268L100.6 60.3518C99.5301 59.304 98.095 58.7434 96.6336 58.7434C96.0349 58.7434 95.4274 58.8383 94.842 59.0323L89.5508 60.7787C89.1326 60.9167 88.6968 60.9857 88.261 60.9857C87.8252 60.9857 87.3894 60.9167 86.9712 60.7787L81.68 59.0323C81.0945 58.8383 80.487 58.7434 79.8884 58.7434C78.4269 58.7434 76.9918 59.304 75.9222 60.3518L69.6185 66.5268C68.5576 67.5661 67.9766 68.9632 67.9766 70.4121C67.9766 70.6794 67.9942 70.9468 68.0382 71.2141L69.777 82.8095C69.9575 83.9997 70.5253 85.095 71.4013 85.9358L74.3286 88.7431C75.0726 89.4589 75.5084 90.4291 75.5436 91.4468L75.6448 94.586C75.6977 96.2505 76.5208 97.8029 77.8767 98.8033L84.8934 103.974C85.8927 104.711 87.0812 105.077 88.2654 105.077C89.4495 105.077 90.6381 104.711 91.6373 103.974L91.1663 103.361L90.6953 102.749C89.9733 103.279 89.1238 103.542 88.2654 103.547C87.4114 103.547 86.5574 103.284 85.8355 102.749L78.8187 97.5787C77.8414 96.8585 77.2472 95.7374 77.212 94.5386L77.1107 91.3993C77.0667 89.9806 76.4636 88.6353 75.4291 87.6435L72.5018 84.8362C71.8723 84.2325 71.4585 83.4391 71.3309 82.581L69.5921 70.9856C69.5613 70.7916 69.5481 70.6018 69.5481 70.4078C69.5481 69.3642 69.9707 68.3552 70.7322 67.6092L77.0359 61.4342C77.8062 60.6796 78.8407 60.2742 79.8928 60.2742C80.3242 60.2742 80.76 60.3432 81.1826 60.4812L86.4738 62.2276C87.0548 62.4217 87.6623 62.5165 88.2654 62.5165C88.8684 62.5165 89.4759 62.4217 90.057 62.2276L95.3482 60.4812C95.7708 60.3432 96.2066 60.2742 96.638 60.2742C97.6944 60.2742 98.7245 60.6796 99.4949 61.4342L105.799 67.6092C106.56 68.3552 106.983 69.3642 106.983 70.4078C106.983 70.5975 106.969 70.7916 106.939 70.9856L105.195 82.581C105.068 83.4391 104.654 84.2282 104.025 84.8362L101.097 87.6435C100.063 88.6353 99.4596 89.9806 99.4156 91.3993L99.3144 94.5386C99.2748 95.7374 98.6849 96.8542 97.7077 97.5787L90.6909 102.749L91.1619 103.361L91.1575 103.357Z" fill="white"/>
<path d="M71.2119 55.5356H83.6476V54.0005H71.2119" fill="white"/>
<path d="M105.56 54.0005H92.3057V55.5356H105.56" fill="white"/>
<path d="M87.9741 52.2382L85.3906 54.769L87.9742 57.2998L90.5577 54.7691L87.9741 52.2382Z" fill="white"/>
<path d="M13.224 108.136L12.9555 108.166C12.3392 108.174 11.4852 107.67 10.5476 107.014C10.6797 106.575 11.023 106.113 11.4324 105.734L13.8667 103.409L12.9951 100.149L12.8102 100.197L12.6958 100.227L12.6826 100.343C12.5901 101.344 11.3268 102.349 10.5652 103.086C9.79488 103.832 9.53956 104.716 9.54396 105.514C9.54396 105.811 9.58359 106.087 9.63641 106.35C7.37818 104.707 6.14122 104.043 5.08034 104.039C4.86904 104.039 4.67095 104.065 4.47286 104.117C3.30193 104.414 2.66804 105.466 2.67685 107.07C2.67685 107.834 2.81331 108.735 3.09064 109.77L4.16913 113.789L4.35401 113.741L4.45526 113.715L4.47727 113.612C4.59612 113.056 5.18158 112.797 5.78906 112.642L15.6583 110.106L15.0068 107.665L13.2196 108.127L13.224 108.136ZM3.88299 110.537L3.76415 110.098C3.6629 109.718 3.61447 109.364 3.61447 109.037C3.61447 107.76 4.30999 106.945 5.13757 106.73C5.48092 106.644 5.81988 106.605 6.15443 106.605C7.31215 106.605 8.44346 107.07 9.50875 107.571C10.2923 107.933 11.0318 108.312 11.745 108.515L3.8786 110.537H3.88299Z" fill="white"/>
<path d="M5.77543 88.002L6.20242 88.0149C9.34105 88.0278 11.9602 86.1693 12.1363 82.7541L12.1451 82.3875C12.1495 79.0327 9.58316 77.0362 6.3697 76.8809L5.94271 76.868C2.80408 76.8551 0.184891 78.7136 0.00881153 82.1288L5.65446e-06 82.4953C-0.00439634 85.8502 2.56197 87.851 5.77543 88.002ZM1.90167 80.3695C2.73805 79.9469 3.953 79.7226 5.41887 79.7226C5.67858 79.7226 5.9427 79.7312 6.21563 79.7442C7.86638 79.8261 9.2354 80.0848 10.1642 80.5506C11.093 81.0206 11.5861 81.6588 11.5905 82.5859V82.7282C11.5332 83.6122 11.093 84.19 10.2963 84.5911C9.49952 84.9878 8.33739 85.1689 6.92875 85.1689C6.6074 85.1689 6.27286 85.1603 5.9295 85.143C4.27875 85.0611 2.91413 84.7377 1.9809 84.2331C1.04768 83.7243 0.554658 83.0689 0.554658 82.2668V82.1633C0.60308 81.3871 1.06089 80.8007 1.90167 80.3738V80.3695Z" fill="white"/>
<path d="M7.56676 51.0381L6.43544 53.9704L6.47066 54.0566L6.5587 54.2636L6.73918 54.1256C6.97248 53.9402 7.32464 53.8237 7.76044 53.8237C8.59242 53.8237 9.71933 54.2593 10.8374 55.4494L13.2189 58.0238L4.54258 58.8733L3.61816 61.2708L13.0913 60.3351L16.4104 61.5641L16.472 61.4045L17.3172 59.2182L13.9981 57.9893L7.56676 51.0381Z" fill="white"/>
<path d="M16.5601 36.101L16.7141 36.2131L16.8022 36.2778L16.899 36.226C17.1719 36.0751 17.4889 36.0147 17.8058 36.0147H17.9071L24.2944 45.6567L24.444 45.4627L26.2885 43.0953L26.1344 42.9832L26.0552 42.9271L25.9627 42.9616C25.7602 43.0392 25.5093 43.091 25.2276 43.091C24.3164 43.091 23.0662 42.5994 21.9877 41.0686C21.706 40.6719 21.5827 40.2708 21.5827 39.8914C21.5827 39.5162 21.706 39.1626 21.9437 38.8608C22.3751 38.3088 23.1851 37.9164 24.3032 37.9164C24.7082 37.9164 25.1484 37.9681 25.6238 38.0803L25.7338 38.1061L25.7426 38.0975L29.3919 39.1195L30.959 37.11L18.5234 33.5784L16.5557 36.101H16.5601ZM18.717 36.1355C18.7875 36.1527 18.8535 36.1614 18.9239 36.1829L23.3171 37.4205C22.5336 37.5973 21.9349 37.9854 21.5475 38.4856C21.2526 38.8608 21.1161 39.3006 21.0633 39.7448L18.717 36.1398V36.1355Z" fill="white"/>
<path d="M46.0937 20.8794L46.0189 20.9312V21.0217L46.0321 21.3969C46.0277 22.4404 45.7988 23.9195 43.8487 25.2821L42.8142 26.0023L36.1364 16.8174L33.4512 18.6889L33.5568 18.8398L33.6184 18.926L33.7241 18.9088L33.8694 18.9002C34.3712 18.8958 34.785 19.3098 35.1195 19.7712L41.0402 27.9212L47.9558 23.0959L46.2566 20.7587L46.0893 20.8794H46.0937Z" fill="white"/>
<path d="M85.8346 0.146612L83.1626 8.14997L79.5266 0.539019L76.2823 0.741691L76.2999 0.935737L76.3087 1.03491L76.4011 1.07373C76.9382 1.29365 77.0835 1.90597 77.1231 2.52261L77.7702 12.5096L80.8163 12.3198L80.7987 12.1258L80.7899 12.0266L80.6975 11.9878C79.707 11.5695 78.2016 10.1508 78.0563 7.84381L77.7173 2.5916L80.9132 9.11589C81.798 10.9356 83.5632 12.018 85.5617 12.018L85.9139 12.005L88.9821 11.8153L88.2161 0L85.8346 0.146612ZM85.7862 2.09571L86.3981 11.5221C85.7862 11.5221 85.324 11.3539 84.8662 10.9442C84.4216 10.5389 83.9902 9.87052 83.5192 8.88304L85.7906 2.09571H85.7862Z" fill="white"/>
<path d="M111.578 3.18191C110.992 3.02668 110.429 2.95337 109.892 2.95337C107.198 2.95337 105.217 4.83347 104.491 7.45957C104.31 8.1107 104.218 8.76184 104.218 9.39141C104.209 11.8062 105.591 13.9278 108.382 14.6652C108.968 14.8204 109.531 14.8937 110.068 14.8937C112.762 14.8937 114.743 13.0136 115.469 10.3875C115.65 9.73638 115.742 9.08525 115.742 8.45568C115.751 6.04087 114.369 3.91929 111.578 3.18191ZM108.527 14.1434C107.312 13.8114 106.815 12.8627 106.802 11.3405C106.802 10.4565 106.987 9.39141 107.317 8.20988C108.114 5.33367 109.505 3.60881 110.926 3.63037C111.094 3.63037 111.261 3.65194 111.433 3.69937C112.524 3.98828 113.088 5.0577 113.092 6.72219C113.092 7.56737 112.943 8.55485 112.643 9.63289C112.247 11.0559 111.763 12.2202 111.182 13.0136C110.596 13.8114 109.94 14.2297 109.161 14.2297C108.959 14.2297 108.752 14.2038 108.527 14.1434Z" fill="white"/>
<path d="M138.011 15.3944L137.945 15.485L138.002 15.5799C138.258 16.0197 138.469 16.7226 138.469 17.5462C138.469 18.4302 138.231 19.4479 137.553 20.4483L134.617 24.782L135.286 13.4109L132.843 11.824L132.742 11.9921L132.689 12.0784L132.738 12.1646C132.826 12.3199 132.861 12.4708 132.861 12.6303C132.861 12.9926 132.658 13.3936 132.416 13.7429L126.769 22.0826L129.313 23.7341L129.414 23.5703L129.467 23.484L129.414 23.3978C129.159 22.958 128.948 22.2551 128.948 21.4358C128.948 20.5518 129.19 19.5341 129.863 18.5337L132.817 14.1698L132.183 25.6056L134.569 27.158L134.67 26.9898L134.723 26.9036L134.675 26.8173C134.586 26.6621 134.551 26.5112 134.551 26.3516C134.551 25.9894 134.754 25.5884 134.996 25.2391L140.644 16.8994L138.112 15.2565L138.002 15.3987L138.011 15.3944Z" fill="white"/>
<path d="M155.43 30.749L155.351 30.818L155.377 30.9172L155.435 31.3441C155.435 31.5424 155.39 31.7408 155.333 31.9305L144.249 35.7166L144.403 35.9063L146.314 38.2306L146.463 38.1055L146.534 38.0452L146.52 37.9546L146.503 37.726C146.503 36.8162 147.207 35.4191 149.351 34.617C149.637 34.5092 149.914 34.4574 150.174 34.4574C150.738 34.4574 151.213 34.6903 151.552 35.0956C151.86 35.4708 152.049 35.9969 152.049 36.6394C152.049 37.2647 151.873 37.9934 151.451 38.7912L151.398 38.8903L151.407 38.899L149.523 42.1374L151.143 44.1123L157.613 33.1034L155.571 30.6196L155.421 30.7533L155.43 30.749ZM155.038 32.6722C155.003 32.7369 154.977 32.7973 154.941 32.8619L152.657 36.7644C152.657 36.7429 152.666 36.717 152.666 36.6911C152.666 35.9279 152.424 35.2854 152.032 34.8067C151.724 34.4316 151.314 34.203 150.883 34.0478L155.043 32.6679L155.038 32.6722Z" fill="white"/>
<path d="M160.409 62.3407L161.632 65.4886L161.808 65.4282L161.94 65.3808L161.923 65.2557C161.91 64.251 163.054 63.1255 163.728 62.3105C164.296 61.6249 164.502 60.8789 164.502 60.1889C164.502 59.7405 164.406 59.3308 164.282 58.9514C166.514 60.2364 167.8 60.7883 168.812 60.7927C169.125 60.7927 169.411 60.7366 169.679 60.6374C170.656 60.2795 171.185 59.3869 171.176 58.1191C171.176 57.2308 170.934 56.1442 170.436 54.8634L168.922 50.9739L168.746 51.0429L168.649 51.0817L168.636 51.1852C168.579 51.7544 168.024 52.0692 167.439 52.2891L157.891 55.8552L158.811 58.214L160.541 57.5672L160.946 57.4982C161.549 57.4939 162.389 57.882 163.314 58.3908C163.23 58.8436 162.949 59.3438 162.579 59.762L160.413 62.3321L160.409 62.3407ZM168.733 58.1191C168.24 58.3045 167.747 58.3779 167.249 58.3779C165.396 58.3865 163.547 57.3214 161.962 57.0411L169.569 54.1994L169.736 54.622C169.934 55.1308 170.018 55.6008 170.018 56.0191C170.018 57.0971 169.459 57.8475 168.733 58.1191Z" fill="white"/>
<path d="M166.299 78.093C165.137 79.0201 164.353 80.4172 164.357 82.224L164.371 82.625C164.481 84.3887 165.273 86.1308 166.708 87.2218L166.845 87.3253L167.078 87.0364L167.175 86.9156L167.065 86.8078C166.017 85.7772 165.533 84.6518 165.498 83.5479V83.4271C165.498 82.0688 166.202 81.1115 167.267 80.4647C168.337 79.8222 169.767 79.516 171.163 79.516C172.387 79.516 173.575 79.7532 174.46 80.1844C175.345 80.6199 175.904 81.2279 175.948 81.9739V82.0731C175.948 82.7932 175.446 83.3452 174.702 83.7462C173.963 84.1429 173.012 84.3628 172.224 84.4103L172.052 84.4189L172.061 84.6216V84.6992L172.127 84.7466C172.616 85.1261 173.082 85.8721 173.126 86.6655L173.135 86.8337L173.311 86.8251C174.944 86.7345 176.516 85.3029 176.507 82.4353C176.507 82.2671 176.503 82.0903 176.489 81.9092C176.274 78.3905 173.386 76.6872 170.516 76.6958C168.988 76.6958 167.456 77.1659 166.294 78.0973L166.299 78.093Z" fill="white"/>
<path d="M174.843 103.319L174.773 103.396C174.544 103.647 174.253 103.728 173.914 103.728C173.663 103.728 173.395 103.681 173.14 103.612L163.253 101.094L162.606 103.539L168.157 104.953L166.999 109.313L161.448 107.898L160.801 110.343L172.497 113.323L173.329 110.192L173.14 110.145L173.038 110.119L172.968 110.197C172.739 110.442 172.448 110.529 172.11 110.529C171.859 110.529 171.59 110.481 171.335 110.412L167.545 109.446L168.702 105.087L174.302 106.514L175.129 103.388L174.949 103.34L174.843 103.31V103.319Z" fill="white"/>
<path d="M15.909 148.781L18.6955 155.651H17.7755L17.1416 154.064H13.8225L13.1886 155.651H12.2686L15.055 148.781H15.9046H15.909ZM16.8378 153.292L15.482 149.855L14.1262 153.292H16.8334H16.8378Z" fill="white"/>
<path d="M26.623 152.218C26.623 150.118 28.243 148.687 30.1975 148.687C31.0559 148.687 32.174 148.967 32.9355 150.032L32.3236 150.476C31.7426 149.713 30.9106 149.489 30.2195 149.489C28.7096 149.489 27.4946 150.563 27.4946 152.218C27.4946 153.874 28.7184 154.978 30.2195 154.978C31.3772 154.978 32.4117 154.331 32.5789 152.87H30.5937V152.162H33.4109C33.587 154.409 32.0375 155.754 30.1799 155.754C28.3222 155.754 26.623 154.323 26.623 152.223V152.218Z" fill="white"/>
<path d="M37.0693 153.193V148.781H37.9189V153.184C37.9189 154.405 38.6805 154.957 39.5873 154.957C40.4941 154.957 41.2468 154.405 41.2468 153.184V148.781H42.0964V153.193C42.0964 154.84 41.0003 155.746 39.5873 155.746C38.1742 155.746 37.0693 154.836 37.0693 153.193Z" fill="white"/>
<path d="M45.8389 148.781H46.6885V155.651H45.8389V148.781Z" fill="white"/>
<path d="M50.4209 148.781H51.2705V154.879H54.3431V155.655H50.4209V148.786V148.781Z" fill="white"/>
<path d="M58.7053 149.558H56.8477V148.781H61.4125V149.558H59.5549V155.655H58.7053V149.558Z" fill="white"/>
<path d="M69.5869 148.781H73.3594V149.536H70.4365V151.839H73.1041V152.555H70.4365V155.651H69.5869V148.781Z" fill="white"/>
<path d="M79.294 153.215H77.8017V155.656H76.9521V148.786H79.2148C80.6983 148.786 81.6051 149.713 81.6051 151.024C81.6051 152.051 81.0504 152.805 80.1128 153.094L81.8604 155.66H80.9316L79.2896 153.219L79.294 153.215ZM79.1179 152.482C80.104 152.482 80.7379 151.986 80.7379 151.02C80.7379 150.054 80.104 149.558 79.1179 149.558H77.8061V152.482H79.1179Z" fill="white"/>
<path d="M85.3984 148.781H89.1622V149.558H86.248V151.822H88.7263V152.585H86.248V154.879H89.2502V155.655H85.3984V148.786V148.781Z" fill="white"/>
<path d="M92.8428 148.781H96.6065V149.558H93.6924V151.822H96.1707V152.585H93.6924V154.879H96.6945V155.655H92.8428V148.786V148.781Z" fill="white"/>
<path d="M104.971 148.781H107.075C109.148 148.781 110.522 150.174 110.522 152.218C110.522 154.262 109.148 155.655 107.075 155.655H104.971V148.786V148.781ZM107.044 154.857C108.712 154.857 109.641 153.801 109.641 152.214C109.641 150.627 108.712 149.571 107.044 149.571H105.82V154.853H107.044V154.857Z" fill="white"/>
<path d="M114.061 148.781H117.824V149.558H114.91V151.822H117.388V152.585H114.91V154.879H117.912V155.655H114.061V148.786V148.781Z" fill="white"/>
<path d="M121.012 152.218C121.012 150.118 122.623 148.687 124.586 148.687C125.445 148.687 126.563 148.967 127.324 150.032L126.703 150.476C126.122 149.713 125.29 149.489 124.608 149.489C123.107 149.489 121.879 150.571 121.879 152.218C121.879 153.866 123.103 154.948 124.617 154.948C125.299 154.948 126.118 154.724 126.703 153.961L127.324 154.405C126.563 155.47 125.458 155.75 124.586 155.75C122.618 155.75 121.012 154.318 121.012 152.218Z" fill="white"/>
<path d="M130.863 148.781H131.713V155.651H130.863V148.781Z" fill="white"/>
<path d="M135.203 154.077L135.903 153.758C136.101 154.474 136.713 154.979 137.554 154.979C138.293 154.979 138.936 154.582 138.936 153.797C138.936 153.09 138.421 152.779 137.602 152.46L137.14 152.283C136.11 151.878 135.489 151.318 135.489 150.425C135.489 149.36 136.37 148.683 137.505 148.683C138.641 148.683 139.341 149.368 139.618 150.114L138.967 150.442C138.69 149.821 138.236 149.446 137.527 149.446C136.854 149.446 136.339 149.813 136.339 150.434C136.339 150.917 136.634 151.296 137.466 151.615L137.941 151.801C139.086 152.245 139.808 152.749 139.808 153.806C139.808 155.073 138.734 155.75 137.554 155.75C136.374 155.75 135.441 155.065 135.203 154.077Z" fill="white"/>
<path d="M143.299 148.781H144.148V155.651H143.299V148.781Z" fill="white"/>
<path d="M147.784 152.218C147.784 150.11 149.444 148.687 151.35 148.687C153.256 148.687 154.907 150.11 154.907 152.218C154.907 154.327 153.247 155.75 151.35 155.75C149.453 155.75 147.784 154.327 147.784 152.218ZM151.35 154.948C152.763 154.948 154.035 153.883 154.035 152.218C154.035 150.554 152.758 149.489 151.35 149.489C149.941 149.489 148.651 150.554 148.651 152.218C148.651 153.883 149.928 154.948 151.35 154.948Z" fill="white"/>
<path d="M158.547 148.781H159.405L163.336 154.258H163.385V148.781H164.234V155.651H163.376L159.445 150.174H159.396V155.651H158.547V148.781Z" fill="white"/>
</svg>
