<svg width="170" height="153" viewBox="0 0 170 153" fill="none" xmlns="http://www.w3.org/2000/svg">
<path d="M108.807 63.3606C112.133 69.0536 113.475 74.3231 113.475 79.2748C113.475 84.9594 111.696 90.2458 108.99 95.2272C104.932 102.699 98.7854 109.434 93.6176 115.636C91.0337 118.741 88.6912 121.71 86.9799 124.607C85.2687 127.5 84.1716 130.334 84.1716 133.164H85.6795C85.6795 131.546 86.1031 129.856 86.8741 128.085C88.2211 124.984 90.6398 121.663 93.5159 118.131C97.8323 112.827 103.174 107.05 107.46 100.641C111.743 94.2317 114.979 87.162 114.983 79.2748C114.983 74.0477 113.552 68.486 110.108 62.5981L108.807 63.3606Z" fill="white"/>
<path d="M85.6796 133.163C85.6796 130.033 86.8911 126.805 88.776 123.4C91.6014 118.287 95.9135 112.814 99.5436 106.655C103.165 100.496 106.113 93.617 106.113 85.6705C106.113 83.3662 105.864 80.9771 105.317 78.4991L109.388 72.5604C110.591 70.8068 111.141 68.8625 111.141 66.9775C111.141 64.3936 110.125 61.9156 108.363 60.0688C106.618 58.2262 104.11 57.0232 101.204 57.0232H94.1132L87.0266 59.4165L87.5095 60.844L94.3632 58.5269H101.208C103.699 58.5269 105.792 59.5393 107.274 61.1024C108.769 62.6696 109.638 64.7876 109.638 66.9691C109.638 68.566 109.176 70.1968 108.147 71.7005L103.708 78.1772L103.847 78.8168C104.373 81.1932 104.61 83.4721 104.61 85.6662C104.61 90.7069 103.364 95.3198 101.479 99.632C98.6541 106.1 94.3759 111.878 90.7669 117.313C88.9624 120.032 87.3273 122.671 86.1286 125.289C84.9341 127.906 84.1758 130.516 84.1758 133.159H85.6838L85.6796 133.163Z" fill="white"/>
<path d="M85.6795 133.163C85.6795 132.96 85.6795 132.765 85.688 132.587C85.777 129.881 86.5775 126.877 87.7551 123.713C89.5173 118.965 92.1181 113.869 94.2869 108.79C96.4514 103.707 98.205 98.6368 98.2093 93.8544C98.2093 91.8509 97.8958 89.8939 97.163 88.0386L95.7609 88.5935C96.4175 90.2497 96.7013 92.0076 96.7013 93.8587C96.714 99.7338 93.7362 106.52 90.6482 113.238C89.1064 116.601 87.5476 119.947 86.3403 123.192C85.1373 126.437 84.2775 129.576 84.18 132.541C84.1716 132.753 84.1716 132.964 84.1716 133.168H85.6795V133.163Z" fill="white"/>
<path d="M86.8614 102.297C87.5391 102.987 87.9966 103.775 88.2973 104.686C88.5981 105.592 88.7336 106.622 88.7336 107.757C88.7379 110.925 87.6704 114.89 86.5479 119.155C85.4339 123.421 84.2733 127.996 84.1758 132.494L84.9298 132.511L84.1758 132.486C84.1674 132.723 84.1674 132.948 84.1674 133.168H85.6753C85.6753 132.948 85.6753 132.74 85.6838 132.537V132.528C85.7728 128.267 86.891 123.794 88.0051 119.541C89.1149 115.284 90.2331 111.256 90.2374 107.761C90.2374 106.507 90.0891 105.317 89.7291 104.216C89.369 103.114 88.7845 102.106 87.9373 101.242L86.8614 102.297Z" fill="white"/>
<path d="M59.7432 62.5981C56.2995 68.486 54.8677 74.0477 54.8677 79.2748C54.8677 85.2813 56.7527 90.8218 59.5399 95.9473C63.725 103.635 69.9433 110.434 75.0771 116.601C77.6441 119.685 79.9399 122.608 81.575 125.374C83.2143 128.144 84.1758 130.737 84.1758 133.164H85.6838C85.6838 131.279 85.1924 129.385 84.3622 127.483C82.905 124.15 80.4144 120.753 77.5085 117.178C73.1456 111.823 67.8422 106.084 63.6487 99.8019C59.451 93.5201 56.3799 86.73 56.3799 79.2748C56.3799 74.3231 57.727 69.0494 61.0479 63.3606L59.7475 62.5981H59.7432Z" fill="white"/>
<path d="M82.6298 59.3487L75.7423 57.0232H68.6514C65.7413 57.0232 63.2337 58.2262 61.4885 60.073C59.7264 61.9156 58.7098 64.3979 58.7098 66.9775C58.7098 68.8667 59.2604 70.8068 60.4634 72.5604L64.5341 78.4991C63.9877 80.9814 63.7378 83.3704 63.7378 85.6747C63.7378 90.9696 65.0467 95.7942 66.9952 100.246C69.9137 106.922 74.2597 112.763 77.8348 118.155C79.6223 120.849 81.2193 123.429 82.3587 125.924C83.4982 128.419 84.1759 130.817 84.1759 133.167H85.6839C85.6839 129.639 84.3411 126.187 82.3968 122.671C79.4741 117.401 75.1704 111.941 71.6123 105.893C68.0541 99.8437 65.25 93.2358 65.25 85.6747C65.25 83.4805 65.4872 81.2016 66.0124 78.8253L66.0845 78.5034L66.1522 78.1857L61.7173 71.709C60.6879 70.2053 60.2305 68.5744 60.2262 66.9775C60.2262 64.796 61.0946 62.6739 62.5898 61.1108C64.0724 59.5478 66.1649 58.5312 68.6556 58.5312H75.4966L82.1469 60.7804L82.6298 59.3529V59.3487Z" fill="white"/>
<path d="M72.688 88.0386C71.9552 89.8981 71.6375 91.8509 71.6418 93.8544C71.6545 100.225 74.7509 107.125 77.8304 113.861C79.3723 117.228 80.9183 120.549 82.0959 123.713C83.2735 126.877 84.0741 129.881 84.163 132.583C84.1715 132.765 84.1715 132.96 84.1715 133.163H85.6795C85.6795 132.96 85.6795 132.748 85.671 132.532V132.515V132.537C85.5736 129.571 84.7179 126.433 83.5107 123.188C81.702 118.325 79.0927 113.217 76.9536 108.197C74.8102 103.182 73.1455 98.2598 73.1497 93.8544C73.1497 92.0076 73.4378 90.2497 74.0943 88.5935L72.6923 88.0386H72.688Z" fill="white"/>
<path d="M85.6797 133.163C85.6797 132.943 85.6797 132.719 85.6712 132.481L84.9172 132.507L85.6712 132.49C85.5738 127.991 84.4174 123.417 83.2991 119.151C82.1809 114.89 81.1092 110.921 81.1134 107.757C81.1134 106.621 81.249 105.592 81.5497 104.681C81.8505 103.775 82.3079 102.983 82.9857 102.292L81.9098 101.238C81.0626 102.097 80.478 103.11 80.118 104.211C79.7537 105.312 79.6097 106.503 79.6097 107.757C79.6139 111.247 80.7322 115.275 81.842 119.537C82.9603 123.789 84.0785 128.262 84.1633 132.524V132.532C84.1717 132.736 84.1717 132.947 84.1717 133.168H85.6797V133.163Z" fill="white"/>
<path d="M76.9918 97.9842L84.9256 92.7995L92.8552 97.98L93.6769 96.722L84.9256 90.9993L76.1658 96.7177L76.9918 97.9842Z" fill="white"/>
<path d="M85.6795 91.9008V85.7715H84.1716V91.9008" fill="white"/>
<path d="M71.9298 70.6078H77.1823V81.9261L84.5146 86.6576L85.3322 85.3911L78.6903 81.1043V69.0999H71.9298V70.6078Z" fill="white"/>
<path d="M96.8667 69.0999H91.1609V81.1043L84.5148 85.3911L85.3324 86.6576L92.6689 81.9261V70.6078H96.8667V69.0999Z" fill="white"/>
<path d="M71.7562 57.3661L66.5842 49.4578L79.6476 49.3137L85.0442 37.5803L90.4491 49.3137L103.517 49.4578L98.3406 57.3661L99.6029 58.1921L106.283 47.9794L91.4192 47.8185L85.0442 33.9756L78.6776 47.8185L63.8139 47.9794L70.4939 58.1921L71.7562 57.3704V57.3661Z" fill="white"/>
<path d="M73.7557 48.3775L70.3077 38.8721L81.6684 43.7561L82.2656 42.371L67.6984 36.1104L72.341 48.8942L73.7557 48.3775Z" fill="white"/>
<path d="M97.7606 48.8942L102.395 36.1104L87.8317 42.371L88.4289 43.7561L99.7896 38.8721L96.3416 48.3775L97.7606 48.8942Z" fill="white"/>
<path d="M87.7172 101.53L88.1705 102.131L94.9225 97.0524C96.2314 96.0697 97.0192 94.5448 97.0701 92.9098L97.1675 89.826C97.1971 88.8221 97.6165 87.8691 98.3366 87.1701L101.153 84.4126C101.996 83.5866 102.547 82.5064 102.717 81.3416L104.39 69.9513C104.428 69.6886 104.449 69.426 104.449 69.1676C104.449 67.7486 103.886 66.3719 102.869 65.3511L96.8032 59.2853C95.7739 58.256 94.393 57.7053 92.9867 57.7053C92.4106 57.7053 91.826 57.7985 91.2627 57.9891L86.1711 59.7047C85.7687 59.8402 85.3494 59.908 84.93 59.908C84.5107 59.908 84.0913 59.8402 83.6889 59.7047L78.5974 57.9891C78.034 57.7985 77.4495 57.7053 76.8734 57.7053C75.4671 57.7053 74.0862 58.256 73.0568 59.2853L66.9911 65.3511C65.9702 66.3719 65.4111 67.7444 65.4111 69.1676C65.4111 69.4302 65.428 69.6929 65.4704 69.9555L67.1435 81.3458C67.3172 82.5149 67.8636 83.5908 68.7066 84.4168L71.5234 87.1744C72.2393 87.8775 72.6587 88.8306 72.6926 89.8303L72.79 92.914C72.8408 94.549 73.6329 96.074 74.9376 97.0567L81.6896 102.136C82.6511 102.86 83.7948 103.22 84.9343 103.22C86.0737 103.22 87.2174 102.86 88.179 102.136L87.7257 101.534L87.2725 100.933C86.5778 101.454 85.7603 101.712 84.9343 101.716C84.1125 101.716 83.2907 101.458 82.5961 100.933L75.8441 95.8537C74.9037 95.1463 74.3318 94.045 74.298 92.8674L74.2005 89.7837C74.1582 88.3901 73.5779 87.0685 72.5824 86.0942L69.7656 83.3367C69.1598 82.7436 68.7617 81.9642 68.6388 81.1213L66.9656 69.731C66.936 69.5404 66.9233 69.354 66.9233 69.1634C66.9233 68.1383 67.3299 67.1471 68.0627 66.4143L74.1285 60.3485C74.8698 59.6072 75.8652 59.2091 76.8776 59.2091C77.2927 59.2091 77.7121 59.2768 78.1187 59.4124L83.2103 61.1279C83.7694 61.3185 84.3539 61.4117 84.9343 61.4117C85.5146 61.4117 86.0991 61.3185 86.6583 61.1279L91.7498 59.4124C92.1564 59.2768 92.5758 59.2091 92.9909 59.2091C94.0075 59.2091 94.9987 59.6072 95.74 60.3485L101.806 66.4143C102.539 67.1471 102.945 68.1383 102.945 69.1634C102.945 69.3498 102.933 69.5404 102.903 69.731L101.225 81.1213C101.103 81.9642 100.704 82.7394 100.099 83.3367L97.2819 86.0942C96.2864 87.0685 95.7061 88.3901 95.6638 89.7837L95.5663 92.8674C95.5282 94.045 94.9606 95.1421 94.0202 95.8537L87.2682 100.933L87.7215 101.534L87.7172 101.53Z" fill="white"/>
<path d="M68.5241 54.5536H80.4905V53.0457H68.5241" fill="white"/>
<path d="M101.577 53.0457H88.8227V54.5536H101.577" fill="white"/>
<path d="M84.6538 51.3148L82.1678 53.8008L84.6538 56.2868L87.1399 53.8008L84.6538 51.3148Z" fill="white"/>
<path d="M12.7247 106.223L12.4663 106.253C11.8733 106.261 11.0515 105.766 10.1493 105.122C10.2764 104.69 10.6068 104.237 11.0007 103.864L13.3431 101.581L12.5044 98.3784L12.3265 98.425L12.2164 98.4547L12.2037 98.569C12.1147 99.5518 10.899 100.539 10.1662 101.263C9.42495 101.996 9.17927 102.864 9.18351 103.648C9.18351 103.94 9.22163 104.211 9.27246 104.47C7.09945 102.856 5.90917 102.203 4.88832 102.199C4.685 102.199 4.49438 102.225 4.30376 102.275C3.17702 102.568 2.56705 103.601 2.57553 105.177C2.57553 105.927 2.70684 106.812 2.9737 107.829L4.01149 111.777L4.1894 111.73L4.28682 111.705L4.308 111.603C4.42237 111.056 4.98574 110.802 5.5703 110.65L15.0671 108.159L14.4402 105.762L12.7205 106.215L12.7247 106.223ZM3.73616 108.583L3.62179 108.151C3.52437 107.778 3.47777 107.43 3.47777 107.109C3.47777 105.855 4.14704 105.054 4.94339 104.842C5.27379 104.758 5.59995 104.72 5.92188 104.72C7.03591 104.72 8.12453 105.177 9.14962 105.668C9.9036 106.024 10.6152 106.397 11.3014 106.596L3.73192 108.583H3.73616Z" fill="white"/>
<path d="M5.55749 86.4461L5.96837 86.4588C8.98855 86.4716 11.5089 84.6459 11.6783 81.2911L11.6868 80.931C11.691 77.6355 9.22153 75.6743 6.12933 75.5218L5.71845 75.5091C2.69827 75.4964 0.177914 77.322 0.00847902 80.6769L5.44108e-06 81.0369C-0.00423044 84.3324 2.46529 86.2979 5.55749 86.4461ZM1.82991 78.9486C2.63473 78.5335 3.80383 78.3133 5.21438 78.3133C5.4643 78.3133 5.71845 78.3217 5.98107 78.3344C7.56953 78.4149 8.88689 78.6691 9.78066 79.1265C10.6744 79.5882 11.1489 80.2152 11.1531 81.1259V81.2657C11.098 82.134 10.6744 82.7016 9.90774 83.0956C9.14105 83.4853 8.02277 83.6632 6.66729 83.6632C6.35807 83.6632 6.03614 83.6547 5.70574 83.6378C4.11729 83.5573 2.80416 83.2396 1.90615 82.744C1.00815 82.2441 0.533728 81.6003 0.533728 80.8124V80.7108C0.580322 79.9483 1.02085 79.3722 1.82991 78.9529V78.9486Z" fill="white"/>
<path d="M7.2814 50.1357L6.19277 53.0162L6.22666 53.1009L6.31138 53.3042L6.48505 53.1686C6.70955 52.9865 7.04842 52.8721 7.46777 52.8721C8.26836 52.8721 9.35274 53.3 10.4287 54.4691L12.7203 56.9979L4.37134 57.8323L3.48181 60.1875L12.5974 59.2683L15.7913 60.4755L15.8506 60.3188L16.6639 58.1712L13.47 56.964L7.2814 50.1357Z" fill="white"/>
<path d="M15.9355 35.4629L16.0838 35.573L16.1685 35.6365L16.2617 35.5857C16.5243 35.4374 16.8293 35.3781 17.1343 35.3781H17.2317L23.378 44.8496L23.522 44.659L25.2968 42.3335L25.1486 42.2233L25.0723 42.1683L24.9834 42.2022C24.7885 42.2784 24.5471 42.3292 24.276 42.3292C23.3991 42.3292 22.1961 41.8463 21.1584 40.3426C20.8873 39.9529 20.7687 39.559 20.7687 39.1862C20.7687 38.8177 20.8873 38.4703 21.116 38.1738C21.5311 37.6316 22.3105 37.2462 23.3864 37.2462C23.7761 37.2462 24.1997 37.297 24.6572 37.4071L24.7631 37.4325L24.7716 37.4241L28.2831 38.428L29.7911 36.4541L17.8247 32.9849L15.9313 35.4629H15.9355ZM18.0111 35.4967C18.0789 35.5137 18.1424 35.5222 18.2102 35.5433L22.4376 36.759C21.6836 36.9327 21.1075 37.3139 20.7348 37.8053C20.451 38.1738 20.3196 38.6059 20.2688 39.0422L18.0111 35.501V35.4967Z" fill="white"/>
<path d="M44.3541 20.51L44.282 20.5608V20.6498L44.2948 21.0183C44.2905 22.0434 44.0703 23.4963 42.1938 24.8348L41.1983 25.5422L34.7725 16.5198L32.1886 18.3581L32.2903 18.5064L32.3496 18.5911L32.4512 18.5742L32.591 18.5657C33.0739 18.5615 33.4721 18.9681 33.794 19.4214L39.4913 27.4272L46.1458 22.6872L44.5108 20.3914L44.3498 20.51H44.3541Z" fill="white"/>
<path d="M82.5956 0.144019L80.0244 8.00582L76.5255 0.529486L73.4037 0.728573L73.4206 0.919186L73.4291 1.01661L73.5181 1.05474C74.0348 1.27077 74.1746 1.87226 74.2127 2.478L74.8354 12.2883L77.7666 12.1019L77.7497 11.9113L77.7412 11.8139L77.6523 11.7758C76.6992 11.3649 75.2505 9.97127 75.1107 7.70508L74.7846 2.54576L77.8598 8.95466C78.7112 10.7422 80.4098 11.8054 82.3329 11.8054L82.6718 11.7927L85.6242 11.6063L84.8872 0L82.5956 0.144019ZM82.549 2.05864L83.1378 11.3183C82.549 11.3183 82.1042 11.1531 81.6637 10.7507C81.2358 10.3525 80.8207 9.69594 80.3675 8.72592L82.5532 2.05864H82.549Z" fill="white"/>
<path d="M107.367 3.12611C106.804 2.97362 106.262 2.90161 105.745 2.90161C103.152 2.90161 101.246 4.74846 100.547 7.32811C100.374 7.96773 100.285 8.60734 100.285 9.22578C100.276 11.5979 101.606 13.6819 104.292 14.4063C104.855 14.5588 105.397 14.6308 105.914 14.6308C108.507 14.6308 110.413 12.7839 111.112 10.2043C111.285 9.56465 111.374 8.92504 111.374 8.3066C111.383 5.9345 110.053 3.85045 107.367 3.12611ZM104.432 13.8937C103.263 13.5676 102.784 12.6357 102.771 11.1404C102.771 10.272 102.949 9.22578 103.267 8.06515C104.033 5.23981 105.372 3.54546 106.74 3.56664C106.901 3.56664 107.062 3.58782 107.227 3.63442C108.278 3.91822 108.82 4.96872 108.824 6.60377C108.824 7.434 108.68 8.40402 108.392 9.46299C108.011 10.8608 107.545 12.0045 106.986 12.7839C106.423 13.5676 105.791 13.9784 105.042 13.9784C104.847 13.9784 104.648 13.953 104.432 13.8937Z" fill="white"/>
<path d="M132.804 15.1225L132.74 15.2115L132.795 15.3047C133.041 15.7368 133.244 16.4272 133.244 17.2363C133.244 18.1046 133.015 19.1043 132.363 20.087L129.538 24.3441L130.182 13.174L127.831 11.6152L127.733 11.7804L127.682 11.8651L127.729 11.9499C127.814 12.1024 127.848 12.2506 127.848 12.4073C127.848 12.7632 127.653 13.1571 127.42 13.5002L121.985 21.6924L124.433 23.3148L124.531 23.1538L124.582 23.0691L124.531 22.9844C124.285 22.5523 124.082 21.8618 124.082 21.057C124.082 20.1887 124.315 19.189 124.963 18.2063L127.805 13.9196L127.195 25.1531L129.491 26.678L129.589 26.5128L129.639 26.4281L129.593 26.3434C129.508 26.1909 129.474 26.0427 129.474 25.8859C129.474 25.5301 129.669 25.1362 129.902 24.7931L135.337 16.6009L132.901 14.987L132.795 15.1268L132.804 15.1225Z" fill="white"/>
<path d="M149.565 30.2057L149.489 30.2735L149.514 30.3709L149.569 30.7902C149.569 30.9851 149.527 31.1799 149.472 31.3663L138.806 35.0854L138.954 35.2718L140.792 37.5549L140.936 37.4321L141.004 37.3728L140.992 37.2838L140.975 37.0593C140.975 36.1656 141.652 34.7931 143.715 34.0053C143.991 33.8994 144.257 33.8485 144.507 33.8485C145.049 33.8485 145.507 34.0773 145.833 34.4755C146.13 34.844 146.312 35.3608 146.312 35.9919C146.312 36.6061 146.142 37.322 145.736 38.1056L145.685 38.203L145.693 38.2115L143.88 41.3927L145.439 43.3327L151.666 32.5185L149.7 30.0786L149.556 30.2099L149.565 30.2057ZM149.188 32.0949C149.154 32.1584 149.129 32.2177 149.095 32.2813L146.896 36.1147C146.896 36.0936 146.905 36.0681 146.905 36.0427C146.905 35.293 146.672 34.6618 146.295 34.1917C145.998 33.8231 145.604 33.5986 145.189 33.4461L149.192 32.0907L149.188 32.0949Z" fill="white"/>
<path d="M154.355 61.2383L155.533 64.3305L155.702 64.2712L155.829 64.2246L155.812 64.1018C155.8 63.1148 156.901 62.0092 157.549 61.2087C158.096 60.5351 158.295 59.8023 158.295 59.1246C158.295 58.6841 158.202 58.2817 158.083 57.9089C160.231 59.1712 161.467 59.7134 162.442 59.7176C162.742 59.7176 163.018 59.6626 163.276 59.5651C164.216 59.2135 164.725 58.3367 164.716 57.0914C164.716 56.2188 164.483 55.1513 164.005 53.8933L162.548 50.0725L162.378 50.1403L162.285 50.1784L162.272 50.2801C162.217 50.8392 161.683 51.1484 161.12 51.3645L151.932 54.8675L152.818 57.1846L154.482 56.5492L154.872 56.4814C155.452 56.4772 156.261 56.8584 157.151 57.3582C157.071 57.803 156.799 58.2944 156.444 58.7052L154.36 61.2298L154.355 61.2383ZM162.365 57.0914C161.891 57.2735 161.417 57.3455 160.938 57.3455C159.155 57.354 157.376 56.3077 155.851 56.0324L163.17 53.241L163.331 53.6561C163.522 54.1559 163.602 54.6176 163.602 55.0285C163.602 56.0875 163.064 56.8245 162.365 57.0914Z" fill="white"/>
<path d="M160.023 76.7118C158.905 77.6225 158.151 78.995 158.155 80.7698L158.168 81.1637C158.274 82.8962 159.036 84.6075 160.417 85.6792L160.549 85.7809L160.773 85.497L160.866 85.3784L160.76 85.2725C159.752 84.2602 159.286 83.1546 159.252 82.0702V81.9516C159.252 80.6173 159.93 79.6769 160.955 79.0416C161.984 78.4104 163.361 78.1097 164.704 78.1097C165.881 78.1097 167.025 78.3426 167.877 78.7662C168.728 79.1941 169.266 79.7913 169.308 80.5241V80.6215C169.308 81.3289 168.825 81.8711 168.11 82.2651C167.398 82.6548 166.483 82.8708 165.725 82.9174L165.56 82.9259L165.568 83.1249V83.2012L165.632 83.2478C166.102 83.6205 166.551 84.3534 166.593 85.1328L166.602 85.298L166.771 85.2895C168.343 85.2005 169.855 83.7942 169.846 80.9774C169.846 80.8122 169.842 80.6385 169.829 80.4606C169.622 77.0041 166.843 75.3309 164.081 75.3394C162.611 75.3394 161.137 75.8011 160.019 76.716L160.023 76.7118Z" fill="white"/>
<path d="M168.245 101.492L168.177 101.568C167.957 101.814 167.677 101.894 167.351 101.894C167.11 101.894 166.851 101.848 166.606 101.78L157.092 99.3062L156.469 101.708L161.811 103.097L160.697 107.38L155.355 105.99L154.733 108.392L165.987 111.319L166.788 108.244L166.606 108.197L166.508 108.172L166.441 108.248C166.22 108.49 165.941 108.574 165.615 108.574C165.373 108.574 165.115 108.528 164.869 108.46L161.222 107.511L162.336 103.229L167.724 104.631L168.52 101.56L168.347 101.513L168.245 101.483V101.492Z" fill="white"/>
<path d="M15.3082 146.15L17.9895 152.898H17.1042L16.4942 151.339H13.3004L12.6904 152.898H11.8051L14.4864 146.15H15.304H15.3082ZM16.202 150.581L14.8973 147.205L13.5927 150.581H16.1977H16.202Z" fill="white"/>
<path d="M25.6183 149.526C25.6183 147.463 27.1771 146.057 29.0578 146.057C29.8838 146.057 30.9597 146.332 31.6925 147.379L31.1038 147.815C30.5446 147.065 29.744 146.845 29.079 146.845C27.6261 146.845 26.457 147.9 26.457 149.526C26.457 151.153 27.6346 152.237 29.079 152.237C30.193 152.237 31.1885 151.602 31.3494 150.166H29.4391V149.471H32.15C32.3195 151.678 30.8284 153 29.0409 153C27.2533 153 25.6183 151.593 25.6183 149.531V149.526Z" fill="white"/>
<path d="M35.67 150.483V146.15H36.4876V150.475C36.4876 151.674 37.2204 152.216 38.093 152.216C38.9656 152.216 39.6899 151.674 39.6899 150.475V146.15H40.5074V150.483C40.5074 152.101 39.4527 152.991 38.093 152.991C36.7333 152.991 35.67 152.097 35.67 150.483Z" fill="white"/>
<path d="M44.1083 146.15H44.9258V152.898H44.1083V146.15Z" fill="white"/>
<path d="M48.5177 146.15H49.3352V152.139H52.2919V152.902H48.5177V146.154V146.15Z" fill="white"/>
<path d="M56.4895 146.912H54.702V146.15H59.0946V146.912H57.307V152.902H56.4895V146.912Z" fill="white"/>
<path d="M66.9604 146.15H70.5906V146.891H67.778V149.153H70.3449V149.856H67.778V152.898H66.9604V146.15Z" fill="white"/>
<path d="M76.3009 150.505H74.865V152.902H74.0474V146.155H76.2247C77.6522 146.155 78.5248 147.065 78.5248 148.353C78.5248 149.361 77.991 150.102 77.0888 150.386L78.7704 152.907H77.8767L76.2967 150.509L76.3009 150.505ZM76.1315 149.785C77.0803 149.785 77.6903 149.298 77.6903 148.349C77.6903 147.4 77.0803 146.913 76.1315 146.913H74.8692V149.785H76.1315Z" fill="white"/>
<path d="M82.1758 146.15H85.7975V146.912H82.9933V149.136H85.3781V149.886H82.9933V152.139H85.8822V152.902H82.1758V146.154V146.15Z" fill="white"/>
<path d="M89.3389 146.15H92.9606V146.912H90.1565V149.136H92.5413V149.886H90.1565V152.139H93.0453V152.902H89.3389V146.154V146.15Z" fill="white"/>
<path d="M101.009 146.15H103.034C105.029 146.15 106.35 147.518 106.35 149.526C106.35 151.534 105.029 152.902 103.034 152.902H101.009V146.154V146.15ZM103.004 152.118C104.61 152.118 105.503 151.08 105.503 149.522C105.503 147.963 104.61 146.925 103.004 146.925H101.827V152.114H103.004V152.118Z" fill="white"/>
<path d="M109.756 146.15H113.377V146.912H110.573V149.136H112.958V149.886H110.573V152.139H113.462V152.902H109.756V146.154V146.15Z" fill="white"/>
<path d="M116.445 149.526C116.445 147.463 117.995 146.057 119.884 146.057C120.71 146.057 121.786 146.332 122.519 147.379L121.922 147.815C121.362 147.065 120.562 146.845 119.905 146.845C118.461 146.845 117.279 147.908 117.279 149.526C117.279 151.144 118.457 152.208 119.914 152.208C120.57 152.208 121.358 151.987 121.922 151.238L122.519 151.674C121.786 152.72 120.723 152.995 119.884 152.995C117.991 152.995 116.445 151.589 116.445 149.526Z" fill="white"/>
<path d="M125.924 146.15H126.742V152.898H125.924V146.15Z" fill="white"/>
<path d="M130.101 151.352L130.774 151.039C130.965 151.742 131.554 152.238 132.363 152.238C133.074 152.238 133.693 151.848 133.693 151.077C133.693 150.382 133.197 150.077 132.409 149.764L131.964 149.59C130.973 149.192 130.376 148.641 130.376 147.765C130.376 146.718 131.223 146.053 132.316 146.053C133.409 146.053 134.082 146.727 134.349 147.46L133.722 147.781C133.456 147.171 133.019 146.803 132.337 146.803C131.689 146.803 131.194 147.163 131.194 147.773C131.194 148.247 131.477 148.62 132.278 148.934L132.735 149.116C133.837 149.552 134.531 150.048 134.531 151.085C134.531 152.331 133.498 152.996 132.363 152.996C131.227 152.996 130.329 152.322 130.101 151.352Z" fill="white"/>
<path d="M137.891 146.15H138.708V152.898H137.891V146.15Z" fill="white"/>
<path d="M142.207 149.526C142.207 147.455 143.804 146.057 145.638 146.057C147.472 146.057 149.061 147.455 149.061 149.526C149.061 151.598 147.464 152.995 145.638 152.995C143.812 152.995 142.207 151.598 142.207 149.526ZM145.638 152.208C146.998 152.208 148.222 151.161 148.222 149.526C148.222 147.891 146.993 146.845 145.638 146.845C144.282 146.845 143.041 147.891 143.041 149.526C143.041 151.161 144.27 152.208 145.638 152.208Z" fill="white"/>
<path d="M152.564 146.15H153.39L157.172 151.529H157.219V146.15H158.036V152.898H157.21L153.428 147.518H153.381V152.898H152.564V146.15Z" fill="white"/>
</svg>
