<svg width="110" height="110" viewBox="0 0 110 110" fill="none" xmlns="http://www.w3.org/2000/svg">
<path d="M49.3396 0.343693C49.0188 0.572857 48.5375 1.62703 47.8959 3.57494L46.9334 6.46244L45.9021 6.89786C45.3292 7.12703 44.7563 7.33327 44.5959 7.33327C44.4354 7.33327 43.198 6.80619 41.8 6.18744C40.0584 5.38536 39.1417 5.06453 38.7521 5.17911C37.1021 5.56869 31.2125 11.4354 30.8229 13.0854C30.7313 13.452 31.0521 14.4145 31.8542 16.1333C32.4729 17.5312 33 18.7687 33 18.9291C33 19.0895 32.7938 19.6624 32.5646 20.2354L32.1292 21.2666L29.2417 22.2291C27.2938 22.8708 26.2396 23.352 26.0104 23.6729C25.5063 24.4062 25.5063 34.2604 26.0104 34.9937C26.2396 35.3145 27.2938 35.7958 29.2188 36.4374L32.0834 37.3999L32.5417 38.4312C32.7938 39.0041 33 39.5999 33 39.7604C33 39.9208 32.4729 41.1812 31.8313 42.602C31.0063 44.4354 30.7313 45.2833 30.8459 45.6499C31.3959 47.3916 37.1479 53.1208 38.7521 53.4874C39.1417 53.602 40.0584 53.2812 41.8 52.4791C43.198 51.8604 44.4354 51.3333 44.5959 51.3333C44.7334 51.3333 45.3292 51.5395 45.9021 51.7916L46.9334 52.2499L47.8959 55.1145C48.5375 57.0395 49.0188 58.0937 49.3396 58.3229C50.073 58.827 59.9271 58.827 60.6604 58.3229C60.9813 58.0937 61.4625 57.0624 62.0813 55.1604L63.0209 52.3187L64.3042 51.8145L65.5646 51.2874L68.1771 52.4791C70.0563 53.327 70.95 53.602 71.3167 53.5104C72.9896 52.9833 78.6271 47.3458 79.1542 45.6729C79.2688 45.2833 78.9938 44.4124 78.123 42.5333L76.9542 39.8979L77.4813 38.6374L77.9855 37.3541L80.8271 36.4145C82.7292 35.7958 83.7605 35.3145 83.9896 34.9937C84.4938 34.2604 84.4938 24.4062 83.9896 23.6729C83.7605 23.352 82.7292 22.8708 80.8271 22.252L77.9855 21.3124L77.4813 20.0291L76.9542 18.7687L78.123 16.1333C79.475 13.177 79.475 13.1083 78.123 11.3437C77.1604 10.0604 73.8834 6.82911 72.6459 5.91244C71.248 4.88119 71.0417 4.90411 68.1771 6.18744L65.5646 7.37911L64.3042 6.85202L63.0209 6.34786L62.0813 3.50619C61.4625 1.60411 60.9813 0.572857 60.6604 0.343693C60.248 0.0686913 59.2167 -5.72205e-05 55 -5.72205e-05C50.7834 -5.72205e-05 49.7521 0.0686913 49.3396 0.343693ZM59.1021 6.23328C59.5605 7.58536 60.0875 8.84578 60.2709 9.02911C60.7292 9.46453 65.1063 11.2291 65.725 11.2291C66 11.2291 67.1688 10.7708 68.2917 10.1979C69.4146 9.62494 70.4917 9.16661 70.6979 9.16661C71.1105 9.16661 75.1667 13.177 75.1667 13.5895C75.1667 13.7729 74.7084 14.8499 74.1354 16.0187C73.5625 17.1874 73.1042 18.3562 73.1042 18.6312C73.1042 19.227 74.8688 23.6041 75.2813 24.0395C75.4646 24.2229 76.7021 24.7499 78.0771 25.2083L80.5521 26.0562V29.3333V32.6104L78.1 33.4354C76.748 33.8937 75.4875 34.4208 75.3042 34.6041C74.8229 35.1083 73.1042 39.3249 73.1042 39.9895C73.1042 40.3104 73.5625 41.502 74.1354 42.6249C74.7084 43.7479 75.1667 44.8249 75.1667 45.0312C75.1667 45.4666 71.1334 49.4999 70.6979 49.4999C70.4917 49.4999 69.4146 49.0416 68.2917 48.4687C67.1688 47.8958 66 47.4374 65.7021 47.4374C65.0375 47.4374 60.7521 49.1791 60.2709 49.6374C60.0875 49.8208 59.5605 51.0812 59.1021 52.4333L58.2771 54.8854H55H51.7229L50.875 52.3874C50.3709 50.852 49.8667 49.752 49.5459 49.4999C48.8813 48.9499 45.0542 47.4374 44.3438 47.4374C44.0229 47.4374 42.8313 47.8958 41.7084 48.4687C40.5854 49.0416 39.5084 49.4999 39.3021 49.4999C38.8667 49.4999 34.8334 45.4666 34.8334 45.0312C34.8334 44.8249 35.2917 43.7479 35.8646 42.6249C36.4375 41.502 36.8959 40.3104 36.8959 39.9895C36.8959 39.2791 35.3834 35.452 34.8334 34.7874C34.5813 34.4666 33.4813 33.9624 31.9459 33.4583L29.4479 32.6104V29.3333V26.0562L31.9229 25.2083C33.2979 24.7499 34.5584 24.2229 34.7188 24.0395C35.2229 23.5354 36.8959 19.4791 36.8959 18.7458C36.8959 18.3791 36.4375 17.1645 35.8646 16.0416C35.2917 14.9187 34.8334 13.8416 34.8334 13.6354C34.8334 13.1999 38.8667 9.16661 39.3021 9.16661C39.5084 9.16661 40.5854 9.62494 41.7084 10.1979C42.8313 10.7708 44.0459 11.2291 44.3896 11.2291C45.1917 11.2291 49.3396 9.48744 49.7979 8.98328C49.9813 8.77703 50.4625 7.56244 50.875 6.30202C51.2875 5.04161 51.6771 3.94161 51.7229 3.82703C51.7917 3.73536 53.2813 3.68953 55.0459 3.71244L58.2771 3.78119L59.1021 6.23328Z" fill="url(#paint0_linear_217_10)"/>
<path d="M52.1356 13.0625C48.8127 13.6812 45.9481 15.2167 43.4044 17.7375C41.3419 19.8 40.1273 21.7479 39.2335 24.475C38.7294 26.0104 38.6606 26.6521 38.6377 29.3333C38.6377 32.0833 38.7064 32.6333 39.2564 34.2604C40.1273 36.8958 41.3419 38.7979 43.4273 40.9292C45.4669 42.9917 47.3919 44.1833 50.1419 45.1C51.6773 45.6042 52.296 45.6958 55.0002 45.6729C57.7273 45.6729 58.3002 45.6042 59.9273 45.0771C62.5627 44.2062 64.4877 42.9917 66.5731 40.9062C68.6585 38.8208 69.8731 36.8958 70.7439 34.2604C71.271 32.6333 71.3398 32.0604 71.3398 29.3333C71.3627 26.6292 71.271 26.0104 70.7669 24.475C69.8731 21.7479 68.6585 19.8 66.596 17.7375C63.4335 14.575 60.0189 13.0854 55.6877 12.9479C54.3585 12.9021 52.7773 12.9479 52.1356 13.0625ZM57.4294 16.7521C60.6148 17.325 63.8689 19.5479 65.771 22.4812C67.1919 24.7041 67.7189 26.4916 67.7189 29.3333C67.7189 32.175 67.1919 33.9625 65.771 36.1854C64.0752 38.8208 61.7606 40.5625 58.6669 41.6167C56.7648 42.2583 53.0752 42.2125 51.0585 41.525C43.1752 38.8208 39.8523 29.8375 44.0689 22.6416C44.9398 21.1521 47.0481 19.1354 48.6752 18.2416C51.5627 16.6604 54.3127 16.1791 57.4294 16.7521Z" fill="url(#paint1_linear_217_10)"/>
<path d="M48.8578 21.6792C48.3078 22.0459 48.2391 22.3896 48.5828 22.9167C48.7432 23.1917 49.4766 23.2834 51.7224 23.3979C53.8536 23.4896 54.862 23.6271 55.412 23.9021C55.8016 24.1313 56.1453 24.4063 56.1453 24.5209C56.1453 24.6584 54.7474 24.75 52.6161 24.75C49.7057 24.75 49.0182 24.8188 48.7203 25.1167C48.262 25.5521 48.262 25.6896 48.6745 26.2625C48.9724 26.6521 49.362 26.6979 52.9141 26.7667C55.0682 26.8125 56.8328 26.9271 56.8328 27.0188C56.8328 27.4542 55.9849 28.2792 55.137 28.6688C54.4036 28.9896 53.6474 29.1042 51.7682 29.1042C49.7286 29.1042 49.2245 29.1729 48.7891 29.5167C48.4911 29.7688 48.3307 30.0896 48.3995 30.2959C48.5599 30.6625 55.4578 36.4146 56.3057 36.85C57.0161 37.2396 57.4516 37.1938 57.9786 36.6667C58.6432 36.0021 58.4141 35.7042 55.4578 33.3438L52.9141 31.2813L54.3578 31.0521C56.8786 30.6167 58.8036 29.2875 59.3536 27.5917C59.5599 26.9729 59.7661 26.7896 60.4078 26.675C61.0724 26.5604 61.6453 26.0563 61.6453 25.575C61.6453 25.2313 60.8203 24.75 60.1786 24.75C59.6286 24.75 59.3078 24.5896 58.9411 24.0625L58.4141 23.375H59.6745C61.4849 23.375 62.2641 22.4584 61.1411 21.6792C60.7057 21.3813 59.7203 21.3125 54.9995 21.3125C50.2786 21.3125 49.2932 21.3813 48.8578 21.6792Z" fill="url(#paint2_linear_217_10)"/>
<path d="M14.4375 51.4937C8.50208 52.4792 3.66667 58.1854 3.66667 64.1667C3.66667 67.0083 4.99583 70.4229 6.89792 72.5083C7.90625 73.6083 7.99792 73.8146 7.63125 73.9292C3.85 75.1667 1.03125 78.2375 0.252083 81.9958C0.0916667 82.7979 0 87.5646 0 96.0437V108.877L0.572917 109.427L1.12292 110H15.4458C23.3062 110 29.9292 109.931 30.1354 109.862C31.0979 109.473 31.1667 108.854 31.1667 99.8021C31.1667 93.0646 31.2354 91.2083 31.4646 91.2312C31.6021 91.2312 34.0542 92.0333 36.8958 93.0187L42.0521 94.7833L42.1667 100.123C42.2812 105.394 42.2812 105.463 42.8312 105.898C43.3354 106.31 43.8854 106.333 55 106.333C66.1146 106.333 66.6646 106.31 67.1688 105.898C67.7188 105.463 67.7188 105.394 67.8333 100.146L67.9479 94.8292L73.1958 93.0187C76.0833 92.0104 78.5354 91.2083 78.6271 91.2083C78.7417 91.2083 78.8563 95.2417 78.8792 100.169L78.9479 109.129L79.4979 109.565C80.0021 109.977 80.5979 110 94.4625 110H108.877L109.427 109.427L110 108.877V96.0437C110 87.5646 109.908 82.7979 109.748 81.9958C108.969 78.2375 106.15 75.1667 102.369 73.9292C102.002 73.8146 102.094 73.6312 103.056 72.5542C104.981 70.4688 106.333 67.0083 106.333 64.1667C106.333 62.5625 105.738 60.2021 104.935 58.5062C104.065 56.65 101.36 53.8542 99.5271 52.8687C98.0375 52.0896 95.1729 51.3333 93.6146 51.3333C89.5125 51.3333 85.4104 53.4187 83.1188 56.65C81.5604 58.8729 80.85 60.8896 80.7125 63.4792C80.5521 66.9396 81.4229 69.6208 83.6458 72.3479C84.3792 73.2875 84.6771 73.7917 84.4479 73.7917C83.8292 73.7917 81.2854 74.9604 79.7271 75.9688C77.6188 77.3208 77.6646 77.3208 72.5312 79.5208L67.9479 81.5146L67.8333 77.8479C67.7188 74.3646 67.6958 74.1812 67.1688 73.7687C66.6646 73.3563 66.1146 73.3333 54.9542 73.3333H43.2896L42.7396 73.9062C42.1896 74.4333 42.1667 74.5479 42.1667 78.0083V81.5375L39.6 80.4375C34.0542 78.1 32.3354 77.275 30.2271 75.9458C29.0354 75.1896 27.4083 74.3875 26.6292 74.1583L25.2313 73.7229L26.2625 72.4625C28.5083 69.6896 29.4479 66.9167 29.2875 63.4792C29.15 60.8896 28.4396 58.8729 26.8813 56.65C24.1771 52.8229 19.0896 50.7146 14.4375 51.4937ZM18.9062 55.3438C21.5188 56.0312 24.0854 58.2542 24.9563 60.6375C25.2313 61.325 25.4375 61.9896 25.4375 62.1042C25.4375 62.425 23.925 62.3792 22.5729 62.0125C20.9458 61.6 19.6625 60.8896 18.3333 59.6979C16.7292 58.2771 16.2021 58.3229 14.1396 60.1792C12.8333 61.3479 11.0229 62.0812 8.98333 62.2646C7.51667 62.4021 7.51667 62.4021 7.67708 61.8521C8.06667 60.4771 9.12083 58.6896 10.1062 57.7042C12.4667 55.3667 15.6521 54.4958 18.9062 55.3438ZM97.2812 55.8708C99.6417 56.9937 101.59 59.2854 102.323 61.8521C102.483 62.4021 102.483 62.4021 101.017 62.2646C98.9771 62.0812 97.1667 61.3479 95.8604 60.1792C93.775 58.3229 93.3167 58.2771 91.6208 59.7208C89.9479 61.1646 87.9771 62.0812 86.0979 62.2646C85.0438 62.3563 84.5625 62.3104 84.5625 62.15C84.5625 61.3708 85.6396 59.2167 86.5333 58.2542C88.6188 55.9167 90.9563 54.9312 94.0042 55.0917C95.3792 55.1604 96.1354 55.3438 97.2812 55.8708ZM20.1667 65.1063C21.6562 65.6562 23.3292 66 24.5667 66C25.4604 66 25.4833 66.0229 25.3229 66.6187C24.8188 68.75 22.5958 71.4312 20.5562 72.3708C15.9729 74.5021 10.5188 72.6688 8.43333 68.2917C7.35625 66.0229 7.33333 66.0917 9.14375 65.9083C11.275 65.725 13.3375 65.0604 15.1021 63.9833L16.5688 63.0896L17.7375 63.8687C18.3792 64.2812 19.4792 64.8542 20.1667 65.1063ZM96.0667 64.625C97.6021 65.4271 99.8021 66 101.36 66C102.392 66 102.46 66.0229 102.323 66.5042C100.742 72.0271 94.6458 74.8229 89.4667 72.3937C87.3354 71.3854 85.1813 68.8187 84.6771 66.6646C84.5396 66.0687 84.5396 66.0687 86.1208 65.9312C88.3208 65.725 90.4062 65.0146 92.0333 63.9604L93.3854 63.0667L94.0729 63.525C94.4625 63.7542 95.3563 64.2583 96.0667 64.625ZM12.4438 77.5729C12.4208 77.825 12.0542 80.3229 11.6646 83.1187L10.9542 88.2292L12.925 93.2021C14.0479 96.0208 15.125 98.3812 15.4 98.5875C15.6521 98.8167 16.1562 99 16.5 99C16.8438 99 17.3479 98.8167 17.6 98.5875C17.875 98.3812 18.9521 96.0208 20.075 93.2021L22.0458 88.2292L21.3354 83.1187C20.9458 80.3229 20.5562 77.7792 20.4875 77.4813L20.3729 76.9312L22.3896 77.0687C24.9333 77.2292 26.0333 77.6187 28.6229 79.2687C29.9292 80.1167 32.8167 81.5146 36.4375 83.0729L42.1667 85.525V88.2521V90.9562L36.2771 88.9396C28.8292 86.3958 29.1271 86.4417 28.2104 87.1979L27.5 87.8167V97.075V106.333H15.5833H3.64375L3.7125 94.3479C3.78125 82.4083 3.78125 82.3854 4.30833 81.2396C5.54583 78.5583 8.41042 76.9312 11.6875 77.0917C12.3521 77.1146 12.4896 77.2062 12.4438 77.5729ZM16.8438 77.7333C16.9125 78.1458 17.2563 80.575 17.6229 83.1187L18.2875 87.7708L17.4625 89.8333C17.0271 90.9562 16.5917 91.8958 16.5 91.8958C16.4083 91.8958 15.9729 90.9562 15.5375 89.8333L14.7125 87.7708L15.3771 83.1187C16.225 77.1833 16.2479 77 16.5 77C16.6146 77 16.775 77.3438 16.8438 77.7333ZM64.1667 89.8333V102.667H55H45.8333V89.8333V77H55H64.1667V89.8333ZM89.4896 77.5042C89.4437 77.8021 89.0542 80.3229 88.6646 83.1187L87.9542 88.2292L89.925 93.2021C91.0479 96.0208 92.125 98.3812 92.4 98.5875C92.9958 99.1146 94.0042 99.1146 94.6 98.5875C94.875 98.3812 95.9521 96.0208 97.075 93.2021L99.0458 88.2292L98.2667 82.7062C97.8083 79.4979 97.5563 77.1604 97.6937 77.0687C98.0375 76.8625 100.627 77.2062 101.842 77.6417C103.354 78.1687 105.004 79.6812 105.669 81.1708L106.219 82.3854L106.288 94.3479L106.356 106.333H94.4167H82.5V97.0979C82.5 88.2292 82.4771 87.8396 82.0417 87.3813C81.8125 87.1062 81.4 86.8312 81.125 86.7396C80.8271 86.6479 78.3521 87.3813 74.25 88.7792L67.8333 90.9562V88.275V85.5708L73.5854 83.0729C76.7708 81.6979 80.1167 80.0938 81.0333 79.4979C84.0354 77.55 85.4333 77.0458 88.0687 77.0229C89.5583 77 89.6042 77.0229 89.4896 77.5042ZM93.8438 77.7333C93.9125 78.1458 94.2562 80.575 94.6229 83.1187L95.2875 87.7708L94.4625 89.8333C94.0271 90.9562 93.5917 91.8958 93.5 91.8958C93.4083 91.8958 92.9729 90.9562 92.5375 89.8333L91.7125 87.7708L92.3771 83.1187C93.225 77.1833 93.2479 77 93.5 77C93.6146 77 93.775 77.3438 93.8438 77.7333Z" fill="url(#paint3_linear_217_10)"/>
<path d="M51.3335 82.5V84.3334H55.0002H58.6668V82.5V80.6667H55.0002H51.3335V82.5Z" fill="url(#paint4_linear_217_10)"/>
<path d="M49.4995 89.8334V91.6667H54.9995H60.4995V89.8334V88H54.9995H49.4995V89.8334Z" fill="url(#paint5_linear_217_10)"/>
<path d="M49.4995 97.1666V98.9999H54.9995H60.4995V97.1666V95.3333H54.9995H49.4995V97.1666Z" fill="url(#paint6_linear_217_10)"/>
<defs>
<linearGradient id="paint0_linear_217_10" x1="55" y1="-5.72205e-05" x2="55" y2="58.701" gradientUnits="userSpaceOnUse">
<stop stop-color="#6BC629"/>
<stop offset="0.54" stop-color="#2956C8"/>
<stop offset="1" stop-color="#7522C8"/>
</linearGradient>
<linearGradient id="paint1_linear_217_10" x1="54.9903" y1="12.9303" x2="54.9903" y2="45.6761" gradientUnits="userSpaceOnUse">
<stop stop-color="#6BC629"/>
<stop offset="0.54" stop-color="#2956C8"/>
<stop offset="1" stop-color="#7522C8"/>
</linearGradient>
<linearGradient id="paint2_linear_217_10" x1="55.017" y1="21.3125" x2="55.017" y2="37.1075" gradientUnits="userSpaceOnUse">
<stop stop-color="#6BC629"/>
<stop offset="0.54" stop-color="#2956C8"/>
<stop offset="1" stop-color="#7522C8"/>
</linearGradient>
<linearGradient id="paint3_linear_217_10" x1="55" y1="51.3331" x2="55" y2="110" gradientUnits="userSpaceOnUse">
<stop stop-color="#6BC629"/>
<stop offset="0.54" stop-color="#2956C8"/>
<stop offset="1" stop-color="#7522C8"/>
</linearGradient>
<linearGradient id="paint4_linear_217_10" x1="55.0002" y1="80.6667" x2="55.0002" y2="84.3334" gradientUnits="userSpaceOnUse">
<stop stop-color="#6BC629"/>
<stop offset="0.54" stop-color="#2956C8"/>
<stop offset="1" stop-color="#7522C8"/>
</linearGradient>
<linearGradient id="paint5_linear_217_10" x1="54.9995" y1="88" x2="54.9995" y2="91.6667" gradientUnits="userSpaceOnUse">
<stop stop-color="#6BC629"/>
<stop offset="0.54" stop-color="#2956C8"/>
<stop offset="1" stop-color="#7522C8"/>
</linearGradient>
<linearGradient id="paint6_linear_217_10" x1="54.9995" y1="95.3333" x2="54.9995" y2="98.9999" gradientUnits="userSpaceOnUse">
<stop stop-color="#6BC629"/>
<stop offset="0.54" stop-color="#2956C8"/>
<stop offset="1" stop-color="#7522C8"/>
</linearGradient>
</defs>
</svg>
