<svg width="32" height="32" viewBox="0 0 32 32" fill="none" xmlns="http://www.w3.org/2000/svg">
<path d="M24.9467 9.61339C24.8227 9.48842 24.6752 9.38923 24.5128 9.32154C24.3503 9.25384 24.176 9.21899 24 9.21899C23.824 9.21899 23.6497 9.25384 23.4872 9.32154C23.3248 9.38923 23.1773 9.48842 23.0533 9.61339L13.12 19.5601L8.94667 15.3734C8.81797 15.2491 8.66605 15.1513 8.49958 15.0857C8.3331 15.0201 8.15534 14.9879 7.97643 14.991C7.79752 14.9941 7.62098 15.0324 7.45687 15.1038C7.29277 15.1751 7.14432 15.278 7.02 15.4067C6.89568 15.5354 6.79793 15.6873 6.73232 15.8538C6.66672 16.0203 6.63454 16.1981 6.63764 16.377C6.64074 16.5559 6.67904 16.7324 6.75036 16.8965C6.82169 17.0606 6.92464 17.2091 7.05333 17.3334L12.1733 22.4534C12.2973 22.5784 12.4448 22.6776 12.6072 22.7452C12.7697 22.8129 12.944 22.8478 13.12 22.8478C13.296 22.8478 13.4703 22.8129 13.6328 22.7452C13.7952 22.6776 13.9427 22.5784 14.0667 22.4534L24.9467 11.5734C25.082 11.4485 25.19 11.297 25.2639 11.1283C25.3378 10.9597 25.3759 10.7775 25.3759 10.5934C25.3759 10.4093 25.3378 10.2271 25.2639 10.0585C25.19 9.88978 25.082 9.73825 24.9467 9.61339Z" fill="white"/>
</svg>
