<svg width="93" height="96" viewBox="0 0 93 96" fill="none" xmlns="http://www.w3.org/2000/svg">
<path d="M19.8443 0.0483871C20.0803 0.0478312 20.3163 0.0472753 20.5594 0.0467025C21.2123 0.0451989 21.8653 0.0448582 22.5182 0.0447198C23.2232 0.0443724 23.9283 0.0429598 24.6334 0.0417009C26.1743 0.0391637 27.7152 0.0380329 29.2561 0.0372085C30.2192 0.0366909 31.1823 0.035898 32.1454 0.0350561C34.8146 0.0327753 37.4837 0.0308483 40.1529 0.0302149C40.409 0.0301533 40.409 0.0301533 40.6702 0.0300904C40.9269 0.0300292 40.9269 0.0300292 41.1887 0.0299667C41.5355 0.0298837 41.8822 0.0298002 42.2289 0.029716C42.4009 0.0296746 42.5728 0.0296332 42.75 0.0295905C45.5344 0.0288524 48.3188 0.0255884 51.1031 0.0212294C53.9652 0.016785 56.8273 0.0144606 59.6894 0.0142427C61.295 0.0140716 62.9005 0.0130058 64.5061 0.00959903C65.8738 0.00670723 67.2414 0.00576553 68.6091 0.00730485C69.3059 0.00803216 70.0027 0.00787957 70.6995 0.00523604C76.0799 -0.0140092 76.0799 -0.0140091 78.3107 0.635959C78.5327 0.699903 78.5327 0.699903 78.7592 0.765139C83.1771 2.16509 87.2742 5.08139 89.7237 9.05538C89.8465 9.24905 89.9693 9.44272 90.0957 9.64226C92.8696 14.152 93.6461 19.6306 92.4359 24.7764C91.6505 27.9028 90.2554 30.5144 88.2269 33.004C88.1124 33.1494 87.9978 33.2948 87.8798 33.4447C86.2232 35.4403 84.0688 36.8557 81.8079 38.079C81.6367 38.1731 81.6367 38.1731 81.462 38.2691C81.1172 38.4298 81.1172 38.4298 80.401 38.5921C79.7687 38.9283 79.7687 38.9283 79.6408 39.5095C79.5198 40.2159 79.441 40.9208 79.3749 41.6339C79.3464 41.8901 79.3172 42.1463 79.2875 42.4023C79.1827 43.3221 79.0941 44.2432 79.0048 45.1645C78.9748 45.4729 78.944 45.7812 78.9121 46.0894C78.875 46.4575 78.844 46.8262 78.8136 47.1949C78.6621 47.8894 78.4437 48.2267 77.9365 48.7202C77.303 48.8469 77.0358 48.8915 76.4398 48.7202C76.0906 48.4759 76.0906 48.4759 75.7411 48.156C75.6112 48.0374 75.4814 47.9188 75.3477 47.7966C74.5318 47.0183 73.7414 46.2161 72.9514 45.4117C72.2337 44.6861 71.5088 43.9944 70.7213 43.345C70.3541 43.0027 70.0554 42.6739 69.7401 42.2874C68.7787 41.1498 67.9228 40.1952 66.3865 40.01C65.6001 39.9682 64.821 39.9804 64.0343 40.0041C63.694 40.0048 63.3538 40.0043 63.0136 40.0027C62.1268 40.0017 61.2409 40.0162 60.3543 40.0342C59.4462 40.0498 58.538 40.0504 57.6298 40.0523C55.8542 40.0582 54.0793 40.0806 52.3041 40.1137C52.2195 40.3299 52.2195 40.3299 52.1332 40.5504C51.915 41.0857 51.6552 41.5739 51.373 42.0782C51.2088 42.372 51.2088 42.372 51.0414 42.6716C50.8676 42.9799 50.8676 42.9799 50.6903 43.2944C50.5724 43.504 50.4546 43.7136 50.3331 43.9296C47.9306 48.1835 47.9306 48.1835 47.2524 48.7202C46.2186 48.8703 46.2186 48.8703 45.7556 48.7202C45.0983 47.9947 44.5946 47.2639 44.1134 46.4078C44.0197 46.2424 44.0197 46.2424 43.9241 46.0737C43.7267 45.7248 43.5308 45.3749 43.335 45.025C43.1402 44.679 42.9451 44.3332 42.7498 43.9875C42.6229 43.7628 42.4962 43.5379 42.3697 43.313C41.898 42.4763 41.4047 41.6549 40.8965 40.84C40.704 40.4879 40.704 40.4879 40.704 40.1137C38.7716 40.0465 36.84 40.0015 34.9065 39.9833C34.008 39.9742 33.111 39.958 32.2131 39.9245C27.6989 39.6021 27.6989 39.6021 23.7586 41.4053C23.0183 42.1231 22.3959 42.9276 21.7941 43.7619C21.257 44.4577 20.6121 44.9847 19.936 45.5396C19.6699 45.7946 19.4064 46.0526 19.1482 46.3157C19.0196 46.4457 18.8911 46.5757 18.7586 46.7097C18.6301 46.8406 18.5015 46.9716 18.3691 47.1065C18.1069 47.3735 17.8443 47.64 17.5812 47.9061C17.4673 48.0222 17.3534 48.1383 17.236 48.2579C16.689 48.7708 16.1915 48.7652 15.4588 48.8182C14.8317 48.6596 14.667 48.3244 14.3231 47.7847C14.1682 47.1826 14.1106 46.5778 14.052 45.9598C14.0327 45.7843 14.0134 45.6089 13.9936 45.4281C13.9328 44.8691 13.8764 44.3099 13.8203 43.7504C13.7612 43.1905 13.7013 42.6306 13.6409 42.0708C13.6038 41.7229 13.5675 41.375 13.5322 41.0269C13.5159 40.8689 13.4996 40.7109 13.4828 40.5482C13.4689 40.4097 13.455 40.2713 13.4406 40.1286C13.3621 39.5501 13.3621 39.5501 13.2005 38.9911C12.7408 38.7199 12.3044 38.4961 11.8207 38.2778C11.5445 38.1458 11.2687 38.013 10.9933 37.8795C10.8581 37.8141 10.723 37.7487 10.5837 37.6813C5.792 35.3029 2.5441 30.8753 0.852016 25.8942C-0.572767 20.8296 -0.167117 15.2142 2.36854 10.5573C5.33019 5.35648 9.75472 2.00738 15.4822 0.432051C16.9519 0.0804739 18.3372 0.0472762 19.8443 0.0483871ZM7.47062 8.54744C4.20139 12.2845 2.81405 16.8513 3.0972 21.7781C3.63457 26.3776 5.97964 30.6264 9.58717 33.5302C11.3313 34.8786 13.3593 35.8997 15.4793 36.507C16.01 36.8794 16.0579 37.451 16.1941 38.0556C16.2702 38.5334 16.3365 39.0129 16.3943 39.4932C16.4104 39.6243 16.4265 39.7553 16.4431 39.8903C16.4936 40.3038 16.5427 40.7174 16.5917 41.1311C16.6259 41.4135 16.6603 41.696 16.6947 41.9785C16.7784 42.6665 16.8608 43.3546 16.9425 44.0428C17.8778 43.2512 18.7859 42.4379 19.6788 41.5988C19.872 41.4177 19.872 41.4177 20.0692 41.2329C21.038 40.3203 21.9854 39.3884 22.9158 38.4367C23.7553 37.5829 24.2094 37.2655 25.4267 37.2503C25.5895 37.2502 25.7522 37.25 25.9198 37.2499C26.0918 37.2484 26.2637 37.2468 26.4409 37.2452C27.0104 37.2407 27.5798 37.239 28.1494 37.2378C28.5448 37.2361 28.9403 37.2344 29.3358 37.2327C30.1653 37.2296 30.9948 37.2282 31.8243 37.2276C32.8874 37.2266 33.9504 37.2196 35.0134 37.211C35.8304 37.2055 36.6474 37.2041 37.4644 37.2039C37.8563 37.2031 38.2482 37.2008 38.6402 37.1969C39.1885 37.1919 39.7364 37.1928 40.2847 37.1951C40.4467 37.1923 40.6086 37.1895 40.7755 37.1867C41.5866 37.1966 41.9108 37.2256 42.566 37.7459C42.9911 38.2972 43.342 38.8527 43.6822 39.4603C43.7464 39.574 43.8107 39.6876 43.8768 39.8046C44.0797 40.1641 44.2804 40.5248 44.481 40.8855C44.6841 41.2473 44.8876 41.6089 45.0912 41.9703C45.2749 42.2971 45.4576 42.6244 45.6403 42.9517C45.8525 43.3234 46.0795 43.6867 46.3169 44.0428C46.9568 43.8295 46.9841 43.764 47.2831 43.1994C47.3571 43.0623 47.4312 42.9251 47.5074 42.7839C47.6243 42.5619 47.6243 42.5619 47.7435 42.3355C47.9096 42.0288 48.076 41.7224 48.2427 41.4161C48.3267 41.2612 48.4108 41.1063 48.4973 40.9467C48.8765 40.256 49.2709 39.5752 49.673 38.8976C49.7754 38.7213 49.7754 38.7213 49.8799 38.5416C50.2151 37.9799 50.4401 37.6768 50.9944 37.3072C51.5571 37.2659 52.1029 37.2464 52.666 37.244C52.837 37.2418 53.0081 37.2397 53.1843 37.2374C53.7511 37.231 54.3179 37.2276 54.8847 37.2247C55.0784 37.2234 55.2721 37.2221 55.4717 37.2207C56.4973 37.214 57.5229 37.2096 58.5485 37.2071C59.6066 37.204 60.6644 37.193 61.7224 37.1803C62.537 37.1719 63.3516 37.1694 64.1662 37.1684C64.5561 37.1669 64.946 37.1633 65.3359 37.1573C65.8828 37.1496 66.4291 37.1501 66.9761 37.1526C67.136 37.1485 67.296 37.1444 67.4607 37.1401C68.5962 37.1578 69.1517 37.5045 69.9583 38.2949C70.0597 38.4011 70.1611 38.5074 70.2655 38.6169C70.4101 38.7555 70.5547 38.894 70.7037 39.0368C70.8195 39.1549 70.9354 39.2729 71.0548 39.3946C71.1868 39.5279 71.3187 39.6613 71.4546 39.7987C71.7221 40.0711 71.9896 40.3434 72.2571 40.6158C73.4648 41.8368 74.7462 42.9457 76.0656 44.0428C76.1037 43.7326 76.1037 43.7326 76.1425 43.4162C76.2374 42.6491 76.3354 41.8825 76.4344 41.1159C76.4768 40.7841 76.5183 40.4522 76.559 40.1202C76.6176 39.6429 76.6793 39.1661 76.7416 38.6893C76.7592 38.5408 76.7767 38.3922 76.7948 38.2392C76.897 37.4819 76.9656 37.0447 77.5623 36.5588C78.0594 36.3425 78.553 36.1429 79.0591 35.9508C83.4587 34.198 86.7523 30.9518 88.6407 26.6262C89.0164 25.7151 89.2996 24.7917 89.5366 23.8362C89.5996 23.5938 89.5996 23.5938 89.6638 23.3465C90.6463 18.9187 89.4567 14.3404 87.1044 10.5522C86.5807 9.82906 86.0177 9.1573 85.4205 8.49409C85.2309 8.27811 85.2309 8.27811 85.0375 8.05777C81.922 4.71383 77.5451 3.16114 73.072 2.88114C72.3165 2.85736 71.5619 2.85502 70.8061 2.85612C70.5895 2.8557 70.3728 2.85527 70.1496 2.85484C69.4297 2.85366 68.7098 2.85381 67.9899 2.85396C67.4712 2.8535 66.9525 2.85277 66.4338 2.85206C65.1747 2.85051 63.9156 2.84999 62.6564 2.84988C61.6319 2.84979 60.6074 2.84941 59.5829 2.84882C56.6719 2.84717 53.7608 2.84631 50.8498 2.84645C50.6932 2.84645 50.5366 2.84646 50.3752 2.84647C50.2184 2.84648 50.0616 2.84648 49.9 2.84649C47.3604 2.84657 44.8207 2.84478 42.2811 2.84214C39.6671 2.83945 37.0532 2.83816 34.4393 2.83832C32.9743 2.83838 31.5093 2.83788 30.0443 2.83586C28.7968 2.83414 27.5492 2.83375 26.3017 2.83502C25.6666 2.83562 25.0315 2.83545 24.3964 2.83401C17.8495 2.82022 12.213 3.61509 7.47062 8.54744Z" fill="url(#paint0_linear_177_1146)"/>
<path d="M11.9036 51.3056C12.2473 51.302 12.2473 51.302 12.598 51.2983C12.8449 51.2969 13.0919 51.2955 13.3463 51.2941C13.4724 51.2933 13.5986 51.2926 13.7285 51.2918C14.3956 51.2879 15.0627 51.2852 15.7298 51.2835C16.4176 51.2814 17.1054 51.275 17.7932 51.2675C18.3234 51.2626 18.8535 51.2611 19.3837 51.2604C19.7603 51.2591 20.1368 51.2541 20.5133 51.2491C20.8579 51.2499 20.8579 51.2499 21.2095 51.2508C21.5121 51.2491 21.5121 51.2491 21.8208 51.2474C22.5015 51.3608 22.8122 51.6132 23.3042 52.0871C23.5695 52.6178 23.5166 53.0658 23.5185 53.6592C23.5191 53.7821 23.5197 53.9051 23.5204 54.0318C23.5221 54.4399 23.5225 54.848 23.5227 55.2561C23.5233 55.5405 23.5239 55.8249 23.5246 56.1093C23.5257 56.707 23.5261 57.3047 23.526 57.9024C23.5259 58.664 23.5285 59.4255 23.5317 60.1871C23.5338 60.7756 23.5342 61.364 23.5341 61.9525C23.5343 62.233 23.5351 62.5134 23.5366 62.7938C23.554 66.4962 23.554 66.4962 22.7195 68.1775C22.4424 68.7151 22.4424 68.7151 22.3687 69.3001C22.5226 69.339 22.6764 69.3778 22.835 69.4178C25.0903 70.0402 26.7997 71.1163 28.1687 73.0421C28.802 74.2031 29.3113 75.3302 29.3189 76.6651C29.3209 76.9083 29.3209 76.9083 29.3229 77.1563C29.3234 77.3327 29.3239 77.509 29.3244 77.6907C29.3257 77.8776 29.3269 78.0644 29.3282 78.257C29.3319 78.8749 29.334 79.4929 29.3359 80.1109C29.3367 80.3219 29.3374 80.5329 29.3382 80.7503C29.3421 81.866 29.3448 82.9817 29.3466 84.0974C29.3486 85.2514 29.3551 86.4052 29.3625 87.5591C29.3674 88.4454 29.3689 89.3317 29.3696 90.218C29.3705 90.6435 29.3727 91.069 29.3762 91.4945C29.3807 92.0889 29.3806 92.6832 29.3793 93.2776C29.3829 93.5421 29.3829 93.5421 29.3865 93.8119C29.3846 94.0551 29.3846 94.0551 29.3826 94.3031C29.383 94.4436 29.3835 94.584 29.3839 94.7287C29.2484 95.3011 29.01 95.5183 28.5429 95.8681C28.0205 95.9623 28.0205 95.9623 27.4067 95.9631C27.1738 95.9652 26.9409 95.9674 26.7009 95.9695C26.4432 95.9681 26.1856 95.9665 25.9279 95.9649C25.6562 95.966 25.3845 95.9673 25.1128 95.9689C24.3752 95.9723 23.6378 95.971 22.9002 95.9686C22.1284 95.9667 21.3567 95.9685 20.585 95.9697C19.2889 95.971 17.9929 95.9692 16.6969 95.9657C15.1983 95.9616 13.6999 95.9629 12.2013 95.967C10.9149 95.9704 9.62847 95.9709 8.34203 95.9689C7.57361 95.9678 6.80523 95.9676 6.03681 95.9701C5.31439 95.9723 4.59207 95.9708 3.86965 95.9664C3.60447 95.9654 3.33927 95.9657 3.07409 95.9674C2.71226 95.9694 2.35041 95.9664 1.98858 95.9631C1.78604 95.9628 1.58351 95.9626 1.37483 95.9623C0.721124 95.8444 0.499966 95.6452 0.103987 95.1197C0.0295098 94.6012 -0.00113527 94.1584 0.00459067 93.6405C0.00387466 93.4979 0.00315865 93.3554 0.00242095 93.2086C0.00191271 92.9079 0.00328651 92.6072 0.0064178 92.3066C0.0104248 91.8469 0.00645384 91.3879 0.00166726 90.9283C0.00216182 90.6357 0.00312072 90.3431 0.00459067 90.0505C0.00307575 89.9135 0.00156083 89.7765 0 89.6353C0.0118834 88.9873 0.0550747 88.6347 0.455892 88.1148C0.924219 87.77 1.20706 87.6641 1.78787 87.6358C2.50121 87.8348 2.67661 87.9398 3.09756 88.5713C3.14004 89.0472 3.14004 89.0472 3.1341 89.6083C3.1329 89.8091 3.13169 90.0099 3.13045 90.2168C3.12731 90.4262 3.12418 90.6357 3.12095 90.8515C3.11926 91.0632 3.11757 91.2748 3.11583 91.4928C3.11142 92.0158 3.10471 92.5387 3.09756 93.0616C3.90021 93.0616 4.70286 93.0616 5.52984 93.0616C5.5269 92.6698 5.52396 92.2779 5.52093 91.8742C5.51162 90.5786 5.50543 89.2829 5.50076 87.9872C5.49783 87.2018 5.49386 86.4163 5.48749 85.6309C5.48139 84.8727 5.47804 84.1145 5.47658 83.3563C5.47555 83.0672 5.47353 82.7782 5.47049 82.4891C5.46641 82.0838 5.46586 81.6786 5.46612 81.2732C5.46487 81.0426 5.46362 80.812 5.46234 80.5744C5.53647 79.9049 5.68557 79.5618 6.09113 79.0292C6.65243 78.6551 6.65243 78.6551 7.30727 78.6901C8.16966 78.8903 8.16966 78.8903 8.52341 79.4034C8.59091 79.9895 8.59091 79.9895 8.58713 80.7209C8.58726 80.9209 8.58726 80.9209 8.58738 81.1249C8.58699 81.5653 8.58263 82.0056 8.57823 82.446C8.57718 82.7514 8.57638 83.0568 8.57582 83.3622C8.57368 84.166 8.56816 84.9697 8.56195 85.7734C8.5552 86.7378 8.55262 87.7022 8.54935 88.6666C8.54391 90.1317 8.53315 91.5966 8.52341 93.0616C12.5984 93.0616 16.6734 93.0616 20.8719 93.0616C20.8621 91.616 20.8621 91.616 20.8522 90.1411C20.8493 89.5306 20.8466 88.9201 20.8445 88.3096C20.8411 87.3405 20.8372 86.3715 20.8296 85.4025C20.8235 84.6212 20.8201 83.84 20.8186 83.0587C20.8176 82.7606 20.8156 82.4625 20.8126 82.1645C20.8085 81.747 20.8079 81.3296 20.8082 80.9121C20.8063 80.5556 20.8063 80.5556 20.8044 80.192C20.8768 79.547 20.9682 79.2872 21.4332 78.8421C22.1766 78.6356 22.5726 78.5773 23.2808 78.9006C23.6784 79.2163 23.6784 79.2163 23.8655 79.5905C23.8827 80.0166 23.8875 80.4432 23.8867 80.8696C23.8867 81.0011 23.8868 81.1325 23.8868 81.2679C23.8867 81.7033 23.8852 82.1386 23.8837 82.5739C23.8834 82.8754 23.8831 83.1769 23.8829 83.4784C23.8822 84.2725 23.8804 85.0667 23.8783 85.8609C23.8764 86.6711 23.8756 87.4812 23.8746 88.2913C23.8726 89.8814 23.8694 91.4715 23.8655 93.0616C24.6681 93.0616 25.4708 93.0616 26.2978 93.0616C26.2906 90.9195 26.2795 88.7775 26.2633 86.6355C26.256 85.6408 26.2499 84.6461 26.2471 83.6513C26.2442 82.6905 26.2378 81.7297 26.2288 80.7689C26.2261 80.4032 26.2246 80.0375 26.2244 79.6717C26.224 79.1576 26.2189 78.6437 26.2128 78.1296C26.2137 77.98 26.2147 77.8303 26.2156 77.6761C26.1866 76.0862 25.5669 74.7182 24.4268 73.6034C22.6011 72.3961 20.7722 72.2823 18.6267 72.4808C18.0664 72.6293 17.5674 72.8212 17.0357 73.0487C15.4552 73.6596 13.688 73.4345 12.0783 73.0421C11.8721 72.9464 11.6659 72.8506 11.4534 72.752C10.6391 72.4295 9.98571 72.3876 9.11979 72.399C8.97166 72.4001 8.82353 72.4012 8.67091 72.4024C7.11461 72.4439 5.70823 72.8319 4.59435 73.9776C3.62127 75.3035 3.23127 76.4939 3.2335 78.1471C3.22971 78.4461 3.2258 78.7452 3.22181 79.0442C3.21757 79.5115 3.21449 79.9786 3.2134 80.4459C3.21162 80.8997 3.2053 81.3534 3.19842 81.8072C3.19936 81.9462 3.20031 82.0852 3.20128 82.2284C3.18392 83.1457 3.00871 83.6272 2.34917 84.268C1.97497 84.3922 1.97497 84.3922 1.60077 84.3849C1.47729 84.3873 1.3538 84.3898 1.22658 84.3922C0.630955 84.1945 0.439803 83.8545 0.103987 83.3325C0.0307122 82.8005 -0.00119636 82.3432 0.00459067 81.8123C0.00387466 81.6658 0.00315865 81.5192 0.00242095 81.3682C0.00191277 81.0581 0.00328612 80.748 0.0064178 80.4379C0.0103817 79.9713 0.00647608 79.5053 0.00166726 79.0387C-0.00253657 76.6249 0.30493 74.4734 1.78787 72.4808C1.91907 72.2917 2.05028 72.1026 2.18546 71.9078C3.44018 70.4592 5.37284 69.6481 7.21372 69.3001C7.14836 69.1467 7.083 68.9934 7.01566 68.8353C6.93053 68.6337 6.84539 68.4321 6.75767 68.2243C6.67302 68.0246 6.58836 67.8249 6.50114 67.6192C6.18007 66.8065 6.06687 66.1474 6.05802 65.2723C6.05562 65.0649 6.05321 64.8575 6.05074 64.6438C6.04936 64.4202 6.04798 64.1967 6.04655 63.9664C6.04504 63.7352 6.04353 63.5039 6.04198 63.2657C6.03939 62.776 6.03738 62.2862 6.03591 61.7965C6.03344 61.0512 6.02448 60.306 6.01622 59.5608C6.01433 59.0843 6.01273 58.6078 6.01147 58.1312C6.0082 57.91 6.00492 57.6887 6.00154 57.4607C6.00563 55.8846 6.26108 54.591 7.18084 53.2871C8.55859 51.9643 9.99272 51.323 11.9036 51.3056ZM9.27181 55.642C9.00582 56.3413 9.00582 56.3413 9.08471 57.7C12.851 57.7 16.6173 57.7 20.4977 57.7C20.4977 56.5887 20.4977 55.4773 20.4977 54.3323C19.186 54.3184 17.8743 54.3082 16.5625 54.3014C16.1164 54.2986 15.6704 54.2948 15.2243 54.2899C14.5825 54.2831 13.9407 54.2799 13.2988 54.2775C13.1 54.2746 12.9011 54.2717 12.6963 54.2687C11.2487 54.2683 10.2443 54.4894 9.27181 55.642ZM9.08471 60.6936C8.77308 65.4622 8.77308 65.4622 11.0259 69.0312C12.2839 70.0469 13.7159 70.5254 15.3423 70.3825C17.0719 70.1048 18.3933 69.2495 19.4394 67.8384C20.9294 65.6208 20.4977 63.4263 20.4977 60.6936C16.7314 60.6936 12.9651 60.6936 9.08471 60.6936Z" fill="url(#paint1_linear_177_1146)"/>
<path d="M44.4111 51.2674C44.5785 51.2669 44.7458 51.2663 44.9182 51.2658C45.2691 51.2654 45.6201 51.2664 45.971 51.2688C46.5031 51.2718 47.0349 51.2688 47.567 51.2652C47.9105 51.2656 48.254 51.2663 48.5975 51.2674C48.7538 51.2663 48.9102 51.2651 49.0713 51.2639C50.8574 51.2849 52.5222 51.7249 53.8011 53.0258C55.4872 55.1615 55.3588 57.6511 55.3467 60.2437C55.3447 60.7523 55.3467 61.2608 55.3491 61.7694C55.3535 66.5444 55.3535 66.5444 54.4326 68.5316C54.3491 68.7163 54.2657 68.9011 54.1797 69.0914C54.1165 69.2231 54.0533 69.3548 53.9882 69.4905C54.2275 69.5021 54.4667 69.5136 54.7132 69.5256C56.5367 69.7371 58.0087 70.7808 59.227 72.1099C60.6304 73.9303 61.1848 75.7106 61.1736 77.9913C61.1749 78.1765 61.1761 78.3617 61.1775 78.5525C61.1809 79.1584 61.1802 79.7641 61.1791 80.37C61.18 80.7934 61.1809 81.2168 61.1821 81.6402C61.1837 82.5243 61.1833 83.4084 61.1814 84.2925C61.1793 85.4263 61.1831 86.5599 61.1885 87.6937C61.1919 88.5665 61.1919 89.4393 61.1908 90.3122C61.1908 90.7303 61.1919 91.1485 61.1943 91.5667C61.197 92.1498 61.1951 92.7327 61.1918 93.3158C61.1946 93.5751 61.1946 93.5751 61.1973 93.8395C61.1955 93.9984 61.1936 94.1573 61.1917 94.321C61.1917 94.4587 61.1917 94.5963 61.1916 94.738C61.0536 95.3053 60.8126 95.5235 60.3496 95.8713C59.8271 95.9655 59.8271 95.9655 59.2134 95.9664C58.9804 95.9685 58.7475 95.9706 58.5075 95.9728C58.2499 95.9713 57.9922 95.9698 57.7346 95.9682C57.4629 95.9692 57.1912 95.9705 56.9195 95.9722C56.1819 95.9756 55.4444 95.9743 54.7068 95.9719C53.9351 95.97 53.1633 95.9717 52.3916 95.9729C51.0956 95.9743 49.7996 95.9725 48.5035 95.9689C47.005 95.9648 45.5065 95.9662 44.008 95.9703C42.7215 95.9737 41.4351 95.9742 40.1487 95.9722C39.3803 95.971 38.6119 95.9709 37.8435 95.9734C37.121 95.9755 36.3987 95.974 35.6763 95.9697C35.4111 95.9687 35.1459 95.969 34.8807 95.9706C34.5189 95.9727 34.157 95.9697 33.7952 95.9664C33.5927 95.9661 33.3901 95.9658 33.1815 95.9655C32.5278 95.8477 32.3066 95.6485 31.9106 95.123C31.8362 94.6044 31.8055 94.1616 31.8112 93.6437C31.8105 93.5012 31.8098 93.3587 31.8091 93.2118C31.8086 92.9112 31.8099 92.6105 31.8131 92.3098C31.8171 91.8502 31.8131 91.3911 31.8083 90.9315C31.8088 90.6389 31.8098 90.3463 31.8112 90.0538C31.8097 89.9167 31.8082 89.7797 31.8066 89.6385C31.8185 88.9907 31.8614 88.6382 32.2625 88.1188C32.734 87.7707 33.0073 87.6533 33.5945 87.639C34.2468 87.9424 34.5006 88.1563 34.9042 88.7616C34.9467 89.2204 34.9467 89.2204 34.9407 89.7578C34.9395 89.9501 34.9383 90.1424 34.9371 90.3406C34.934 90.5412 34.9308 90.7417 34.9276 90.9483C34.9259 91.151 34.9242 91.3537 34.9225 91.5626C34.9181 92.0634 34.9113 92.5641 34.9042 93.0649C35.7069 93.0649 36.5095 93.0649 37.3365 93.0649C37.3326 92.6674 37.3286 92.2698 37.3246 91.8603C37.3122 90.546 37.3039 89.2317 37.2977 87.9173C37.2938 87.1205 37.2885 86.3238 37.28 85.527C37.2719 84.7579 37.2674 83.9888 37.2655 83.2196C37.2641 82.9264 37.2614 82.6332 37.2574 82.3399C37.2519 81.9287 37.2512 81.5178 37.2515 81.1065C37.2499 80.8726 37.2482 80.6387 37.2465 80.3977C37.3533 79.6656 37.5618 79.3598 38.0849 78.8454C38.7752 78.6104 39.0697 78.594 39.7337 78.9039C40.143 79.2196 40.143 79.2196 40.3301 79.5938C40.3473 80.0199 40.352 80.4465 40.3513 80.8729C40.3513 81.0043 40.3513 81.1358 40.3514 81.2712C40.3512 81.7065 40.3498 82.1418 40.3483 82.5771C40.348 82.8786 40.3477 83.1801 40.3475 83.4816C40.3468 84.2758 40.345 85.07 40.3429 85.8642C40.3407 86.8167 40.3398 87.7692 40.3387 88.7218C40.3369 90.1695 40.3333 91.6172 40.3301 93.0649C44.4051 93.0649 48.4801 93.0649 52.6785 93.0649C52.6688 91.6192 52.6688 91.6192 52.6588 90.1444C52.6559 89.5339 52.6532 88.9234 52.6511 88.3129C52.6478 87.3438 52.6438 86.3748 52.6362 85.4057C52.6301 84.6245 52.6267 83.8432 52.6253 83.062C52.6243 82.7639 52.6222 82.4658 52.6192 82.1677C52.6151 81.7502 52.6146 81.3329 52.6148 80.9154C52.613 80.5589 52.613 80.5589 52.611 80.1952C52.6835 79.55 52.7753 79.2911 53.2398 78.8454C53.8713 78.6583 53.8713 78.6583 54.5495 78.6583C55.0738 78.9888 55.3943 79.2253 55.6721 79.7809C55.6893 80.2012 55.6941 80.6221 55.6934 81.0428C55.6934 81.1724 55.6934 81.302 55.6934 81.4356C55.6933 81.8648 55.6919 82.2941 55.6904 82.7233C55.69 83.0206 55.6898 83.3179 55.6896 83.6152C55.6889 84.3983 55.687 85.1814 55.685 85.9645C55.6831 86.7634 55.6822 87.5622 55.6813 88.3611C55.6792 89.929 55.676 91.4969 55.6721 93.0649C56.4748 93.0649 57.2774 93.0649 58.1044 93.0649C58.106 90.9325 58.1015 88.8002 58.0894 86.6678C58.084 85.6775 58.0806 84.6872 58.0819 83.6969C58.0832 82.7397 58.0789 81.7826 58.071 80.8254C58.0689 80.4617 58.0688 80.098 58.0706 79.7343C58.08 77.659 58.0793 75.9042 56.7947 74.1679C55.6278 73.0085 54.2184 72.4215 52.5766 72.3967C52.4366 72.3985 52.2966 72.4003 52.1523 72.4022C52.0047 72.4029 51.8571 72.4037 51.705 72.4044C50.6528 72.4302 49.8135 72.6366 48.8423 73.0519C47.2618 73.6629 45.4947 73.4378 43.8849 73.0453C43.6787 72.9496 43.4725 72.8538 43.26 72.7552C42.4458 72.4328 41.7923 72.3907 40.9264 72.4022C40.7782 72.4035 40.6299 72.4048 40.4771 72.4061C38.7804 72.4525 37.4107 72.9155 36.2139 74.1679C35.3325 75.5044 35.0673 76.5195 35.0584 78.1138C35.0541 78.4141 35.0496 78.7143 35.0449 79.0146C35.0383 79.4859 35.0328 79.9572 35.0303 80.4286C35.0274 80.8849 35.0199 81.341 35.0116 81.7973C35.012 81.9375 35.0124 82.0776 35.0127 82.222C34.9913 83.1416 34.8182 83.6291 34.1558 84.2712C33.7816 84.3889 33.7816 84.3889 33.4074 84.3765C33.2839 84.3767 33.1604 84.377 33.0332 84.3772C32.4698 84.2177 32.2672 83.9889 31.9106 83.5229C31.836 82.971 31.8056 82.4906 31.8112 81.9391C31.8105 81.784 31.8098 81.6288 31.8091 81.469C31.8086 81.1402 31.8099 80.8113 31.8131 80.4825C31.817 79.9871 31.8131 79.4923 31.8083 78.997C31.8033 76.0909 32.257 73.7412 34.3202 71.5493C35.6909 70.2617 37.1448 69.5812 39.0204 69.4905C38.955 69.3371 38.8896 69.1837 38.8223 69.0257C38.7372 68.824 38.652 68.6224 38.5643 68.4147C38.4797 68.215 38.395 68.0153 38.3078 67.8095C37.9822 66.9854 37.873 66.316 37.8617 65.4283C37.8572 65.1059 37.8572 65.1059 37.8526 64.7771C37.8442 63.7937 37.8365 62.8103 37.8323 61.8269C37.8298 61.3094 37.8246 60.7919 37.8169 60.2744C37.8058 59.526 37.8026 58.7777 37.7998 58.0292C37.7956 57.7998 37.7914 57.5703 37.787 57.3339C37.7912 55.6057 38.1582 54.3635 39.301 53.0492C39.4554 52.918 39.6097 52.7868 39.7688 52.6516C39.9038 52.5204 40.0389 52.3892 40.178 52.254C41.4536 51.4037 42.9123 51.2565 44.4111 51.2674ZM41.0602 55.6152C40.67 56.5494 40.8302 57.6474 40.8913 58.6388C42.1107 58.5337 42.9543 58.2899 43.9668 57.563C44.6666 57.2216 45.0128 57.2895 45.7559 57.5162C46.1453 57.8212 46.4976 58.1518 46.8566 58.4919C47.9936 59.4506 49.3762 59.7883 50.8309 59.7847C51.1269 59.7855 51.1269 59.7855 51.4288 59.7862C51.925 59.7953 51.925 59.7953 52.3043 59.5743C52.4578 57.1939 52.4578 57.1939 51.4975 55.119C50.5349 54.3355 49.6626 54.2778 48.452 54.2792C48.2213 54.278 48.2213 54.278 47.9859 54.2768C47.6615 54.2757 47.3371 54.2756 47.0127 54.2764C46.5183 54.277 46.0241 54.2726 45.5297 54.2679C45.2136 54.2675 44.8975 54.2673 44.5814 54.2675C44.4346 54.2658 44.2878 54.2641 44.1366 54.2623C42.9026 54.2726 41.8656 54.6091 41.0602 55.6152ZM43.3838 61.0961C42.8822 61.2832 42.3968 61.3758 41.8692 61.4657C41.6856 61.4975 41.502 61.5293 41.3128 61.562C41.1737 61.5852 41.0346 61.6084 40.8913 61.6323C40.8694 62.3144 40.8562 62.9964 40.8446 63.6787C40.8383 63.8699 40.832 64.061 40.8256 64.2579C40.8018 66.1211 41.3158 67.4255 42.5935 68.7816C43.7932 69.9098 45.0365 70.3768 46.6914 70.426C48.6825 70.2091 50.0775 69.3143 51.3221 67.7788C52.3753 66.2187 52.3338 64.3803 52.3043 62.5678C52.1278 62.5744 51.9513 62.5809 51.7694 62.5876C49.5797 62.6337 47.758 62.3541 45.8034 61.2925C44.8168 60.7744 44.4439 60.6398 43.3838 61.0961Z" fill="url(#paint2_linear_177_1146)"/>
<path d="M76.1752 51.2781C76.3426 51.2768 76.51 51.2756 76.6825 51.2743C77.0349 51.2724 77.3872 51.2715 77.7396 51.2716C78.273 51.2708 78.8061 51.264 79.3394 51.2569C81.6821 51.2422 83.6908 51.3355 85.4731 53.0372C86.4785 54.1658 86.9357 55.1628 86.9511 56.6725C86.9547 56.9818 86.9547 56.9818 86.9584 57.2974C86.9598 57.5197 86.9611 57.7421 86.9626 57.9712C86.9641 58.2016 86.9656 58.4319 86.9671 58.6692C86.9697 59.1574 86.9717 59.6455 86.9732 60.1337C86.9757 60.8749 86.9846 61.6159 86.9929 62.3571C86.9948 62.8324 86.9964 63.3077 86.9976 63.783C87.0009 64.0023 87.0042 64.2216 87.0076 64.4476C87.003 66.2166 86.6156 67.7334 85.7954 69.3024C85.9889 69.3469 85.9889 69.3469 86.1864 69.3923C88.5519 69.9796 90.3994 71.0644 91.7168 73.1496C92.6417 74.8177 92.9326 76.3216 92.9382 78.2038C92.9395 78.3831 92.9407 78.5624 92.942 78.7471C92.9457 79.3389 92.9478 79.9306 92.9497 80.5224C92.9505 80.7248 92.9512 80.9271 92.952 81.1355C92.9559 82.2054 92.9586 83.2752 92.9604 84.3451C92.9624 85.4505 92.9689 86.5559 92.9763 87.6613C92.9812 88.5113 92.9828 89.3614 92.9834 90.2114C92.9843 90.619 92.9865 91.0266 92.99 91.4342C92.9945 92.0039 92.9944 92.5734 92.9931 93.1432C92.9967 93.3957 92.9967 93.3957 93.0003 93.6534C92.9984 93.887 92.9984 93.887 92.9964 94.1254C92.9968 94.26 92.9973 94.3945 92.9977 94.5331C92.8587 95.1362 92.599 95.4431 92.1567 95.8703C91.6343 95.9875 91.6343 95.9875 91.0205 95.9879C90.7876 95.9902 90.5547 95.9926 90.3147 95.995C90.057 95.9929 89.7994 95.9907 89.5417 95.9884C89.27 95.9894 88.9983 95.9907 88.7266 95.9925C87.989 95.9959 87.2516 95.9935 86.514 95.9898C85.7422 95.9868 84.9705 95.9884 84.1988 95.9894C82.9027 95.9902 81.6067 95.9872 80.3107 95.982C78.8121 95.976 77.3137 95.976 75.8151 95.9793C74.3738 95.9822 72.9325 95.981 71.4911 95.9778C70.8776 95.9765 70.2641 95.9767 69.6506 95.9781C68.9282 95.9795 68.2059 95.9772 67.4835 95.9721C67.2183 95.9708 66.9531 95.9708 66.6879 95.9721C66.3261 95.9738 65.9642 95.9703 65.6024 95.9666C65.3998 95.9661 65.1973 95.9656 64.9886 95.965C64.3352 95.8466 64.1136 95.6474 63.7178 95.1219C63.6456 94.6032 63.617 94.1605 63.625 93.6427C63.6247 93.5002 63.6244 93.3577 63.6241 93.2108C63.6245 92.9101 63.6266 92.6095 63.6305 92.3088C63.6359 91.8492 63.6344 91.3901 63.6319 90.9305C63.6331 90.6379 63.6346 90.3453 63.6367 90.0527C63.6358 89.8472 63.6358 89.8472 63.635 89.6375C63.6458 89.0516 63.6838 88.6349 63.9699 88.1178C64.4295 87.6827 64.7768 87.6505 65.4017 87.638C65.931 87.8666 66.239 88.0437 66.5483 88.5339C66.7416 89.0244 66.754 89.3948 66.7479 89.9212C66.7467 90.1045 66.7455 90.2878 66.7442 90.4766C66.7411 90.6667 66.738 90.8567 66.7347 91.0526C66.7331 91.2455 66.7314 91.4384 66.7296 91.6372C66.7252 92.1128 66.7185 92.5883 66.7114 93.0639C67.514 93.0639 68.3167 93.0639 69.1436 93.0639C69.142 92.8968 69.1403 92.7296 69.1386 92.5575C69.1236 90.9828 69.1122 89.4081 69.1049 87.8334C69.101 87.0238 69.0957 86.2143 69.0872 85.4047C69.0791 84.6234 69.0746 83.8422 69.0726 83.0609C69.0713 82.7629 69.0686 82.4648 69.0645 82.1667C69.0591 81.7492 69.0583 81.3319 69.0587 80.9143C69.057 80.6767 69.0554 80.439 69.0536 80.1942C69.1599 79.4841 69.3249 79.27 69.892 78.8444C70.5814 78.6244 70.8804 78.5946 71.5408 78.9029C71.9501 79.2186 71.9501 79.2186 72.1372 79.5928C72.1544 80.0189 72.1592 80.4454 72.1585 80.8719C72.1585 81.0033 72.1585 81.1348 72.1585 81.2702C72.1584 81.7055 72.1569 82.1408 72.1555 82.5761C72.1551 82.8776 72.1549 83.1791 72.1547 83.4806C72.154 84.2748 72.1521 85.069 72.1501 85.8632C72.1478 86.8157 72.147 87.7682 72.1459 88.7208C72.144 90.1685 72.1405 91.6162 72.1372 93.0639C76.2122 93.0639 80.2872 93.0639 84.4857 93.0639C84.4792 92.0844 84.4727 91.105 84.466 90.0959C84.4631 89.476 84.4604 88.8561 84.4583 88.2362C84.4549 87.2519 84.451 86.2677 84.4434 85.2834C84.4373 84.49 84.4339 83.6967 84.4325 82.9033C84.4314 82.6003 84.4294 82.2974 84.4264 81.9945C84.4223 81.5707 84.4217 81.147 84.422 80.7232C84.4201 80.3611 84.4201 80.3611 84.4182 79.9917C84.4857 79.4057 84.4857 79.4057 84.7309 79.0537C85.2674 78.6985 85.7215 78.6682 86.3567 78.6573C86.998 79.0476 87.2407 79.2512 87.4793 79.967C87.4961 80.3887 87.5013 80.8109 87.5005 81.2329C87.5005 81.3608 87.5006 81.4886 87.5006 81.6203C87.5005 82.0424 87.499 82.4646 87.4976 82.8867C87.4972 83.1796 87.4969 83.4724 87.4967 83.7652C87.496 84.5357 87.4942 85.3062 87.4921 86.0767C87.4902 86.8631 87.4894 87.6494 87.4884 88.4357C87.4864 89.9784 87.4831 91.5211 87.4793 93.0639C88.2819 93.0639 89.0846 93.0639 89.9116 93.0639C89.9044 90.9494 89.8933 88.835 89.8772 86.7206C89.8698 85.7387 89.8637 84.7568 89.8609 83.7748C89.858 82.8261 89.8516 81.8775 89.8426 80.9288C89.8399 80.5679 89.8384 80.2071 89.8382 79.8462C89.8364 77.7323 89.7942 76.043 88.6486 74.202C87.3087 72.8993 85.8233 72.4096 83.9829 72.4129C83.7589 72.4127 83.7589 72.4127 83.5304 72.4126C82.4676 72.4323 81.6307 72.6312 80.6495 73.0509C79.069 73.6618 77.3018 73.4368 75.6921 73.0443C75.4859 72.9486 75.2797 72.8528 75.0672 72.7542C74.253 72.4318 73.5995 72.3896 72.7336 72.4012C72.511 72.4033 72.511 72.4033 72.2839 72.4055C70.6369 72.4517 69.3305 72.9007 68.1088 74.0332C67.1297 75.1763 66.8731 76.4422 66.859 77.9074C66.8537 78.2083 66.8484 78.5092 66.8429 78.81C66.8352 79.2834 66.8283 79.7568 66.8234 80.2302C66.8182 80.6877 66.8096 81.1451 66.8005 81.6026C66.7999 81.7434 66.7993 81.8841 66.7987 82.0291C66.7773 82.9483 66.6257 83.6075 65.963 84.2702C64.6234 84.38 64.6234 84.38 64.0736 83.996C63.5508 83.2994 63.6102 82.6929 63.6184 81.8431C63.6177 81.6787 63.617 81.5144 63.6162 81.3451C63.6157 80.9971 63.6171 80.649 63.6202 80.301C63.6242 79.7745 63.6203 79.2485 63.6155 78.722C63.6112 75.9804 64.0265 73.7671 65.9695 71.7047C67.3326 70.4186 68.8114 69.6749 70.6404 69.3024C70.3976 68.5551 70.1306 67.8255 69.8328 67.0988C69.4533 65.8649 69.4852 64.5841 69.4798 63.3057C69.4788 63.1085 69.4777 62.9113 69.4766 62.7081C69.4748 62.2922 69.4736 61.8763 69.4729 61.4604C69.4711 60.8285 69.4653 60.1967 69.4594 59.5649C69.4581 59.1591 69.4572 58.7534 69.4564 58.3476C69.4541 58.1608 69.4518 57.9741 69.4494 57.7816C69.4558 55.7395 69.9353 54.1216 71.3888 52.6506C72.8111 51.4843 74.3913 51.2828 76.1752 51.2781ZM72.9943 55.4001C72.2659 56.5317 72.4462 57.9103 72.5114 59.1991C73.6142 58.8672 74.5673 58.3401 75.5737 57.7885C76.8763 57.2647 77.9751 57.5157 79.247 57.9654C79.3819 58.0111 79.5168 58.0567 79.6558 58.1038C80.0816 58.2485 80.5062 58.3963 80.9308 58.5442C81.2214 58.6436 81.512 58.7427 81.8027 58.8417C82.5108 59.0832 83.2178 59.3274 83.9244 59.5733C83.9447 59.0352 83.9595 58.4978 83.9712 57.9595C83.9775 57.8083 83.9837 57.6571 83.9902 57.5013C84.0069 56.4713 83.8606 55.9016 83.176 55.0829C82.2903 54.3045 81.4436 54.3005 80.3089 54.2899C80.1554 54.2884 80.002 54.2869 79.8438 54.2853C79.5188 54.2828 79.1937 54.2807 78.8686 54.2793C78.5378 54.2771 78.207 54.2733 77.8763 54.2678C77.3969 54.2597 76.9177 54.2567 76.4383 54.2548C76.2923 54.2516 76.1462 54.2483 75.9958 54.2449C74.8652 54.2493 73.7508 54.4961 72.9943 55.4001ZM72.5114 62.5668C72.4169 64.9969 72.596 66.7845 74.2421 68.6592C75.536 69.8061 76.74 70.3727 78.4986 70.425C80.3281 70.2257 81.4951 69.5034 82.755 68.2149C84.0241 66.417 84.0127 64.8911 83.9244 62.7539C83.8168 62.7118 83.7091 62.6698 83.5982 62.6264C82.694 62.2692 81.8066 61.892 80.9235 61.4852C77.4815 60.0113 75.5501 60.4361 72.5114 62.5668Z" fill="url(#paint3_linear_177_1146)"/>
<path d="M52.6219 8.32098C54.4694 9.90097 55.8784 12.03 56.2338 14.4813C56.4453 18.1944 55.316 20.8419 53.3202 23.9263C53.2039 24.1071 53.2039 24.1071 53.0853 24.2916C53.016 24.3978 52.9467 24.504 52.8753 24.6135C52.4392 25.3804 52.2588 26.0206 52.247 26.9022C52.2423 27.0933 52.2376 27.2845 52.2327 27.4814C52.2262 27.8775 52.2203 28.2736 52.2152 28.6698C52.1772 30.1467 52.0774 31.6078 51.1237 32.7936C49.5658 34.0254 48.4818 34.1631 46.5514 34.1734C46.2845 34.1792 46.2845 34.1792 46.0121 34.1851C44.5943 34.1929 43.3331 34.049 42.2248 33.1093C42.0936 32.9511 41.9624 32.7929 41.8272 32.6299C41.723 32.5218 41.6188 32.4138 41.5115 32.3025C40.8652 31.1946 40.859 29.8842 40.8497 28.6336C40.833 26.704 40.6851 25.2805 39.582 23.6492C39.2597 23.1481 38.9416 22.6443 38.6231 22.1407C38.5415 22.0133 38.4599 21.8859 38.3758 21.7546C36.8523 19.3396 36.3628 16.5988 36.91 13.7914C37.7064 11.0682 39.2049 8.92527 41.6701 7.4593C45.2716 5.59662 49.3762 5.8232 52.6219 8.32098ZM41.3134 11.6456C40.1356 13.079 39.6333 14.7151 39.7114 16.5592C39.9351 18.6572 41.0479 20.3406 42.1415 22.0954C42.8847 23.293 43.3223 24.356 43.8853 25.7072C45.6141 25.7072 47.3429 25.7072 49.124 25.7072C49.5871 24.5959 49.5871 24.5959 50.0595 23.4621C50.2631 23.0742 50.4752 22.6904 50.7027 22.3161C50.8134 22.1316 50.9241 21.9471 51.0381 21.757C51.2529 21.4066 51.4678 21.0563 51.6828 20.706C52.9219 18.6736 53.6736 16.723 53.1123 14.3045C52.547 12.6203 51.5574 11.1659 50.0595 10.1781C46.8943 8.64684 43.7927 9.02765 41.3134 11.6456ZM43.8853 28.7008C43.7487 30.0992 43.7487 30.0992 44.2478 30.7516C45.0209 31.2663 45.5956 31.2722 46.5047 31.25C46.6532 31.2536 46.8018 31.2573 46.9549 31.261C47.7255 31.2546 48.1065 31.1877 48.7615 30.7516C49.2606 30.0992 49.2606 30.0992 49.124 28.7008C47.3953 28.7008 45.6665 28.7008 43.8853 28.7008Z" fill="url(#paint4_linear_177_1146)"/>
<defs>
<linearGradient id="paint0_linear_177_1146" x1="72.4989" y1="6.61312" x2="50.7948" y2="58.0038" gradientUnits="userSpaceOnUse">
<stop stop-color="#D265F8"/>
<stop offset="0.52" stop-color="#3E63FD"/>
<stop offset="1" stop-color="#69C331"/>
</linearGradient>
<linearGradient id="paint1_linear_177_1146" x1="22.9087" y1="57.3041" x2="-4.26733" y2="79.5164" gradientUnits="userSpaceOnUse">
<stop stop-color="#D265F8"/>
<stop offset="0.52" stop-color="#3E63FD"/>
<stop offset="1" stop-color="#69C331"/>
</linearGradient>
<linearGradient id="paint2_linear_177_1146" x1="54.7186" y1="57.3188" x2="27.5482" y2="79.5362" gradientUnits="userSpaceOnUse">
<stop stop-color="#D265F8"/>
<stop offset="0.52" stop-color="#3E63FD"/>
<stop offset="1" stop-color="#69C331"/>
</linearGradient>
<linearGradient id="paint3_linear_177_1146" x1="86.5222" y1="57.3144" x2="59.3382" y2="79.5266" gradientUnits="userSpaceOnUse">
<stop stop-color="#D265F8"/>
<stop offset="0.52" stop-color="#3E63FD"/>
<stop offset="1" stop-color="#69C331"/>
</linearGradient>
<linearGradient id="paint4_linear_177_1146" x1="51.9461" y1="10.0154" x2="34.7773" y2="24.9625" gradientUnits="userSpaceOnUse">
<stop stop-color="#D265F8"/>
<stop offset="0.52" stop-color="#3E63FD"/>
<stop offset="1" stop-color="#69C331"/>
</linearGradient>
</defs>
</svg>
