<svg width="97" height="82" viewBox="0 0 97 82" fill="none" xmlns="http://www.w3.org/2000/svg">
<path d="M37.2661 1.98574C37.3428 2.02737 37.3428 2.02737 37.421 2.06985C38.6514 2.74314 39.7404 3.58523 40.7474 4.55886C40.7847 4.59423 40.822 4.62959 40.8605 4.66603C42.9001 6.60096 44.4936 9.30622 45.0966 12.0618C45.1527 12.2579 45.2569 12.3237 45.4159 12.4485C46.0396 12.974 46.3957 13.6011 46.5748 14.3973C46.5914 14.6095 46.6048 14.8206 46.6153 15.0331C46.6185 15.0957 46.6218 15.1582 46.6252 15.2226C46.6356 15.4252 46.6455 15.6278 46.6552 15.8304C46.6585 15.8991 46.6618 15.9678 46.6652 16.0385C46.687 16.5004 46.7072 16.9624 46.7261 17.4245C46.73 17.518 46.7339 17.6115 46.7378 17.7078C46.7776 18.7984 46.7002 19.7293 45.9693 20.603C45.6304 20.9509 45.268 21.2185 44.8341 21.4355C44.7842 21.4355 44.7342 21.4355 44.6828 21.4355C44.6828 21.4854 44.6828 21.5354 44.6828 21.5869C44.7998 21.5798 44.7998 21.5798 44.9193 21.5727C45.8931 21.5761 46.8599 21.9075 47.649 22.4651C47.7171 22.5131 47.7852 22.5611 47.8554 22.6106C47.9333 22.6658 47.9333 22.6658 48.0127 22.7221C48.0133 22.6749 48.0139 22.6277 48.0145 22.5791C48.0212 22.078 48.0287 21.5769 48.0367 21.0758C48.0396 20.89 48.0422 20.7042 48.0446 20.5184C48.0652 18.9438 48.0998 17.3574 48.4005 15.8068C48.4166 15.7228 48.4327 15.6387 48.4493 15.5522C49.0662 12.4859 50.4297 9.62861 52.4021 7.20766C52.4356 7.16638 52.4691 7.1251 52.5036 7.08257C53.3528 6.04398 54.2897 5.07551 55.3536 4.25614C55.4242 4.19858 55.4947 4.14103 55.5674 4.08172C59.612 0.839822 64.8689 -0.385266 69.9599 0.169423C72.9696 0.554606 75.8571 1.62819 78.3604 3.34798C78.436 3.39949 78.5116 3.451 78.5895 3.50407C78.9283 3.75013 79.2259 3.99351 79.3442 4.4075C79.418 4.92127 79.405 5.36765 79.087 5.7931C78.7535 6.14529 78.4438 6.32049 77.9536 6.3468C77.3492 6.31596 76.906 6.0236 76.4287 5.67485C75.993 5.36814 75.5363 5.116 75.0635 4.87104C74.9976 4.83686 74.9976 4.83685 74.9303 4.80198C73.5255 4.07861 72.0433 3.5635 70.4896 3.2723C70.4244 3.26002 70.3593 3.24774 70.2921 3.23509C66.1853 2.50114 61.7512 3.43769 58.3112 5.79666C58.1822 5.88748 58.0543 5.97959 57.9268 6.07246C57.8849 6.10265 57.8431 6.13285 57.7999 6.16396C57.1853 6.61091 56.6205 7.10383 56.072 7.6293C55.968 7.72884 55.8632 7.82748 55.7584 7.92603C55.2386 8.42689 54.8019 8.97786 54.3698 9.55374C54.3212 9.61754 54.3212 9.61754 54.2716 9.68263C53.7228 10.4057 53.2744 11.1706 52.8562 11.9755C52.8291 12.0273 52.802 12.079 52.774 12.1324C52.1472 13.3445 51.7233 14.647 51.4277 15.9771C51.4133 16.0416 51.3988 16.1062 51.3839 16.1727C51.1183 17.4531 51.0874 18.7421 51.0683 20.0449C51.0654 20.21 51.0624 20.3752 51.0594 20.5403C51.0522 20.9396 51.0458 21.3389 51.0399 21.7382C51.0905 21.7274 51.141 21.7166 51.1931 21.7054C51.2602 21.6915 51.3273 21.6775 51.3964 21.6631C51.4626 21.6492 51.5288 21.6352 51.597 21.6209C51.8702 21.5743 52.1255 21.5766 52.4021 21.5869C52.4078 21.5443 52.4134 21.5018 52.4193 21.458C52.9963 17.7696 55.3976 14.3601 58.3538 12.1599C60.0695 10.9211 62.7693 9.37249 64.965 9.47806C64.9822 9.42343 64.9993 9.3688 65.017 9.31251C65.1825 8.95787 65.4048 8.77049 65.7454 8.58409C66.1758 8.4455 66.4787 8.4455 66.909 8.58409C67.3413 8.82063 67.5791 9.10046 67.7652 9.55374C67.7964 9.77273 67.7968 9.9888 67.7959 10.2097C67.7967 10.2729 67.7975 10.336 67.7984 10.4011C67.801 10.6027 67.8022 10.8042 67.803 11.0058C67.8084 12.267 67.8308 13.5682 68.3044 14.7567C68.3271 14.8156 68.3499 14.8744 68.3733 14.935C68.7915 15.9747 69.3913 16.7938 70.1869 17.5758C70.2446 17.6334 70.3022 17.6909 70.3616 17.7502C71.2774 18.6139 72.4574 19.1611 73.6682 19.4678C73.718 19.4807 73.7677 19.4936 73.819 19.5068C74.5075 19.6583 75.2006 19.6404 75.9017 19.6399C76.1375 19.6399 76.3733 19.6409 76.6091 19.6421C77.2789 19.6456 77.9487 19.6475 78.6186 19.648C79.0298 19.6484 79.441 19.6502 79.8522 19.6529C80.0082 19.6537 80.1642 19.6539 80.3202 19.6535C80.5384 19.6529 80.7566 19.6542 80.9748 19.6559C81.0385 19.6553 81.1022 19.6547 81.1679 19.6541C81.6722 19.6611 82.0701 19.7985 82.4515 20.135C82.5032 20.2005 82.5032 20.2005 82.5559 20.2672C82.6096 20.3329 82.6096 20.3329 82.6644 20.3999C82.8293 20.6459 82.8339 20.8602 82.8302 21.147C82.8295 21.2152 82.8288 21.2833 82.8281 21.3536C82.8272 21.4056 82.8264 21.4576 82.8255 21.5112C82.8893 21.5212 82.9531 21.5313 83.0188 21.5416C83.1017 21.555 83.1847 21.5684 83.2701 21.5821C83.3939 21.6019 83.3939 21.6019 83.5202 21.622C83.7336 21.6625 83.7336 21.6625 83.885 21.7382C83.8798 21.2406 83.873 20.7429 83.8651 20.2453C83.8626 20.0768 83.8605 19.9083 83.8588 19.7399C83.8293 16.9677 83.3284 14.2796 81.993 11.8241C81.9454 11.7346 81.8979 11.645 81.8505 11.5554C81.6102 11.0995 81.6102 11.0995 81.3462 10.6573C81.0684 10.2165 81.0038 9.84416 81.0848 9.3267C81.2079 8.90036 81.4227 8.65298 81.7899 8.41174C82.1818 8.19986 82.6376 8.205 83.064 8.30561C83.8508 8.62657 84.2679 9.64243 84.6323 10.3531C84.7004 10.4856 84.7004 10.4856 84.7699 10.6209C85.6252 12.3081 86.2162 14.0887 86.5527 15.9487C86.5642 16.0113 86.5756 16.074 86.5874 16.1385C86.6252 16.3649 86.6562 16.5913 86.6851 16.819C86.6918 16.8714 86.6985 16.9238 86.7054 16.9777C86.8173 17.8968 86.8472 18.8103 86.8466 19.7351C86.8467 19.8465 86.8468 19.9579 86.847 20.0693C86.8473 20.5272 86.8474 20.9851 86.8425 21.443C86.8396 21.7276 86.8396 22.0121 86.8416 22.2967C86.8417 22.4032 86.8409 22.5096 86.8388 22.616C86.8247 23.367 86.9686 23.8349 87.3696 24.4506C87.9788 25.4349 88.0443 26.7632 87.8496 27.8825C87.6957 28.5227 87.3959 29.428 86.9122 29.9116C86.9029 30.0562 86.8986 30.2011 86.8962 30.3459C86.8942 30.437 86.8923 30.528 86.8902 30.6218C86.8881 30.7199 86.886 30.8181 86.8838 30.9191C86.7941 34.0031 85.848 36.5335 83.5728 38.6905C82.1927 39.9134 80.4143 40.7742 78.5707 40.9546C77.8153 41.0299 77.4083 41.1773 76.8695 41.7092C76.5872 41.9873 76.2687 42.2004 75.9386 42.4178C75.8592 42.4712 75.8592 42.4712 75.7782 42.5257C75.29 42.8471 74.794 43.1025 74.2736 43.3827C74.2736 44.6814 74.2736 45.98 74.2736 47.318C74.8541 47.5053 74.8541 47.5053 75.4345 47.6925C75.89 47.8394 76.3454 47.9864 76.8009 48.1333C77.0725 48.2209 77.3441 48.3086 77.6157 48.3962C77.6709 48.414 77.7261 48.4318 77.7831 48.4502C78.5575 48.7 79.3321 48.9497 80.1066 49.1991C80.4214 49.3005 80.7362 49.4019 81.0509 49.5034C81.3006 49.5838 81.5504 49.6643 81.8001 49.7447C82.4196 49.944 83.039 50.1441 83.6579 50.3452C83.7355 50.3704 83.813 50.3955 83.8928 50.4214C84.109 50.4917 84.325 50.5625 84.541 50.6335C84.633 50.6633 84.633 50.6633 84.727 50.6938C85.9023 51.083 86.9639 51.6758 87.9717 52.3886C88.0168 52.4203 88.0619 52.4521 88.1084 52.4848C91.14 54.6548 92.7803 57.8814 93.4644 61.4675C93.4964 61.6316 93.5285 61.7957 93.5606 61.9597C93.648 62.4077 93.7342 62.856 93.8201 63.3043C93.8756 63.5937 93.9313 63.8829 93.9871 64.1722C94.2627 65.6005 94.5355 67.0294 94.8076 68.4584C94.9811 69.3696 95.1548 70.2807 95.3284 71.1919C95.3605 71.3598 95.3925 71.5278 95.4245 71.6958C95.6685 72.9766 95.9143 74.2571 96.1655 75.5366C96.2051 75.7386 96.2446 75.9406 96.2841 76.1427C96.3027 76.2377 96.3027 76.2377 96.3216 76.3346C96.3455 76.4572 96.3695 76.5799 96.3934 76.7026C96.4594 77.04 96.5263 77.3773 96.5938 77.7145C96.6244 77.8676 96.6545 78.0209 96.6843 78.1742C96.719 78.3519 96.7543 78.5294 96.7906 78.7068C97.0809 80.2169 97.0809 80.2169 96.7175 80.8537C96.3946 81.2626 96.0047 81.4205 95.4971 81.4828C95.0488 81.4258 94.6993 81.3252 94.3809 80.9909C93.9593 80.4301 93.8857 79.6608 93.7579 78.9878C93.7402 78.896 93.7224 78.8043 93.7041 78.7097C93.656 78.4604 93.6082 78.211 93.5606 77.9616C93.5106 77.6996 93.4601 77.4377 93.4097 77.1758C93.3253 76.7366 93.2412 76.2974 93.1573 75.8581C93.0604 75.3507 92.9629 74.8434 92.8652 74.3362C92.7709 73.8469 92.677 73.3576 92.5833 72.8682C92.5435 72.6604 92.5036 72.4527 92.4635 72.2449C92.4077 71.9552 92.3524 71.6653 92.2972 71.3755C92.2806 71.2896 92.264 71.2036 92.2468 71.1151C92.2244 70.9966 92.2244 70.9966 92.2015 70.8757C92.1884 70.8072 92.1753 70.7388 92.1618 70.6683C92.134 70.4753 92.1291 70.2925 92.1341 70.0977C92.0662 70.0982 91.9984 70.0987 91.9284 70.0992C91.2871 70.1038 90.6458 70.1073 90.0045 70.1095C89.6748 70.1107 89.3452 70.1123 89.0155 70.1148C88.6971 70.1173 88.3786 70.1187 88.0601 70.1193C87.9389 70.1197 87.8178 70.1205 87.6966 70.1217C86.3149 70.1352 86.3149 70.1352 85.8317 69.724C85.7902 69.6725 85.7488 69.621 85.706 69.568C85.6632 69.5164 85.6204 69.4649 85.5763 69.4119C85.3254 69.0512 85.3665 68.6266 85.3986 68.2057C85.529 67.7991 85.8006 67.5263 86.1554 67.2976C86.4854 67.1676 86.7589 67.1276 87.1126 67.129C87.2603 67.129 87.2603 67.129 87.4109 67.129C87.5172 67.1298 87.6236 67.1306 87.7299 67.1314C87.8395 67.1317 87.9492 67.1319 88.0588 67.1321C88.3462 67.1326 88.6336 67.1341 88.921 67.1358C89.2147 67.1374 89.5085 67.138 89.8022 67.1388C90.3777 67.1404 90.9532 67.143 91.5287 67.1462C91.5194 67.1026 91.51 67.0589 91.5005 67.014C91.3058 66.0985 91.1197 65.182 90.9472 64.2621C90.9216 64.1262 90.9215 64.1262 90.8954 63.9876C90.8255 63.6163 90.7556 63.2451 90.6869 62.8736C90.3033 60.7515 90.3033 60.7515 89.5326 58.7457C89.5037 58.6867 89.4749 58.6278 89.4451 58.567C88.0589 55.797 85.6769 54.1655 82.8151 53.2089C82.4408 53.0849 82.0656 52.9636 81.6903 52.8427C81.6148 52.8183 81.5394 52.794 81.4617 52.7689C80.3534 52.4114 79.2438 52.058 78.1333 51.7075C78.1188 51.75 78.1043 51.7925 78.0893 51.8364C78.0221 52.0326 77.9545 52.2286 77.8868 52.4247C77.864 52.4916 77.8411 52.5584 77.8176 52.6273C76.8645 55.3778 74.834 57.605 72.238 58.8926C69.5589 60.1807 66.5211 60.3183 63.7156 59.3453C61.0985 58.3756 59.0279 56.4707 57.7139 54.0299C57.6662 53.9428 57.6662 53.9428 57.6176 53.8538C57.2579 53.1583 57.0567 52.465 56.7916 51.7075C55.0184 52.2819 53.2452 52.8563 51.4183 53.4481C51.4006 53.6251 51.4006 53.6251 51.6016 53.7869C51.6855 53.8664 51.7694 53.9458 51.8534 54.0252C53.4414 55.5786 54.5767 57.6651 55.1089 59.8168C55.1276 59.8924 55.1464 59.968 55.1658 60.046C55.4598 61.2685 55.6798 62.5078 55.9111 63.7433C55.9631 64.0203 56.0157 64.2972 56.0683 64.5741C56.1192 64.842 56.1698 65.1098 56.2202 65.3778C56.2443 65.5051 56.2683 65.6324 56.2925 65.7598C56.3259 65.9361 56.3589 66.1126 56.3918 66.2891C56.4017 66.3411 56.4116 66.393 56.4218 66.4466C56.4663 66.6868 56.4888 66.9003 56.4888 67.1462C56.5392 67.1461 56.5896 67.146 56.6415 67.1459C59.6269 67.1409 62.6123 67.137 65.5978 67.1346C65.9562 67.1343 66.3147 67.134 66.6731 67.1337C66.7802 67.1336 66.7802 67.1336 66.8894 67.1335C68.0449 67.1326 69.2004 67.1308 70.3559 67.1287C71.5416 67.1266 72.7272 67.1253 73.9129 67.1248C74.6445 67.1245 75.3761 67.1235 76.1077 67.1217C76.6094 67.1205 77.1111 67.1201 77.6128 67.1204C77.9022 67.1206 78.1917 67.1203 78.4811 67.1191C78.7951 67.1178 79.109 67.1183 79.423 67.1189C79.5143 67.1182 79.6056 67.1176 79.6996 67.1169C80.2414 67.1198 80.7216 67.144 81.1623 67.4953C81.5139 67.9374 81.6652 68.3094 81.6146 68.8868C81.4584 69.3396 81.278 69.6823 80.8578 69.9274C80.535 70.0619 80.2777 70.1072 79.9279 70.107C79.8464 70.1072 79.7649 70.1073 79.6808 70.1075C79.5913 70.1073 79.5018 70.107 79.4096 70.1068C79.3144 70.1069 79.2193 70.1069 79.1213 70.107C78.8571 70.1072 78.5929 70.1069 78.3286 70.1065C78.0438 70.1062 77.7589 70.1063 77.474 70.1063C76.9804 70.1064 76.4868 70.1061 75.9932 70.1057C75.2796 70.1051 74.5659 70.1049 73.8522 70.1048C72.6944 70.1046 71.5365 70.1041 70.3787 70.1034C69.2538 70.1027 68.129 70.1022 67.0042 70.1019C66.9002 70.1018 66.9002 70.1018 66.7941 70.1018C66.4464 70.1017 66.0986 70.1016 65.7509 70.1015C62.8653 70.1007 59.9798 70.0994 57.0943 70.0977C57.1133 70.1925 57.1322 70.2872 57.1518 70.3848C57.2239 70.7447 57.296 71.1045 57.368 71.4644C57.3989 71.6186 57.4297 71.7728 57.4606 71.9269C57.7502 73.3718 58.0347 74.8175 58.3118 76.2647C58.3617 76.5253 58.4122 76.7858 58.463 77.0462C58.5264 77.3709 58.5889 77.6958 58.6508 78.0208C58.674 78.1415 58.6974 78.2622 58.7212 78.3829C59.0368 79.9893 59.0368 79.9893 58.8302 80.6456C58.5391 81.0399 58.1945 81.3624 57.6997 81.4497C57.2167 81.4552 56.8655 81.3942 56.4888 81.0713C55.9849 80.5674 55.9048 79.8008 55.7791 79.1278C55.7625 79.0411 55.7459 78.9544 55.7288 78.8651C55.6834 78.6269 55.6383 78.3886 55.5934 78.1502C55.545 77.8939 55.4961 77.6376 55.4472 77.3813C55.3632 76.9402 55.2795 76.499 55.196 76.0578C55.0757 75.4222 54.9547 74.7867 54.8336 74.1512C54.4483 72.1301 54.0646 70.1086 53.683 68.0867C53.5309 67.2806 53.3782 66.4746 53.2253 65.6686C53.1191 65.1093 53.0138 64.5499 52.909 63.9904C52.8438 63.6432 52.7779 63.2961 52.7119 62.9491C52.6819 62.791 52.6523 62.6328 52.6229 62.4746C52.3877 61.2083 52.1245 59.9048 51.5413 58.7457C51.5124 58.6868 51.4836 58.6279 51.4539 58.5672C51.2039 58.0672 50.9196 57.6057 50.5858 57.1564C50.5189 57.0644 50.5189 57.0644 50.4507 56.9705C48.7047 54.6759 46.3452 53.6711 43.6764 52.8316C43.3025 52.7135 42.9292 52.5936 42.5557 52.474C41.7517 52.2168 40.947 51.9616 40.142 51.7075C40.1061 51.8026 40.0703 51.8977 40.0345 51.9928C40.0146 52.0457 39.9947 52.0987 39.9741 52.1533C39.9202 52.2988 39.8686 52.4452 39.8174 52.5917C39.2427 54.2065 38.3762 55.5481 37.1904 56.778C37.1457 56.8267 37.1009 56.8754 37.0548 56.9256C35.2575 58.8293 32.4911 59.8783 29.9139 59.9732C27.0287 60.0413 24.2633 59.1344 22.1328 57.1529C21.9526 56.9799 21.7747 56.8056 21.6004 56.6267C21.553 56.5809 21.5055 56.5352 21.4567 56.488C21.1352 56.1755 20.8653 55.8646 20.6165 55.4915C20.5381 55.5188 20.4597 55.5461 20.3789 55.5743C20.2752 55.6098 20.1715 55.6452 20.0679 55.6807C20.0162 55.6987 19.9646 55.7168 19.9115 55.7354C19.6505 55.824 19.4573 55.8699 19.1786 55.8699C19.1767 55.9249 19.1747 55.9799 19.1727 56.0366C19.1048 57.2405 18.6487 58.2196 17.7679 59.0487C16.6944 59.9569 15.1322 60.1685 13.8051 60.5093C13.5239 60.5816 13.2428 60.6542 12.9618 60.727C12.7823 60.7733 12.6028 60.8197 12.4233 60.8659C12.3397 60.8875 12.256 60.9091 12.1698 60.9314C12.092 60.9514 12.0141 60.9714 11.9338 60.992C11.8657 61.0095 11.7976 61.027 11.7274 61.045C10.5985 61.3193 9.43268 61.2334 8.40841 60.6566C7.90901 60.3325 7.4886 59.9224 7.06982 59.5025C6.6883 60.6599 6.43719 61.8266 6.21177 63.0232C6.16209 63.2859 6.11149 63.5485 6.06101 63.8111C5.97454 64.2615 5.88863 64.712 5.80311 65.1626C5.68012 65.8105 5.55608 66.4583 5.43181 67.106C5.00675 69.3217 4.58574 71.5381 4.16726 73.7551C4.09906 74.1163 4.03071 74.4775 3.96227 74.8386C3.94811 74.9133 3.94811 74.9133 3.93367 74.9895C3.88697 75.2359 3.84025 75.4823 3.79352 75.7287C3.68598 76.2961 3.57933 76.8637 3.47338 77.4314C3.40797 77.781 3.34183 78.1304 3.2755 78.4797C3.2452 78.6402 3.21522 78.8007 3.18558 78.9612C3.14528 79.1793 3.10388 79.3971 3.0622 79.615C3.05093 79.6776 3.03965 79.7401 3.02804 79.8046C2.9078 80.4203 2.70134 80.9277 2.17132 81.2883C1.76484 81.4908 1.34519 81.5044 0.916093 81.3646C0.499255 81.1797 0.235534 80.8672 0.0315838 80.4659C-0.0717147 79.6886 0.0987151 78.9101 0.249773 78.1501C0.273367 78.0275 0.296874 77.905 0.320301 77.7824C0.383919 77.4509 0.448742 77.1196 0.513787 76.7884C0.583064 76.4345 0.651194 76.0803 0.719457 75.7262C0.849991 75.0499 0.981521 74.3738 1.11342 73.6978C1.27321 72.8786 1.43175 72.0591 1.59027 71.2397C1.76032 70.3608 1.93057 69.4819 2.10175 68.6032C2.3668 67.2422 2.63034 65.881 2.88752 64.5184C2.92654 64.3119 2.96567 64.1053 3.00485 63.8987C3.01753 63.8318 3.03021 63.7649 3.04328 63.696C3.06851 63.563 3.09375 63.43 3.11899 63.297C3.17918 62.9794 3.23907 62.6619 3.29821 62.3441C3.89574 59.1356 3.89574 59.1356 4.51562 57.8234C4.54372 57.7623 4.57183 57.7011 4.60078 57.6382C4.93957 56.9182 5.342 56.2291 5.78326 55.5672C5.77393 55.3811 5.77393 55.3811 5.7265 55.1793C5.71148 55.1045 5.69645 55.0296 5.68097 54.9526C5.65222 54.8249 5.62182 54.6975 5.58756 54.5712C5.27532 53.3969 5.49364 52.2207 6.0913 51.1804C7.13706 49.5355 8.97166 49.2359 10.7311 48.7864C10.8845 48.747 11.0378 48.7075 11.1912 48.668C11.5917 48.565 11.9922 48.4623 12.3928 48.3597C12.8779 48.2354 13.3628 48.1108 13.8478 47.9861C14.2254 47.889 14.6031 47.792 14.9808 47.6952C15.1191 47.6598 15.2574 47.6243 15.3957 47.5888C15.4613 47.572 15.5269 47.5552 15.5946 47.5379C15.8918 47.4615 16.1887 47.3841 16.4849 47.3034C16.5362 47.2895 16.5875 47.2755 16.6404 47.2611C16.7747 47.2244 16.9089 47.1873 17.0431 47.1501C18.2634 46.8541 19.381 47.0697 20.4652 47.6964C20.5401 47.7464 20.615 47.7963 20.6922 47.8478C21.1277 47.8221 21.5188 47.6837 21.9267 47.5404C22.0478 47.4983 22.1689 47.4564 22.2901 47.4147C22.343 47.3962 22.3959 47.3776 22.4504 47.3585C22.5842 47.318 22.5842 47.318 22.7356 47.318C22.7555 46.77 22.7659 46.2224 22.7698 45.6741C22.7722 45.4878 22.7768 45.3016 22.7836 45.1154C22.864 44.1295 22.864 44.1295 22.5466 43.2366C22.2623 43.0021 21.942 42.8746 21.5961 42.756C21.3983 42.6828 21.2366 42.5769 21.0653 42.455C21.0132 42.4186 20.9611 42.3822 20.9074 42.3447C20.8583 42.3095 20.8091 42.2743 20.7584 42.238C20.7063 42.2022 20.6542 42.1664 20.6006 42.1295C20.1317 41.7975 19.661 41.399 19.557 40.8096C19.5515 40.3265 19.612 39.9746 19.9354 39.5987C20.3486 39.2006 20.6717 39.1161 21.2347 39.1242C21.7207 39.1705 22.0509 39.4417 22.4329 39.7264C24.305 41.1144 26.6168 41.9175 28.9413 42.0204C29.0164 42.0244 29.0914 42.0284 29.1687 42.0326C32.3781 42.1214 35.4968 40.806 37.8322 38.6441C37.9266 38.5547 37.9266 38.5547 38.0229 38.4635C38.0944 38.3969 38.1659 38.3302 38.2396 38.2616C40.5385 36.0758 41.7989 32.973 41.8872 29.8248C41.8949 29.3958 41.8951 28.9669 41.8953 28.5379C41.8956 28.3993 41.8958 28.2608 41.8961 28.1223C41.8965 27.833 41.8967 27.5438 41.8966 27.2546C41.8966 26.9618 41.8971 26.6689 41.8982 26.376C41.9594 23.8916 41.9594 23.8916 41.6556 21.4355C39.6491 21.1875 37.6452 20.9717 35.6274 20.8417C35.4557 20.8304 35.2841 20.8184 35.1125 20.8061C31.2705 20.5343 27.3331 20.5457 23.4924 20.8301C23.3439 20.8407 23.1954 20.8514 23.047 20.8621C21.1204 21.0019 19.2011 21.1773 17.2866 21.4355C17.2624 21.5662 17.2389 21.6971 17.2157 21.8281C17.2025 21.901 17.1893 21.9738 17.1758 22.0489C17.0473 22.984 17.0472 23.9185 17.0469 24.8603C17.0466 25.008 17.0464 25.1557 17.0461 25.3033C17.0456 25.6118 17.0455 25.9202 17.0456 26.2286C17.0456 26.6195 17.0445 27.0103 17.0432 27.4011C17.0424 27.706 17.0422 28.0109 17.0423 28.3157C17.0422 28.4596 17.0419 28.6035 17.0413 28.7473C17.0367 29.9735 17.0548 31.2377 17.3812 32.428C17.3973 32.4895 17.4134 32.5511 17.43 32.6145C17.6189 33.3132 17.8674 33.9914 18.1682 34.6499C18.334 35.066 18.3696 35.4942 18.1986 35.9164C17.9735 36.2971 17.71 36.5513 17.3103 36.7465C16.859 36.8402 16.4109 36.8031 15.9906 36.6046C14.8312 35.7812 14.4855 33.405 14.2594 32.1064C14.2594 32.0564 14.2594 32.0065 14.2594 31.955C14.1423 31.962 14.1423 31.962 14.0229 31.9692C12.6241 31.9643 11.4112 31.3 10.4068 30.377C9.39947 29.3433 8.99758 27.9862 9.00557 26.5766C9.04464 25.1402 9.63738 23.9824 10.6164 22.952C11.6007 22.0205 12.9196 21.5633 14.2594 21.5869C14.2594 21.5369 14.2594 21.487 14.2594 21.4355C14.1985 21.4214 14.1377 21.4074 14.0749 21.3929C13.2384 21.0554 12.7168 20.388 12.3659 19.5852C11.9551 18.5162 12.2147 17.0899 12.2685 15.961C12.2745 15.834 12.2802 15.707 12.2856 15.58C12.3414 14.2925 12.5597 13.319 13.5227 12.3914C13.654 12.2782 13.654 12.2782 13.8053 12.2025C13.8631 12.0089 13.9134 11.8168 13.9614 11.6207C14.5381 9.42801 15.6553 7.40378 17.1353 5.69406C17.1877 5.63319 17.2402 5.57231 17.2943 5.50959C18.3901 4.26639 19.5898 3.24211 20.9949 2.36414C21.0407 2.33549 21.0865 2.30683 21.1336 2.2773C25.9451 -0.686993 32.3483 -0.729119 37.2661 1.98574ZM20.1625 6.75358C20.1 6.81192 20.0376 6.87026 19.9733 6.93036C18.7572 8.1046 17.8571 9.58769 17.2109 11.143C17.2109 11.193 17.2109 11.2429 17.2109 11.2944C17.8332 11.2182 18.455 11.1395 19.076 11.0534C25.9238 10.1091 33.0144 10.0409 40.4681 11.1483C40.5619 11.1628 40.5619 11.1628 40.6575 11.1776C40.7738 11.1958 40.89 11.2142 41.0061 11.2329C41.253 11.2718 41.4803 11.2944 41.7312 11.2944C41.5849 10.8086 41.3972 10.3654 41.1589 9.91795C41.1257 9.85545 41.0925 9.79294 41.0582 9.72855C40.1425 8.0419 38.8037 6.60257 37.2661 5.46702C37.224 5.43543 37.1818 5.40383 37.1383 5.37128C31.9273 1.51422 24.7528 2.46451 20.1625 6.75358ZM58.6079 15.8352C58.566 15.8754 58.5241 15.9157 58.481 15.9572C56.0736 18.3086 55.011 21.6215 54.9656 24.9202C54.9633 25.1841 54.9627 25.4479 54.9625 25.7117C54.9623 25.828 54.962 25.9442 54.9618 26.0605C54.9613 26.3025 54.9612 26.5445 54.9612 26.7865C54.9612 27.0306 54.9607 27.2747 54.9597 27.5188C54.9427 31.5847 55.5843 35.0293 58.4565 38.0851C58.4947 38.1258 58.5328 38.1665 58.5721 38.2085C60.7444 40.5087 63.7764 41.9484 66.9478 42.1043C70.098 42.1933 73.2267 41.0934 75.5696 38.9649C75.6926 38.8482 75.8156 38.7315 75.9386 38.6148C76.0326 38.5353 76.1271 38.4564 76.2224 38.3783C76.5133 38.1301 76.7563 37.8509 76.9981 37.5553C77.055 37.4862 77.1119 37.417 77.1705 37.3457C79.1784 34.8239 79.9609 32.0271 79.9623 28.8353C79.9626 28.7026 79.9628 28.5699 79.9631 28.4372C79.9635 28.1601 79.9637 27.8829 79.9637 27.6058C79.9636 27.2549 79.9647 26.904 79.966 26.5531C79.9668 26.2792 79.967 26.0052 79.9669 25.7313C79.967 25.6021 79.9673 25.473 79.9679 25.3438C79.9717 24.4351 79.9095 23.5483 79.7983 22.6464C79.7104 22.6455 79.7104 22.6455 79.6207 22.6445C79.062 22.6386 78.5033 22.6319 77.9447 22.6246C77.6576 22.6209 77.3706 22.6174 77.0835 22.6144C74.0047 22.5827 74.0047 22.5827 72.7742 22.2632C72.6816 22.2394 72.6816 22.2394 72.5872 22.2151C70.9324 21.7633 69.4752 20.9287 68.2192 19.7705C68.1524 19.7091 68.0856 19.6476 68.0167 19.5843C66.0433 17.6876 65.1089 15.1138 64.8893 12.4296C62.6445 12.4296 60.1237 14.3625 58.6079 15.8352ZM23.4924 13.4134C23.4155 13.4191 23.3385 13.4249 23.2593 13.4308C22.8365 13.4633 22.4147 13.5021 21.993 13.5459C21.9318 13.5521 21.8707 13.5583 21.8077 13.5647C18.4752 13.7886 18.4752 13.7886 15.3189 14.7C15.2482 14.9123 15.2287 15.0628 15.2184 15.2839C15.2149 15.3561 15.2113 15.4283 15.2077 15.5027C15.2043 15.5805 15.2009 15.6583 15.1974 15.7385C15.1938 15.8185 15.1902 15.8984 15.1865 15.9808C15.179 16.1498 15.1717 16.3188 15.1646 16.4879C15.1534 16.7473 15.1411 17.0067 15.1287 17.2661C15.1216 17.4302 15.1145 17.5942 15.1076 17.7582C15.1037 17.8362 15.0999 17.9141 15.0959 17.9945C15.0931 18.0665 15.0903 18.1384 15.0874 18.2126C15.0846 18.2761 15.0818 18.3396 15.0789 18.4051C15.0766 18.5769 15.0766 18.5769 15.2433 18.711C15.4523 18.7183 15.4523 18.7183 15.6926 18.6921C15.7729 18.6855 15.8532 18.6788 15.9359 18.672C16.3135 18.6245 16.6858 18.5552 17.0596 18.484C17.06 18.3718 17.06 18.3718 17.0605 18.2574C17.0622 17.9775 17.0663 17.6977 17.0711 17.4179C17.0729 17.2972 17.074 17.1766 17.0744 17.0559C17.0797 15.744 17.0797 15.744 17.5137 15.3054C17.9033 14.9873 18.2358 14.9554 18.734 14.9734C19.1445 15.0286 19.3783 15.1942 19.6611 15.4993C19.8678 15.8094 19.8729 16.0644 19.8837 16.4297C19.888 16.5671 19.888 16.5671 19.8924 16.7073C19.8957 16.8238 19.8989 16.9403 19.9023 17.0602C19.9132 17.4302 19.9242 17.8001 19.9354 18.1813C21.2091 18.0689 21.2091 18.0689 22.5085 17.9542C22.5244 17.1313 22.5244 17.1313 22.5379 16.3083C22.5403 16.2041 22.5429 16.0999 22.5455 15.9957C22.5462 15.9164 22.5462 15.9164 22.5469 15.8356C22.5609 15.3528 22.6776 15.0096 22.991 14.6385C23.3687 14.3238 23.7161 14.288 24.1945 14.2976C24.5885 14.3434 24.8218 14.5187 25.1053 14.7946C25.4644 15.3798 25.416 16.0791 25.4317 16.7433C25.441 17.093 25.4504 17.4426 25.4601 17.8029C26.3092 17.7779 27.1583 17.7529 28.0332 17.7272C28.046 16.9076 28.046 16.9076 28.0557 16.0881C28.0743 15.0227 28.0743 15.0227 28.4116 14.5486C28.82 14.2338 29.2625 14.1054 29.7738 14.1702C30.2205 14.3139 30.491 14.5473 30.7576 14.927C30.8486 15.1998 30.8508 15.4547 30.8573 15.7391C30.8587 15.7895 30.8601 15.8398 30.8616 15.8917C30.8667 16.0794 30.8713 16.2671 30.8759 16.4548C30.8923 17.0846 30.8923 17.0846 30.909 17.7272C31.7581 17.7521 32.6073 17.7771 33.4821 17.8029C33.498 17.0581 33.498 17.0581 33.5115 16.3132C33.5428 15.1412 33.5428 15.1412 33.9149 14.6955C33.9594 14.6611 34.0039 14.6267 34.0497 14.5912C34.0942 14.5554 34.1387 14.5196 34.1845 14.4827C34.5407 14.2487 34.9655 14.2899 35.3741 14.3216C35.814 14.4682 36.0821 14.757 36.291 15.1692C36.3766 15.4401 36.3848 15.6995 36.3893 15.9809C36.3915 16.0658 36.3915 16.0658 36.3937 16.1524C36.3982 16.332 36.4018 16.5116 36.4053 16.6913C36.4082 16.8135 36.4111 16.9358 36.4141 17.058C36.4214 17.3567 36.4277 17.6555 36.4336 17.9542C36.6922 17.9802 36.9507 18.0051 37.2094 18.0299C37.2812 18.0371 37.353 18.0443 37.4269 18.0518C37.955 18.1017 38.4766 18.114 39.0068 18.1056C39.0079 18.0415 39.009 17.9774 39.0101 17.9113C39.0148 17.6718 39.0204 17.4323 39.0266 17.1928C39.0291 17.0895 39.0313 16.9861 39.033 16.8828C39.0355 16.7336 39.0396 16.5844 39.0437 16.4353C39.0457 16.3457 39.0477 16.2562 39.0497 16.1639C39.0982 15.7889 39.2347 15.479 39.5365 15.2439C39.9575 14.937 40.394 14.9477 40.8988 15.0027C41.2663 15.1293 41.4476 15.2996 41.6686 15.6176C41.9093 16.125 41.8587 16.7227 41.8637 17.2731C41.8658 17.3907 41.8681 17.5082 41.8705 17.6258C41.876 17.9118 41.8798 18.1979 41.8826 18.484C42.0859 18.5224 42.2893 18.5601 42.4928 18.5975C42.5497 18.6083 42.6066 18.6192 42.6653 18.6303C43.0161 18.6941 43.3424 18.7224 43.6989 18.711C43.8997 18.339 43.8571 17.9863 43.8346 17.5779C43.8312 17.5052 43.8278 17.4326 43.8243 17.3577C43.817 17.2045 43.8093 17.0512 43.8012 16.898C43.7888 16.6635 43.7777 16.429 43.7668 16.1945C43.7595 16.0455 43.7522 15.8964 43.7447 15.7474C43.7414 15.6773 43.738 15.6072 43.7345 15.535C43.7292 15.4369 43.7292 15.4369 43.7238 15.3367C43.7208 15.2794 43.7179 15.222 43.7148 15.163C43.6989 15.0024 43.6664 14.8552 43.6232 14.7C42.8836 14.494 42.1459 14.3158 41.3907 14.1749C41.34 14.1655 41.2894 14.156 41.2372 14.1463C39.3954 13.8053 37.5334 13.5882 35.6674 13.4323C35.614 13.4279 35.5607 13.4234 35.5057 13.4188C34.0991 13.3028 32.6932 13.2499 31.2821 13.2493C31.1414 13.2491 31.0007 13.2488 30.86 13.2486C30.5671 13.2481 30.2742 13.248 29.9812 13.248C29.6872 13.248 29.3931 13.2475 29.0991 13.2465C27.2245 13.24 25.3621 13.2736 23.4924 13.4134ZM12.5773 25.1388C12.1435 25.6123 11.9446 26.1078 11.8944 26.7473C11.9366 27.3907 12.1357 27.9363 12.5945 28.3981C13.083 28.7858 13.4746 29.0035 14.1081 29.0035C14.1081 27.53 14.1081 26.0565 14.1081 24.5384C13.5034 24.5384 13.0369 24.7397 12.5773 25.1388ZM44.8341 24.5384C44.8341 26.0119 44.8341 27.4853 44.8341 29.0035C45.6107 28.9172 46.0658 28.7508 46.57 28.1521C46.9191 27.663 47.0933 27.1078 47.0288 26.5061C46.9067 25.8479 46.6225 25.3439 46.0932 24.9274C45.6358 24.6287 45.4297 24.6045 44.8341 24.5384ZM50.5556 25.1477C50.1102 25.6898 49.8614 26.3332 49.9047 27.0358C50.001 27.6472 50.2665 28.1446 50.7534 28.5311C51.2146 28.8488 51.5261 29.0035 52.0994 29.0035C52.0994 27.53 52.0994 26.0565 52.0994 24.5384C51.518 24.5384 50.9838 24.7448 50.5556 25.1477ZM82.8255 24.5384C82.8255 26.0119 82.8255 27.4853 82.8255 29.0035C83.6454 28.9124 84.0896 28.7371 84.6087 28.0992C84.9485 27.6143 85.0586 27.0924 85.0202 26.5061C84.9013 25.8485 84.6122 25.3426 84.0845 24.9274C83.6271 24.6287 83.4211 24.6045 82.8255 24.5384ZM47.7005 30.9806C46.7693 31.6313 45.7873 31.8195 44.6828 31.955C44.6662 32.0249 44.6496 32.0947 44.6325 32.1667C43.5788 36.5357 41.2841 40.2808 37.395 42.6698C37.3494 42.6973 37.3039 42.7249 37.257 42.7533C37.2138 42.7802 37.1706 42.8071 37.1261 42.8348C36.9634 42.9286 36.9634 42.9286 36.7718 43.0132C36.5541 43.1183 36.3845 43.2183 36.2066 43.3827C36.1021 43.6854 36.1179 43.9707 36.1327 44.2879C36.1338 44.3746 36.1348 44.4613 36.1359 44.5506C36.1402 44.8269 36.1497 45.1026 36.1593 45.3787C36.1631 45.5663 36.1666 45.7538 36.1697 45.9413C36.178 46.4004 36.1906 46.8592 36.2066 47.318C37.7089 47.8219 39.2129 48.3205 40.719 48.8127C40.8346 48.8505 40.8346 48.8505 40.9525 48.8891C41.8552 49.1842 42.7589 49.4759 43.6643 49.7623C43.8341 49.8161 44.0039 49.8699 44.1737 49.9238C44.4934 50.0251 44.8133 50.1256 45.1333 50.2257C45.919 50.4734 46.689 50.7395 47.4483 51.0604C48.075 51.3224 48.4477 51.3439 49.0902 51.1275C49.1951 51.0935 49.1951 51.0935 49.3021 51.0589C49.5364 50.9827 49.7702 50.9052 50.004 50.8277C50.1712 50.7731 50.3385 50.7186 50.5058 50.6642C50.8686 50.5462 51.2312 50.4275 51.5937 50.3085C52.1935 50.1118 52.7941 49.9174 53.3948 49.7235C53.4719 49.6987 53.4719 49.6987 53.5506 49.6733C53.7594 49.6059 53.9683 49.5385 54.1772 49.4711C54.5435 49.3529 54.9098 49.2345 55.276 49.1159C56.2485 48.8012 57.2213 48.4876 58.1955 48.178C58.2801 48.1511 58.3646 48.1242 58.4518 48.0965C58.8444 47.9717 59.2372 47.8472 59.6301 47.7232C59.7663 47.68 59.9025 47.6368 60.0387 47.5936C60.1005 47.5742 60.1623 47.5548 60.2259 47.5348C60.4978 47.4656 60.4978 47.4656 60.7269 47.318C60.799 46.7786 60.8059 46.2283 60.8241 45.685C60.8318 45.5012 60.8426 45.3175 60.8567 45.1341C60.9296 44.2419 60.9296 44.2419 60.7269 43.3827C60.3299 42.9428 59.7943 42.714 59.2572 42.4875C58.9932 42.3676 58.7843 42.2172 58.5558 42.0394C58.4864 41.9864 58.4169 41.9334 58.3454 41.8788C58.1538 41.7177 58.1538 41.7177 57.9812 41.5353C57.4371 40.9922 56.9149 40.94 56.1729 40.8432C53.8369 40.5328 51.6669 39.2587 50.2074 37.404C48.9349 35.6883 48.2945 33.8413 48.1546 31.7138C48.148 31.6201 48.1415 31.5264 48.1348 31.4298C48.1189 31.2013 48.1034 30.9727 48.0884 30.7441C47.9424 30.7441 47.8107 30.8966 47.7005 30.9806ZM51.0399 31.8036C51.0771 33.5895 51.9741 35.2292 53.2426 36.4512C53.4531 36.6278 53.6702 36.7515 53.9157 36.8742C53.8143 36.5393 53.6803 36.2309 53.5319 35.9152C52.9942 34.7676 52.6397 33.608 52.3841 32.3686C52.3404 32.1188 52.3404 32.1188 52.2508 31.955C52.046 31.919 51.8469 31.8914 51.6406 31.8699C51.5832 31.8633 51.5258 31.8568 51.4666 31.8501C51.3244 31.834 51.1822 31.8187 51.0399 31.8036ZM83.237 31.8793C83.1563 31.8902 83.1563 31.8902 83.0739 31.9012C82.9407 31.9191 82.8074 31.937 82.6741 31.955C82.6612 32.0074 82.6484 32.0598 82.6351 32.1138C82.5956 32.2733 82.5556 32.4327 82.5154 32.5921C82.4713 32.7671 82.4281 32.9423 82.3859 33.1177C82.0897 34.301 81.6804 35.4587 81.1038 36.5348C80.9978 36.7103 80.9978 36.7103 81.0091 36.8742C82.2029 36.3261 83.0473 34.9367 83.5045 33.7636C83.7361 33.1102 83.8499 32.4966 83.885 31.8036C83.6698 31.8036 83.4505 31.8505 83.237 31.8793ZM25.6871 44.5179C25.6866 44.5964 25.6862 44.6748 25.6857 44.7557C25.6814 45.4961 25.6759 46.2366 25.6693 46.977C25.6659 47.3577 25.6629 47.7383 25.6609 48.119C25.6589 48.4865 25.6558 48.8541 25.652 49.2216C25.6508 49.3616 25.6499 49.5016 25.6494 49.6417C25.6487 49.8382 25.6466 50.0347 25.6441 50.2313C25.6442 50.2888 25.6444 50.3464 25.6445 50.4057C25.636 50.891 25.5249 51.2426 25.1999 51.6176C24.7982 51.9605 24.4766 51.9672 23.9568 51.9585C23.6494 51.9275 23.4889 51.8439 23.2653 51.6318C23.2107 51.5803 23.1561 51.5288 23.0998 51.4757C22.8972 51.1475 22.8219 50.7943 22.7356 50.4209C22.5108 50.4468 22.5108 50.4468 22.2815 50.4966C22.172 50.7155 22.2488 50.8353 22.3146 51.0689C22.4064 51.4328 22.4382 51.7442 22.418 52.1147C22.3784 52.857 22.5473 53.2505 23.0383 53.8265C23.1069 53.9137 23.1753 54.001 23.2435 54.0884C24.4462 55.5964 26.286 56.7517 28.2253 56.9888C30.5753 57.1944 32.7293 56.7466 34.5739 55.2109C35.1987 54.6543 35.7625 54.087 36.2066 53.3724C36.2507 53.3043 36.2948 53.2363 36.3402 53.1661C36.6054 52.7384 36.8136 52.3045 36.9918 51.8352C37.0108 51.7854 37.0297 51.7357 37.0493 51.6844C37.1661 51.3622 37.2285 51.0619 37.2661 50.7236C37.1323 50.6727 36.9982 50.6224 36.8641 50.5723C36.7894 50.5442 36.7148 50.5161 36.6379 50.4871C36.4334 50.4093 36.4334 50.4093 36.2066 50.4209C36.1955 50.4749 36.1844 50.5288 36.1729 50.5844C36.0589 51.0711 35.9281 51.465 35.5255 51.7832C35.1088 51.9897 34.6943 51.9906 34.2389 51.9345C33.7916 51.7791 33.5983 51.5354 33.3963 51.1211C33.29 50.8446 33.2875 50.5849 33.2895 50.2914C33.2887 50.2286 33.2879 50.1658 33.2871 50.101C33.2849 49.8955 33.2847 49.69 33.2846 49.4844C33.2835 49.341 33.2822 49.1977 33.2809 49.0543C33.2776 48.6786 33.276 48.3029 33.2749 47.9271C33.2734 47.5431 33.2702 47.159 33.2672 46.775C33.2615 46.0226 33.2577 45.2703 33.2551 44.5179C33.1114 44.5417 32.9677 44.5656 32.824 44.5895C32.744 44.6028 32.6639 44.6161 32.5815 44.6298C32.3806 44.6636 32.1798 44.6984 31.9792 44.7337C30.2744 45.0133 28.4989 45.0039 26.7976 44.7046C26.5713 44.6651 26.3448 44.6272 26.1182 44.5895C26.0372 44.5761 25.9562 44.5626 25.8728 44.5487C25.7809 44.5335 25.7809 44.5335 25.6871 44.5179ZM63.6784 44.5179C63.6782 44.5971 63.6779 44.6764 63.6776 44.758C63.6748 45.5063 63.6704 46.2545 63.6645 47.0027C63.6615 47.3874 63.6591 47.772 63.6579 48.1566C63.6568 48.5281 63.6542 48.8995 63.6506 49.271C63.6494 49.4124 63.6488 49.5539 63.6488 49.6953C63.6486 49.8941 63.6465 50.0927 63.6441 50.2914C63.6446 50.3784 63.6446 50.3784 63.6452 50.4671C63.6356 50.9683 63.4728 51.3572 63.1439 51.7359C62.7567 51.9501 62.3386 52.047 61.897 51.9818C61.4744 51.8575 61.1723 51.6559 60.9495 51.2637C60.8732 51.0905 60.8313 50.9278 60.7931 50.7426C60.7805 50.6821 60.7678 50.6216 60.7547 50.5593C60.7455 50.5136 60.7364 50.468 60.7269 50.4209C60.5787 50.457 60.4305 50.4933 60.2823 50.5297C60.1998 50.5499 60.1172 50.5701 60.0322 50.5909C59.8244 50.6388 59.8244 50.6388 59.6674 50.7236C59.8847 52.316 60.7581 53.6198 61.8621 54.7347C61.9087 54.7858 61.9552 54.8369 62.0031 54.8896C63.3433 56.3395 65.3757 56.9629 67.2854 57.0947C69.4221 57.1553 71.5004 56.2616 73.0545 54.821C74.0365 53.8245 75.2575 52.1805 75.2575 50.7236C75.1094 50.6729 74.9611 50.6225 74.8129 50.5723C74.689 50.5301 74.689 50.5301 74.5628 50.4871C74.3625 50.4134 74.3625 50.4134 74.198 50.4209C74.1842 50.4766 74.1704 50.5323 74.1563 50.5897C73.9198 51.5076 73.9198 51.5076 73.5026 51.8021C73.0791 52.0196 72.7061 52.0563 72.2539 51.9251C71.8477 51.7698 71.6265 51.5561 71.4276 51.1671C71.2986 50.8541 71.2888 50.5665 71.2894 50.2313C71.2882 50.1382 71.2882 50.1382 71.2871 50.0432C71.2848 49.8397 71.2841 49.6362 71.2834 49.4326C71.2821 49.2909 71.2807 49.1491 71.2793 49.0073C71.2757 48.6355 71.2734 48.2636 71.2714 47.8917C71.2692 47.5117 71.2657 47.1318 71.2622 46.7518C71.2557 46.0072 71.2506 45.2625 71.2464 44.5179C71.1973 44.5267 71.1481 44.5354 71.0975 44.5445C70.8712 44.5847 70.645 44.6246 70.4187 44.6645C70.3027 44.6852 70.3027 44.6852 70.1844 44.7063C69.5273 44.8218 68.8862 44.9073 68.2181 44.9117C68.1628 44.9122 68.1076 44.9127 68.0506 44.9132C67.8735 44.9145 67.6964 44.915 67.5192 44.9152C67.4587 44.9153 67.3981 44.9155 67.3358 44.9156C66.4426 44.9157 65.5737 44.8755 64.6944 44.7046C64.4878 44.6648 64.2809 44.6271 64.0739 44.5895C63.9996 44.5761 63.9253 44.5626 63.8488 44.5487C63.7926 44.5386 63.7364 44.5284 63.6784 44.5179ZM17.8164 49.9668C17.8582 50.5498 17.9958 51.0987 18.1481 51.661C18.1904 51.8176 18.2316 51.9744 18.2727 52.1313C18.2994 52.2311 18.3261 52.331 18.3529 52.4309C18.377 52.5209 18.4011 52.6109 18.4259 52.7036C18.4821 52.9255 18.4821 52.9255 18.6489 53.0697C19.0917 52.8978 19.0917 52.8978 19.4861 52.6393C19.7408 52.011 19.4631 51.2399 19.2402 50.6331C19.0855 50.2903 18.8258 50.131 18.4975 49.9668C18.3213 49.9589 18.1466 49.9621 17.9703 49.9646C17.9195 49.9654 17.8687 49.9661 17.8164 49.9668ZM14.1251 50.911C14.0751 50.9238 14.0251 50.9366 13.9735 50.9497C13.8088 50.9921 13.6443 51.0357 13.4799 51.0793C13.3648 51.1093 13.2497 51.1392 13.1346 51.1691C12.8934 51.2318 12.6524 51.2952 12.4115 51.359C12.1041 51.4403 11.7964 51.5203 11.4886 51.5999C11.2507 51.6616 11.0131 51.7239 10.7755 51.7864C10.6622 51.8161 10.5488 51.8456 10.4354 51.875C9.46303 52.1056 9.46304 52.1056 8.63072 52.6298C8.3515 53.1131 8.32748 53.5546 8.46033 54.0893C8.47861 54.1562 8.49689 54.2232 8.51572 54.2921C8.53388 54.3633 8.55203 54.4344 8.57073 54.5077C8.62873 54.7336 8.68882 54.9588 8.74897 55.184C8.78798 55.3349 8.82686 55.4858 8.86559 55.6368C9.00624 56.181 9.1496 56.7243 9.30484 57.2645C9.32204 57.3247 9.33925 57.3849 9.35697 57.4469C9.48901 57.8135 9.70502 58.0114 10.0403 58.2112C10.6857 58.3941 11.3846 58.1337 12.0159 57.9709C12.1113 57.9465 12.2067 57.9221 12.305 57.897C12.5057 57.8456 12.7064 57.7939 12.907 57.7419C13.163 57.6756 13.4193 57.6105 13.6757 57.5457C13.922 57.4833 14.168 57.4196 14.414 57.356C14.5056 57.333 14.5971 57.3099 14.6914 57.2862C15.335 57.1174 15.7546 56.9581 16.1514 56.3996C16.4364 55.8296 16.1149 55.0453 15.9622 54.4742C15.935 54.37 15.9078 54.2658 15.8808 54.1616C15.8098 53.8893 15.7379 53.6173 15.6658 53.3453C15.5921 53.0669 15.5194 52.7883 15.4466 52.5097C15.3041 51.9645 15.1605 51.4197 15.0162 50.875C14.6848 50.7805 14.4559 50.8249 14.1251 50.911Z" fill="url(#paint0_linear_177_1152)"/>
<path d="M22.6403 64.7123C22.7307 64.7119 22.7307 64.7119 22.823 64.7114C23.0257 64.7106 23.2284 64.7103 23.4311 64.71C23.5761 64.7095 23.7212 64.709 23.8663 64.7085C24.3433 64.7069 24.8204 64.7061 25.2975 64.7054C25.4617 64.7051 25.6259 64.7048 25.7902 64.7044C26.5618 64.703 27.3335 64.7019 28.1052 64.7013C28.9958 64.7006 29.8864 64.6986 30.777 64.6955C31.4654 64.6932 32.1538 64.6921 32.8422 64.6919C33.2534 64.6917 33.6645 64.691 34.0756 64.6891C34.4626 64.6873 34.8496 64.687 35.2366 64.6878C35.3783 64.6878 35.5201 64.6873 35.6619 64.6863C37.1702 64.6759 37.1702 64.6759 37.7076 65.148C38.1772 65.6982 38.086 66.4428 38.0805 67.1227C38.081 67.2665 38.0817 67.4103 38.0825 67.554C38.0843 67.9431 38.0832 68.332 38.0814 68.7211C38.08 69.1289 38.0808 69.5366 38.0814 69.9444C38.0818 70.629 38.0805 71.3136 38.078 71.9982C38.0751 72.789 38.0753 73.5797 38.077 74.3705C38.0786 75.1323 38.078 75.894 38.0765 76.6557C38.0759 76.9795 38.0761 77.3032 38.0768 77.6269C38.0776 78.0083 38.0765 78.3896 38.074 78.771C38.0734 78.9107 38.0734 79.0504 38.0742 79.1901C38.0801 80.5029 38.0801 80.5029 37.6445 80.9946C37.2496 81.309 36.9484 81.4031 36.4449 81.3937C35.9462 81.3302 35.6167 81.0453 35.3082 80.6679C35.1627 80.4509 35.1377 80.2611 35.138 80.0075C35.1378 79.9146 35.1378 79.9146 35.1377 79.8198C35.1379 79.7518 35.1382 79.6838 35.1385 79.6138C35.1385 79.541 35.1385 79.4682 35.1385 79.3932C35.1385 79.1573 35.1391 78.9214 35.1397 78.6855C35.1398 78.5399 35.1399 78.3944 35.1399 78.2489C35.1403 77.7088 35.1414 77.1688 35.1424 76.6288C35.1439 75.4222 35.1455 74.2157 35.1471 72.9725C31.4009 72.9725 27.6548 72.9725 23.7951 72.9725C23.8071 75.3363 23.8071 75.3363 23.8224 77.7C23.8237 78.1585 23.8237 78.1585 23.824 78.3735C23.8245 78.5228 23.8255 78.6721 23.8271 78.8214C23.8293 79.0483 23.8296 79.2752 23.8295 79.5021C23.8306 79.568 23.8316 79.6339 23.8328 79.7018C23.8295 80.1867 23.7217 80.5951 23.3855 80.9589C23.0021 81.2974 22.6578 81.41 22.1559 81.3967C21.739 81.341 21.455 81.1484 21.1558 80.8622C20.8623 80.4134 20.8209 79.9418 20.8244 79.4163C20.8241 79.3596 20.8239 79.303 20.8236 79.2446C20.823 79.0565 20.8235 78.8684 20.824 78.6803C20.8238 78.5448 20.8235 78.4092 20.8232 78.2736C20.8225 77.9067 20.8228 77.5397 20.8233 77.1727C20.8236 76.7881 20.8233 76.4034 20.823 76.0188C20.8228 75.3729 20.8231 74.7271 20.8238 74.0812C20.8247 73.3353 20.8244 72.5893 20.8236 71.8434C20.8229 71.2021 20.8228 70.5609 20.8232 69.9196C20.8234 69.537 20.8235 69.1543 20.823 68.7717C20.8225 68.4119 20.8228 68.0521 20.8237 67.6923C20.8239 67.5605 20.8238 67.4288 20.8235 67.297C20.8231 67.1166 20.8236 66.9362 20.8244 66.7558C20.8239 66.6783 20.8239 66.6783 20.8233 66.5991C20.8278 66.0401 20.9307 65.5382 21.2977 65.1018C21.7328 64.7909 22.1169 64.7121 22.6403 64.7123ZM23.7951 67.6749C23.7951 68.4491 23.7951 69.2233 23.7951 70.021C27.5413 70.021 31.2874 70.021 35.1471 70.021C35.1471 69.2468 35.1471 68.4726 35.1471 67.6749C31.4009 67.6749 27.6548 67.6749 23.7951 67.6749Z" fill="url(#paint1_linear_177_1152)"/>
<path d="M62.5669 24.5099C62.9366 24.7228 63.1637 24.9724 63.3086 25.3817C63.3842 25.7105 63.4017 26.0093 63.3993 26.3452C63.3989 26.4353 63.3989 26.4353 63.3984 26.5273C63.3867 27.1321 63.2968 27.6573 62.8459 28.0953C62.4353 28.369 61.9533 28.4508 61.4677 28.3702C61.0607 28.2439 60.8033 27.9966 60.5755 27.6412C60.3856 27.2287 60.3964 26.8539 60.3958 26.4066C60.3939 26.3304 60.3921 26.2542 60.3902 26.1756C60.3879 25.6051 60.4823 25.1939 60.8644 24.7609C60.908 24.7265 60.9516 24.692 60.9965 24.6565C61.0403 24.6207 61.0841 24.5849 61.1292 24.5481C61.5408 24.2721 62.1309 24.3102 62.5669 24.5099Z" fill="url(#paint2_linear_177_1152)"/>
<path d="M35.7811 24.5052C36.1128 24.6966 36.3629 24.9852 36.4749 25.3549C36.5442 25.6897 36.53 26.0329 36.5332 26.3736C36.5354 26.4502 36.5376 26.5268 36.5398 26.6057C36.545 27.2237 36.4252 27.6233 36.0129 28.0859C35.6913 28.3246 35.3134 28.3855 34.9202 28.398C34.4617 28.3295 34.1551 28.1562 33.8607 27.7926C33.4102 27.149 33.4875 26.2029 33.5876 25.4515C33.7102 24.9981 34.008 24.7218 34.3905 24.4627C34.838 24.3135 35.3464 24.3115 35.7811 24.5052Z" fill="url(#paint3_linear_177_1152)"/>
<path d="M73.9136 24.5881C74.2082 24.8133 74.3848 25.0987 74.5007 25.4466C74.5223 25.7411 74.5218 26.036 74.5244 26.3312C74.5266 26.4117 74.5288 26.4922 74.531 26.5752C74.5355 27.1271 74.4744 27.5638 74.0938 27.9833C73.7977 28.2516 73.5142 28.3917 73.1143 28.4032C72.6543 28.38 72.2636 28.2713 71.9276 27.9441C71.5526 27.4596 71.5794 26.9885 71.5871 26.3926C71.5859 26.302 71.5847 26.2114 71.5835 26.118C71.5858 25.6012 71.6123 25.2576 71.9276 24.8412C72.489 24.3087 73.2325 24.2021 73.9136 24.5881Z" fill="url(#paint4_linear_177_1152)"/>
<path d="M24.4838 24.4395C24.871 24.6451 25.1696 24.9548 25.3086 25.3716C25.3304 25.7071 25.3296 26.043 25.3322 26.3791C25.3344 26.4717 25.3366 26.5643 25.3389 26.6598C25.3436 27.3362 25.2705 27.5917 24.8072 28.0772C24.5056 28.3111 24.172 28.3857 23.795 28.3988C23.3299 28.3264 22.9819 28.1309 22.6598 27.7934C22.3968 27.3233 22.396 26.8912 22.3996 26.3602C22.3981 26.281 22.3966 26.2018 22.395 26.1203C22.3954 25.5595 22.468 25.1127 22.8729 24.7026C22.9165 24.6752 22.9601 24.6478 23.005 24.6195C23.0707 24.5764 23.0707 24.5764 23.1378 24.5323C23.5334 24.3185 24.0585 24.3012 24.4838 24.4395Z" fill="url(#paint5_linear_177_1152)"/>
<defs>
<linearGradient id="paint0_linear_177_1152" x1="27.5" y1="5" x2="82.5" y2="70" gradientUnits="userSpaceOnUse">
<stop stop-color="#D265F8"/>
<stop offset="0.435496" stop-color="#3964FC"/>
<stop offset="1" stop-color="#69C331"/>
</linearGradient>
<linearGradient id="paint1_linear_177_1152" x1="25.7184" y1="65.7094" x2="37.1542" y2="77.439" gradientUnits="userSpaceOnUse">
<stop stop-color="#D265F8"/>
<stop offset="0.435496" stop-color="#3964FC"/>
<stop offset="1" stop-color="#69C331"/>
</linearGradient>
<linearGradient id="paint2_linear_177_1152" x1="61.2433" y1="24.5991" x2="63.8914" y2="26.5529" gradientUnits="userSpaceOnUse">
<stop stop-color="#D265F8"/>
<stop offset="0.435496" stop-color="#3964FC"/>
<stop offset="1" stop-color="#69C331"/>
</linearGradient>
<linearGradient id="paint3_linear_177_1152" x1="34.3695" y1="24.603" x2="37.0198" y2="26.5743" gradientUnits="userSpaceOnUse">
<stop stop-color="#D265F8"/>
<stop offset="0.435496" stop-color="#3964FC"/>
<stop offset="1" stop-color="#69C331"/>
</linearGradient>
<linearGradient id="paint4_linear_177_1152" x1="72.4192" y1="24.6053" x2="75.0493" y2="26.5076" gradientUnits="userSpaceOnUse">
<stop stop-color="#D265F8"/>
<stop offset="0.435496" stop-color="#3964FC"/>
<stop offset="1" stop-color="#69C331"/>
</linearGradient>
<linearGradient id="paint5_linear_177_1152" x1="23.2297" y1="24.599" x2="25.8596" y2="26.4978" gradientUnits="userSpaceOnUse">
<stop stop-color="#D265F8"/>
<stop offset="0.435496" stop-color="#3964FC"/>
<stop offset="1" stop-color="#69C331"/>
</linearGradient>
</defs>
</svg>
