<svg width="69" height="70" viewBox="0 0 69 70" fill="none" xmlns="http://www.w3.org/2000/svg">
<path d="M14.482 0.0471612C14.6397 0.0465614 14.7974 0.0459615 14.9599 0.0453435C15.1353 0.0453683 15.3108 0.0453931 15.4916 0.0454187C15.6782 0.044975 15.8647 0.0444738 16.0513 0.0439194C16.5665 0.042567 17.0816 0.0420703 17.5967 0.0417141C18.1514 0.04119 18.7061 0.039901 19.2608 0.0387251C20.6021 0.0360615 21.9434 0.0347102 23.2847 0.0335138C23.9162 0.0329244 24.5477 0.0322021 25.1792 0.0314968C27.2786 0.0292067 29.378 0.0272566 31.4773 0.0262827C32.0226 0.0260257 32.5678 0.0257673 33.1131 0.0255042C33.3163 0.0254065 33.3163 0.0254065 33.5237 0.0253069C35.7171 0.0241909 37.9106 0.0207836 40.104 0.0164104C42.3556 0.0119576 44.6073 0.00953638 46.859 0.00910666C48.1233 0.00881549 49.3876 0.00764083 50.6519 0.00420037C51.7292 0.0012757 52.8064 0.000197963 53.8837 0.00150466C54.4331 0.00211523 54.9824 0.00186684 55.5317 -0.000750792C56.0355 -0.00313065 56.5393 -0.00298324 57.0431 -0.000899176C57.3099 -0.000430616 57.5766 -0.002596 57.8434 -0.00488281C59.4801 0.00681487 60.7624 0.427345 62.0674 1.41084C62.1839 1.48855 62.3005 1.56626 62.4206 1.64633C63.6504 2.81138 64.4045 4.44349 64.5168 6.1263C64.5471 8.15485 63.9443 9.84226 62.5415 11.3243C60.3124 13.3808 58.095 13.1177 55.0702 13.1177C55.0702 17.5139 55.0702 21.91 55.0702 26.4394C59.2912 26.4287 59.2912 26.4287 63.5122 26.4151C64.3291 26.4139 64.3291 26.4139 64.7118 26.4137C64.9786 26.4133 65.2455 26.4123 65.5123 26.411C65.9168 26.409 66.3214 26.4087 66.7259 26.4088C66.8445 26.4079 66.9631 26.4069 67.0853 26.4059C67.663 26.4079 68.1465 26.4124 68.6609 26.7085C68.9521 27.1452 68.9641 27.2657 68.966 27.7701C68.9672 27.9058 68.9683 28.0414 68.9695 28.1812C68.9694 28.3299 68.9693 28.4786 68.9691 28.6318C68.9705 28.8668 68.9705 28.8668 68.9719 29.1066C68.9744 29.626 68.975 30.1455 68.9752 30.6649C68.9759 30.9341 68.9765 31.2033 68.9773 31.4725C68.9794 32.319 68.9801 33.1655 68.9799 34.012C68.9798 34.8853 68.9826 35.7586 68.9868 36.6319C68.9904 37.3816 68.9918 38.1314 68.9916 38.8812C68.9916 39.329 68.9926 39.7768 68.9952 40.2246C68.9978 40.724 68.997 41.2233 68.9954 41.7227C68.9969 41.8711 68.9984 42.0195 69 42.1724C68.9983 42.3764 68.9983 42.3764 68.9966 42.5846C68.9967 42.7027 68.9969 42.8207 68.997 42.9424C68.9067 43.3704 68.7327 43.5317 68.3918 43.7979C68.0078 43.8482 67.6765 43.8661 67.2931 43.859C67.1828 43.8591 67.0724 43.8591 66.9588 43.8592C66.5947 43.8589 66.2307 43.8547 65.8667 43.8504C65.614 43.8494 65.3614 43.8487 65.1087 43.8481C64.4441 43.8461 63.7796 43.8408 63.1151 43.8348C62.3175 43.8284 61.52 43.8259 60.7224 43.8228C59.5111 43.8175 58.2999 43.8072 57.0886 43.7979C57.0886 46.3734 57.0886 48.9489 57.0886 51.6025C57.8594 51.5962 58.6303 51.59 59.4245 51.5836C59.9126 51.5808 60.4008 51.5782 60.8889 51.5762C61.6638 51.573 62.4387 51.5692 63.2137 51.5619C63.8384 51.556 64.463 51.5528 65.0878 51.5514C65.3262 51.5504 65.5646 51.5485 65.803 51.5456C66.1368 51.5417 66.4704 51.5411 66.8043 51.5414C66.903 51.5394 67.0017 51.5375 67.1034 51.5355C67.561 51.5392 67.8111 51.5711 68.1835 51.8465C68.4924 52.2828 68.4741 52.5612 68.3918 53.0827C68.1698 53.3047 67.9477 53.5267 67.719 53.7555C67.0529 53.7555 66.3868 53.7555 65.7006 53.7555C65.7006 58.0628 65.7006 62.3701 65.7006 66.808C66.3666 66.808 67.0327 66.808 67.719 66.808C68.3918 67.3462 68.3918 67.3462 68.4764 67.6154C68.472 67.7486 68.472 67.7486 68.4675 67.8845C68.4678 68.0177 68.4678 68.0177 68.468 68.1536C68.3536 68.5577 68.1869 68.7046 67.8535 68.961C67.4656 69.0148 67.1288 69.036 66.7408 69.0328C66.6289 69.0339 66.5171 69.0351 66.4018 69.0363C66.0322 69.0393 65.6628 69.0384 65.2932 69.0372C65.0361 69.0379 64.779 69.0387 64.522 69.0397C63.9832 69.0411 63.4445 69.0405 62.9057 69.0385C62.2154 69.0362 61.5253 69.0394 60.8351 69.0441C60.3042 69.0471 59.7733 69.0469 59.2424 69.0458C58.988 69.0457 58.7335 69.0466 58.479 69.0486C58.1231 69.0509 57.7673 69.049 57.4114 69.0459C57.3064 69.0475 57.2015 69.0491 57.0933 69.0507C56.5545 69.0413 56.3079 68.982 55.8794 68.6445C55.6084 68.2882 55.6084 68.2882 55.5243 67.8845C55.6436 67.3118 55.805 67.1534 56.2812 66.808C56.8332 66.7134 57.3778 66.7298 57.9364 66.7423C58.0968 66.7432 58.2571 66.7442 58.4223 66.7452C58.9338 66.7489 59.445 66.7574 59.9564 66.7659C60.3034 66.7693 60.6504 66.7724 60.9975 66.7751C61.8476 66.7826 62.6975 66.7942 63.5476 66.808C63.5476 65.8311 63.5476 64.8541 63.5476 63.8476C62.988 63.8494 62.988 63.8494 62.4171 63.8512C58.9083 63.8622 55.3995 63.8703 51.8907 63.8755C51.5318 63.8761 51.173 63.8766 50.8141 63.8772C50.7249 63.8773 50.6357 63.8775 50.5438 63.8776C49.0989 63.88 47.6539 63.8842 46.209 63.8892C44.7267 63.8942 43.2445 63.8971 41.7622 63.8983C40.9295 63.899 40.0967 63.9006 39.264 63.9045C38.4807 63.9082 37.6975 63.9093 36.9142 63.9085C36.6262 63.9087 36.3383 63.9097 36.0504 63.9118C35.6581 63.9145 35.2659 63.9138 34.8736 63.9124C34.7589 63.9139 34.6443 63.9155 34.5261 63.9171C34.0375 63.9121 33.7373 63.8924 33.3344 63.6039C33.0458 63.1744 33.0733 62.8731 33.1366 62.3674C33.3734 61.9389 33.4728 61.8517 33.9439 61.6946C34.3358 61.682 34.7244 61.6771 35.1163 61.6785C35.2376 61.6783 35.3588 61.6782 35.4837 61.6781C35.8916 61.6779 36.2994 61.6786 36.7073 61.6794C36.999 61.6794 37.2907 61.6794 37.5824 61.6793C38.3758 61.6793 39.1693 61.6801 39.9627 61.681C40.7913 61.6818 41.6199 61.6819 42.4486 61.6821C44.0184 61.6825 45.5882 61.6836 47.1579 61.6849C48.9448 61.6864 50.7317 61.6872 52.5185 61.6879C56.1949 61.6893 59.8712 61.6917 63.5476 61.6946C63.5476 60.7177 63.5476 59.7408 63.5476 58.7343C63.3372 58.7348 63.1269 58.7353 62.9102 58.7358C57.9205 58.7474 52.9309 58.7563 47.9412 58.7618C47.3274 58.7624 46.7136 58.7631 46.0998 58.7638C45.9165 58.764 45.9165 58.764 45.7295 58.7643C43.7494 58.7666 41.7694 58.7709 39.7893 58.7758C37.7584 58.7808 35.7275 58.7838 33.6966 58.7849C32.4429 58.7857 31.1892 58.788 29.9354 58.7924C29.0763 58.7952 28.2173 58.7961 27.3582 58.7954C26.8622 58.795 26.3661 58.7956 25.8701 58.7984C25.3328 58.8015 24.7957 58.8005 24.2584 58.799C24.1008 58.8006 23.9432 58.8021 23.7808 58.8037C23.6373 58.8027 23.4937 58.8016 23.3458 58.8005C23.2217 58.8007 23.0977 58.8009 22.9699 58.8011C22.5336 58.7125 22.373 58.5434 22.1025 58.196C22.0352 57.7251 22.0352 57.7251 22.1025 57.2541C22.373 56.9067 22.5336 56.7376 22.9699 56.649C23.0939 56.6492 23.218 56.6494 23.3458 56.6496C23.4894 56.6485 23.6329 56.6475 23.7808 56.6464C23.9384 56.6479 24.096 56.6495 24.2584 56.6511C24.5097 56.6504 24.5097 56.6504 24.766 56.6497C25.2312 56.649 25.6964 56.6507 26.1616 56.6534C26.6631 56.6557 27.1647 56.6549 27.6662 56.6545C28.5353 56.6542 29.4043 56.6559 30.2734 56.6589C31.5299 56.6633 32.7864 56.6647 34.0429 56.6654C36.0815 56.6666 38.1201 56.6701 40.1586 56.6752C42.139 56.6802 44.1194 56.684 46.0998 56.6863C46.2829 56.6865 46.2829 56.6865 46.4697 56.6867C47.0819 56.6874 47.6942 56.6881 48.3065 56.6888C53.3868 56.6943 58.4672 56.7039 63.5476 56.7158C63.5476 55.7389 63.5476 54.762 63.5476 53.7555C57.0415 53.7634 50.5354 53.7734 44.0294 53.7863C43.2612 53.7878 42.493 53.7893 41.7248 53.7908C41.4954 53.7912 41.4954 53.7912 41.2613 53.7917C38.7854 53.7964 36.3096 53.7998 33.8337 53.8026C31.293 53.8055 28.7522 53.81 26.2115 53.8159C24.6439 53.8194 23.0763 53.8218 21.5087 53.8227C20.4336 53.8234 19.3584 53.8256 18.2833 53.8289C17.6631 53.8308 17.043 53.832 16.4228 53.8315C15.8544 53.831 15.286 53.8324 14.7177 53.8353C14.5126 53.836 14.3076 53.836 14.1025 53.8353C12.0859 53.829 10.2911 54.1828 8.74718 55.5721C7.50217 56.9093 6.95336 58.6958 6.99893 60.4957C7.15364 62.3547 7.86796 64.0562 9.24916 65.3362C10.721 66.468 12.2374 66.7151 14.0417 66.7064C14.2021 66.7067 14.3626 66.707 14.5279 66.7073C14.9704 66.7079 15.4128 66.7073 15.8552 66.7062C16.3334 66.7053 16.8117 66.706 17.29 66.7065C18.1177 66.7072 18.9455 66.707 19.7733 66.7062C21.0816 66.7051 22.3898 66.7066 23.6981 66.7086C24.146 66.7092 24.594 66.7098 25.042 66.7104C25.1539 66.7105 25.2658 66.7107 25.3812 66.7108C26.6535 66.7124 27.9259 66.7135 29.1983 66.7143C29.3727 66.7144 29.3727 66.7144 29.5506 66.7145C31.437 66.7156 33.3233 66.7152 35.2097 66.7144C37.1474 66.7136 39.0851 66.7154 41.0228 66.7194C42.2177 66.7218 43.4125 66.722 44.6073 66.7195C45.4254 66.7179 46.2434 66.7188 47.0615 66.7216C47.5336 66.7231 48.0057 66.7235 48.4778 66.721C48.9893 66.7183 49.5007 66.7208 50.0122 66.7238C50.1618 66.7222 50.3114 66.7205 50.4655 66.7189C51.4655 66.7309 51.4655 66.7309 52.0001 67.1197C52.3227 67.5967 52.3469 67.8585 52.2444 68.4227C51.9516 68.7753 51.7096 68.9397 51.2529 69.0101C50.8371 69.0308 50.4246 69.0327 50.0083 69.0293C49.8483 69.0302 49.6882 69.031 49.5233 69.0319C49.0794 69.0337 48.6357 69.033 48.1918 69.0313C47.7128 69.0301 47.2339 69.032 46.755 69.0335C45.8165 69.0359 44.878 69.0354 43.9395 69.0338C43.1759 69.0326 42.4124 69.0324 41.6488 69.033C41.4858 69.0331 41.4858 69.0331 41.3194 69.0333C41.0986 69.0334 40.8777 69.0336 40.6568 69.0338C38.5844 69.0353 36.5121 69.0336 34.4397 69.0307C32.6649 69.0283 30.8901 69.0287 29.1152 69.0312C27.0525 69.034 24.9899 69.0352 22.9272 69.0335C22.7067 69.0333 22.4861 69.0332 22.2656 69.033C22.1572 69.0329 22.0487 69.0328 21.9369 69.0328C21.1758 69.0323 20.4147 69.0331 19.6536 69.0343C18.7237 69.0359 17.7939 69.0354 16.8641 69.0326C16.3904 69.0312 15.9168 69.0306 15.4431 69.0324C12.3118 69.0414 9.5806 68.87 7.19446 66.5804C5.34093 64.645 4.54845 62.3478 4.57208 59.6909C4.67657 57.5137 5.62749 55.4286 7.16608 53.89C7.04882 53.885 6.93156 53.88 6.81075 53.8748C5.10478 53.7806 3.74046 53.5277 2.32185 52.5444C2.19973 52.4612 2.07762 52.3779 1.9518 52.2921C0.836313 51.2386 0.104812 49.8322 0.00222793 48.2968C-0.0299069 46.5666 0.278653 45.1832 1.37991 43.7979C1.44426 43.7151 1.50862 43.6324 1.57492 43.5472C2.36136 42.6537 3.60058 42.0653 4.74396 41.7795C5.45445 41.7795 6.16494 41.7795 6.89695 41.7795C6.89695 37.4277 6.89695 33.076 6.89695 28.5924C5.16514 28.5924 3.43333 28.5924 1.64904 28.5924C1.11079 28.1887 1.11079 28.1887 1.01109 27.9376C0.97113 27.6085 0.958084 27.2894 0.956679 26.9577C0.955391 26.7509 0.955391 26.7509 0.954077 26.5399C0.953927 26.3917 0.953778 26.2435 0.953623 26.0909C0.953176 25.9379 0.952728 25.785 0.952266 25.6274C0.951585 25.304 0.951269 24.9806 0.951291 24.6573C0.950997 24.1626 0.948552 23.668 0.946002 23.1734C0.945607 22.8591 0.94534 22.5449 0.945213 22.2306C0.944246 22.0827 0.94328 21.9348 0.942283 21.7825C0.942697 21.6442 0.943111 21.5059 0.943538 21.3634C0.943346 21.2422 0.943154 21.121 0.942957 20.9961C0.980162 20.6126 1.07809 20.3265 1.24535 19.9804C1.60325 19.6888 1.79549 19.7119 2.26297 19.7365C2.72553 19.8458 2.72553 19.8458 3.12922 20.2495C3.12922 22.2922 3.12922 24.3348 3.12922 26.4394C12.2323 26.4394 21.3355 26.4394 30.7144 26.4394C30.7144 22.0432 30.7144 17.6471 30.7144 13.1177C21.6113 13.1177 12.5082 13.1177 3.12922 13.1177C3.12922 14.1391 3.12922 15.1604 3.12922 16.2127C2.6809 16.661 2.53521 16.7262 1.91816 16.7509C1.54368 16.5892 1.31964 16.4602 1.09439 16.1177C0.855946 15.4947 0.93157 14.8045 0.933748 14.1455C0.934172 13.8765 0.930901 13.6075 0.927605 13.3385C0.927518 13.1675 0.927431 12.9964 0.927342 12.8202C0.926941 12.6644 0.92654 12.5086 0.926126 12.348C0.98257 11.8508 1.12117 11.5253 1.37991 11.0993C1.70079 10.9389 1.89545 10.9482 2.25355 10.9486C2.38073 10.9484 2.50791 10.9482 2.63894 10.948C2.84888 10.9487 2.84888 10.9487 3.06305 10.9495C3.21009 10.9495 3.35712 10.9494 3.50861 10.9494C3.99644 10.9495 4.48426 10.9506 4.97209 10.9516C5.3096 10.9519 5.64711 10.952 5.98462 10.9522C6.78333 10.9526 7.58204 10.9537 8.38075 10.9551C9.53856 10.957 10.6964 10.9577 11.8542 10.9585C13.4761 10.9598 15.098 10.9624 16.72 10.9647C16.72 8.03399 16.72 5.10322 16.72 2.08365C15.7431 2.08365 14.7661 2.08365 13.7596 2.08365C13.3113 1.63533 13.2461 1.48965 13.2214 0.872595C13.5731 0.153215 13.7012 0.0485305 14.482 0.0471612ZM18.873 2.08365C18.873 3.23819 18.873 4.39274 18.873 5.58227C19.1499 5.58305 19.4269 5.58384 19.7123 5.58466C22.3181 5.59227 24.9239 5.60211 27.5297 5.61398C28.8695 5.62004 30.2093 5.62534 31.5491 5.62888C32.7167 5.63197 33.8842 5.63646 35.0518 5.64264C35.6702 5.64587 36.2886 5.64839 36.9069 5.64923C37.4888 5.65004 38.0706 5.65272 38.6524 5.65685C38.8661 5.65803 39.0799 5.65853 39.2936 5.65829C39.5851 5.65807 39.8766 5.66031 40.1681 5.66317C40.4129 5.6641 40.4129 5.6641 40.6627 5.66505C41.1093 5.72104 41.2973 5.80647 41.614 6.12051C41.6807 6.38123 41.6807 6.38123 41.6728 6.65876C41.6726 6.79614 41.6726 6.79614 41.6723 6.9363C41.5941 7.28575 41.4985 7.38651 41.2103 7.6007C40.8117 7.65247 40.8117 7.65247 40.3137 7.65435C40.2222 7.65524 40.1306 7.65614 40.0363 7.65706C39.7288 7.65957 39.4214 7.65922 39.1139 7.65888C38.8938 7.66009 38.6737 7.66148 38.4536 7.66303C37.8553 7.66675 37.2571 7.66799 36.6588 7.6688C36.0338 7.67006 35.4088 7.67358 34.7839 7.67687C33.6001 7.68276 32.4163 7.68659 31.2326 7.6897C29.885 7.69334 28.5374 7.69925 27.1899 7.70535C24.4176 7.71785 21.6453 7.72741 18.873 7.73526C18.873 8.80099 18.873 9.86672 18.873 10.9647C23.9048 10.9769 28.9366 10.9866 33.9684 10.9922C34.5628 10.9929 35.1572 10.9936 35.7515 10.9943C35.8699 10.9945 35.9882 10.9946 36.1101 10.9947C38.0247 10.9971 39.9394 11.0013 41.854 11.0063C43.8193 11.0113 45.7847 11.0143 47.75 11.0154C48.9622 11.0161 50.1744 11.0185 51.3867 11.0228C52.2185 11.0257 53.0503 11.0265 53.8822 11.0258C54.3618 11.0255 54.8413 11.026 55.3208 11.0289C55.8418 11.032 56.3628 11.0309 56.8838 11.0295C57.0339 11.031 57.1841 11.0326 57.3387 11.0342C58.765 11.0234 60.0901 10.6408 61.1255 9.61913C61.9557 8.61901 62.4286 7.51247 62.3838 6.20304C62.2261 5.03056 61.7317 3.92583 60.8116 3.17224C59.4031 2.14382 58.1221 2.06304 56.4307 2.06747C56.1896 2.0673 56.1896 2.0673 55.9437 2.06712C55.4994 2.06694 55.055 2.06736 54.6107 2.06803C54.1309 2.06862 53.6511 2.06842 53.1713 2.06832C52.3406 2.06825 51.5098 2.06867 50.6791 2.06943C49.478 2.07052 48.277 2.07087 47.0759 2.07104C45.1271 2.07133 43.1783 2.07223 41.2296 2.0735C39.3368 2.07474 37.4439 2.07569 35.5511 2.07626C35.4344 2.0763 35.3177 2.07633 35.1975 2.07637C34.6119 2.07654 34.0264 2.07671 33.4408 2.07688C28.5849 2.07828 23.7289 2.08068 18.873 2.08365ZM32.8674 13.1177C32.8674 17.5139 32.8674 21.91 32.8674 26.4394C37.5744 26.4394 42.2814 26.4394 47.131 26.4394C47.131 22.0432 47.131 17.6471 47.131 13.1177C42.424 13.1177 37.717 13.1177 32.8674 13.1177ZM49.284 13.1177C49.284 17.5139 49.284 21.91 49.284 26.4394C50.4829 26.4394 51.6819 26.4394 52.9172 26.4394C52.9172 22.0432 52.9172 17.6471 52.9172 13.1177C51.7182 13.1177 50.5193 13.1177 49.284 13.1177ZM9.04995 28.5924C9.04995 32.9441 9.04995 37.2958 9.04995 41.7795C22.0607 41.7795 35.0716 41.7795 48.4766 41.7795C48.4766 37.4277 48.4766 33.076 48.4766 28.5924C35.4658 28.5924 22.455 28.5924 9.04995 28.5924ZM50.6296 28.5924C50.6296 32.9441 50.6296 37.2958 50.6296 41.7795C55.9583 41.7795 61.2869 41.7795 66.7771 41.7795C66.7771 37.4277 66.7771 33.076 66.7771 28.5924C61.4484 28.5924 56.1197 28.5924 50.6296 28.5924ZM3.01989 45.2528C2.29246 46.1447 2.10901 46.9525 2.13945 48.0991C2.2457 49.0063 2.6042 49.8842 3.26378 50.526C4.62685 51.6029 5.8677 51.6421 7.55561 51.6348C7.76023 51.635 7.96486 51.6352 8.16949 51.6355C8.73012 51.6361 9.29074 51.6351 9.85137 51.6337C10.4566 51.6326 11.0618 51.6329 11.667 51.6332C12.7149 51.6333 13.7629 51.6325 14.8109 51.6309C16.3261 51.6287 17.8413 51.628 19.3565 51.6277C21.815 51.6271 24.2734 51.6253 26.7318 51.6228C29.1197 51.6203 31.5076 51.6184 33.8955 51.6173C34.1163 51.6172 34.1163 51.6172 34.3416 51.6171C35.0802 51.6167 35.8189 51.6164 36.5575 51.616C42.6835 51.6132 48.8096 51.6085 54.9356 51.6025C54.9356 50.7588 54.9356 49.9151 54.9356 49.0458C54.5349 49.0424 54.1341 49.0391 53.7213 49.0356C52.3984 49.0244 51.0756 49.0124 49.7527 49.0001C48.9505 48.9927 48.1484 48.9855 47.3462 48.9789C46.5723 48.9725 45.7984 48.9654 45.0245 48.9579C44.729 48.9552 44.4335 48.9527 44.138 48.9504C43.7246 48.9471 43.3113 48.9431 42.8979 48.9389C42.7753 48.9381 42.6527 48.9373 42.5263 48.9365C42.4135 48.9352 42.3007 48.9339 42.1844 48.9325C42.0867 48.9317 41.9889 48.9308 41.8882 48.9299C41.6037 48.9105 41.3497 48.8541 41.0757 48.7767C40.8981 47.824 40.8981 47.824 41.0628 47.3505C41.3859 46.9803 41.4426 46.9759 41.9093 46.9414C42.1523 46.937 42.3953 46.9364 42.6383 46.9386C42.7709 46.9372 42.9035 46.9358 43.0401 46.9344C43.4792 46.9305 43.9181 46.9313 44.3572 46.9322C44.6614 46.9305 44.9655 46.9284 45.2696 46.9261C46.0707 46.9207 46.8717 46.9193 47.6727 46.9188C48.4899 46.9175 49.307 46.9125 50.1242 46.9078C51.728 46.8991 53.3318 46.895 54.9356 46.8928C54.9356 45.8715 54.9356 44.8502 54.9356 43.7979C48.7187 43.7917 42.5017 43.787 36.2848 43.7841C35.5508 43.7838 34.8168 43.7835 34.0828 43.7831C33.9366 43.783 33.7905 43.783 33.6399 43.7829C31.274 43.7817 28.9081 43.7796 26.5423 43.7771C24.1145 43.7746 21.6868 43.7731 19.259 43.7726C17.761 43.7722 16.2631 43.771 14.7651 43.7688C13.7378 43.7674 12.7105 43.767 11.6832 43.7673C11.0906 43.7675 10.498 43.7672 9.90532 43.7658C9.36226 43.7645 8.81923 43.7644 8.27617 43.7653C8.08019 43.7655 7.88421 43.7651 7.68823 43.7643C5.82727 43.7567 4.34544 43.8413 3.01989 45.2528Z" fill="url(#paint0_linear_177_1171)"/>
<path d="M15.6228 32.0556C15.8412 32.0545 15.8412 32.0545 16.064 32.0535C16.5444 32.0516 17.0247 32.0517 17.5051 32.052C17.8396 32.0515 18.1741 32.0509 18.5086 32.0503C19.2093 32.0493 19.9101 32.0493 20.6108 32.05C21.5082 32.0509 22.4056 32.0485 23.303 32.0454C23.9937 32.0434 24.6844 32.0433 25.375 32.0437C25.7059 32.0437 26.0367 32.043 26.3676 32.0416C26.8304 32.04 27.2932 32.0409 27.756 32.0424C27.8923 32.0414 28.0285 32.0404 28.1689 32.0393C29.2775 32.0475 30.0743 32.3031 30.9051 33.0628C31.5303 33.7717 31.7525 34.5933 31.7062 35.5265C31.5539 36.5338 31.0994 37.1701 30.3364 37.8235C29.5301 38.3414 28.7173 38.3223 27.7922 38.3215C27.6485 38.3224 27.5049 38.3233 27.3569 38.3242C26.8828 38.3268 26.4088 38.3273 25.9347 38.3276C25.6042 38.3284 25.2737 38.3293 24.9432 38.3303C24.2505 38.3319 23.5578 38.3324 22.8651 38.3322C21.9794 38.3322 21.0939 38.3359 20.2083 38.3405C19.5255 38.3435 18.8428 38.3441 18.1601 38.3439C17.8337 38.3442 17.5073 38.3454 17.1809 38.3475C16.7233 38.3502 16.2659 38.3494 15.8083 38.3478C15.6747 38.3493 15.5411 38.3508 15.4035 38.3523C14.4241 38.3436 13.4588 38.1802 12.6939 37.5226C12.0571 36.8519 11.7841 36.1114 11.6816 35.2043C11.729 34.2404 12.0914 33.4184 12.8002 32.7653C13.6526 32.0475 14.5604 32.053 15.6228 32.0556ZM13.8935 34.9183C13.8594 35.3418 13.8594 35.3418 14.0281 35.7257C14.4053 36.0751 14.6574 36.18 15.168 36.1825C15.3477 36.1847 15.3477 36.1847 15.531 36.1871C15.6614 36.1867 15.7918 36.1863 15.9261 36.1859C16.1333 36.1876 16.1333 36.1876 16.3446 36.1893C16.8016 36.1925 17.2584 36.1926 17.7154 36.1925C18.0328 36.1934 18.3502 36.1944 18.6676 36.1956C19.3331 36.1974 19.9985 36.1976 20.664 36.1968C21.5172 36.196 22.3702 36.2001 23.2233 36.2056C23.8789 36.209 24.5344 36.2094 25.19 36.2089C25.5045 36.2092 25.8191 36.2105 26.1336 36.2129C26.5734 36.2158 27.0129 36.2145 27.4527 36.2122C27.6479 36.2148 27.6479 36.2148 27.847 36.2176C28.4656 36.2098 28.7432 36.1942 29.2518 35.8141C29.5415 35.472 29.5415 35.472 29.5111 35.0361C29.3466 34.5909 29.2284 34.4877 28.8299 34.2455C28.5398 34.1849 28.5398 34.1849 28.2282 34.1924C28.1084 34.1909 27.9886 34.1894 27.8652 34.1878C27.7348 34.1882 27.6044 34.1886 27.4701 34.189C27.332 34.1879 27.1939 34.1867 27.0516 34.1856C26.5946 34.1824 26.1378 34.1823 25.6808 34.1824C25.3634 34.1815 25.046 34.1804 24.7286 34.1793C24.0631 34.1775 23.3977 34.1773 22.7322 34.1781C21.8791 34.1789 21.026 34.1748 20.1729 34.1693C19.5173 34.1659 18.8618 34.1655 18.2062 34.166C17.8917 34.1657 17.5771 34.1644 17.2626 34.162C16.8228 34.1591 16.3833 34.1604 15.9435 34.1627C15.7483 34.1601 15.7483 34.1601 15.5492 34.1573C14.7728 34.1671 14.3684 34.2415 13.8935 34.9183Z" fill="url(#paint1_linear_177_1171)"/>
<path d="M55.7869 34.0701C55.9333 34.0688 56.0797 34.0676 56.2306 34.0662C56.4677 34.0664 56.4677 34.0664 56.7097 34.0666C56.8721 34.066 57.0345 34.0655 57.2019 34.0649C57.5456 34.0641 57.8894 34.064 58.2331 34.0646C58.7597 34.065 59.2862 34.0619 59.8128 34.0585C60.1465 34.0582 60.4801 34.0581 60.8138 34.0582C60.9717 34.057 61.1295 34.0557 61.2921 34.0544C61.5124 34.0557 61.5124 34.0557 61.7371 34.057C61.9307 34.0569 61.9307 34.0569 62.1282 34.0567C62.5354 34.1165 62.7173 34.2237 63.0094 34.5108C63.1579 35.0454 63.1999 35.3303 62.9674 35.8396C62.7403 36.1255 62.7403 36.1255 62.4712 36.2601C62.2377 36.275 62.0037 36.2815 61.7698 36.2839C61.6234 36.2856 61.4769 36.2873 61.3261 36.2891C61.1673 36.2901 61.0085 36.2911 60.8449 36.2921C60.6822 36.2932 60.5196 36.2943 60.3521 36.2954C60.0075 36.2973 59.663 36.2987 59.3184 36.2998C58.7906 36.3021 58.263 36.308 57.7352 36.314C57.4009 36.3153 57.0666 36.3165 56.7323 36.3174C56.574 36.3197 56.4158 36.3221 56.2527 36.3245C56.0318 36.3239 56.0318 36.3239 55.8065 36.3233C55.677 36.3241 55.5475 36.3249 55.4141 36.3257C54.9696 36.2409 54.8124 36.0694 54.532 35.7218C54.3849 35.3121 54.381 35.1078 54.4984 34.6874C54.8127 34.1059 55.1768 34.0731 55.7869 34.0701Z" fill="url(#paint2_linear_177_1171)"/>
<path d="M40.4036 17.0192C40.7616 17.2263 40.7616 17.2263 41.0764 17.5574C41.1435 17.9303 41.168 18.2197 41.1611 18.5919C41.1614 18.6914 41.1617 18.7909 41.1621 18.8934C41.1619 19.1033 41.1601 19.3132 41.1568 19.5231C41.1521 19.844 41.154 20.1643 41.1566 20.4852C41.1557 20.6895 41.1544 20.8938 41.1527 21.0981C41.1533 21.1937 41.154 21.2893 41.1547 21.3878C41.1439 21.8417 41.1051 22.0938 40.832 22.4626C40.4047 22.7654 40.1073 22.7346 39.5963 22.6708C39.1677 22.4339 39.0805 22.3345 38.9235 21.8634C38.8929 21.291 38.8927 20.7183 38.8911 20.1452C38.8898 19.8637 38.8856 19.5824 38.8814 19.3009C38.8805 19.121 38.8798 18.941 38.8793 18.7611C38.878 18.5981 38.8768 18.435 38.8755 18.2671C38.9277 17.7876 39.0388 17.5362 39.3271 17.1537C39.7111 16.9618 39.9777 16.9774 40.4036 17.0192Z" fill="url(#paint3_linear_177_1171)"/>
<path d="M36.3657 16.937C36.9138 17.0512 37.093 17.261 37.4422 17.6939C37.5293 18.1549 37.5293 18.1549 37.5316 18.6779C37.5322 18.7709 37.5329 18.864 37.5336 18.9598C37.534 19.1557 37.5328 19.3516 37.53 19.5474C37.5264 19.8462 37.5299 20.1443 37.5342 20.443C37.5338 20.634 37.5329 20.8249 37.5316 21.0159C37.5308 21.1885 37.5301 21.3611 37.5293 21.5389C37.4205 22.1148 37.2245 22.3146 36.7694 22.6727C36.3657 22.7568 36.3657 22.7568 35.9621 22.6727C35.507 22.3146 35.311 22.1148 35.2022 21.5389C35.2014 21.3663 35.2007 21.1937 35.1999 21.0159C35.1993 20.9229 35.1986 20.8299 35.1979 20.734C35.1975 20.5381 35.1987 20.3423 35.2015 20.1464C35.2051 19.8476 35.2016 19.5496 35.1973 19.2508C35.1977 19.0599 35.1986 18.8689 35.1999 18.6779C35.2007 18.5053 35.2014 18.3327 35.2022 18.1549C35.3324 17.4656 35.6738 17.0812 36.3657 16.937Z" fill="url(#paint4_linear_177_1171)"/>
<path d="M44.1713 17.0205C44.5545 17.3209 44.6894 17.4982 44.8441 17.9625C44.8795 18.5814 44.8752 19.2012 44.8777 19.8211C44.8805 19.9922 44.8833 20.1633 44.8862 20.3396C44.8868 20.5052 44.8875 20.6708 44.8883 20.8414C44.8895 20.9924 44.8908 21.1435 44.8921 21.2991C44.8372 21.7918 44.6962 22.1152 44.4404 22.5376C44.0244 22.7456 43.6876 22.7116 43.2294 22.6721C42.9345 22.465 42.9345 22.465 42.6911 22.1339C42.6359 21.7705 42.6124 21.4626 42.6149 21.0994C42.6141 20.9999 42.6132 20.9004 42.6124 20.7979C42.6114 20.588 42.6118 20.3781 42.6135 20.1682C42.6154 19.8473 42.6108 19.5269 42.6057 19.2061C42.6056 19.0018 42.6058 18.7975 42.6065 18.5932C42.6047 18.4976 42.6029 18.402 42.6011 18.3035C42.6105 17.8013 42.6544 17.5971 43.007 17.2292C43.4435 16.974 43.6736 16.9358 44.1713 17.0205Z" fill="url(#paint5_linear_177_1171)"/>
<defs>
<linearGradient id="paint0_linear_177_1171" x1="9.775" y1="1.14512" x2="63.825" y2="68.4201" gradientUnits="userSpaceOnUse">
<stop stop-color="#D265F8"/>
<stop offset="0.54" stop-color="#5369F3"/>
<stop offset="1" stop-color="#69C331"/>
</linearGradient>
<linearGradient id="paint1_linear_177_1171" x1="14.5193" y1="32.1444" x2="16.9257" y2="41.6557" gradientUnits="userSpaceOnUse">
<stop stop-color="#D265F8"/>
<stop offset="0.54" stop-color="#5369F3"/>
<stop offset="1" stop-color="#69C331"/>
</linearGradient>
<linearGradient id="paint2_linear_177_1171" x1="55.6503" y1="34.0923" x2="56.38" y2="37.5806" gradientUnits="userSpaceOnUse">
<stop stop-color="#D265F8"/>
<stop offset="0.54" stop-color="#5369F3"/>
<stop offset="1" stop-color="#69C331"/>
</linearGradient>
<linearGradient id="paint3_linear_177_1171" x1="39.1994" y1="17.0879" x2="42.8584" y2="18.91" gradientUnits="userSpaceOnUse">
<stop stop-color="#D265F8"/>
<stop offset="0.54" stop-color="#5369F3"/>
<stop offset="1" stop-color="#69C331"/>
</linearGradient>
<linearGradient id="paint4_linear_177_1171" x1="35.5283" y1="17.0336" x2="39.2556" y2="18.9048" gradientUnits="userSpaceOnUse">
<stop stop-color="#D265F8"/>
<stop offset="0.54" stop-color="#5369F3"/>
<stop offset="1" stop-color="#69C331"/>
</linearGradient>
<linearGradient id="paint5_linear_177_1171" x1="42.9256" y1="17.0753" x2="46.5891" y2="18.9025" gradientUnits="userSpaceOnUse">
<stop stop-color="#D265F8"/>
<stop offset="0.54" stop-color="#5369F3"/>
<stop offset="1" stop-color="#69C331"/>
</linearGradient>
</defs>
</svg>
