<?xml version="1.0" encoding="utf-8"?>
<!-- Generator: Adobe Illustrator 17.0.0, SVG Export Plug-In . SVG Version: 6.00 Build 0)  -->
<!DOCTYPE svg PUBLIC "-//W3C//DTD SVG 1.1//EN" "http://www.w3.org/Graphics/SVG/1.1/DTD/svg11.dtd">
<svg version="1.1" id="Layer_1" xmlns="http://www.w3.org/2000/svg" xmlns:xlink="http://www.w3.org/1999/xlink" x="0px" y="0px"
	 width="64px" height="64px" viewBox="0 0 64 64" enable-background="new 0 0 64 64" xml:space="preserve">
<rect x="-0.352" width="64.22" height="65.053"/>
<g>
	<g>
		<linearGradient id="SVGID_1_" gradientUnits="userSpaceOnUse" x1="37.8617" y1="5.5945" x2="37.8617" y2="55.5071">
			<stop  offset="0" style="stop-color:#A4631B"/>
			<stop  offset="0.2617" style="stop-color:#FBE878"/>
			<stop  offset="0.3726" style="stop-color:#FFFFAA"/>
			<stop  offset="0.4775" style="stop-color:#FBE878"/>
			<stop  offset="0.5207" style="stop-color:#DABE5B"/>
			<stop  offset="0.5649" style="stop-color:#BE9B42"/>
			<stop  offset="0.6066" style="stop-color:#AA8131"/>
			<stop  offset="0.6441" style="stop-color:#9D7126"/>
			<stop  offset="0.6739" style="stop-color:#996C22"/>
			<stop  offset="0.7128" style="stop-color:#9E7226"/>
			<stop  offset="0.7656" style="stop-color:#AD8330"/>
			<stop  offset="0.8262" style="stop-color:#C5A041"/>
			<stop  offset="0.8923" style="stop-color:#E6C758"/>
			<stop  offset="0.9231" style="stop-color:#F8DC65"/>
			<stop  offset="0.9545" style="stop-color:#FBEA78"/>
			<stop  offset="1" style="stop-color:#FFFB90"/>
		</linearGradient>
		<path fill="url(#SVGID_1_)" d="M41.554,23.914c1.33,2.277,1.867,4.386,1.868,6.367c0,2.274-0.712,4.39-1.795,6.382
			c-1.624,2.989-4.082,5.684-6.149,8.165c-1.034,1.242-1.97,2.43-2.655,3.589c-0.684,1.158-1.123,2.292-1.124,3.424h0.603
			c0-0.648,0.17-1.323,0.479-2.032c0.539-1.24,1.506-2.57,2.657-3.983c1.727-2.122,3.865-4.432,5.579-6.997
			c1.713-2.563,3.009-5.393,3.009-8.548c0.001-2.092-0.573-4.317-1.95-6.671L41.554,23.914L41.554,23.914z"/>
		<linearGradient id="SVGID_2_" gradientUnits="userSpaceOnUse" x1="37.0925" y1="5.5944" x2="37.0925" y2="55.5071">
			<stop  offset="0" style="stop-color:#A4631B"/>
			<stop  offset="0.2617" style="stop-color:#FBE878"/>
			<stop  offset="0.3726" style="stop-color:#FFFFAA"/>
			<stop  offset="0.4775" style="stop-color:#FBE878"/>
			<stop  offset="0.5207" style="stop-color:#DABE5B"/>
			<stop  offset="0.5649" style="stop-color:#BE9B42"/>
			<stop  offset="0.6066" style="stop-color:#AA8131"/>
			<stop  offset="0.6441" style="stop-color:#9D7126"/>
			<stop  offset="0.6739" style="stop-color:#996C22"/>
			<stop  offset="0.7128" style="stop-color:#9E7226"/>
			<stop  offset="0.7656" style="stop-color:#AD8330"/>
			<stop  offset="0.8262" style="stop-color:#C5A041"/>
			<stop  offset="0.8923" style="stop-color:#E6C758"/>
			<stop  offset="0.9231" style="stop-color:#F8DC65"/>
			<stop  offset="0.9545" style="stop-color:#FBEA78"/>
			<stop  offset="1" style="stop-color:#FFFB90"/>
		</linearGradient>
		<path fill="url(#SVGID_2_)" d="M32.302,51.841c-0.001-1.252,0.484-2.543,1.24-3.907c1.131-2.045,2.856-4.235,4.307-6.699
			c1.45-2.464,2.628-5.216,2.628-8.394c0-0.921-0.099-1.878-0.318-2.87l0-0.001l1.628-2.375c0.481-0.702,0.702-1.479,0.701-2.234
			c0-1.033-0.407-2.026-1.112-2.763l0.001,0.001c-0.698-0.739-1.701-1.22-2.865-1.219h-2.837l-2.836,0.958l0.193,0.572l2.742-0.926
			h2.738c0.996,0.001,1.833,0.406,2.426,1.031l0.001,0.001c0.598,0.626,0.945,1.473,0.945,2.347c0,0.639-0.184,1.291-0.596,1.893
			l-1.775,2.59l0.056,0.256c0.21,0.95,0.304,1.862,0.304,2.74c0,2.017-0.498,3.862-1.252,5.588
			c-1.131,2.588-2.842,4.899-4.286,7.074c-0.722,1.088-1.376,2.143-1.855,3.191c-0.478,1.047-0.781,2.09-0.782,3.148H32.302
			L32.302,51.841z"/>
		<linearGradient id="SVGID_3_" gradientUnits="userSpaceOnUse" x1="34.5062" y1="5.5944" x2="34.5062" y2="55.5071">
			<stop  offset="0" style="stop-color:#A4631B"/>
			<stop  offset="0.2617" style="stop-color:#FBE878"/>
			<stop  offset="0.3726" style="stop-color:#FFFFAA"/>
			<stop  offset="0.4775" style="stop-color:#FBE878"/>
			<stop  offset="0.5207" style="stop-color:#DABE5B"/>
			<stop  offset="0.5649" style="stop-color:#BE9B42"/>
			<stop  offset="0.6066" style="stop-color:#AA8131"/>
			<stop  offset="0.6441" style="stop-color:#9D7126"/>
			<stop  offset="0.6739" style="stop-color:#996C22"/>
			<stop  offset="0.7128" style="stop-color:#9E7226"/>
			<stop  offset="0.7656" style="stop-color:#AD8330"/>
			<stop  offset="0.8262" style="stop-color:#C5A041"/>
			<stop  offset="0.8923" style="stop-color:#E6C758"/>
			<stop  offset="0.9231" style="stop-color:#F8DC65"/>
			<stop  offset="0.9545" style="stop-color:#FBEA78"/>
			<stop  offset="1" style="stop-color:#FFFB90"/>
		</linearGradient>
		<path fill="url(#SVGID_3_)" d="M32.302,51.841c0-0.081,0-0.159,0.003-0.23V51.61c0.035-1.082,0.356-2.283,0.827-3.549
			c0.706-1.899,1.745-3.938,2.613-5.971c0.866-2.034,1.568-4.063,1.57-5.975c0-0.802-0.125-1.584-0.419-2.327l-0.561,0.222
			c0.262,0.663,0.377,1.366,0.377,2.106c0.005,2.35-1.186,5.065-2.422,7.753c-0.616,1.345-1.241,2.685-1.724,3.983
			c-0.482,1.298-0.825,2.554-0.864,3.739l0-0.001c-0.003,0.086-0.003,0.171-0.003,0.253H32.302L32.302,51.841z"/>
		<linearGradient id="SVGID_4_" gradientUnits="userSpaceOnUse" x1="32.9127" y1="5.5944" x2="32.9127" y2="55.5071">
			<stop  offset="0" style="stop-color:#A4631B"/>
			<stop  offset="0.2617" style="stop-color:#FBE878"/>
			<stop  offset="0.3726" style="stop-color:#FFFFAA"/>
			<stop  offset="0.4775" style="stop-color:#FBE878"/>
			<stop  offset="0.5207" style="stop-color:#DABE5B"/>
			<stop  offset="0.5649" style="stop-color:#BE9B42"/>
			<stop  offset="0.6066" style="stop-color:#AA8131"/>
			<stop  offset="0.6441" style="stop-color:#9D7126"/>
			<stop  offset="0.6739" style="stop-color:#996C22"/>
			<stop  offset="0.7128" style="stop-color:#9E7226"/>
			<stop  offset="0.7656" style="stop-color:#AD8330"/>
			<stop  offset="0.8262" style="stop-color:#C5A041"/>
			<stop  offset="0.8923" style="stop-color:#E6C758"/>
			<stop  offset="0.9231" style="stop-color:#F8DC65"/>
			<stop  offset="0.9545" style="stop-color:#FBEA78"/>
			<stop  offset="1" style="stop-color:#FFFB90"/>
		</linearGradient>
		<path fill="url(#SVGID_4_)" d="M32.775,39.491c0.271,0.277,0.454,0.592,0.575,0.956c0.12,0.363,0.174,0.775,0.174,1.229
			c0.002,1.268-0.426,2.854-0.874,4.559c-0.446,1.707-0.91,3.536-0.949,5.337l0.302,0.006l-0.302-0.01
			c-0.003,0.094-0.003,0.185-0.003,0.273h0.603c0-0.087,0-0.172,0.003-0.252l0-0.003l0-0.001c0.035-1.705,0.482-3.494,0.929-5.196
			c0.445-1.704,0.892-3.315,0.894-4.712c0-0.502-0.059-0.978-0.204-1.418c-0.145-0.44-0.379-0.845-0.717-1.189L32.775,39.491
			L32.775,39.491z"/>
		<linearGradient id="SVGID_5_" gradientUnits="userSpaceOnUse" x1="26.1383" y1="5.5945" x2="26.1383" y2="55.5071">
			<stop  offset="0" style="stop-color:#A4631B"/>
			<stop  offset="0.2617" style="stop-color:#FBE878"/>
			<stop  offset="0.3726" style="stop-color:#FFFFAA"/>
			<stop  offset="0.4775" style="stop-color:#FBE878"/>
			<stop  offset="0.5207" style="stop-color:#DABE5B"/>
			<stop  offset="0.5649" style="stop-color:#BE9B42"/>
			<stop  offset="0.6066" style="stop-color:#AA8131"/>
			<stop  offset="0.6441" style="stop-color:#9D7126"/>
			<stop  offset="0.6739" style="stop-color:#996C22"/>
			<stop  offset="0.7128" style="stop-color:#9E7226"/>
			<stop  offset="0.7656" style="stop-color:#AD8330"/>
			<stop  offset="0.8262" style="stop-color:#C5A041"/>
			<stop  offset="0.8923" style="stop-color:#E6C758"/>
			<stop  offset="0.9231" style="stop-color:#F8DC65"/>
			<stop  offset="0.9545" style="stop-color:#FBEA78"/>
			<stop  offset="1" style="stop-color:#FFFB90"/>
		</linearGradient>
		<path fill="url(#SVGID_5_)" d="M21.925,23.61c-1.377,2.355-1.951,4.58-1.95,6.672c0,2.403,0.753,4.62,1.869,6.67
			c1.674,3.076,4.162,5.795,6.216,8.263c1.027,1.233,1.946,2.403,2.6,3.51c0.656,1.108,1.041,2.146,1.04,3.117h0.603
			c0-0.754-0.197-1.511-0.529-2.273c-0.583-1.334-1.58-2.694-2.742-4.123c-1.745-2.142-3.867-4.439-5.545-6.951
			c-1.679-2.513-2.908-5.229-2.908-8.212c0.001-1.981,0.538-4.09,1.868-6.367L21.925,23.61L21.925,23.61z"/>
		<linearGradient id="SVGID_6_" gradientUnits="userSpaceOnUse" x1="26.9075" y1="5.5944" x2="26.9075" y2="55.5071">
			<stop  offset="0" style="stop-color:#A4631B"/>
			<stop  offset="0.2617" style="stop-color:#FBE878"/>
			<stop  offset="0.3726" style="stop-color:#FFFFAA"/>
			<stop  offset="0.4775" style="stop-color:#FBE878"/>
			<stop  offset="0.5207" style="stop-color:#DABE5B"/>
			<stop  offset="0.5649" style="stop-color:#BE9B42"/>
			<stop  offset="0.6066" style="stop-color:#AA8131"/>
			<stop  offset="0.6441" style="stop-color:#9D7126"/>
			<stop  offset="0.6739" style="stop-color:#996C22"/>
			<stop  offset="0.7128" style="stop-color:#9E7226"/>
			<stop  offset="0.7656" style="stop-color:#AD8330"/>
			<stop  offset="0.8262" style="stop-color:#C5A041"/>
			<stop  offset="0.8923" style="stop-color:#E6C758"/>
			<stop  offset="0.9231" style="stop-color:#F8DC65"/>
			<stop  offset="0.9545" style="stop-color:#FBEA78"/>
			<stop  offset="1" style="stop-color:#FFFB90"/>
		</linearGradient>
		<path fill="url(#SVGID_6_)" d="M31.081,22.311l-2.755-0.931H25.49c-1.164-0.001-2.167,0.481-2.865,1.219l0.001-0.001
			c-0.705,0.738-1.112,1.731-1.112,2.763c0,0.755,0.22,1.533,0.701,2.234l1.628,2.375l0,0.001l-0.003,0.013l0.003-0.014
			c-0.219,0.992-0.319,1.948-0.319,2.87c0,2.118,0.524,4.049,1.303,5.829c1.168,2.67,2.906,5.008,4.336,7.165
			c0.715,1.078,1.354,2.11,1.809,3.108c0.456,0.998,0.727,1.957,0.727,2.897h0.603c-0.001-1.411-0.538-2.793-1.315-4.199
			c-1.168-2.109-2.892-4.292-4.315-6.712c-1.424-2.421-2.545-5.064-2.545-8.088c0-0.878,0.094-1.79,0.304-2.74l0-0.001l0.028-0.128
			l0.028-0.127l-1.775-2.59c-0.412-0.602-0.595-1.254-0.596-1.893c0-0.873,0.347-1.721,0.945-2.347l0.001-0.001
			c0.593-0.625,1.43-1.03,2.427-1.031h2.738l2.661,0.899L31.081,22.311L31.081,22.311z"/>
		<linearGradient id="SVGID_7_" gradientUnits="userSpaceOnUse" x1="29.4937" y1="5.5944" x2="29.4937" y2="55.5071">
			<stop  offset="0" style="stop-color:#A4631B"/>
			<stop  offset="0.2617" style="stop-color:#FBE878"/>
			<stop  offset="0.3726" style="stop-color:#FFFFAA"/>
			<stop  offset="0.4775" style="stop-color:#FBE878"/>
			<stop  offset="0.5207" style="stop-color:#DABE5B"/>
			<stop  offset="0.5649" style="stop-color:#BE9B42"/>
			<stop  offset="0.6066" style="stop-color:#AA8131"/>
			<stop  offset="0.6441" style="stop-color:#9D7126"/>
			<stop  offset="0.6739" style="stop-color:#996C22"/>
			<stop  offset="0.7128" style="stop-color:#9E7226"/>
			<stop  offset="0.7656" style="stop-color:#AD8330"/>
			<stop  offset="0.8262" style="stop-color:#C5A041"/>
			<stop  offset="0.8923" style="stop-color:#E6C758"/>
			<stop  offset="0.9231" style="stop-color:#F8DC65"/>
			<stop  offset="0.9545" style="stop-color:#FBEA78"/>
			<stop  offset="1" style="stop-color:#FFFB90"/>
		</linearGradient>
		<path fill="url(#SVGID_7_)" d="M27.105,33.788c-0.294,0.743-0.419,1.525-0.419,2.327c0.005,2.549,1.244,5.308,2.476,8.004
			c0.617,1.347,1.236,2.676,1.707,3.941c0.471,1.265,0.792,2.467,0.827,3.549l0,0.001c0.003,0.071,0.003,0.149,0.003,0.23h0.603
			c0-0.081,0-0.166-0.003-0.253l0-0.008l0,0.009c-0.04-1.186-0.382-2.441-0.864-3.739c-0.724-1.946-1.767-3.99-2.624-5.998
			c-0.858-2.007-1.524-3.976-1.522-5.738c0-0.74,0.115-1.442,0.377-2.105L27.105,33.788L27.105,33.788z"/>
		<linearGradient id="SVGID_8_" gradientUnits="userSpaceOnUse" x1="31.0873" y1="5.5944" x2="31.0873" y2="55.5071">
			<stop  offset="0" style="stop-color:#A4631B"/>
			<stop  offset="0.2617" style="stop-color:#FBE878"/>
			<stop  offset="0.3726" style="stop-color:#FFFFAA"/>
			<stop  offset="0.4775" style="stop-color:#FBE878"/>
			<stop  offset="0.5207" style="stop-color:#DABE5B"/>
			<stop  offset="0.5649" style="stop-color:#BE9B42"/>
			<stop  offset="0.6066" style="stop-color:#AA8131"/>
			<stop  offset="0.6441" style="stop-color:#9D7126"/>
			<stop  offset="0.6739" style="stop-color:#996C22"/>
			<stop  offset="0.7128" style="stop-color:#9E7226"/>
			<stop  offset="0.7656" style="stop-color:#AD8330"/>
			<stop  offset="0.8262" style="stop-color:#C5A041"/>
			<stop  offset="0.8923" style="stop-color:#E6C758"/>
			<stop  offset="0.9231" style="stop-color:#F8DC65"/>
			<stop  offset="0.9545" style="stop-color:#FBEA78"/>
			<stop  offset="1" style="stop-color:#FFFB90"/>
		</linearGradient>
		<path fill="url(#SVGID_8_)" d="M32.302,51.841c0-0.087,0-0.178-0.003-0.273l-0.302,0.01l0.302-0.006
			c-0.038-1.8-0.502-3.63-0.949-5.336c-0.448-1.705-0.876-3.292-0.874-4.559c0-0.455,0.054-0.867,0.174-1.23
			c0.12-0.363,0.304-0.679,0.575-0.956l-0.431-0.423c-0.339,0.344-0.572,0.749-0.717,1.189c-0.145,0.441-0.204,0.917-0.204,1.419
			c0.002,1.397,0.449,3.008,0.894,4.712c0.447,1.702,0.894,3.491,0.929,5.196v0.003l0,0.001c0.003,0.081,0.003,0.165,0.003,0.252
			H32.302L32.302,51.841z"/>
		<linearGradient id="SVGID_9_" gradientUnits="userSpaceOnUse" x1="31.999" y1="5.5936" x2="31.999" y2="55.5075">
			<stop  offset="0" style="stop-color:#A4631B"/>
			<stop  offset="0.2617" style="stop-color:#FBE878"/>
			<stop  offset="0.3726" style="stop-color:#FFFFAA"/>
			<stop  offset="0.4775" style="stop-color:#FBE878"/>
			<stop  offset="0.5207" style="stop-color:#DABE5B"/>
			<stop  offset="0.5649" style="stop-color:#BE9B42"/>
			<stop  offset="0.6066" style="stop-color:#AA8131"/>
			<stop  offset="0.6441" style="stop-color:#9D7126"/>
			<stop  offset="0.6739" style="stop-color:#996C22"/>
			<stop  offset="0.7128" style="stop-color:#9E7226"/>
			<stop  offset="0.7656" style="stop-color:#AD8330"/>
			<stop  offset="0.8262" style="stop-color:#C5A041"/>
			<stop  offset="0.8923" style="stop-color:#E6C758"/>
			<stop  offset="0.9231" style="stop-color:#F8DC65"/>
			<stop  offset="0.9545" style="stop-color:#FBEA78"/>
			<stop  offset="1" style="stop-color:#FFFB90"/>
		</linearGradient>
		<polygon fill="url(#SVGID_9_)" points="28.826,37.766 32,35.693 35.172,37.766 35.502,37.261 32.001,34.972 28.496,37.261 
			28.826,37.766 		"/>
		<linearGradient id="SVGID_10_" gradientUnits="userSpaceOnUse" x1="31.9997" y1="5.5944" x2="31.9997" y2="55.5072">
			<stop  offset="0" style="stop-color:#A4631B"/>
			<stop  offset="0.2617" style="stop-color:#FBE878"/>
			<stop  offset="0.3726" style="stop-color:#FFFFAA"/>
			<stop  offset="0.4775" style="stop-color:#FBE878"/>
			<stop  offset="0.5207" style="stop-color:#DABE5B"/>
			<stop  offset="0.5649" style="stop-color:#BE9B42"/>
			<stop  offset="0.6066" style="stop-color:#AA8131"/>
			<stop  offset="0.6441" style="stop-color:#9D7126"/>
			<stop  offset="0.6739" style="stop-color:#996C22"/>
			<stop  offset="0.7128" style="stop-color:#9E7226"/>
			<stop  offset="0.7656" style="stop-color:#AD8330"/>
			<stop  offset="0.8262" style="stop-color:#C5A041"/>
			<stop  offset="0.8923" style="stop-color:#E6C758"/>
			<stop  offset="0.9231" style="stop-color:#F8DC65"/>
			<stop  offset="0.9545" style="stop-color:#FBEA78"/>
			<stop  offset="1" style="stop-color:#FFFB90"/>
		</linearGradient>
		<polyline fill="url(#SVGID_10_)" points="32.301,35.334 32.301,32.881 31.698,32.881 31.698,35.334 		"/>
		<linearGradient id="SVGID_11_" gradientUnits="userSpaceOnUse" x1="29.4825" y1="5.5944" x2="29.4825" y2="55.5072">
			<stop  offset="0" style="stop-color:#A4631B"/>
			<stop  offset="0.2617" style="stop-color:#FBE878"/>
			<stop  offset="0.3726" style="stop-color:#FFFFAA"/>
			<stop  offset="0.4775" style="stop-color:#FBE878"/>
			<stop  offset="0.5207" style="stop-color:#DABE5B"/>
			<stop  offset="0.5649" style="stop-color:#BE9B42"/>
			<stop  offset="0.6066" style="stop-color:#AA8131"/>
			<stop  offset="0.6441" style="stop-color:#9D7126"/>
			<stop  offset="0.6739" style="stop-color:#996C22"/>
			<stop  offset="0.7128" style="stop-color:#9E7226"/>
			<stop  offset="0.7656" style="stop-color:#AD8330"/>
			<stop  offset="0.8262" style="stop-color:#C5A041"/>
			<stop  offset="0.8923" style="stop-color:#E6C758"/>
			<stop  offset="0.9231" style="stop-color:#F8DC65"/>
			<stop  offset="0.9545" style="stop-color:#FBEA78"/>
			<stop  offset="1" style="stop-color:#FFFB90"/>
		</linearGradient>
		<polygon fill="url(#SVGID_11_)" points="26.802,26.815 28.902,26.815 28.902,31.343 31.836,33.235 32.163,32.728 29.505,31.014 
			29.505,26.212 26.802,26.212 26.802,26.815 		"/>
		<linearGradient id="SVGID_12_" gradientUnits="userSpaceOnUse" x1="34.3064" y1="5.5944" x2="34.3064" y2="55.5072">
			<stop  offset="0" style="stop-color:#A4631B"/>
			<stop  offset="0.2617" style="stop-color:#FBE878"/>
			<stop  offset="0.3726" style="stop-color:#FFFFAA"/>
			<stop  offset="0.4775" style="stop-color:#FBE878"/>
			<stop  offset="0.5207" style="stop-color:#DABE5B"/>
			<stop  offset="0.5649" style="stop-color:#BE9B42"/>
			<stop  offset="0.6066" style="stop-color:#AA8131"/>
			<stop  offset="0.6441" style="stop-color:#9D7126"/>
			<stop  offset="0.6739" style="stop-color:#996C22"/>
			<stop  offset="0.7128" style="stop-color:#9E7226"/>
			<stop  offset="0.7656" style="stop-color:#AD8330"/>
			<stop  offset="0.8262" style="stop-color:#C5A041"/>
			<stop  offset="0.8923" style="stop-color:#E6C758"/>
			<stop  offset="0.9231" style="stop-color:#F8DC65"/>
			<stop  offset="0.9545" style="stop-color:#FBEA78"/>
			<stop  offset="1" style="stop-color:#FFFB90"/>
		</linearGradient>
		<polygon fill="url(#SVGID_12_)" points="36.777,26.212 34.495,26.212 34.495,31.014 31.836,32.728 32.163,33.235 35.098,31.343 
			35.098,26.815 36.777,26.815 36.777,26.212 		"/>
		<linearGradient id="SVGID_13_" gradientUnits="userSpaceOnUse" x1="32.0497" y1="5.5944" x2="32.0497" y2="55.5072">
			<stop  offset="0" style="stop-color:#A4631B"/>
			<stop  offset="0.2617" style="stop-color:#FBE878"/>
			<stop  offset="0.3726" style="stop-color:#FFFFAA"/>
			<stop  offset="0.4775" style="stop-color:#FBE878"/>
			<stop  offset="0.5207" style="stop-color:#DABE5B"/>
			<stop  offset="0.5649" style="stop-color:#BE9B42"/>
			<stop  offset="0.6066" style="stop-color:#AA8131"/>
			<stop  offset="0.6441" style="stop-color:#9D7126"/>
			<stop  offset="0.6739" style="stop-color:#996C22"/>
			<stop  offset="0.7128" style="stop-color:#9E7226"/>
			<stop  offset="0.7656" style="stop-color:#AD8330"/>
			<stop  offset="0.8262" style="stop-color:#C5A041"/>
			<stop  offset="0.8923" style="stop-color:#E6C758"/>
			<stop  offset="0.9231" style="stop-color:#F8DC65"/>
			<stop  offset="0.9545" style="stop-color:#FBEA78"/>
			<stop  offset="1" style="stop-color:#FFFB90"/>
		</linearGradient>
		<polygon fill="url(#SVGID_13_)" points="26.732,21.518 24.662,18.353 29.89,18.296 32.048,13.602 34.21,18.296 39.437,18.353 
			37.368,21.518 37.873,21.848 40.545,17.761 34.599,17.697 32.048,12.159 29.501,17.697 23.554,17.761 26.227,21.848 
			26.732,21.518 		"/>
		<linearGradient id="SVGID_14_" gradientUnits="userSpaceOnUse" x1="28.0225" y1="5.5945" x2="28.0225" y2="55.5072">
			<stop  offset="0" style="stop-color:#A4631B"/>
			<stop  offset="0.2617" style="stop-color:#FBE878"/>
			<stop  offset="0.3726" style="stop-color:#FFFFAA"/>
			<stop  offset="0.4775" style="stop-color:#FBE878"/>
			<stop  offset="0.5207" style="stop-color:#DABE5B"/>
			<stop  offset="0.5649" style="stop-color:#BE9B42"/>
			<stop  offset="0.6066" style="stop-color:#AA8131"/>
			<stop  offset="0.6441" style="stop-color:#9D7126"/>
			<stop  offset="0.6739" style="stop-color:#996C22"/>
			<stop  offset="0.7128" style="stop-color:#9E7226"/>
			<stop  offset="0.7656" style="stop-color:#AD8330"/>
			<stop  offset="0.8262" style="stop-color:#C5A041"/>
			<stop  offset="0.8923" style="stop-color:#E6C758"/>
			<stop  offset="0.9231" style="stop-color:#F8DC65"/>
			<stop  offset="0.9545" style="stop-color:#FBEA78"/>
			<stop  offset="1" style="stop-color:#FFFB90"/>
		</linearGradient>
		<polygon fill="url(#SVGID_14_)" points="27.532,17.921 26.152,14.119 30.698,16.073 30.936,15.518 25.109,13.014 26.965,18.127 
			27.532,17.921 		"/>
		<linearGradient id="SVGID_15_" gradientUnits="userSpaceOnUse" x1="36.0763" y1="5.5943" x2="36.0763" y2="55.5077">
			<stop  offset="0" style="stop-color:#A4631B"/>
			<stop  offset="0.2617" style="stop-color:#FBE878"/>
			<stop  offset="0.3726" style="stop-color:#FFFFAA"/>
			<stop  offset="0.4775" style="stop-color:#FBE878"/>
			<stop  offset="0.5207" style="stop-color:#DABE5B"/>
			<stop  offset="0.5649" style="stop-color:#BE9B42"/>
			<stop  offset="0.6066" style="stop-color:#AA8131"/>
			<stop  offset="0.6441" style="stop-color:#9D7126"/>
			<stop  offset="0.6739" style="stop-color:#996C22"/>
			<stop  offset="0.7128" style="stop-color:#9E7226"/>
			<stop  offset="0.7656" style="stop-color:#AD8330"/>
			<stop  offset="0.8262" style="stop-color:#C5A041"/>
			<stop  offset="0.8923" style="stop-color:#E6C758"/>
			<stop  offset="0.9231" style="stop-color:#F8DC65"/>
			<stop  offset="0.9545" style="stop-color:#FBEA78"/>
			<stop  offset="1" style="stop-color:#FFFB90"/>
		</linearGradient>
		<polygon fill="url(#SVGID_15_)" points="37.134,18.127 38.99,13.014 33.163,15.518 33.401,16.073 37.947,14.119 36.567,17.921 
			37.134,18.127 		"/>
		<linearGradient id="SVGID_16_" gradientUnits="userSpaceOnUse" x1="31.9998" y1="5.5945" x2="31.9998" y2="55.5071">
			<stop  offset="0" style="stop-color:#A4631B"/>
			<stop  offset="0.2617" style="stop-color:#FBE878"/>
			<stop  offset="0.3726" style="stop-color:#FFFFAA"/>
			<stop  offset="0.4775" style="stop-color:#FBE878"/>
			<stop  offset="0.5207" style="stop-color:#DABE5B"/>
			<stop  offset="0.5649" style="stop-color:#BE9B42"/>
			<stop  offset="0.6066" style="stop-color:#AA8131"/>
			<stop  offset="0.6441" style="stop-color:#9D7126"/>
			<stop  offset="0.6739" style="stop-color:#996C22"/>
			<stop  offset="0.7128" style="stop-color:#9E7226"/>
			<stop  offset="0.7656" style="stop-color:#AD8330"/>
			<stop  offset="0.8262" style="stop-color:#C5A041"/>
			<stop  offset="0.8923" style="stop-color:#E6C758"/>
			<stop  offset="0.9231" style="stop-color:#F8DC65"/>
			<stop  offset="0.9545" style="stop-color:#FBEA78"/>
			<stop  offset="1" style="stop-color:#FFFB90"/>
		</linearGradient>
		<path fill="url(#SVGID_16_)" d="M33.117,39.185l0.181,0.241l2.701-2.033c0.523-0.394,0.839-1.003,0.86-1.658l0.039-1.233
			c0.013-0.401,0.18-0.782,0.467-1.063l1.127-1.102c0.337-0.33,0.557-0.762,0.626-1.229l0.67-4.556
			c0.015-0.105,0.023-0.21,0.023-0.314c0-0.568-0.225-1.119-0.632-1.526l-2.427-2.427c-0.412-0.412-0.963-0.632-1.527-0.632
			c-0.231,0-0.464,0.037-0.69,0.113l-2.036,0.687c-0.161,0.054-0.329,0.082-0.497,0.082c-0.168,0-0.336-0.027-0.497-0.082
			l-2.037-0.687c-0.226-0.076-0.459-0.113-0.69-0.113c-0.563,0-1.115,0.221-1.527,0.632l-2.427,2.427
			c-0.408,0.408-0.632,0.958-0.632,1.526c0,0.104,0.008,0.209,0.023,0.315l0.67,4.556c0.069,0.467,0.289,0.899,0.626,1.229
			l1.127,1.102c0.287,0.281,0.454,0.662,0.467,1.063l0.039,1.233c0.02,0.654,0.337,1.264,0.86,1.658l2.701,2.033
			c0.384,0.289,0.842,0.434,1.298,0.434c0.456,0,0.914-0.145,1.298-0.434L33.117,39.185l-0.181-0.241
			c-0.277,0.209-0.606,0.313-0.935,0.313c-0.33,0-0.658-0.104-0.935-0.313l-2.701-2.032c-0.377-0.284-0.605-0.723-0.619-1.194
			l-0.039-1.233c-0.017-0.557-0.25-1.086-0.648-1.475l-1.127-1.102c-0.243-0.238-0.402-0.549-0.451-0.886l-0.67-4.556
			c-0.011-0.076-0.017-0.151-0.017-0.227c0-0.409,0.162-0.806,0.456-1.1l2.427-2.427c0.296-0.296,0.694-0.456,1.1-0.456
			c0.166,0,0.334,0.027,0.497,0.082l2.037,0.687c0.224,0.075,0.457,0.113,0.69,0.113c0.233,0,0.466-0.038,0.69-0.113l2.037-0.687
			c0.163-0.055,0.33-0.082,0.497-0.082c0.406,0,0.804,0.159,1.1,0.456l2.427,2.427c0.294,0.294,0.455,0.69,0.456,1.1
			c0,0.075-0.005,0.151-0.017,0.227l-0.67,4.556c-0.049,0.337-0.208,0.648-0.451,0.885l-1.127,1.102
			c-0.398,0.39-0.63,0.918-0.648,1.475l-0.039,1.233c-0.015,0.471-0.243,0.911-0.619,1.194l-2.701,2.032L33.117,39.185z"/>
		<linearGradient id="SVGID_17_" gradientUnits="userSpaceOnUse" x1="27.8318" y1="5.5929" x2="27.8318" y2="55.5112">
			<stop  offset="0" style="stop-color:#A4631B"/>
			<stop  offset="0.2617" style="stop-color:#FBE878"/>
			<stop  offset="0.3726" style="stop-color:#FFFFAA"/>
			<stop  offset="0.4775" style="stop-color:#FBE878"/>
			<stop  offset="0.5207" style="stop-color:#DABE5B"/>
			<stop  offset="0.5649" style="stop-color:#BE9B42"/>
			<stop  offset="0.6066" style="stop-color:#AA8131"/>
			<stop  offset="0.6441" style="stop-color:#9D7126"/>
			<stop  offset="0.6739" style="stop-color:#996C22"/>
			<stop  offset="0.7128" style="stop-color:#9E7226"/>
			<stop  offset="0.7656" style="stop-color:#AD8330"/>
			<stop  offset="0.8262" style="stop-color:#C5A041"/>
			<stop  offset="0.8923" style="stop-color:#E6C758"/>
			<stop  offset="0.9231" style="stop-color:#F8DC65"/>
			<stop  offset="0.9545" style="stop-color:#FBEA78"/>
			<stop  offset="1" style="stop-color:#FFFB90"/>
		</linearGradient>
		<polyline fill="url(#SVGID_17_)" points="25.438,20.392 30.226,20.392 30.226,19.789 25.438,19.789 		"/>
		<linearGradient id="SVGID_18_" gradientUnits="userSpaceOnUse" x1="36.1104" y1="5.5944" x2="36.1104" y2="55.5072">
			<stop  offset="0" style="stop-color:#A4631B"/>
			<stop  offset="0.2617" style="stop-color:#FBE878"/>
			<stop  offset="0.3726" style="stop-color:#FFFFAA"/>
			<stop  offset="0.4775" style="stop-color:#FBE878"/>
			<stop  offset="0.5207" style="stop-color:#DABE5B"/>
			<stop  offset="0.5649" style="stop-color:#BE9B42"/>
			<stop  offset="0.6066" style="stop-color:#AA8131"/>
			<stop  offset="0.6441" style="stop-color:#9D7126"/>
			<stop  offset="0.6739" style="stop-color:#996C22"/>
			<stop  offset="0.7128" style="stop-color:#9E7226"/>
			<stop  offset="0.7656" style="stop-color:#AD8330"/>
			<stop  offset="0.8262" style="stop-color:#C5A041"/>
			<stop  offset="0.8923" style="stop-color:#E6C758"/>
			<stop  offset="0.9231" style="stop-color:#F8DC65"/>
			<stop  offset="0.9545" style="stop-color:#FBEA78"/>
			<stop  offset="1" style="stop-color:#FFFB90"/>
		</linearGradient>
		<polyline fill="url(#SVGID_18_)" points="38.662,19.789 33.559,19.789 33.559,20.392 38.662,20.392 		"/>
		<linearGradient id="SVGID_19_" gradientUnits="userSpaceOnUse" x1="31.8923" y1="5.5944" x2="31.8923" y2="55.5072">
			<stop  offset="0" style="stop-color:#A4631B"/>
			<stop  offset="0.2617" style="stop-color:#FBE878"/>
			<stop  offset="0.3726" style="stop-color:#FFFFAA"/>
			<stop  offset="0.4775" style="stop-color:#FBE878"/>
			<stop  offset="0.5207" style="stop-color:#DABE5B"/>
			<stop  offset="0.5649" style="stop-color:#BE9B42"/>
			<stop  offset="0.6066" style="stop-color:#AA8131"/>
			<stop  offset="0.6441" style="stop-color:#9D7126"/>
			<stop  offset="0.6739" style="stop-color:#996C22"/>
			<stop  offset="0.7128" style="stop-color:#9E7226"/>
			<stop  offset="0.7656" style="stop-color:#AD8330"/>
			<stop  offset="0.8262" style="stop-color:#C5A041"/>
			<stop  offset="0.8923" style="stop-color:#E6C758"/>
			<stop  offset="0.9231" style="stop-color:#F8DC65"/>
			<stop  offset="0.9545" style="stop-color:#FBEA78"/>
			<stop  offset="1" style="stop-color:#FFFB90"/>
		</linearGradient>
		<polygon fill="url(#SVGID_19_)" points="31.892,21.085 30.898,20.09 31.892,19.096 32.887,20.09 		"/>
	</g>
</g>
</svg>
