<svg width="102" height="102" viewBox="0 0 102 102" fill="none" xmlns="http://www.w3.org/2000/svg">
<circle cx="51" cy="51" r="51" fill="#6CC727"/>
<path d="M44.4805 45.9811H45.9805V44.4811V36.8759C45.9805 34.1041 48.2276 31.8571 50.9993 31.8571C53.7712 31.8571 56.0181 34.104 56.0181 36.8759V44.4811V45.9811H57.5181H65.1234C67.8952 45.9811 70.1422 48.228 70.1422 50.9999C70.1422 53.7716 67.8951 56.0187 65.1234 56.0187H57.5181H56.0181V57.5187V65.124C56.0181 67.8958 53.7712 70.1428 50.9993 70.1428C48.2276 70.1428 45.9805 67.8958 45.9805 65.124V57.5187V56.0187H44.4805H36.8752C34.1035 56.0187 31.8564 53.7716 31.8564 50.9999C31.8564 48.228 34.1034 45.9811 36.8752 45.9811H44.4805Z" fill="white" stroke="#6CC727" stroke-width="3"/>
</svg>
