<svg width="72" height="96" viewBox="0 0 72 96" fill="none" xmlns="http://www.w3.org/2000/svg">
<path d="M7.22623 45.9668C7.41808 46.0652 7.41808 46.0652 7.6138 46.1656C9.07383 46.9252 10.4838 47.7686 11.8922 48.6189C12.2816 48.8525 12.6713 49.0859 13.0609 49.3193C13.2999 49.4625 13.5387 49.606 13.7773 49.7498C13.9955 49.8812 14.2146 50.0113 14.4345 50.1401C14.7481 50.33 15.0502 50.5385 15.3519 50.7469C16.2312 51.2432 17.1583 51.1711 18.1429 51.1602C18.4426 51.1622 18.4426 51.1622 18.7483 51.1642C19.5987 51.1696 20.4489 51.1666 21.2993 51.1643C21.9221 51.1639 22.5449 51.1677 23.1678 51.1718C23.4527 51.1687 23.4527 51.1687 23.7433 51.1655C25.2629 51.176 26.317 51.5672 27.5805 52.3933C28.6317 53.4923 29.072 54.5374 29.0856 56.0635C29.0663 56.6859 29.0281 57.1507 28.8309 57.7424C28.9439 57.7395 29.0569 57.7365 29.1733 57.7335C29.6882 57.7219 30.2031 57.7147 30.7181 57.7076C30.8959 57.703 31.0737 57.6983 31.2569 57.6935C32.9322 57.6761 32.9322 57.6761 33.6474 58.2981C33.9252 58.8307 33.9252 58.8307 34.0179 59.4096C33.7327 60.0699 33.5098 60.3041 32.9064 60.7063C32.3543 60.7509 32.3543 60.7509 31.6699 60.7484C31.5452 60.7485 31.4204 60.7485 31.2919 60.7486C30.8799 60.7483 30.468 60.7454 30.056 60.7425C29.7702 60.7418 29.4844 60.7413 29.1986 60.7409C28.4467 60.7395 27.6948 60.7359 26.9429 60.7318C26.1755 60.728 25.4081 60.7263 24.6407 60.7244C23.1352 60.7205 21.6297 60.7139 20.1242 60.7063C20.1242 61.929 20.1242 63.1516 20.1242 64.4113C30.4555 64.4113 40.7869 64.4113 51.4313 64.4113C51.4313 63.1887 51.4313 61.966 51.4313 60.7063C51.0479 60.7083 50.6646 60.7102 50.2697 60.7122C49.0031 60.7184 47.7365 60.7225 46.4699 60.7255C45.702 60.7275 44.934 60.7301 44.1661 60.7343C43.425 60.7383 42.6839 60.7405 41.9428 60.7415C41.6601 60.7422 41.3774 60.7435 41.0946 60.7455C40.6986 60.7482 40.3026 60.7486 39.9066 60.7484C39.6811 60.7492 39.4557 60.7501 39.2234 60.7509C38.6706 60.708 38.3659 60.6383 37.9081 60.3358C37.552 59.8611 37.5357 59.626 37.5723 59.0275C37.7264 58.4705 37.8196 58.263 38.2786 57.9276C38.8235 57.746 39.1724 57.7208 39.7396 57.7243C39.9133 57.7249 40.087 57.7255 40.266 57.7261C40.5374 57.7284 40.5374 57.7284 40.8142 57.7308C40.9972 57.7316 41.1803 57.7325 41.3688 57.7333C41.8208 57.7355 42.2727 57.7385 42.7246 57.7424C42.6634 57.559 42.6023 57.3756 42.5393 57.1866C42.38 55.5637 42.5004 54.2712 43.4656 52.9259C44.3153 51.9524 45.3993 51.3214 46.7063 51.2243C47.2298 51.2288 47.7505 51.2493 48.2733 51.2746C53.08 51.4078 56.5255 51.3985 60.3611 48.3243C61.1538 47.7118 62.0084 47.2299 62.882 46.7432C63.0194 46.663 63.1568 46.5828 63.2984 46.5002C64.8342 45.6074 66.1016 45.0877 67.9184 45.3307C69.1661 45.7244 70.2127 46.4124 70.8824 47.5537C71.4842 48.8466 71.5174 49.9774 71.5101 51.3911C71.5115 51.7402 71.5115 51.7402 71.513 52.0963C71.515 52.7309 71.5146 53.3654 71.5128 54.0001C71.5114 54.6664 71.5127 55.3327 71.5136 55.9991C71.5146 57.1178 71.5133 58.2365 71.5106 59.3551C71.5076 60.6457 71.5086 61.9362 71.5116 63.2267C71.5141 64.3378 71.5145 65.4488 71.513 66.5599C71.5122 67.2222 71.512 67.8844 71.5139 68.5467C71.5158 69.2853 71.5131 70.024 71.5101 70.7626C71.5112 70.9801 71.5123 71.1977 71.5135 71.4218C71.5025 72.8334 71.3242 73.8578 70.5929 75.0863C69.3514 76.296 68.0684 76.8473 66.3585 76.844C66.1174 76.844 65.8764 76.844 65.6281 76.844C65.3659 76.843 65.1037 76.8421 64.8415 76.8411C64.5726 76.8407 64.3037 76.8405 64.0348 76.8403C63.3283 76.8396 62.6217 76.8378 61.9152 76.8357C61.1937 76.8338 60.4723 76.833 59.7508 76.832C58.3361 76.8301 56.9214 76.8269 55.5067 76.823C55.5679 76.9453 55.629 77.0675 55.692 77.1935C55.7086 77.6643 55.7139 78.1298 55.7107 78.6006C55.7104 78.7458 55.7101 78.8911 55.7098 79.0407C55.7084 79.523 55.7055 80.0052 55.7021 80.4875C55.7011 80.6524 55.7 80.8173 55.6989 80.9873C55.6931 81.8614 55.6858 82.7356 55.6777 83.6097C55.6696 84.5096 55.6667 85.4093 55.6649 86.3092C55.6625 87.0035 55.656 87.6976 55.6485 88.3918C55.6457 88.7233 55.6444 89.0547 55.6446 89.3862C55.6449 93.0834 55.6449 93.0834 54.2582 94.5856C53.2842 95.5105 52.2507 95.9311 50.9102 95.9963C49.5508 95.9555 48.5308 95.5369 47.5215 94.625C45.454 92.404 46.0289 88.8697 46.0279 86.0312C46.0273 85.6313 46.0267 85.2315 46.0261 84.8316C46.025 83.9972 46.0246 83.1628 46.0247 82.3284C46.0247 81.2621 46.0222 80.1957 46.019 79.1294C46.0169 78.3051 46.0166 77.4807 46.0167 76.6564C46.0165 76.2632 46.0156 75.8701 46.0142 75.477C46.0124 74.927 46.0129 74.377 46.014 73.827C46.013 73.6668 46.012 73.5065 46.0109 73.3414C46.0194 71.6768 46.2647 70.1628 47.3558 68.8573C48.5041 67.7895 49.5981 67.3271 51.1808 67.3332C51.5423 67.3333 51.5423 67.3333 51.9111 67.3333C52.1713 67.3352 52.4316 67.3372 52.6918 67.3391C52.9602 67.3398 53.2286 67.3403 53.497 67.3407C54.2005 67.3421 54.9039 67.3458 55.6074 67.3499C56.453 67.3543 57.2986 67.356 58.1443 67.3582C59.4263 67.3618 60.7084 67.3689 61.9904 67.3753C61.9293 64.441 61.8682 61.5066 61.8052 58.4834C60.8882 59.0335 59.9712 59.5837 59.0265 60.1506C57.5097 60.8556 56.0367 60.7607 54.3952 60.7063C54.3972 60.8174 54.3991 60.9285 54.4011 61.0429C54.4089 61.552 54.4137 62.0612 54.4184 62.5704C54.4215 62.7451 54.4246 62.9198 54.4278 63.0997C54.4438 65.3972 54.4438 65.3972 53.7179 66.2566C53.6052 66.343 53.4925 66.4295 53.3764 66.5185C53.2637 66.6078 53.1509 66.6972 53.0348 66.7892C52.3496 67.2708 51.7305 67.2149 50.921 67.2111C50.7704 67.2111 50.6198 67.2111 50.4646 67.2112C49.9759 67.211 49.4871 67.2096 48.9984 67.2081C48.6972 67.2079 48.3959 67.2077 48.0947 67.2076C46.9761 67.2066 45.8576 67.204 44.7391 67.2016C42.2404 67.1978 39.7416 67.194 37.1671 67.1901C37.1671 73.9146 37.1671 80.6391 37.1671 87.5674C37.8395 87.5674 38.512 87.5674 39.2048 87.5674C40.5303 87.8793 41.2111 88.4924 41.9836 89.6052C42.5308 90.6758 42.5166 92.0141 42.2614 93.1763C41.8921 94.2696 41.3404 95.0989 40.3004 95.6519C39.4863 95.9808 38.708 95.987 37.8393 95.984C37.6761 95.9849 37.5129 95.9859 37.3447 95.9869C37.0011 95.9881 36.6575 95.9879 36.3139 95.9863C35.7914 95.9847 35.2693 95.99 34.7469 95.9959C34.4115 95.9962 34.0761 95.9961 33.7407 95.9955C33.5863 95.9976 33.4319 95.9997 33.2728 96.0019C32.0943 95.988 31.1068 95.7107 30.2149 94.9077C29.222 93.8024 29.1268 92.6949 29.1551 91.2674C29.2416 90.2379 29.5199 89.5157 30.1971 88.7137C31.6112 87.5353 32.4492 87.5674 34.3884 87.5674C34.3884 80.8429 34.3884 74.1184 34.3884 67.1901C29.4392 67.2194 29.4392 67.2194 24.4901 67.2568C23.5309 67.2602 23.5309 67.2602 23.0812 67.2608C22.7685 67.2619 22.4558 67.2645 22.1431 67.2683C21.6682 67.2737 21.1935 67.2745 20.7186 67.2742C20.5802 67.2768 20.4419 67.2795 20.2994 67.2823C19.3487 67.2747 18.8212 67.0421 18.0864 66.4491C17.2564 65.5742 17.1349 64.8315 17.1421 63.6551C17.143 63.3963 17.143 63.3963 17.1439 63.1323C17.1462 62.8656 17.1462 62.8656 17.1486 62.5936C17.1495 62.4122 17.1503 62.2308 17.1512 62.044C17.1533 61.5981 17.1564 61.1522 17.1602 60.7063C16.8683 60.716 16.8683 60.716 16.5704 60.7259C13.5691 60.7978 12.4405 60.1008 9.565 58.4834C9.565 61.4177 9.565 64.352 9.565 67.3753C10.4149 67.3667 11.2648 67.3581 12.1404 67.3493C12.6816 67.3455 13.2227 67.3419 13.7639 67.3391C14.6212 67.3347 15.4785 67.3295 16.3359 67.3194C17.0277 67.3113 17.7195 67.3069 18.4114 67.305C18.6743 67.3036 18.9371 67.301 19.1999 67.297C21.0754 67.2694 22.3122 67.4878 23.8755 68.51C26.1749 70.9139 25.5264 74.9507 25.5275 78.0553C25.5281 78.4327 25.5287 78.81 25.5294 79.1873C25.5305 79.9718 25.5308 80.7563 25.5307 81.5407C25.5307 82.542 25.5333 83.5433 25.5364 84.5446C25.5385 85.3213 25.5389 86.098 25.5388 86.8747C25.539 87.2438 25.5398 87.613 25.5412 87.9822C25.5431 88.4984 25.5425 89.0145 25.5414 89.5306C25.5424 89.6801 25.5435 89.8296 25.5446 89.9836C25.5347 91.8036 25.2769 93.2534 24.0144 94.6069C23.0217 95.5487 22.0628 95.934 20.7147 95.9963C19.3552 95.9555 18.3352 95.5369 17.3259 94.625C16.3696 93.5976 16.0142 92.6482 15.972 91.237C15.9648 91.0183 15.9576 90.7996 15.9502 90.5743C15.9417 90.2264 15.9417 90.2264 15.9329 89.8715C15.926 89.6296 15.9191 89.3878 15.912 89.1386C15.8024 85.0274 15.9164 80.9319 16.0487 76.823C15.902 76.8246 15.7552 76.8263 15.604 76.828C14.2143 76.8429 12.8246 76.8541 11.4348 76.8614C10.7204 76.8652 10.0061 76.8705 9.29183 76.8789C8.60116 76.887 7.91056 76.8914 7.21986 76.8933C6.95768 76.8947 6.69552 76.8973 6.43337 76.9014C4.59609 76.9285 3.20359 76.7344 1.63403 75.7578C0.666531 74.7627 0.096917 73.717 0.0887915 72.3206C0.0871983 72.1167 0.085605 71.9129 0.0839635 71.7029C0.0831744 71.4792 0.0823852 71.2554 0.0815722 71.0249C0.0800573 70.7893 0.0785424 70.5537 0.0769817 70.3109C0.0721284 69.529 0.0692882 68.747 0.0666473 67.9651C0.0656541 67.6954 0.0646579 67.4258 0.0636588 67.1561C0.0596519 66.0337 0.0561813 64.9113 0.0540955 63.7888C0.0510917 62.1832 0.0449572 60.5776 0.0343851 58.9719C0.0271975 57.8415 0.0235957 56.7112 0.0226183 55.5807C0.0219438 54.9064 0.0197414 54.2322 0.0137073 53.5579C0.00705855 52.8041 0.00783771 52.0504 0.00920931 51.2966C0.00617023 51.0755 0.00313116 50.8544 0 50.6265C0.0114544 49.0842 0.301807 47.8105 1.366 46.6447C3.11333 45.0083 5.15634 44.8798 7.22623 45.9668ZM3.45178 48.6652C2.83104 49.6157 2.81932 50.4233 2.83294 51.5183C2.83286 51.6902 2.83278 51.862 2.8327 52.039C2.83308 52.6043 2.8374 53.1696 2.84176 53.7349C2.8428 54.1279 2.84359 54.5209 2.84415 54.9138C2.84626 55.9463 2.85172 56.9786 2.85788 58.011C2.86357 59.0653 2.8661 60.1195 2.8689 61.1738C2.87485 63.241 2.88463 65.3081 2.89604 67.3753C4.11868 67.3753 5.34132 67.3753 6.60101 67.3753C6.60372 67.0144 6.60642 66.6535 6.6092 66.2817C6.61877 65.089 6.63086 63.8964 6.64468 62.7038C6.65296 61.9807 6.66024 61.2577 6.66519 60.5346C6.67001 59.8367 6.67749 59.1389 6.68682 58.441C6.68991 58.1748 6.69204 57.9086 6.6932 57.6424C6.69498 57.2695 6.70049 56.8965 6.70617 56.5236C6.70822 56.3113 6.71028 56.0991 6.7124 55.8804C6.79414 55.2759 6.90841 55.0171 7.34201 54.5931C8.55519 54.3234 9.2926 54.7912 10.3188 55.4325C10.644 55.6407 10.9671 55.8519 11.2901 56.0635C11.6175 56.2738 11.9455 56.4832 12.2738 56.6921C12.5698 56.8811 12.8643 57.0725 13.1588 57.264C13.8787 57.7021 14.4067 57.7662 15.2339 57.7693C15.5529 57.771 15.5529 57.771 15.8783 57.7729C16.1082 57.7731 16.338 57.7733 16.5748 57.7735C16.9287 57.7744 16.9287 57.7744 17.2898 57.7753C17.7892 57.7763 18.2886 57.7768 18.788 57.7767C19.4273 57.7767 20.0666 57.7792 20.7059 57.7824C21.3164 57.7849 21.927 57.7848 22.5375 57.7851C22.7669 57.7864 22.9964 57.7877 23.2328 57.7891C23.4461 57.7885 23.6593 57.7879 23.8791 57.7874C24.0666 57.7876 24.2542 57.7879 24.4474 57.7882C24.9614 57.7404 25.2552 57.6589 25.6817 57.3719C26.1171 56.6315 26.2616 56.2367 26.1332 55.3804C25.8512 54.7429 25.7102 54.5696 25.1259 54.2226C24.68 54.1398 24.68 54.1398 24.1951 54.1514C24.0102 54.1495 23.8253 54.1476 23.6348 54.1457C23.3366 54.1465 23.3366 54.1465 23.0324 54.1474C22.8269 54.1454 22.6213 54.1434 22.4095 54.1413C21.7519 54.1349 21.0944 54.1321 20.4368 54.13C19.573 54.1273 18.7093 54.1211 17.8455 54.1126C17.6478 54.1132 17.4502 54.1138 17.2466 54.1143C15.5948 54.0978 14.6209 53.6488 13.1969 52.8101C13.0884 52.7464 12.9799 52.6828 12.8682 52.6171C12.5192 52.412 12.171 52.2058 11.8227 51.9996C11.5816 51.8579 11.3405 51.7162 11.0994 51.5745C10.0441 50.9533 8.99285 50.3271 7.9542 49.6782C7.72739 49.5368 7.72739 49.5368 7.49601 49.3924C7.22472 49.2219 6.95445 49.0498 6.68545 48.8757C5.51032 48.1349 4.64955 47.84 3.45178 48.6652ZM62.3609 50.3556C62.1598 50.4768 61.9587 50.598 61.7515 50.7229C60.81 51.2912 59.871 51.8635 58.936 52.4425C58.7838 52.5366 58.6315 52.6306 58.4747 52.7275C58.1938 52.9015 57.9135 53.0764 57.6338 53.2523C56.6836 53.8418 56.0472 54.0601 54.9405 54.0607C54.6614 54.0618 54.6614 54.0618 54.3766 54.0629C54.0767 54.0631 54.0767 54.0631 53.7707 54.0634C53.3468 54.0668 52.9229 54.0705 52.499 54.0743C51.831 54.0797 51.1632 54.0837 50.4952 54.0838C49.8502 54.0844 49.2055 54.0908 48.5606 54.0982C48.2613 54.0962 48.2613 54.0962 47.9559 54.0942C46.8162 54.1071 46.8162 54.1071 45.8448 54.666C45.4756 55.188 45.318 55.4367 45.318 56.0751C45.6543 57.0718 45.6543 57.0718 46.4295 57.7424C46.9129 57.8038 46.9129 57.8038 47.4636 57.8021C47.6758 57.8056 47.888 57.8092 48.1066 57.8128C48.4514 57.8152 48.4514 57.8152 48.803 57.8176C49.04 57.8197 49.277 57.8218 49.5211 57.824C50.0238 57.8279 50.5265 57.8301 51.0292 57.8314C51.6681 57.8334 52.3067 57.8423 52.9455 57.8528C53.56 57.8615 54.1744 57.8621 54.7889 57.8639C55.0157 57.8685 55.2425 57.8731 55.4762 57.8778C57.0583 57.8697 58.0852 57.5024 59.397 56.6309C59.6891 56.4461 59.9812 56.2613 60.2733 56.0766C60.6895 55.8085 61.1042 55.539 61.5154 55.2632C62.4598 54.6617 63.0896 54.4169 64.2134 54.5931C64.6515 55.0142 64.7612 55.2754 64.843 55.8804C64.8451 56.0926 64.8472 56.3049 64.8493 56.5236C64.8529 56.7646 64.8566 57.0056 64.8604 57.2539C64.8616 57.5161 64.8628 57.7783 64.864 58.0405C64.8671 58.3094 64.8705 58.5783 64.8741 58.8472C64.8828 59.5538 64.8884 60.2603 64.8932 60.9668C64.8987 61.6883 64.9074 62.4098 64.9157 63.1312C64.9316 64.5459 64.9438 65.9606 64.9544 67.3753C66.1771 67.3753 67.3997 67.3753 68.6594 67.3753C68.672 65.1273 68.6822 62.8793 68.6882 60.6312C68.6911 59.5873 68.695 58.5434 68.7013 57.4995C68.7074 56.4918 68.7107 55.4841 68.7121 54.4763C68.7132 54.0922 68.7152 53.708 68.7182 53.3239C68.7222 52.7851 68.7228 52.2464 68.7225 51.7076C68.7245 51.5494 68.7265 51.3913 68.7286 51.2283C68.7234 50.2368 68.5842 49.5396 68.1037 48.6652C66.135 47.3938 64.0895 49.3059 62.3609 50.3556ZM2.89604 70.3393C2.88942 70.6326 2.88473 70.9259 2.88084 71.2192C2.87802 71.3826 2.8752 71.5459 2.87229 71.7142C2.90766 72.4255 3.10322 72.8689 3.45178 73.4885C4.13519 73.9441 4.48137 73.9086 5.29731 73.9151C5.4278 73.9167 5.55829 73.9183 5.69274 73.9199C6.1243 73.9247 6.55585 73.9269 6.98743 73.9292C7.28761 73.9322 7.58779 73.9354 7.88797 73.9388C8.67881 73.9472 9.46966 73.9537 10.2605 73.9595C11.5251 73.9691 12.7896 73.9812 14.0542 73.9944C14.4955 73.9986 14.9368 74.0016 15.3782 74.0045C15.6498 74.007 15.9214 74.0095 16.193 74.0121C16.4295 74.0139 16.666 74.0156 16.9097 74.0175C17.4494 74.0408 17.9328 74.1044 18.4569 74.2295C18.6967 74.9488 18.6705 75.6314 18.6714 76.3811C18.6724 76.5442 18.6733 76.7072 18.6743 76.8751C18.6762 77.2293 18.6778 77.5835 18.6791 77.9377C18.6813 78.4983 18.6849 79.0588 18.6889 79.6194C18.7004 81.2133 18.7104 82.8073 18.7165 84.4012C18.7204 85.376 18.727 86.3507 18.7352 87.3255C18.7378 87.697 18.7395 88.0685 18.74 88.44C18.7409 88.9598 18.7452 89.4794 18.7503 89.9991C18.7497 90.1525 18.7492 90.306 18.7486 90.464C18.7641 91.5367 18.9764 92.1624 19.7537 92.9397C20.4326 93.1402 20.7828 93.154 21.4557 92.9165C22.0604 92.5134 22.2371 92.3057 22.5324 91.6429C22.6137 91.0071 22.6083 90.3761 22.6043 89.7358C22.6053 89.5442 22.6063 89.3525 22.6073 89.155C22.6097 88.5218 22.6081 87.8887 22.6062 87.2556C22.6066 86.8151 22.6071 86.3747 22.6078 85.9343C22.6087 85.0113 22.6075 84.0884 22.6049 83.1654C22.6017 81.9828 22.6035 80.8004 22.6069 79.6178C22.6089 78.7083 22.6082 77.7988 22.6068 76.8893C22.6064 76.4533 22.6069 76.0174 22.6082 75.5814C22.6096 74.9717 22.6074 74.362 22.6043 73.7523C22.6055 73.5724 22.6066 73.3925 22.6077 73.2072C22.5987 72.2395 22.5342 71.5389 21.9767 70.7098C21.4062 70.3295 21.2936 70.2931 20.6508 70.2947C20.4942 70.2942 20.3376 70.2937 20.1762 70.2932C19.9193 70.2952 19.9193 70.2952 19.6573 70.2972C19.3862 70.2971 19.3862 70.2971 19.1095 70.2971C18.5111 70.2973 17.9127 70.3002 17.3143 70.3031C16.8998 70.3038 16.4853 70.3043 16.0707 70.3047C14.9789 70.3061 13.8871 70.3098 12.7953 70.3138C11.6815 70.3176 10.5677 70.3193 9.45392 70.3212C7.26795 70.3252 5.08199 70.3315 2.89604 70.3393ZM49.2083 71.2655C49.0355 71.7838 48.9991 72.0986 48.997 72.6344C48.9959 72.8006 48.9949 72.9668 48.9938 73.138C48.9936 73.3199 48.9934 73.5018 48.9932 73.6892C48.9923 73.8812 48.9913 74.0731 48.9904 74.2708C48.9877 74.9069 48.9864 75.5429 48.9854 76.179C48.9843 76.6204 48.9833 77.0618 48.9822 77.5032C48.9802 78.4291 48.9792 79.3551 48.9785 80.281C48.9775 81.4682 48.9731 82.6553 48.9678 83.8424C48.9643 84.7543 48.9634 85.6661 48.9631 86.578C48.9625 87.0157 48.961 87.4534 48.9586 87.8911C48.9554 88.5031 48.9558 89.115 48.957 89.727C48.9553 89.9082 48.9536 90.0893 48.9518 90.2759C48.959 91.4351 49.1066 92.097 49.9493 92.9397C50.6516 93.1472 50.9763 93.159 51.6628 92.8818C52.3139 92.4931 52.3139 92.4931 52.6568 91.8499C52.7768 91.1891 52.7597 90.5215 52.7631 89.8519C52.7646 89.6901 52.7662 89.5282 52.7677 89.3615C52.771 89.0105 52.7738 88.6596 52.7762 88.3086C52.7801 87.7536 52.7851 87.1986 52.7904 86.6435C52.8034 85.2653 52.8144 83.8871 52.8255 82.5089C52.8349 81.3438 52.845 80.1787 52.8562 79.0136C52.8611 78.4661 52.865 77.9187 52.8688 77.3712C52.8718 77.0365 52.875 76.7018 52.8782 76.3671C52.8789 76.2143 52.8797 76.0616 52.8805 75.9042C52.8872 75.2995 52.9059 74.8072 53.0985 74.2295C53.8607 74.0466 54.5738 74.0212 55.3566 74.0209C55.4871 74.0206 55.6177 74.0202 55.7522 74.0199C56.0344 74.0191 56.3166 74.0188 56.5988 74.0187C57.1994 74.0181 57.7999 74.0141 58.4005 74.0103C59.5174 74.0033 60.6343 73.9975 61.7512 73.9979C62.5295 73.998 63.3076 73.9937 64.0858 73.9864C64.3818 73.9845 64.6778 73.9842 64.9739 73.9856C65.3881 73.9874 65.8019 73.9835 66.2161 73.9782C66.4515 73.9776 66.6869 73.9769 66.9294 73.9762C67.7159 73.8272 67.9873 73.5571 68.4742 72.9328C68.6706 72.3571 68.6789 71.8243 68.671 71.2192C68.6693 71.054 68.6676 70.8887 68.6659 70.7185C68.6638 70.5933 68.6616 70.4682 68.6594 70.3393C66.2601 70.3178 63.8608 70.3014 61.4614 70.2913C60.3472 70.2865 59.2332 70.2799 58.1191 70.2694C57.0441 70.2594 55.9691 70.2538 54.894 70.2514C54.4837 70.2497 54.0735 70.2464 53.6632 70.2414C53.0888 70.2346 52.5146 70.2337 51.9402 70.2341C51.7703 70.2308 51.6004 70.2275 51.4254 70.224C50.3691 70.2326 49.8696 70.3676 49.2083 71.2655ZM32.1654 90.9019C32.0993 91.3406 32.0993 91.3406 32.1075 91.8282C32.1044 91.9925 32.1013 92.1568 32.0981 92.326C32.1203 92.4674 32.1425 92.6088 32.1654 92.7544C32.8336 93.1999 33.3213 93.1786 34.0931 93.1741C34.2935 93.1746 34.2935 93.1746 34.4979 93.1752C34.7801 93.1754 35.0622 93.1748 35.3444 93.1732C35.7761 93.1712 36.2078 93.1732 36.6396 93.1756C36.9138 93.1753 37.1881 93.1748 37.4623 93.1741C37.656 93.1752 37.656 93.1752 37.8536 93.1764C38.5309 93.1698 38.8103 93.1409 39.3901 92.7544C39.4716 92.3163 39.4716 92.3163 39.448 91.8282C39.4469 91.5817 39.4469 91.5817 39.4458 91.3303C39.4297 90.8662 39.4297 90.8662 39.0196 90.5314C38.5325 90.4944 38.0653 90.4796 37.5781 90.4822C37.3643 90.4817 37.3643 90.4817 37.1463 90.4811C36.8448 90.4809 36.5433 90.4816 36.2418 90.4831C35.7795 90.4851 35.3174 90.4831 34.8551 90.4808C34.5625 90.481 34.2699 90.4815 33.9773 90.4822C33.7692 90.4811 33.7692 90.4811 33.5569 90.4799C32.7761 90.4607 32.7761 90.4607 32.1654 90.9019Z" fill="url(#paint0_linear_177_1160)"/>
<path d="M43.7263 3.38586C44.0834 3.64752 44.4234 3.92133 44.7625 4.20573C44.8676 4.2843 44.9727 4.36286 45.0809 4.44381C47.0785 6.00101 48.5114 8.46256 49.2085 10.8747C49.1703 12.0026 49.1703 12.0026 48.7107 12.5304C48.1459 12.7898 47.7859 12.8169 47.1708 12.7272C46.5348 12.2055 46.2789 11.7092 46.0014 10.9442C45.3905 9.40484 44.5156 8.09603 43.2806 6.98447C43.1967 6.89993 43.1129 6.8154 43.0266 6.7283C41.721 5.48457 39.7107 4.43025 37.9083 4.20573C37.7073 4.17923 37.5062 4.15272 37.299 4.12541C34.332 3.82748 31.5219 4.45747 29.1466 6.33899C27.0004 8.15236 25.484 10.6531 25.1262 13.4682C24.8832 16.4026 25.5468 19.2705 27.4034 21.5953C28.2439 22.5557 29.1222 23.353 30.1445 24.112C31.0306 24.8278 31.3843 25.7157 31.6099 26.8061C31.6362 27.305 31.6274 27.7879 31.6099 28.2881C32.5268 28.2881 33.4438 28.2881 34.3886 28.2881C34.6112 25.0796 34.6112 25.0796 33.2989 22.2591C32.8513 21.7623 32.3889 21.2851 31.9112 20.8173C31.278 20.1665 30.8689 19.6515 30.8689 18.713C31.0541 18.0994 31.0541 18.0994 31.3667 17.7405C31.9408 17.4767 32.2808 17.4415 32.9066 17.5437C33.6126 18.183 34.2144 18.9046 34.817 19.6393C34.9012 19.7411 34.9853 19.843 35.0721 19.9479C35.2769 20.1959 35.4812 20.4443 35.6853 20.6929C36.4239 20.4076 36.7785 19.9417 37.26 19.3267C38.6329 17.5823 38.6329 17.5823 39.3787 17.4395C40.1539 17.5818 40.422 17.8286 40.8723 18.4699C40.8557 19.6222 40.438 20.223 39.7261 21.0634C39.639 21.1704 39.552 21.2774 39.4623 21.3876C39.3748 21.4946 39.2873 21.6015 39.1971 21.7118C39.1085 21.8202 39.0198 21.9286 38.9285 22.0402C38.6493 22.3601 38.6493 22.3601 38.3398 22.6456C37.4715 23.4874 37.402 24.2308 37.3743 25.4171C37.375 25.7321 37.375 25.7321 37.3757 26.0535C37.3719 26.2686 37.3681 26.4836 37.3642 26.7052C37.3555 27.2327 37.3534 27.7604 37.3526 28.2881C38.2696 28.2881 39.1865 28.2881 40.1313 28.2881C40.1313 27.8602 40.1313 27.4322 40.1313 26.9914C40.432 25.2532 41.5256 24.2404 42.8033 23.1164C44.4822 21.6307 45.4821 20.037 46.2209 17.9212C46.4758 17.2176 46.6874 16.7931 47.356 16.4322C47.9717 16.3552 48.3364 16.3684 48.8959 16.6406C49.3233 17.1155 49.335 17.4679 49.3938 18.0994C48.7752 21.306 46.7344 23.7952 44.2878 25.8104C43.4755 26.5121 43.2305 27.068 43.1112 28.1267C43.106 28.2411 43.1007 28.3555 43.0953 28.4733C43.229 28.5116 43.3628 28.5498 43.5005 28.5891C44.2708 28.9657 44.7466 29.553 45.133 30.3258C45.2643 32.2878 45.3389 34.1273 44.065 35.7422C43.0431 36.8425 41.9774 37.4733 40.5018 37.7358C40.4837 37.8566 40.4655 37.9775 40.4468 38.102C40.1814 39.6534 39.6274 40.5476 38.4416 41.571C37.2617 42.3855 35.9539 42.3038 34.5738 42.1818C33.5078 41.9127 32.7597 41.2358 32.0614 40.4082C31.7427 39.8704 31.6589 39.4033 31.552 38.7894C31.4537 38.2169 31.4537 38.2169 31.2394 37.7358C30.7951 37.4933 30.3952 37.4234 29.8992 37.3284C28.729 36.9896 27.8952 36.0261 27.2124 35.0547C26.4409 33.614 26.4199 32.1007 26.6081 30.5111C26.8498 29.7684 27.2861 29.1429 27.9049 28.6586C28.0883 28.5975 28.2717 28.5363 28.4606 28.4733C28.5887 27.7101 28.6499 27.0721 28.1863 26.4205C27.7945 26.0378 27.3888 25.6852 26.9671 25.3357C26.6751 25.0776 26.3842 24.8183 26.0944 24.5578C25.9566 24.4345 25.8189 24.3112 25.677 24.1841C23.1812 21.8495 22.1902 18.3267 21.9909 15.0272C21.8858 11.652 23.1689 8.35468 25.3809 5.82666C25.6629 5.52993 25.9484 5.23645 26.2376 4.94673C26.3649 4.8173 26.4922 4.68787 26.6233 4.55452C31.2962 0.0983853 38.453 -0.0640198 43.7263 3.38586ZM29.3869 31.2521C29.4519 33.1151 29.4519 33.1151 30.3927 34.3564C30.9455 34.7937 31.4793 34.7964 32.155 34.8017C32.3411 34.8034 32.5273 34.8052 32.719 34.8071C33.0203 34.8082 33.0203 34.8082 33.3278 34.8094C33.6378 34.811 33.6378 34.811 33.9542 34.8126C34.3918 34.8144 34.8293 34.8156 35.2669 34.8163C35.9361 34.8181 36.6052 34.8239 37.2744 34.8297C37.6994 34.8309 38.1245 34.8319 38.5495 34.8326C38.8497 34.836 38.8497 34.836 39.1559 34.8395C40.4811 34.8524 40.4811 34.8524 41.6133 34.2161C41.876 33.899 41.876 33.899 42.0417 33.533C42.1021 33.4176 42.1625 33.3023 42.2248 33.1834C42.4227 32.5747 42.4227 32.5747 42.3543 31.2521C38.0751 31.2521 33.7958 31.2521 29.3869 31.2521ZM34.2034 37.7358C34.4562 38.8034 34.4562 38.8034 34.9791 39.2062C35.6656 39.4656 36.0918 39.4006 36.7968 39.2178C37.16 39.0091 37.16 39.0091 37.3526 38.662C37.4137 38.3564 37.4748 38.0507 37.5378 37.7358C36.4375 37.7358 35.3371 37.7358 34.2034 37.7358Z" fill="url(#paint1_linear_177_1160)"/>
<path d="M15.6789 29.0303C15.928 29.2127 16.1753 29.3976 16.4199 29.586C16.5842 29.7006 16.7484 29.8152 16.9177 29.9333C18.5914 31.4714 19.5836 33.6262 19.7543 35.8845C19.7979 38.1026 19.2574 40.0333 17.9018 41.8124C17.707 42.0818 17.707 42.0818 17.5082 42.3566C16.2193 43.8583 14.2853 44.8402 12.3444 45.1469C9.79137 45.3306 7.53283 44.9458 5.49017 43.2944C4.99232 42.8429 4.99232 42.8429 4.56393 42.3682C4.47486 42.2798 4.38578 42.1915 4.29401 42.1004C2.7785 40.512 2.17385 38.2601 2.1499 36.1044C2.26356 34.1041 3.0156 32.4747 4.19343 30.8827C4.3539 30.642 4.3539 30.642 4.51762 30.3965C5.72175 29.1254 7.1642 28.4121 8.82465 27.9188C8.93999 27.8832 9.05533 27.8476 9.17417 27.8109C11.4127 27.3682 13.7703 27.7894 15.6789 29.0303ZM6.86796 32.2258C5.65099 33.5988 5.01864 35.0112 5.06106 36.8693C5.24644 38.4416 5.92867 40.0143 7.17767 41.0135C8.58396 41.9951 10.0501 42.529 11.7756 42.2944C13.535 41.9138 14.7758 41.244 15.8525 39.7863C16.8404 38.2473 17.0246 36.6681 16.7108 34.8736C16.289 33.387 15.3573 32.2124 14.0811 31.3574C11.5929 30.0078 8.96044 30.3885 6.86796 32.2258Z" fill="url(#paint2_linear_177_1160)"/>
<path d="M65.325 29.0189C65.9408 29.4676 66.4806 29.9456 66.9922 30.5125C67.0813 30.6009 67.1704 30.6892 67.2622 30.7803C68.7823 32.3735 69.3605 34.6062 69.4128 36.7632C69.3161 38.7856 68.5205 40.6778 67.1775 42.1832C67.0399 42.3399 66.9024 42.4965 66.7607 42.6579C64.7112 44.4745 62.6662 45.3037 59.8992 45.2181C58.072 45.0296 56.5796 44.4153 55.1363 43.2947C54.9414 43.1533 54.7466 43.012 54.5458 42.8663C52.7848 41.1835 51.8851 38.8746 51.7671 36.4752C51.802 34.468 52.4725 32.6798 53.6543 31.0683C53.8492 30.7989 53.8492 30.7989 54.048 30.5241C56.8045 27.3123 61.8291 26.7864 65.325 29.0189ZM56.6183 31.9945C55.3087 33.3262 54.7484 34.5755 54.6848 36.4289C54.7132 37.5858 54.8992 38.4228 55.5068 39.4045C55.5832 39.5337 55.6596 39.6628 55.7384 39.7959C56.662 41.1892 57.9566 41.9457 59.5823 42.2758C61.1935 42.4783 62.6635 42.1424 64.0283 41.257C64.5416 40.8208 64.5416 40.8208 64.9545 40.3307C65.0806 40.2008 65.2067 40.0709 65.3366 39.9371C66.1883 38.6732 66.655 37.2214 66.4365 35.6995C66.0369 33.8077 65.1447 32.4463 63.5651 31.3114C61.2942 29.9574 58.617 30.4217 56.6183 31.9945Z" fill="url(#paint3_linear_177_1160)"/>
<path d="M16.292 13.0529C16.6092 13.0471 16.6092 13.0471 16.9327 13.0413C17.137 13.0403 17.3413 13.0394 17.5518 13.0384C17.7386 13.0367 17.9254 13.0349 18.1179 13.0332C18.7283 13.11 19.0748 13.2939 19.5686 13.6549C19.8288 14.1753 19.7999 14.5604 19.7538 15.1369C19.4241 15.7178 19.2864 15.8485 18.6423 16.0632C17.875 16.1065 17.1067 16.0975 16.3383 16.0979C16.1261 16.1002 15.9139 16.1024 15.6953 16.1048C15.4913 16.1051 15.2872 16.1055 15.077 16.1059C14.8904 16.1066 14.7038 16.1074 14.5115 16.1082C13.9991 16.0621 13.7013 15.9668 13.2701 15.6927C12.9141 15.2179 12.8977 14.9828 12.9343 14.3843C13.0879 13.8293 13.1907 13.6264 13.6406 13.2844C14.4185 12.8955 15.4373 13.0567 16.292 13.0529Z" fill="url(#paint4_linear_177_1160)"/>
<path d="M55.3915 13.0645C55.6045 13.0622 55.8175 13.06 56.037 13.0576C56.2419 13.0573 56.4467 13.0569 56.6578 13.0565C56.8456 13.0558 57.0334 13.055 57.2269 13.0542C57.7466 13.1007 58.0392 13.1823 58.4713 13.4697C58.9024 14.1165 58.9349 14.376 58.8418 15.137C58.4959 15.5636 58.22 15.8184 57.7303 16.0632C56.967 16.1083 56.2022 16.0975 55.4378 16.098C55.2248 16.1002 55.0118 16.1025 54.7923 16.1048C54.5874 16.1052 54.3826 16.1056 54.1715 16.1059C53.9837 16.1067 53.7959 16.1074 53.6024 16.1082C53.0827 16.0618 52.7901 15.9802 52.358 15.6927C51.9269 15.046 51.8944 14.7864 51.9875 14.0255C52.941 12.8495 53.9799 13.0653 55.3915 13.0645Z" fill="url(#paint5_linear_177_1160)"/>
<path d="M53.4688 17.7287C53.9286 18.0288 54.3519 18.366 54.7771 18.7128C54.9435 18.8445 54.9435 18.8445 55.1132 18.9788C56.9549 20.4533 56.9549 20.4533 57.0811 21.3526C56.9852 22.0122 56.9253 22.2889 56.4328 22.7304C55.8386 22.9713 55.5898 22.9506 54.9964 22.7015C54.3146 22.3142 53.7563 21.8663 53.1678 21.3526C53.0641 21.2642 52.9605 21.1757 52.8537 21.0845C51.3041 19.7524 51.3041 19.7524 51.0605 19.037C51.0605 18.4697 51.0605 18.4697 51.3847 17.9487C52.1294 17.2247 52.5642 17.341 53.4688 17.7287Z" fill="url(#paint6_linear_177_1160)"/>
<path d="M19.6838 17.4737C20.1908 17.7672 20.4221 17.9404 20.6795 18.4694C20.6773 19.0922 20.6526 19.5681 20.2529 20.0679C19.9322 20.3677 19.6009 20.6415 19.2554 20.9124C19.1418 21.0063 19.0283 21.1003 18.9113 21.1971C16.8404 22.8903 16.8404 22.8903 15.863 22.9154C15.0114 22.5089 15.0114 22.5089 14.7515 21.9891C14.6505 21.2485 14.6898 20.9618 15.1379 20.3508C15.689 19.721 16.3136 19.2108 16.9745 18.701C17.1422 18.5673 17.1422 18.5673 17.3132 18.431C18.8073 17.265 18.8073 17.265 19.6838 17.4737Z" fill="url(#paint7_linear_177_1160)"/>
<path d="M56.618 6.61673C57.0811 7.31135 57.0869 7.64663 56.9885 8.46922C56.6014 8.9555 56.6014 8.9555 56.0738 9.39547C55.8883 9.55188 55.7028 9.70829 55.5116 9.86944C55.3265 10.0187 55.1415 10.1679 54.9508 10.3217C54.7944 10.4538 54.6379 10.5858 54.4768 10.7219C53.2693 11.7135 53.2693 11.7135 52.3573 11.8037C51.7114 11.5033 51.4601 11.2916 51.0605 10.6922C51.0759 9.9864 51.163 9.67056 51.6452 9.14726C52.2091 8.6198 52.7791 8.10415 53.3646 7.60087C53.5166 7.46601 53.5166 7.46601 53.6718 7.32842C54.5814 6.54797 55.464 5.94354 56.618 6.61673Z" fill="url(#paint8_linear_177_1160)"/>
<path d="M16.999 6.60821C17.5848 6.93374 18.0722 7.35351 18.5724 7.79623C18.6736 7.88315 18.7749 7.97007 18.8792 8.05963C19.1743 8.31526 19.4645 8.57551 19.7533 8.83826C19.9305 8.99873 20.1077 9.1592 20.2903 9.32453C20.6796 9.7645 20.6796 9.7645 20.6796 10.436C20.4259 11.2921 20.4259 11.2921 19.9386 11.617C19.4584 11.825 19.2581 11.8224 18.7577 11.6557C18.271 11.4316 17.9167 11.1884 17.505 10.8478C17.3676 10.7345 17.2301 10.6212 17.0886 10.5044C16.9478 10.3863 16.807 10.2682 16.662 10.1466C16.5191 10.0292 16.3761 9.91184 16.2289 9.79091C14.7918 8.5973 14.7918 8.5973 14.6821 7.73834C14.7516 7.17101 14.7516 7.17101 15.0874 6.74263C15.8167 6.18002 16.1841 6.23094 16.999 6.60821Z" fill="url(#paint9_linear_177_1160)"/>
<defs>
<linearGradient id="paint0_linear_177_1160" x1="35.7573" y1="45.262" x2="35.7573" y2="96.0019" gradientUnits="userSpaceOnUse">
<stop stop-color="#D265F8"/>
<stop offset="0.52" stop-color="#2D5CF2"/>
<stop offset="1" stop-color="#69C331"/>
</linearGradient>
<linearGradient id="paint1_linear_177_1160" x1="35.6893" y1="0.984375" x2="35.6893" y2="42.2587" gradientUnits="userSpaceOnUse">
<stop stop-color="#D265F8"/>
<stop offset="0.52" stop-color="#2D5CF2"/>
<stop offset="1" stop-color="#69C331"/>
</linearGradient>
<linearGradient id="paint2_linear_177_1160" x1="10.9533" y1="27.64" x2="10.9533" y2="45.1888" gradientUnits="userSpaceOnUse">
<stop stop-color="#D265F8"/>
<stop offset="0.52" stop-color="#2D5CF2"/>
<stop offset="1" stop-color="#69C331"/>
</linearGradient>
<linearGradient id="paint3_linear_177_1160" x1="60.5899" y1="27.6589" x2="60.5899" y2="45.2241" gradientUnits="userSpaceOnUse">
<stop stop-color="#D265F8"/>
<stop offset="0.52" stop-color="#2D5CF2"/>
<stop offset="1" stop-color="#69C331"/>
</linearGradient>
<linearGradient id="paint4_linear_177_1160" x1="16.3526" y1="13.0229" x2="16.3526" y2="16.1082" gradientUnits="userSpaceOnUse">
<stop stop-color="#D265F8"/>
<stop offset="0.52" stop-color="#2D5CF2"/>
<stop offset="1" stop-color="#69C331"/>
</linearGradient>
<linearGradient id="paint5_linear_177_1160" x1="55.4147" y1="13.0494" x2="55.4147" y2="16.1082" gradientUnits="userSpaceOnUse">
<stop stop-color="#D265F8"/>
<stop offset="0.52" stop-color="#2D5CF2"/>
<stop offset="1" stop-color="#69C331"/>
</linearGradient>
<linearGradient id="paint6_linear_177_1160" x1="54.0708" y1="17.4209" x2="54.0708" y2="22.9002" gradientUnits="userSpaceOnUse">
<stop stop-color="#D265F8"/>
<stop offset="0.52" stop-color="#2D5CF2"/>
<stop offset="1" stop-color="#69C331"/>
</linearGradient>
<linearGradient id="paint7_linear_177_1160" x1="17.6925" y1="17.368" x2="17.6925" y2="22.9154" gradientUnits="userSpaceOnUse">
<stop stop-color="#D265F8"/>
<stop offset="0.52" stop-color="#2D5CF2"/>
<stop offset="1" stop-color="#69C331"/>
</linearGradient>
<linearGradient id="paint8_linear_177_1160" x1="54.05" y1="6.32605" x2="54.05" y2="11.8037" gradientUnits="userSpaceOnUse">
<stop stop-color="#D265F8"/>
<stop offset="0.52" stop-color="#2D5CF2"/>
<stop offset="1" stop-color="#69C331"/>
</linearGradient>
<linearGradient id="paint9_linear_177_1160" x1="17.6808" y1="6.32227" x2="17.6808" y2="11.7772" gradientUnits="userSpaceOnUse">
<stop stop-color="#D265F8"/>
<stop offset="0.52" stop-color="#2D5CF2"/>
<stop offset="1" stop-color="#69C331"/>
</linearGradient>
</defs>
</svg>
