<svg width="52" height="60" viewBox="0 0 52 60" fill="none" xmlns="http://www.w3.org/2000/svg">
<path d="M29.1289 1.15142C29.4689 1.4285 29.8005 1.71258 30.1297 2.00243C31.3756 3.09838 31.3756 3.09838 32.9592 3.3499C33.4758 3.29495 33.9873 3.21325 34.4993 3.12606C36.2152 2.83976 37.7837 2.62011 39.3396 3.544C40.5718 4.45687 41.0524 5.89085 41.561 7.27625C41.5936 7.36483 41.6263 7.4534 41.6599 7.54466C41.7221 7.71496 41.7832 7.88567 41.8429 8.05685C42.0654 8.676 42.3145 9.26824 42.8529 9.67225C43.5712 10.0073 44.3032 10.2799 45.0489 10.5467C45.9253 10.8604 46.72 11.1976 47.4834 11.7405C47.6843 11.8718 47.6843 11.8718 47.8892 12.0058C48.6165 12.7661 49.0814 13.7557 49.1294 14.8124C49.0793 15.7371 48.9268 16.6509 48.7792 17.5642C48.4925 19.1346 48.4925 19.1346 48.9816 20.6047C49.4229 21.1859 49.8987 21.7378 50.3744 22.2911C51.5034 23.6416 52.1217 24.9499 51.9779 26.7222C51.645 28.0673 50.7365 29.1006 49.8531 30.1244C49.0152 31.1028 48.5371 31.9044 48.6071 33.2142C48.6546 33.5634 48.7245 33.9067 48.7943 34.252C48.9476 35.0959 49.0259 35.9224 49.0362 36.7802C49.0403 36.9315 49.0403 36.9315 49.0445 37.0859C49.0409 38.1689 48.6179 39.0565 47.8724 39.8339C46.8698 40.7713 45.5285 41.168 44.2615 41.6163C44.1227 41.6672 43.9839 41.7182 43.8409 41.7707C43.7161 41.8149 43.5914 41.8592 43.4628 41.9048C43.0531 42.1086 42.7959 42.3662 42.4895 42.7026C42.7724 43.6101 43.0554 44.5176 43.3386 45.425C43.4783 45.8723 43.6179 46.3196 43.7573 46.767C44.3642 48.7135 44.9735 50.6591 45.5958 52.6007C45.6796 52.8624 45.7633 53.1242 45.847 53.386C45.9015 53.5564 45.956 53.7269 46.0105 53.8973C46.0503 54.0218 46.0503 54.0218 46.0909 54.1488C46.248 54.6402 46.4062 55.1313 46.5651 55.6221C46.6867 55.9987 46.807 56.3758 46.9275 56.7528C46.9934 56.9548 46.9934 56.9548 47.0607 57.1608C47.4359 58.3418 47.4359 58.3418 47.3586 58.9328C47.0905 59.4306 46.8852 59.723 46.3598 59.9315C46.1016 59.9637 46.1016 59.9637 45.8213 59.9649C45.6612 59.9665 45.6612 59.9665 45.4978 59.9682C45.3817 59.968 45.2656 59.9679 45.146 59.9678C45.0229 59.9687 44.8999 59.9695 44.7731 59.9704C44.3659 59.9727 43.9588 59.9732 43.5517 59.9735C43.2687 59.9743 42.9857 59.9751 42.7027 59.976C42.1093 59.9775 41.5159 59.978 40.9225 59.9778C40.1624 59.9778 39.4023 59.9812 38.6421 59.9855C38.0575 59.9883 37.473 59.9888 36.8884 59.9886C36.6082 59.9889 36.3279 59.99 36.0477 59.992C35.6556 59.9944 35.2636 59.9937 34.8715 59.9922C34.7559 59.9936 34.6403 59.995 34.5212 59.9964C33.8336 59.9897 33.404 59.9176 32.8763 59.4322C32.687 59.0925 32.687 59.0925 32.5536 58.7035C32.5031 58.5591 32.4527 58.4147 32.4007 58.266C32.3517 58.1152 32.3026 57.9645 32.2521 57.8091C32.2042 57.6644 32.1564 57.5196 32.1071 57.3704C31.9582 56.9097 31.8145 56.4475 31.6722 55.9847C31.62 55.8163 31.5677 55.6478 31.5153 55.4794C31.3796 55.0422 31.2445 54.6048 31.1096 54.1674C30.971 53.7186 30.8318 53.27 30.6927 52.8213C30.4212 51.9456 30.1503 51.0696 29.88 50.1935C29.7031 50.3113 29.5262 50.4292 29.3494 50.547C29.2509 50.6127 29.1524 50.6783 29.0509 50.7459C28.862 50.872 28.6733 50.9985 28.485 51.1256C27.5247 51.7677 26.5466 52.0919 25.3855 51.9413C24.355 51.711 23.558 51.1714 22.7203 50.5587C22.4125 50.3215 22.4125 50.3215 22.1394 50.1935C22.1093 50.2908 22.0791 50.3881 22.048 50.4884C21.7621 51.4105 21.4756 52.3324 21.1886 53.2542C21.0411 53.7279 20.8938 54.2017 20.747 54.6757C20.6049 55.134 20.4624 55.5922 20.3196 56.0502C20.2654 56.2241 20.2115 56.398 20.1577 56.5719C19.9911 57.1109 19.8194 57.6479 19.6425 58.1837C19.5823 58.3698 19.5823 58.3698 19.5208 58.5597C19.4817 58.6698 19.4427 58.78 19.4024 58.8936C19.3701 58.9868 19.3379 59.08 19.3046 59.176C19.0563 59.5698 18.81 59.7216 18.394 59.9315C17.9792 60.0014 17.5718 59.9998 17.1519 59.9962C16.9672 59.9975 16.9672 59.9975 16.7788 59.9988C16.373 60.001 15.9673 59.9996 15.5616 59.9979C15.2789 59.9982 14.9963 59.9987 14.7136 59.9993C14.1217 60 13.5298 59.999 12.9379 59.9966C12.1797 59.9938 11.4216 59.9954 10.6634 59.9984C10.0799 60.0002 9.49641 59.9997 8.9129 59.9984C8.63336 59.998 8.35381 59.9984 8.07427 59.9996C7.68338 60.0009 7.29262 59.9989 6.90174 59.9962C6.78653 59.9972 6.67132 59.9982 6.55263 59.9992C5.8645 59.9902 5.44649 59.907 4.91052 59.4322C4.61794 59.0056 4.64236 58.667 4.71389 58.1582C4.87084 57.395 5.12148 56.6572 5.36017 55.9164C5.41942 55.7299 5.47858 55.5433 5.53765 55.3567C5.66307 54.961 5.78913 54.5656 5.91573 54.1704C6.11301 53.5544 6.30891 52.938 6.50455 52.3215C6.70108 51.7024 6.89768 51.0833 7.09479 50.4644C7.66047 48.688 8.21835 46.9092 8.77298 45.1293C8.85183 44.8766 8.9307 44.6239 9.00957 44.3712C9.18313 43.8151 9.35656 43.2589 9.52987 42.7026C9.09309 42.2191 8.7355 41.968 8.12387 41.7477C7.9738 41.6917 7.82373 41.6357 7.66911 41.578C7.51174 41.5209 7.3543 41.464 7.19679 41.4073C5.67596 40.8587 4.09895 40.225 3.28848 38.7285C2.58043 37.073 3.06598 35.2434 3.36017 33.5434C3.50728 32.6154 3.46585 31.8859 2.91297 31.0918C2.63597 30.7509 2.35396 30.4161 2.06616 30.0843C0.871116 28.7055 -0.0245682 27.4089 0.000514023 25.5361C0.149649 23.9454 1.24565 22.7718 2.23167 21.601C3.03547 20.6425 3.48369 20.0232 3.41235 18.732C3.36632 18.3625 3.30077 17.9978 3.23289 17.6317C2.61887 14.086 2.61887 14.086 3.66936 12.5242C4.67764 11.3415 6.14038 10.8076 7.56645 10.3014C7.65566 10.2693 7.74487 10.2372 7.83678 10.2041C8.0086 10.1429 8.18104 10.0834 8.35415 10.026C9.27669 9.70078 9.70104 9.12522 10.1073 8.27844C10.284 7.85833 10.4379 7.43437 10.5896 7.00479C11.1344 5.46546 11.6953 4.13276 13.1504 3.2509C14.4032 2.7014 15.6706 2.82269 16.9817 3.06363C18.9072 3.45148 18.9072 3.45148 20.7271 2.9622C20.9114 2.81456 21.0904 2.66022 21.2655 2.50182C21.5224 2.27738 21.7797 2.05354 22.038 1.83077C22.1061 1.77166 22.1743 1.71256 22.2445 1.65167C24.468 -0.236864 26.6775 -0.64225 29.1289 1.15142ZM23.8483 3.91416C22.4938 5.12351 21.2062 6.07518 19.3382 6.04436C19.23 6.04364 19.1218 6.04291 19.0103 6.04217C18.193 6.02605 17.4164 5.91643 16.6161 5.75797C15.4521 5.51703 15.4521 5.51703 14.3258 5.77418C13.4805 6.40064 13.1858 7.72894 12.8461 8.68956C12.2164 10.4523 11.4858 11.5453 9.77956 12.3648C9.15119 12.6449 8.51396 12.8869 7.86784 13.1216C6.63463 13.521 6.63463 13.521 5.7586 14.3994C5.47204 15.3762 5.80631 16.5218 5.97953 17.5069C6.29692 19.3262 6.22001 20.7791 5.16022 22.3525C4.85701 22.7349 4.53595 23.1011 4.21255 23.4664C3.12002 24.6641 3.12002 24.6641 2.72277 26.174C2.89933 26.9804 3.59393 27.6307 4.12828 28.233C5.44386 29.7216 6.27816 31.1629 6.15899 33.2142C6.07109 33.9028 5.94771 34.5853 5.82615 35.2686C5.61228 36.4319 5.61228 36.4319 5.78445 37.5839C6.39053 38.3342 7.37684 38.5654 8.25799 38.887C10.0843 39.5562 11.5335 40.2423 12.4014 42.0628C12.7397 42.8364 13.0431 43.6242 13.3333 44.417C13.6009 45.1318 13.869 45.7618 14.5238 46.1983C15.4472 46.3093 16.3482 46.1777 17.2548 46.0111C19.036 45.69 20.6002 45.6518 22.1863 46.6431C22.6728 46.9852 23.1177 47.3708 23.5674 47.7589C24.6754 48.7205 24.6754 48.7205 26.0097 49.2883C27.0433 49.0299 27.8071 48.3097 28.5686 47.6019C30.0701 46.2573 31.4739 45.7364 33.4688 45.8041C33.9312 45.8365 34.3806 45.9216 34.8348 46.0111C36.3806 46.3642 36.3806 46.3642 37.8341 45.9813C38.1224 45.6964 38.26 45.4919 38.4164 45.1215C38.4677 45.0016 38.5191 44.8817 38.572 44.7582C38.7396 44.3369 38.9009 43.9136 39.0611 43.4895C39.783 41.5889 40.5179 40.3033 42.411 39.3991C43.0649 39.1217 43.731 38.8797 44.4029 38.6495C45.1152 38.4001 45.6936 38.1252 46.235 37.5839C46.4214 36.6303 46.2867 35.7937 46.1179 34.8451C45.7449 32.7142 45.7115 31.1725 46.984 29.344C47.2906 28.9601 47.6139 28.5914 47.9378 28.2221C48.8422 27.2206 48.8422 27.2206 49.3327 25.9887C49.235 24.8692 48.2333 23.946 47.5098 23.1694C46.3216 21.8028 45.7732 20.408 45.8604 18.6071C45.9467 17.945 46.0713 17.2896 46.1933 16.6332C46.3994 15.4939 46.3994 15.4939 46.235 14.3623C45.8382 13.8332 45.4051 13.6081 44.7992 13.3635C44.7233 13.3323 44.6474 13.3011 44.5692 13.2689C44.054 13.0589 43.5332 12.8643 43.0123 12.6691C41.4466 12.074 40.4279 11.3594 39.618 9.86781C39.3793 9.32498 39.1763 8.77238 38.9782 8.21358C38.5168 6.89587 38.5168 6.89587 37.7453 5.74785C36.8793 5.45918 36.0151 5.63493 35.1392 5.81027C33.4253 6.1382 31.5464 6.33042 30.0048 5.37331C29.5642 5.06572 29.1601 4.72861 28.7563 4.37453C26.8954 2.76734 25.7944 2.11801 23.8483 3.91416ZM11.2777 46.5729C10.8516 47.5763 10.5191 48.6024 10.1965 49.6429C10.1422 49.8169 10.0878 49.991 10.0334 50.1651C9.92012 50.5279 9.80714 50.8909 9.69443 51.2539C9.55112 51.7155 9.40716 52.1768 9.26297 52.6381C9.15083 52.997 9.03896 53.3559 8.92717 53.7149C8.87422 53.8849 8.82122 54.0548 8.76816 54.2248C8.69359 54.4638 8.61939 54.7029 8.5452 54.942C8.50318 55.0771 8.46116 55.2123 8.41787 55.3515C8.23745 55.9597 8.07378 56.5728 7.90685 57.1849C10.9144 57.1849 13.922 57.1849 17.0207 57.1849C17.7758 54.9373 18.5285 52.6903 19.2367 50.4275C19.2775 50.2978 19.2775 50.2978 19.3192 50.1654C19.3955 49.9222 19.4712 49.6789 19.5469 49.4356C19.5897 49.2981 19.6324 49.1607 19.6765 49.0191C19.7786 48.7113 19.7786 48.7113 19.7673 48.4456C18.9626 48.4067 18.2372 48.4862 17.4499 48.6329C15.802 48.9282 14.113 49.1289 12.6535 48.1559C12.152 47.7646 11.8323 47.3162 11.5206 46.765C11.4817 46.7016 11.4427 46.6382 11.4026 46.5729C11.3614 46.5729 11.3202 46.5729 11.2777 46.5729ZM40.6168 46.5729C40.5743 46.6453 40.5319 46.7177 40.4881 46.7923C39.8943 47.7493 39.1888 48.4444 38.0843 48.7616C36.8038 48.9827 35.5537 48.814 34.2909 48.5797C33.6005 48.4534 32.9556 48.4116 32.2521 48.4456C32.5227 49.4736 32.8293 50.4877 33.1504 51.5009C33.1994 51.6564 33.2485 51.8118 33.299 51.9719C33.4019 52.2977 33.5049 52.6235 33.6081 52.9492C33.7404 53.3668 33.8723 53.7845 34.004 54.2023C34.1302 54.6024 34.2567 55.0024 34.3832 55.4024C34.4306 55.5525 34.4779 55.7025 34.5267 55.8572C34.5705 55.9952 34.6142 56.1332 34.6593 56.2754C34.6978 56.3971 34.7364 56.5188 34.776 56.6443C34.8658 56.9336 34.8658 56.9336 34.9987 57.1849C38.0063 57.1849 41.0138 57.1849 44.1125 57.1849C43.8962 56.3917 43.6815 55.6045 43.4359 54.821C43.3944 54.6877 43.3944 54.6877 43.352 54.5517C43.2623 54.2638 43.1723 53.976 43.0821 53.6882C43.051 53.5891 43.02 53.4899 42.9881 53.3878C42.8246 52.8654 42.6607 52.3432 42.4966 51.821C42.3272 51.2815 42.1589 50.7417 41.9908 50.2017C41.8611 49.7858 41.7305 49.3701 41.5998 48.9545C41.5373 48.7553 41.4751 48.5561 41.4133 48.3568C41.3272 48.0798 41.24 47.8032 41.1525 47.5267C41.1145 47.4028 41.1145 47.4028 41.0757 47.2764C41.0131 47.0811 40.9407 46.8889 40.8665 46.6977C40.7429 46.6359 40.7429 46.6359 40.6168 46.5729Z" fill="url(#paint0_linear_177_824)"/>
<path d="M37.1139 13.4415C40.4676 16.3268 42.3789 20.5189 42.72 24.8976C42.9779 29.1124 41.6155 33.3718 38.8696 36.5857C38.8159 36.6493 38.7621 36.7128 38.7068 36.7782C36.0187 39.9228 32.1883 42.0966 28.0437 42.5576C23.3593 42.9008 18.8847 41.8083 15.2728 38.7082C15.1168 38.5752 15.1168 38.5752 14.9577 38.4395C11.6695 35.561 9.6949 31.5811 9.31897 27.2375C9.30404 26.9827 9.29085 26.7278 9.27996 26.4728C9.27481 26.3742 9.26966 26.2755 9.26435 26.1739C9.13936 21.5883 11.1318 17.3547 14.2057 14.0565C20.5198 7.73275 30.4278 7.85185 37.1139 13.4415ZM17.0207 15.2363C16.8706 15.3601 16.8706 15.3601 16.7174 15.4864C14.0673 17.7279 12.4672 21.0787 12.0579 24.4986C12.0445 24.6987 12.0342 24.8991 12.0267 25.0995C12.0202 25.225 12.0138 25.3505 12.0072 25.4799C11.9024 29.2691 13.3435 32.7734 15.8454 35.5738C17.64 37.4552 19.8921 38.7612 22.3893 39.4573C22.525 39.4972 22.6606 39.5371 22.8004 39.5783C26.4842 40.4939 30.3091 39.6735 33.5181 37.7704C34.2895 37.2897 34.9582 36.7022 35.6235 36.0863C35.7246 35.9954 35.8256 35.9045 35.9298 35.8108C38.5358 33.3551 39.8223 29.8223 40.0162 26.307C40.0965 22.4717 38.6455 18.9434 36.0442 16.1516C33.5049 13.5344 30.0011 12.0349 26.3634 11.946C22.9763 11.9203 19.5701 12.929 17.0207 15.2363Z" fill="url(#paint1_linear_177_824)"/>
<path d="M27.0043 16.3063C27.3463 16.7141 27.5496 17.1517 27.7718 17.6329C27.8414 17.7806 27.8414 17.7806 27.9124 17.9313C28.0099 18.1386 28.1068 18.3462 28.2033 18.554C28.3513 18.8729 28.5011 19.191 28.6511 19.5091C28.7457 19.7108 28.8401 19.9125 28.9345 20.1143C28.9794 20.2098 29.0242 20.3052 29.0704 20.4036C29.3812 21.0753 29.3812 21.0753 29.3812 21.354C29.4789 21.3603 29.5766 21.3666 29.6773 21.3731C30.687 21.4437 31.6817 21.56 32.682 21.713C32.8232 21.7331 32.9644 21.7532 33.1099 21.7739C34.6905 22.014 34.6905 22.014 35.2414 22.6182C35.4347 23.1411 35.4116 23.5678 35.2492 24.1008C34.9778 24.4879 34.6475 24.7918 34.2972 25.1074C34.121 25.2724 33.9451 25.4377 33.7695 25.6034C33.683 25.6841 33.5964 25.7649 33.5072 25.8482C33.1744 26.1739 32.8738 26.5219 32.5755 26.8792C32.3776 27.0972 32.3776 27.0972 32.1493 27.2766C31.9229 27.4563 31.7699 27.5935 31.6285 27.8463C31.6296 28.1264 31.6296 28.1264 31.7056 28.4344C31.7439 28.6175 31.7439 28.6175 31.783 28.8042C31.8144 28.9413 31.8459 29.0784 31.8782 29.2196C31.9131 29.3723 31.948 29.5249 31.984 29.6822C32.1209 30.2738 32.2591 30.8651 32.4019 31.4553C32.4633 31.7094 32.5228 31.9639 32.582 32.2185C32.6177 32.368 32.6534 32.5175 32.6901 32.6715C32.7806 33.2816 32.7366 33.6805 32.3855 34.1903C32.039 34.5577 31.9424 34.5828 31.4297 34.6265C30.8083 34.6174 30.3566 34.3887 29.8163 34.101C29.7191 34.0514 29.6219 34.0018 29.5218 33.9508C29.2138 33.7932 28.9074 33.6329 28.6009 33.4724C28.2924 33.3128 27.9837 33.1538 27.6747 32.9953C27.4831 32.8968 27.2919 32.7977 27.101 32.6977C26.971 32.6302 26.971 32.6302 26.8382 32.5614C26.7625 32.5217 26.6868 32.4821 26.6088 32.4412C26.1433 32.2304 26.1433 32.2304 25.652 32.2911C25.5718 32.3335 25.4916 32.3759 25.409 32.4196C25.3173 32.4671 25.2256 32.5147 25.1311 32.5636C25.033 32.6161 24.935 32.6687 24.8339 32.7228C24.6239 32.8313 24.4139 32.9398 24.2038 33.0483C23.8742 33.2209 23.545 33.3941 23.216 33.5679C22.8978 33.7353 22.5784 33.9002 22.2589 34.0649C22.1618 34.1172 22.0648 34.1695 21.9648 34.2234C21.321 34.5538 20.8667 34.6618 20.1423 34.5882C19.6362 34.2912 19.4386 34.0184 19.2683 33.4646C19.2824 33.1439 19.2824 33.1439 19.3488 32.7974C19.3738 32.6661 19.3989 32.5347 19.4247 32.3994C19.614 31.5212 19.825 30.6483 20.0417 29.7765C20.1027 29.53 20.1623 29.2832 20.2218 29.0363C20.2574 28.8915 20.2931 28.7467 20.3299 28.5976C20.3893 28.2373 20.4082 28.0531 20.2671 27.7214C20.118 27.5253 20.118 27.5253 19.9272 27.3537C19.86 27.2888 19.7928 27.224 19.7236 27.1572C19.6532 27.091 19.5828 27.0249 19.5102 26.9567C19.2567 26.7168 19.0117 26.4744 18.7689 26.2232C18.7689 26.1408 18.7689 26.0584 18.7689 25.9735C18.6865 25.9735 18.6041 25.9735 18.5192 25.9735C18.3344 25.7858 18.3344 25.7858 18.1212 25.5287C17.8202 25.169 17.5135 24.8548 17.1615 24.5455C16.7563 24.145 16.6331 23.8129 16.6128 23.2453C16.6686 22.8002 16.8454 22.5522 17.1458 22.228C17.6452 21.9807 18.1598 21.8972 18.706 21.8174C18.7948 21.8039 18.8836 21.7903 18.9751 21.7764C19.1621 21.7482 19.3492 21.7203 19.5363 21.6927C19.8211 21.6507 20.1057 21.6073 20.3903 21.5638C20.5727 21.5364 20.7552 21.509 20.9377 21.4818C21.0641 21.4625 21.0641 21.4625 21.1931 21.4428C21.6794 21.3721 22.1481 21.3416 22.6393 21.354C22.672 21.2495 22.7047 21.145 22.7384 21.0373C22.9006 20.5717 23.0944 20.1268 23.3011 19.6798C23.3408 19.5936 23.3806 19.5075 23.4215 19.4187C23.5053 19.2376 23.5894 19.0567 23.6737 18.8758C23.8015 18.6005 23.9274 18.3244 24.0534 18.0482C24.1354 17.8715 24.2176 17.6949 24.2999 17.5183C24.3553 17.3956 24.3553 17.3956 24.4119 17.2704C24.6889 16.6844 25.0258 16.1655 25.6201 15.8684C26.1398 15.8531 26.5974 15.9807 27.0043 16.3063ZM25.8854 20.6049C25.8484 20.69 25.8114 20.775 25.7732 20.8626C25.6029 21.2489 25.4282 21.6331 25.2533 22.0173C25.1952 22.1511 25.137 22.285 25.077 22.4228C24.6263 23.401 24.6263 23.401 24.1092 23.7428C23.5249 23.8771 22.9454 23.973 22.3506 24.0461C22.1272 24.074 21.904 24.1027 21.681 24.1325C21.5832 24.1445 21.4855 24.1565 21.3848 24.1688C21.1132 24.2095 21.1132 24.2095 20.8914 24.4753C20.9544 24.537 21.0173 24.5987 21.0822 24.6622C21.3678 24.9426 21.6524 25.2239 21.937 25.5053C22.0361 25.6024 22.1353 25.6994 22.2374 25.7994C22.3324 25.8936 22.4273 25.9877 22.5252 26.0847C22.6128 26.171 22.7004 26.2573 22.7907 26.3462C23.0885 26.6819 23.2582 26.9415 23.2738 27.3937C23.1949 28.1618 23.0511 28.8848 22.8417 29.6283C22.7655 29.9626 22.7499 30.2516 22.7641 30.593C23.1952 30.4656 23.5888 30.3125 23.9839 30.1004C24.0665 30.0562 24.1492 30.0119 24.2343 29.9663C24.4031 29.8747 24.5713 29.7817 24.7386 29.6873C25.3731 29.352 25.9195 29.2074 26.6345 29.3445C27.072 29.5139 27.47 29.7335 27.8752 29.9687C28.0842 30.0862 28.2934 30.2033 28.5029 30.3199C28.6393 30.3983 28.6393 30.3983 28.7784 30.4784C29.0013 30.6117 29.0013 30.6117 29.2564 30.593C29.1877 29.7823 29.0357 29.0234 28.8345 28.235C28.7182 27.6519 28.6633 27.2753 28.9462 26.7373C29.3398 26.2434 29.7723 25.8054 30.224 25.3649C30.311 25.2789 30.3981 25.193 30.4878 25.1044C30.701 24.8941 30.9148 24.6845 31.1291 24.4753C30.8232 24.1693 30.6668 24.1665 30.2445 24.1008C30.118 24.0802 29.9915 24.0596 29.8611 24.0383C29.6622 24.0074 29.6622 24.0074 29.4593 23.9759C29.1981 23.935 28.937 23.8934 28.676 23.8511C28.5599 23.833 28.4438 23.815 28.3242 23.7964C28.0018 23.7249 27.7807 23.6635 27.5085 23.4765C27.3257 23.1846 27.3257 23.1846 27.1593 22.824C27.0989 22.6952 27.0386 22.5665 26.9764 22.4338C26.8844 22.2315 26.8844 22.2315 26.7906 22.0251C26.7273 21.8893 26.6641 21.7534 26.5989 21.6135C26.4429 21.2779 26.2884 20.9418 26.1351 20.6049C26.0527 20.6049 25.9703 20.6049 25.8854 20.6049Z" fill="url(#paint2_linear_177_824)"/>
<defs>
<linearGradient id="paint0_linear_177_824" x1="42.3211" y1="4.83871" x2="-0.904739" y2="51.6129" gradientUnits="userSpaceOnUse">
<stop stop-color="#BD0EFA"/>
<stop offset="0.5" stop-color="#3369F2"/>
<stop offset="1" stop-color="#6BC52C"/>
</linearGradient>
<linearGradient id="paint1_linear_177_824" x1="36.5177" y1="11.9681" x2="13.0304" y2="41.4294" gradientUnits="userSpaceOnUse">
<stop stop-color="#BD0EFA"/>
<stop offset="0.5" stop-color="#3369F2"/>
<stop offset="1" stop-color="#6BC52C"/>
</linearGradient>
<linearGradient id="paint2_linear_177_824" x1="31.8862" y1="17.38" x2="18.6578" y2="33.9029" gradientUnits="userSpaceOnUse">
<stop stop-color="#BD0EFA"/>
<stop offset="0.5" stop-color="#3369F2"/>
<stop offset="1" stop-color="#6BC52C"/>
</linearGradient>
</defs>
</svg>
