<svg width="50" height="50" viewBox="0 0 50 50" fill="none" xmlns="http://www.w3.org/2000/svg">
<g clip-path="url(#clip0_176_11)">
<path d="M25 50C38.8071 50 50 38.8071 50 25C50 11.1929 38.8071 0 25 0C11.1929 0 0 11.1929 0 25C0 38.8071 11.1929 50 25 50Z" fill="#0177B5"/>
<path d="M35.9375 12.5H14.0625C13.6481 12.5 13.2507 12.6646 12.9576 12.9576C12.6646 13.2507 12.5 13.6481 12.5 14.0625V35.9375C12.5 36.3519 12.6646 36.7493 12.9576 37.0424C13.2507 37.3354 13.6481 37.5 14.0625 37.5H35.9375C36.3519 37.5 36.7493 37.3354 37.0424 37.0424C37.3354 36.7493 37.5 36.3519 37.5 35.9375V14.0625C37.5 13.6481 37.3354 13.2507 37.0424 12.9576C36.7493 12.6646 36.3519 12.5 35.9375 12.5ZM20.3125 33.5938H16.4062V21.875H20.3125V33.5938ZM18.3594 20.3125C17.8958 20.3125 17.4427 20.175 17.0573 19.9175C16.6718 19.66 16.3714 19.2939 16.194 18.8657C16.0166 18.4374 15.9702 17.9661 16.0607 17.5115C16.1511 17.0569 16.3743 16.6392 16.7021 16.3115C17.0299 15.9837 17.4475 15.7605 17.9021 15.67C18.3568 15.5796 18.828 15.626 19.2563 15.8034C19.6846 15.9808 20.0506 16.2812 20.3081 16.6666C20.5657 17.0521 20.7031 17.5052 20.7031 17.9688C20.7031 18.5904 20.4562 19.1865 20.0167 19.626C19.5771 20.0656 18.981 20.3125 18.3594 20.3125ZM33.5938 33.5938H29.6875V25.7812C29.6875 25.1328 28.8125 24.6094 27.7344 24.6094C26.1719 24.6094 25.7812 26.6953 25.7812 27.3438V33.5938H21.875V21.875H25.7812V24.6094C25.7812 22.6562 27.5313 21.875 29.6875 21.875C30.7235 21.875 31.7171 22.2866 32.4496 23.0191C33.1822 23.7517 33.5938 24.7452 33.5938 25.7812V33.5938Z" fill="white"/>
</g>
<defs>
<clipPath id="clip0_176_11">
<rect width="50" height="50" fill="white"/>
</clipPath>
</defs>
</svg>
