<svg width="78" height="80" viewBox="0 0 78 80" fill="none" xmlns="http://www.w3.org/2000/svg">
<path d="M10.9081 69.1976H3.5256L22.2419 37.8869L26.2937 44.687L27.979 47.5155L29.7123 44.7162L37.6791 31.8493L37.9787 31.3654V30.7964V2H59.2551L52.637 9.50416L51.4703 10.8271L52.637 12.1499L59.2551 19.6541H40.922H38.922V21.6541V30.7964V31.3656L39.2217 31.8495L47.6664 45.4845L49.392 48.2707L51.0808 45.4619L55.6479 37.8657L74.372 69.1893H65.9514H62.366L64.2496 72.24L67.8118 78.0095H9.06559L12.6116 72.2455L14.4867 69.1976H10.9081ZM57.3442 42.5866L55.6299 39.7224L53.913 42.5851L50.5845 48.1349L49.9573 49.1808L50.5998 50.2173L61.1866 67.2961L61.7732 68.2424H62.8865H69.1727H72.7007L70.8888 65.2152L57.3442 42.5866ZM49.8747 56.0901L44.8598 63.5349L39.977 57.7654L38.4495 55.9605L36.923 57.7662L32.0407 63.5412L27.0593 56.1403L25.3307 53.5721L23.7001 56.2035L12.6766 73.9926L10.7844 77.0461H14.3767H62.5817H66.1729L64.282 73.993L53.2338 56.1544L51.604 53.5229L49.8747 56.0901ZM6.95935 65.207L5.14741 68.2341H8.67542H14.0224H15.1361L15.7226 67.2874L26.779 49.4405L27.4201 48.4057L26.7954 47.361L23.9366 42.5792L22.221 39.7097L20.5039 42.5783L6.95935 65.207Z" stroke="url(#paint0_linear_1_2063)" stroke-width="4"/>
<defs>
<linearGradient id="paint0_linear_1_2063" x1="-4.77087e-07" y1="51.5" x2="78" y2="80" gradientUnits="userSpaceOnUse">
<stop stop-color="#6CC727"/>
<stop offset="0.5" stop-color="#3063FD"/>
<stop offset="1" stop-color="#BD0EFA"/>
</linearGradient>
</defs>
</svg>
