<svg width="85" height="83" viewBox="0 0 85 83" fill="none" xmlns="http://www.w3.org/2000/svg">
<path d="M13.4325 57.3848C13.3022 56.7348 13.1457 56.0976 12.9704 55.4723C13.2745 55.3597 13.5661 55.2223 13.843 55.0632C14.6818 55.5476 15.658 55.8352 16.7107 55.8352C17.7624 55.8352 18.7387 55.5488 19.5781 55.064C20.4166 55.548 21.3923 55.8352 22.4444 55.8352C22.663 55.8352 22.879 55.8231 23.0915 55.7994L22.9517 55.8459C19.3857 57.0311 16.5503 59.8581 15.3624 63.4161L14.887 64.8401L16.3115 65.3143L19.0307 66.2194L20.4522 66.6926L20.9271 65.2716C21.5324 63.46 22.9846 62.0099 24.806 61.4036L26.2314 60.929L25.7546 59.5043L24.8473 56.7932L24.4119 55.4925C26.2655 54.8236 27.684 53.2374 28.1114 51.283V57.7598C28.1114 60.5528 27.2922 63.2526 25.7384 65.5769L25.7383 65.577L25.4975 65.9374L25.2446 66.3157V66.7708V67.134H8.17678V66.7022V66.175L7.84688 65.7637L3.9969 60.9638C3.99685 60.9637 3.99679 60.9636 3.99673 60.9636C2.996 59.7153 2.44312 58.1418 2.44312 56.5444V47.5592L3.05049 48.4673L4.23716 50.2415C4.23718 50.2415 4.23721 50.2416 4.23724 50.2416C4.23728 50.2417 4.23732 50.2417 4.23736 50.2418C5.92721 52.7697 7.08517 55.5578 7.68151 58.5348L7.68156 58.5351L8.10155 60.6298L8.39614 62.0992L9.86576 61.806L12.6752 61.2455L14.1477 60.9517L13.8525 59.4796L13.4325 57.3848ZM2.44312 46.474V45.7559C2.44312 45.0107 3.05382 44.3962 3.80995 44.3962H10.3485C10.0213 44.7751 9.57092 45.0503 9.05117 45.1545C9.0511 45.1545 9.05103 45.1546 9.05096 45.1546L4.00359 46.1624L2.44312 46.474Z" stroke="url(#paint0_linear_1_2067)" stroke-width="3"/>
<mask id="path-2-inside-1_1_2067" fill="white">
<path d="M12.4103 38.6068C12.4103 37.8189 11.7667 37.1769 10.9769 37.1769C10.1871 37.1769 9.54346 37.8189 9.54346 38.6068V40.0366H12.4103V38.6068Z"/>
</mask>
<path d="M9.54346 40.0366H6.54346V43.0366H9.54346V40.0366ZM12.4103 40.0366V43.0366H15.4103V40.0366H12.4103ZM15.4103 38.6068C15.4103 36.1551 13.4165 34.1769 10.9769 34.1769V40.1769C10.1168 40.1769 9.41029 39.4827 9.41029 38.6068H15.4103ZM10.9769 34.1769C8.5372 34.1769 6.54346 36.1551 6.54346 38.6068H12.5435C12.5435 39.4827 11.8369 40.1769 10.9769 40.1769V34.1769ZM6.54346 38.6068V40.0366H12.5435V38.6068H6.54346ZM9.54346 43.0366H12.4103V37.0366H9.54346V43.0366ZM15.4103 40.0366V38.6068H9.41029V40.0366H15.4103Z" fill="url(#paint1_linear_1_2067)" mask="url(#path-2-inside-1_1_2067)"/>
<mask id="path-4-inside-2_1_2067" fill="white">
<path d="M9.54346 49.501V50.0458C9.54346 50.8351 10.1871 51.4757 10.9769 51.4757C11.7667 51.4757 12.4103 50.8351 12.4103 50.0458V48.3357C11.6721 48.8533 10.835 49.2437 9.90754 49.4295L9.54346 49.501Z"/>
</mask>
<path d="M9.54346 49.501L8.96541 46.5573L6.54346 47.0328V49.501H9.54346ZM12.4103 48.3357H15.4103V42.5682L10.688 45.8794L12.4103 48.3357ZM9.90754 49.4295L10.4856 52.3734L10.4971 52.371L9.90754 49.4295ZM6.54346 49.501V50.0458H12.5435V49.501H6.54346ZM6.54346 50.0458C6.54346 52.5009 8.53916 54.4757 10.9769 54.4757V48.4757C11.835 48.4757 12.5435 49.1693 12.5435 50.0458H6.54346ZM10.9769 54.4757C13.4146 54.4757 15.4103 52.5009 15.4103 50.0458H9.41029C9.41029 49.1693 10.1188 48.4757 10.9769 48.4757V54.4757ZM15.4103 50.0458V48.3357H9.41029V50.0458H15.4103ZM10.688 45.8794C10.243 46.1914 9.78588 46.3943 9.31798 46.4881L10.4971 52.371C11.8841 52.0931 13.1012 51.5153 14.1326 50.792L10.688 45.8794ZM9.3295 46.4858L8.96541 46.5573L10.1215 52.4448L10.4856 52.3733L9.3295 46.4858Z" fill="url(#paint2_linear_1_2067)" mask="url(#path-4-inside-2_1_2067)"/>
<mask id="path-6-inside-3_1_2067" fill="white">
<path d="M16.711 51.4757C17.5008 51.4757 18.1444 50.8351 18.1444 50.0458V38.6068C18.1444 37.8189 17.5008 37.1769 16.711 37.1769C15.9212 37.1769 15.2776 37.8189 15.2776 38.6068V50.0458C15.2776 50.8351 15.9212 51.4757 16.711 51.4757Z"/>
</mask>
<path d="M16.711 54.4757C19.1487 54.4757 21.1444 52.5009 21.1444 50.0458H15.1444C15.1444 49.1693 15.8529 48.4757 16.711 48.4757V54.4757ZM21.1444 50.0458V38.6068H15.1444V50.0458H21.1444ZM21.1444 38.6068C21.1444 36.1551 19.1507 34.1769 16.711 34.1769V40.1769C15.851 40.1769 15.1444 39.4827 15.1444 38.6068H21.1444ZM16.711 34.1769C14.2713 34.1769 12.2776 36.1551 12.2776 38.6068H18.2776C18.2776 39.4827 17.571 40.1769 16.711 40.1769V34.1769ZM12.2776 38.6068V50.0458H18.2776V38.6068H12.2776ZM12.2776 50.0458C12.2776 52.5009 14.2733 54.4757 16.711 54.4757V48.4757C17.5691 48.4757 18.2776 49.1693 18.2776 50.0458H12.2776Z" fill="url(#paint3_linear_1_2067)" mask="url(#path-6-inside-3_1_2067)"/>
<mask id="path-8-inside-4_1_2067" fill="white">
<path d="M74.0474 51.4757C74.8372 51.4757 75.4808 50.8351 75.4808 50.0458V49.501L75.1168 49.4281C74.1893 49.2437 73.3522 48.8519 72.614 48.3357V50.0458C72.614 50.8351 73.2576 51.4757 74.0474 51.4757Z"/>
</mask>
<path d="M75.4808 49.501H78.4808V47.0423L76.07 46.5595L75.4808 49.501ZM75.1168 49.4281L75.7059 46.4865L75.702 46.4858L75.1168 49.4281ZM72.614 48.3357L74.3331 45.8771L69.614 42.5773V48.3357H72.614ZM74.0474 54.4757C76.4851 54.4757 78.4808 52.5009 78.4808 50.0458H72.4808C72.4808 49.1693 73.1893 48.4757 74.0474 48.4757V54.4757ZM78.4808 50.0458V49.501H72.4808V50.0458H78.4808ZM76.07 46.5595L75.7059 46.4865L74.5276 52.3697L74.8917 52.4426L76.07 46.5595ZM75.702 46.4858C75.2396 46.3938 74.7827 46.1914 74.3331 45.8771L70.8949 50.7943C71.9218 51.5123 73.1391 52.0935 74.5316 52.3705L75.702 46.4858ZM69.614 48.3357V50.0458H75.614V48.3357H69.614ZM69.614 50.0458C69.614 52.5009 71.6097 54.4757 74.0474 54.4757V48.4757C74.9055 48.4757 75.614 49.1693 75.614 50.0458H69.614Z" fill="url(#paint4_linear_1_2067)" mask="url(#path-8-inside-4_1_2067)"/>
<mask id="path-10-inside-5_1_2067" fill="white">
<path d="M23.8773 50.0458V38.6068C23.8773 37.8189 23.2337 37.1769 22.4439 37.1769C21.6541 37.1769 21.0105 37.8189 21.0105 38.6068V50.0458C21.0105 50.8351 21.6541 51.4757 22.4439 51.4757C23.2337 51.4757 23.8773 50.8351 23.8773 50.0458Z"/>
</mask>
<path d="M26.8773 50.0458V38.6068H20.8773V50.0458H26.8773ZM26.8773 38.6068C26.8773 36.1551 24.8836 34.1769 22.4439 34.1769V40.1769C21.5839 40.1769 20.8773 39.4827 20.8773 38.6068H26.8773ZM22.4439 34.1769C20.0042 34.1769 18.0105 36.1551 18.0105 38.6068H24.0105C24.0105 39.4827 23.304 40.1769 22.4439 40.1769V34.1769ZM18.0105 38.6068V50.0458H24.0105V38.6068H18.0105ZM18.0105 50.0458C18.0105 52.5009 20.0062 54.4757 22.4439 54.4757V48.4757C23.302 48.4757 24.0105 49.1693 24.0105 50.0458H18.0105ZM22.4439 54.4757C24.8816 54.4757 26.8773 52.5009 26.8773 50.0458H20.8773C20.8773 49.1693 21.5858 48.4757 22.4439 48.4757V54.4757Z" fill="url(#paint5_linear_1_2067)" mask="url(#path-10-inside-5_1_2067)"/>
<mask id="path-12-inside-6_1_2067" fill="white">
<path d="M75.4808 38.6068C75.4808 37.8189 74.8372 37.1769 74.0474 37.1769C73.2576 37.1769 72.614 37.8189 72.614 38.6068V40.0366H75.4808V38.6068Z"/>
</mask>
<path d="M72.614 40.0366H69.614V43.0366H72.614V40.0366ZM75.4808 40.0366V43.0366H78.4808V40.0366H75.4808ZM78.4808 38.6068C78.4808 36.1551 76.4871 34.1769 74.0474 34.1769V40.1769C73.1874 40.1769 72.4808 39.4827 72.4808 38.6068H78.4808ZM74.0474 34.1769C71.6078 34.1769 69.614 36.1551 69.614 38.6068H75.614C75.614 39.4827 74.9075 40.1769 74.0474 40.1769V34.1769ZM69.614 38.6068V40.0366H75.614V38.6068H69.614ZM72.614 43.0366H75.4808V37.0366H72.614V43.0366ZM78.4808 40.0366V38.6068H72.4808V40.0366H78.4808Z" fill="url(#paint6_linear_1_2067)" mask="url(#path-12-inside-6_1_2067)"/>
<path d="M56.9126 81.4328V72.9938H79.7141V81.4328H56.9126Z" stroke="url(#paint7_linear_1_2067)" stroke-width="3"/>
<path d="M5.30981 81.4328V72.9938H28.1127V81.4328H5.30981Z" stroke="url(#paint8_linear_1_2067)" stroke-width="3"/>
<path d="M75.972 45.1529C75.4528 45.0493 75.0028 44.7746 74.6757 44.3962H81.2141C81.9702 44.3962 82.5809 45.0107 82.5809 45.7559V46.4726L81.0204 46.161L75.972 45.1529ZM81.9739 48.4654L82.5809 47.5571V56.5444C82.5809 58.1415 82.0282 59.7141 81.0267 60.9643L77.1772 65.7637L76.8473 66.175V66.7022V67.134H59.7794V66.7708V66.3142L59.525 65.9351L59.2856 65.5783C59.2853 65.5778 59.2849 65.5772 59.2845 65.5766C57.7315 63.2528 56.9126 60.5523 56.9126 57.7598V51.283C57.3401 53.2374 58.7585 54.8236 60.6121 55.4925L60.1768 56.7932L59.2694 59.5043L58.7926 60.929L60.218 61.4036C62.0394 62.0099 63.4916 63.46 64.0969 65.2716L64.5716 66.6919L65.9927 66.2196L68.7119 65.316L70.1377 64.8421L69.6615 63.4171C68.4722 59.8581 65.6385 57.0328 62.0729 55.8461L61.9329 55.7995C62.1453 55.8231 62.3611 55.8352 62.5797 55.8352C63.6314 55.8352 64.6077 55.5488 65.4471 55.064C66.2855 55.548 67.2612 55.8352 68.3133 55.8352C69.3655 55.8352 70.342 55.5486 71.1816 55.0635C71.4579 55.2222 71.7488 55.3592 72.0521 55.4716C71.8769 56.0965 71.7204 56.7334 71.5901 57.3834L71.1701 59.4782L70.8751 60.9497L72.3468 61.2439L75.1577 61.8059L76.6278 62.0998L76.9225 60.6298L77.3424 58.5355C77.3424 58.5353 77.3424 58.5352 77.3425 58.5351C77.9403 55.5577 79.0984 52.7694 80.787 50.2413C80.7871 50.2412 80.7871 50.2411 80.7872 50.241L81.9739 48.4654Z" stroke="url(#paint9_linear_1_2067)" stroke-width="3"/>
<mask id="path-17-inside-7_1_2067" fill="white">
<path d="M61.1462 38.6068V50.0458C61.1462 50.8351 61.7898 51.4757 62.5797 51.4757C63.3695 51.4757 64.0131 50.8351 64.0131 50.0458V38.6068C64.0131 37.8189 63.3695 37.1769 62.5797 37.1769C61.7898 37.1769 61.1462 37.8189 61.1462 38.6068Z"/>
</mask>
<path d="M58.1462 38.6068V50.0458H64.1462V38.6068H58.1462ZM58.1462 50.0458C58.1462 52.5009 60.1419 54.4757 62.5797 54.4757V48.4757C63.4377 48.4757 64.1462 49.1693 64.1462 50.0458H58.1462ZM62.5797 54.4757C65.0174 54.4757 67.0131 52.5009 67.0131 50.0458H61.0131C61.0131 49.1693 61.7216 48.4757 62.5797 48.4757V54.4757ZM67.0131 50.0458V38.6068H61.0131V50.0458H67.0131ZM67.0131 38.6068C67.0131 36.1551 65.0193 34.1769 62.5797 34.1769V40.1769C61.7196 40.1769 61.0131 39.4827 61.0131 38.6068H67.0131ZM62.5797 34.1769C60.14 34.1769 58.1462 36.1551 58.1462 38.6068H64.1462C64.1462 39.4827 63.4397 40.1769 62.5797 40.1769V34.1769Z" fill="url(#paint10_linear_1_2067)" mask="url(#path-17-inside-7_1_2067)"/>
<path d="M22.3781 29.1239V27.1677C22.3781 23.9707 24.9825 21.378 28.1783 21.378C31.3741 21.378 33.9786 23.9707 33.9786 27.1677V38.9671L42.5125 46.2018L51.0464 38.9671V27.1677C51.0464 23.9707 53.6509 21.378 56.8467 21.378C60.0425 21.378 62.6469 23.9707 62.6469 27.1677V29.1212C66.2127 25.9289 68.2474 21.3915 68.2474 16.5966C68.2474 12.9367 67.0676 9.41746 64.9389 6.58492C62.5467 3.40377 58.7297 1.5 54.741 1.5C51.332 1.5 48.1368 2.82124 45.7277 5.22434L45.7274 5.2247L43.5715 7.3738L42.5121 8.42983L41.4531 7.37345L39.2987 5.22434C36.8898 2.82135 33.6931 1.5 30.284 1.5C26.2953 1.5 22.4783 3.4038 20.0861 6.58635L22.3781 29.1239ZM22.3781 29.1239C18.8155 25.9331 16.7776 21.3939 16.7776 16.4879C16.7776 12.9429 17.9545 9.42276 20.086 6.58646L22.3781 29.1239Z" stroke="url(#paint11_linear_1_2067)" stroke-width="3"/>
<mask id="path-20-inside-8_1_2067" fill="white">
<path d="M66.8804 38.6068V50.0458C66.8804 50.8351 67.524 51.4757 68.3138 51.4757C69.1036 51.4757 69.7472 50.8351 69.7472 50.0458V38.6068C69.7472 37.8189 69.1036 37.1769 68.3138 37.1769C67.524 37.1769 66.8804 37.8189 66.8804 38.6068Z"/>
</mask>
<path d="M63.8804 38.6068V50.0458H69.8804V38.6068H63.8804ZM63.8804 50.0458C63.8804 52.5009 65.8761 54.4757 68.3138 54.4757V48.4757C69.1719 48.4757 69.8804 49.1693 69.8804 50.0458H63.8804ZM68.3138 54.4757C70.7515 54.4757 72.7472 52.5009 72.7472 50.0458H66.7472C66.7472 49.1693 67.4557 48.4757 68.3138 48.4757V54.4757ZM72.7472 50.0458V38.6068H66.7472V50.0458H72.7472ZM72.7472 38.6068C72.7472 36.1551 70.7535 34.1769 68.3138 34.1769V40.1769C67.4537 40.1769 66.7472 39.4827 66.7472 38.6068H72.7472ZM68.3138 34.1769C65.8741 34.1769 63.8804 36.1551 63.8804 38.6068H69.8804C69.8804 39.4827 69.1738 40.1769 68.3138 40.1769V34.1769Z" fill="url(#paint12_linear_1_2067)" mask="url(#path-20-inside-8_1_2067)"/>
<defs>
<linearGradient id="paint0_linear_1_2067" x1="15.2773" y1="25.7377" x2="15.2773" y2="68.634" gradientUnits="userSpaceOnUse">
<stop stop-color="#6CC727"/>
<stop offset="0.505" stop-color="#3063FD"/>
<stop offset="1" stop-color="#BD0EFA"/>
</linearGradient>
<linearGradient id="paint1_linear_1_2067" x1="10.9769" y1="37.1769" x2="10.9769" y2="40.0366" gradientUnits="userSpaceOnUse">
<stop stop-color="#6CC727"/>
<stop offset="0.505" stop-color="#3063FD"/>
<stop offset="1" stop-color="#BD0EFA"/>
</linearGradient>
<linearGradient id="paint2_linear_1_2067" x1="10.9769" y1="48.3357" x2="10.9769" y2="51.4757" gradientUnits="userSpaceOnUse">
<stop stop-color="#6CC727"/>
<stop offset="0.505" stop-color="#3063FD"/>
<stop offset="1" stop-color="#BD0EFA"/>
</linearGradient>
<linearGradient id="paint3_linear_1_2067" x1="16.711" y1="37.1769" x2="16.711" y2="51.4756" gradientUnits="userSpaceOnUse">
<stop stop-color="#6CC727"/>
<stop offset="0.505" stop-color="#3063FD"/>
<stop offset="1" stop-color="#BD0EFA"/>
</linearGradient>
<linearGradient id="paint4_linear_1_2067" x1="74.0474" y1="48.3357" x2="74.0474" y2="51.4757" gradientUnits="userSpaceOnUse">
<stop stop-color="#6CC727"/>
<stop offset="0.505" stop-color="#3063FD"/>
<stop offset="1" stop-color="#BD0EFA"/>
</linearGradient>
<linearGradient id="paint5_linear_1_2067" x1="22.4439" y1="37.1769" x2="22.4439" y2="51.4756" gradientUnits="userSpaceOnUse">
<stop stop-color="#6CC727"/>
<stop offset="0.505" stop-color="#3063FD"/>
<stop offset="1" stop-color="#BD0EFA"/>
</linearGradient>
<linearGradient id="paint6_linear_1_2067" x1="74.0474" y1="37.1769" x2="74.0474" y2="40.0366" gradientUnits="userSpaceOnUse">
<stop stop-color="#6CC727"/>
<stop offset="0.505" stop-color="#3063FD"/>
<stop offset="1" stop-color="#BD0EFA"/>
</linearGradient>
<linearGradient id="paint7_linear_1_2067" x1="68.3133" y1="71.4938" x2="68.3133" y2="82.9328" gradientUnits="userSpaceOnUse">
<stop stop-color="#6CC727"/>
<stop offset="0.505" stop-color="#3063FD"/>
<stop offset="1" stop-color="#BD0EFA"/>
</linearGradient>
<linearGradient id="paint8_linear_1_2067" x1="16.7113" y1="71.4938" x2="16.7113" y2="82.9328" gradientUnits="userSpaceOnUse">
<stop stop-color="#6CC727"/>
<stop offset="0.505" stop-color="#3063FD"/>
<stop offset="1" stop-color="#BD0EFA"/>
</linearGradient>
<linearGradient id="paint9_linear_1_2067" x1="69.7468" y1="25.7377" x2="69.7468" y2="68.634" gradientUnits="userSpaceOnUse">
<stop stop-color="#6CC727"/>
<stop offset="0.505" stop-color="#3063FD"/>
<stop offset="1" stop-color="#BD0EFA"/>
</linearGradient>
<linearGradient id="paint10_linear_1_2067" x1="62.5797" y1="37.1769" x2="62.5797" y2="51.4756" gradientUnits="userSpaceOnUse">
<stop stop-color="#6CC727"/>
<stop offset="0.505" stop-color="#3063FD"/>
<stop offset="1" stop-color="#BD0EFA"/>
</linearGradient>
<linearGradient id="paint11_linear_1_2067" x1="24" y1="5" x2="42.5125" y2="48.1683" gradientUnits="userSpaceOnUse">
<stop stop-color="#6CC727"/>
<stop offset="0.505" stop-color="#3063FD"/>
<stop offset="1" stop-color="#BD0EFA"/>
</linearGradient>
<linearGradient id="paint12_linear_1_2067" x1="68.3138" y1="37.1769" x2="68.3138" y2="51.4756" gradientUnits="userSpaceOnUse">
<stop stop-color="#6CC727"/>
<stop offset="0.505" stop-color="#3063FD"/>
<stop offset="1" stop-color="#BD0EFA"/>
</linearGradient>
</defs>
</svg>
