<svg width="79" height="84" viewBox="0 0 79 84" fill="none" xmlns="http://www.w3.org/2000/svg">
<path d="M26.0388 0.281073C30.7859 1.35682 36.161 3.69099 39.1648 7.71639C39.6742 8.34836 40.3445 8.5315 41.0857 8.81381C42.7252 9.52022 44.0817 10.7711 44.8249 12.4028C45.8625 15.4003 44.5996 19.1605 43.5265 22.0183C43.2421 22.741 43.2421 22.741 43.3319 23.4841C43.4488 23.6987 43.5708 23.9105 43.6977 24.1194C44.1788 25.0446 44.1073 26.2009 43.848 27.1859C43.44 28.2181 42.6539 29.0149 41.7615 29.647C40.9422 29.9971 40.2206 30.0112 39.3473 29.9919C39.2201 29.9905 39.0929 29.989 38.9619 29.9875C38.6508 29.9837 38.3397 29.9779 38.0287 29.9716C37.9957 30.1866 37.9957 30.1866 37.9621 30.4059C37.5351 32.7865 36.4676 34.1359 34.6204 35.6521C34.5068 35.7187 34.3932 35.7853 34.2761 35.8539C33.9277 36.1237 33.9277 36.1237 33.8826 36.5965C33.8792 36.7776 33.8758 36.9586 33.8723 37.1451C33.8671 37.3413 33.8618 37.5374 33.8564 37.7395C33.8541 37.9444 33.8518 38.1493 33.8495 38.3605C33.8447 38.5673 33.8398 38.7741 33.8349 38.9871C33.8234 39.4985 33.8148 40.0097 33.8089 40.5211C34.1023 40.6155 34.1023 40.6155 34.4017 40.7119C41.3931 43.046 41.3931 43.046 44.0337 45.39C44.1425 45.4758 44.2513 45.5616 44.3634 45.65C45.7505 46.7674 46.8008 48.2322 47.5891 49.8184C47.6443 49.9294 47.6996 50.0404 47.7565 50.1547C48.3938 51.4726 48.8518 52.847 49.3084 54.2353C49.3962 54.4972 49.4841 54.759 49.5722 55.0208C49.7838 55.651 49.9931 56.2819 50.2011 56.9132C50.6776 55.8855 51.0806 54.8457 51.4532 53.7763C51.5656 53.4593 51.6782 53.1423 51.7908 52.8253C51.9656 52.3317 52.1397 51.8379 52.312 51.3434C52.4801 50.862 52.6511 50.3817 52.8226 49.9014C52.8985 49.6803 52.8985 49.6803 52.9759 49.4547C53.2735 48.6293 53.5543 48.0645 54.2586 47.4999C54.6928 47.3497 54.6928 47.3497 55.1208 47.2869C55.2641 47.2641 55.4074 47.2413 55.555 47.2178C55.6628 47.2038 55.7705 47.1898 55.8815 47.1753C55.9767 46.9197 56.0671 46.6624 56.1554 46.4044C56.2317 46.1897 56.2317 46.1897 56.3095 45.9707C56.4157 45.544 56.4157 45.544 56.1484 45.2049C56.0604 45.1053 55.9723 45.0057 55.8815 44.9031C55.7319 44.4543 55.7001 44.1918 55.7034 43.7296C55.7039 43.5994 55.7044 43.4692 55.705 43.335C55.7063 43.1997 55.7077 43.0645 55.7091 42.9251C55.7098 42.788 55.7106 42.6508 55.7113 42.5095C55.7132 42.1713 55.7161 41.8331 55.7192 41.4949C55.4947 41.4987 55.4947 41.4987 55.2657 41.5026C54.704 41.5109 54.1423 41.517 53.5806 41.5216C53.3386 41.524 53.0967 41.5273 52.8548 41.5316C51.25 41.559 49.8026 41.5772 48.4564 40.5921C47.4254 39.5948 47.0769 38.6035 47.0311 37.1858C47.0295 37.0412 47.0278 36.8966 47.0261 36.7476C47.0237 36.6074 47.0213 36.4672 47.0189 36.3228C47.0332 35.433 47.1571 34.8836 47.7666 34.1914C48.2251 33.9137 48.5857 33.8224 49.1182 33.7996C49.3128 33.7902 49.3128 33.7902 49.5113 33.7806C49.7122 33.7731 49.7122 33.773 49.9171 33.7654C50.0535 33.7591 50.1899 33.7528 50.3304 33.7463C50.6659 33.7311 51.0016 33.7176 51.3372 33.7045C51.2422 33.6654 51.1472 33.6263 51.0493 33.5859C50.6186 33.3404 50.3997 33.0732 50.0996 32.68C50.0038 32.5568 49.908 32.4335 49.8093 32.3066C49.2107 31.4057 49.1697 30.6412 49.1766 29.5862C49.1774 29.4422 49.1782 29.2983 49.179 29.15C49.2395 25.7043 50.5168 22.9028 52.8112 20.3637C53.1225 20.0714 53.1225 20.0714 53.4471 20.0714C53.5006 19.9107 53.5542 19.75 53.6094 19.5845C53.7658 19.4166 53.9288 19.2545 54.0963 19.0976C55.2765 17.8068 55.2765 17.8068 56.2061 16.3385C56.3133 16.3385 56.4204 16.3385 56.5307 16.3385C56.5542 16.1946 56.5776 16.0506 56.6017 15.9023C56.6785 15.4506 56.7629 15.002 56.8553 14.5532C56.5792 14.5181 56.5792 14.5181 56.2974 14.4822C55.7192 14.3909 55.7192 14.3909 55.5569 14.2286C55.4967 13.2806 55.4967 13.2806 55.5569 12.9302C56.0538 12.599 56.157 12.5646 56.7171 12.5611C56.852 12.5595 56.9869 12.558 57.1258 12.5564C57.2709 12.5565 57.4159 12.5567 57.5654 12.5568C57.7148 12.5561 57.8643 12.5554 58.0183 12.5547C58.3343 12.5538 58.6502 12.5537 58.9662 12.5544C59.4503 12.5549 59.9342 12.5511 60.4183 12.547C60.7251 12.5466 61.032 12.5465 61.3388 12.5467C61.4839 12.5452 61.629 12.5437 61.7784 12.5422C61.9807 12.5437 61.9807 12.5437 62.1871 12.5452C62.3057 12.5451 62.4242 12.545 62.5463 12.5449C62.9569 12.6243 63.0996 12.7596 63.3473 13.0925C63.4082 13.6707 63.4082 13.6707 63.3473 14.2286C62.7898 14.6003 62.5382 14.5822 61.8866 14.5532C62.3172 15.7258 62.7741 16.7009 63.5983 17.6471C63.8454 17.9765 63.9069 18.2155 63.9965 18.6107C64.2114 18.7219 64.4281 18.8296 64.6457 18.9353C64.863 19.2051 65.0792 19.4757 65.2949 19.7468C65.4651 19.8881 65.6378 20.0265 65.8122 20.1627C67.0065 21.1588 67.9343 22.5424 68.5409 23.9666C68.5409 24.0737 68.5409 24.1808 68.5409 24.2912C68.3924 24.2947 68.3924 24.2947 68.2409 24.2983C67.7896 24.3105 67.3386 24.3261 66.8874 24.3419C66.7317 24.3455 66.5759 24.3492 66.4154 24.353C65.58 24.3848 65.0122 24.4238 64.3211 24.9404C64.214 24.9404 64.1068 24.9404 63.9965 24.9404C63.5484 26.0392 63.443 26.9972 63.462 28.1768C63.4627 28.3405 63.4634 28.5041 63.4641 28.6727C63.4668 29.1903 63.4729 29.7077 63.4792 30.2252C63.4816 30.5782 63.4838 30.9313 63.4858 31.2843C63.4912 32.1452 63.4995 33.006 63.5096 33.8668C63.9916 33.8132 64.4736 33.7597 64.9703 33.7045C64.9703 32.794 64.9703 31.8835 64.9703 30.9454C65.6305 30.6153 65.8966 30.5799 66.6117 30.5788C66.9123 30.5773 66.9123 30.5773 67.2189 30.5757C67.4368 30.5763 67.6547 30.577 67.8726 30.5777C68.0965 30.5775 68.3204 30.5772 68.5443 30.5768C69.0128 30.5763 69.4813 30.577 69.9498 30.5785C70.5509 30.5804 71.1519 30.5793 71.753 30.5773C72.215 30.5762 72.6769 30.5765 73.1389 30.5774C73.3606 30.5776 73.5823 30.5773 73.804 30.5766C74.1132 30.5758 74.4225 30.5772 74.7318 30.5788C74.9078 30.5791 75.0839 30.5793 75.2653 30.5796C75.682 30.6208 75.682 30.6208 76.0066 30.9454C76.0302 31.4176 76.0368 31.8738 76.0269 32.3452C76.0254 32.4754 76.024 32.6055 76.0225 32.7396C76.0186 33.0612 76.0128 33.3829 76.0066 33.7045C76.1143 33.7106 76.2221 33.7166 76.3331 33.7229C77.852 33.836 77.8519 33.836 78.4411 34.3537C78.9125 35.1183 79.0115 35.785 78.999 36.6665C78.9976 36.7883 78.9963 36.9101 78.9949 37.0357C78.9554 38.3398 78.6498 39.3503 77.7716 40.3385C76.4185 41.5188 74.9575 41.5836 73.2272 41.5354C72.9247 41.531 72.9247 41.531 72.6161 41.5266C72.1231 41.519 71.6304 41.5083 71.1376 41.4949C71.1406 41.6033 71.1435 41.7118 71.1466 41.8235C71.1488 41.9673 71.1511 42.1112 71.1535 42.2594C71.1564 42.4014 71.1594 42.5433 71.1624 42.6895C71.0873 43.9892 70.258 45.0068 69.3523 45.8769C68.3785 46.6321 67.5164 46.896 66.289 46.871C66.1019 46.8681 65.9149 46.8651 65.7222 46.8621C65.5107 46.8565 65.5107 46.8565 65.2949 46.8507C65.2767 46.989 65.2585 47.1273 65.2397 47.2698C65.1265 47.8559 64.9418 48.3576 64.7167 48.9099C64.4078 49.6436 64.4078 49.6436 64.3211 50.4213C64.5881 50.6952 64.8588 50.9656 65.1326 51.2328C65.5703 52.546 65.0822 53.5948 64.6051 54.8338C64.5409 55.009 64.4767 55.1842 64.4105 55.3647C63.8438 56.8613 63.8438 56.8613 63.185 57.4001C62.551 57.4907 62.2029 57.4949 61.6533 57.1567C61.3027 56.5958 61.3312 56.091 61.3997 55.4526C61.5268 54.9511 61.701 54.4743 61.8866 53.9919C61.933 53.8661 61.9795 53.7404 62.0273 53.6108C62.1409 53.3044 62.2569 52.9988 62.3735 52.6935C60.9737 52.097 59.5607 51.5468 58.1334 51.0198C57.9359 50.946 57.7384 50.8723 57.535 50.7963C57.3471 50.7267 57.1592 50.6572 56.9656 50.5855C56.7962 50.5227 56.6267 50.4598 56.452 50.3951C56.0642 50.2419 56.0642 50.2419 55.7192 50.259C55.6836 50.3571 55.648 50.4553 55.6113 50.5564C55.4372 51.0359 55.2632 51.5153 55.0891 51.9948C55.0231 52.1765 54.9572 52.3581 54.8892 52.5453C54.5242 53.5504 54.1587 54.5554 53.7926 55.5602C53.6806 55.8676 53.5686 56.1749 53.4566 56.4823C53.3816 56.6882 53.3065 56.894 53.2315 57.0998C52.797 58.2921 52.3647 59.4851 51.9373 60.6799C51.7317 61.2541 51.5246 61.8278 51.3171 62.4014C51.2227 62.6638 51.129 62.9264 51.036 63.1893C50.9084 63.5502 50.7782 63.9102 50.6474 64.27C50.5763 64.469 50.5051 64.668 50.4318 64.873C50.1919 65.3719 50.0311 65.5743 49.5519 65.8397C49.0751 65.9208 49.0751 65.9208 48.5781 65.8397C48.1115 65.5049 48.1115 65.5049 47.7666 65.0282C47.6803 64.226 47.8204 63.7039 48.1648 62.9811C48.8271 61.5399 48.7418 60.5527 48.2248 59.0773C48.0643 58.6477 47.8955 58.2219 47.726 57.7957C47.6196 57.51 47.5139 57.224 47.409 56.9377C47.1533 56.2449 46.8878 55.5564 46.6191 54.8687C46.4729 54.491 46.3309 54.1121 46.1907 53.7322C46.1476 53.6153 46.1044 53.4985 46.06 53.3781C45.945 53.0659 45.8304 52.7537 45.7157 52.4414C44.6659 49.7876 42.8156 47.2384 40.1385 46.0392C39.9547 46.9802 39.7756 47.922 39.5992 48.8645C39.5214 49.2776 39.4427 49.6906 39.363 50.1034C38.1839 55.1337 38.1839 55.1337 39.3271 59.9969C39.6293 60.4103 39.946 60.7617 40.3008 61.133C40.3008 61.2401 40.3008 61.3473 40.3008 61.4576C40.4013 61.5045 40.5017 61.5513 40.6052 61.5996C40.95 61.7822 40.95 61.7822 41.2746 62.1068C41.2753 61.948 41.276 61.7891 41.2767 61.6255C41.2802 61.035 41.289 60.4446 41.2994 59.8542C41.3032 59.5989 41.3055 59.3435 41.3064 59.0882C41.3079 58.7206 41.3145 58.3534 41.3222 57.9859C41.3216 57.8721 41.3209 57.7583 41.3203 57.6411C41.3382 57.0391 41.3952 56.7944 41.8188 56.3542C42.3448 56.0451 42.6218 55.9996 43.2222 56.1017C43.6844 56.464 43.8471 56.6779 44.0337 57.2378C44.043 57.5474 44.0423 57.8572 44.0361 58.1668C44.0332 58.3586 44.0302 58.5505 44.0271 58.7481C44.0219 59.0612 44.0219 59.0612 44.0166 59.3807C43.7412 67.1609 43.7412 67.1609 47.1174 73.9546C47.4789 74.2835 47.4789 74.2835 47.8477 74.5024C47.9632 74.5773 48.0787 74.6522 48.1977 74.7294C49.4296 75.3741 50.765 75.4631 52.1138 75.1471C53.7451 74.5597 54.5705 73.5947 55.3107 72.067C55.7149 71.1692 56.0473 70.2502 56.3748 69.3221C56.4481 69.1173 56.5216 68.9126 56.5952 68.7078C56.7865 68.1749 56.9764 67.6415 57.1659 67.1079C57.4699 66.2526 57.7757 65.3979 58.082 64.5434C58.1876 64.2483 58.2923 63.9529 58.397 63.6576C59.3708 60.9317 59.3708 60.9317 59.9086 60.3012C60.4521 60.0838 60.8415 60.1794 61.3997 60.3215C61.8228 60.5895 61.8748 60.7618 61.9986 61.2491C62.0571 61.8693 61.9499 62.2318 61.7375 62.8154C61.6654 63.017 61.5933 63.2186 61.519 63.4263C61.4383 63.6445 61.3575 63.8628 61.2767 64.081C61.1945 64.3078 61.1126 64.5346 61.0308 64.7615C60.8149 65.3586 60.5962 65.9547 60.3769 66.5506C60.2003 67.0322 60.0257 67.5145 59.8512 67.9969C59.6407 68.5786 59.4292 69.1599 59.2175 69.7412C59.1781 69.8495 59.1387 69.9579 59.0981 70.0695C57.5858 74.2174 57.5858 74.2174 56.5307 75.4153C56.4376 75.5254 56.3445 75.6354 56.2486 75.7488C55.1263 76.9803 53.4889 77.8813 51.811 78.0451C51.446 78.0613 51.0837 78.0655 50.7184 78.0628C50.5894 78.062 50.4605 78.0612 50.3276 78.0604C49.3532 78.041 48.5013 77.9273 47.6043 77.5252C47.484 77.4719 47.3637 77.4185 47.2398 77.3635C46.0567 76.771 44.9318 75.8698 44.196 74.7661C44.1925 75.0596 44.1925 75.0596 44.1888 75.3589C44.1794 76.0882 44.1669 76.8175 44.1534 77.5467C44.148 77.8617 44.1435 78.1767 44.1398 78.4917C44.1343 78.9458 44.1258 79.3998 44.1168 79.8538C44.1157 79.9935 44.1147 80.1332 44.1136 80.2771C44.0885 81.3196 43.9602 82.1244 43.2108 82.9078C42.5852 83.2998 42.0463 83.2965 41.3308 83.2892C41.1895 83.2903 41.0482 83.2915 40.9027 83.2926C40.4293 83.2956 39.9561 83.2939 39.4827 83.2922C39.1433 83.2934 38.8039 83.2948 38.4645 83.2965C37.5427 83.3001 36.621 83.2997 35.6992 83.2982C34.93 83.2974 34.1608 83.2986 33.3916 83.2998C31.5774 83.3025 29.7632 83.3019 27.9489 83.2992C26.0762 83.2965 24.2036 83.299 22.3309 83.3043C20.7237 83.3086 19.1166 83.3098 17.5094 83.3084C16.5492 83.3076 15.589 83.308 14.6288 83.3113C13.7261 83.3143 12.8235 83.3133 11.9209 83.3093C11.5894 83.3085 11.2578 83.3091 10.9263 83.3111C10.4742 83.3137 10.0223 83.3113 9.57019 83.3076C9.3728 83.3105 9.3728 83.3105 9.17142 83.3134C8.51361 83.3025 8.205 83.2367 7.68228 82.824C7.1504 82.1272 7.1614 81.5675 7.1513 80.7103C7.14711 80.4982 7.14293 80.286 7.13862 80.0675C7.19406 79.4483 7.30281 79.1486 7.67877 78.6613C8.18055 78.4104 8.58671 78.4513 9.13946 78.499C9.53506 78.7222 9.53506 78.7222 9.78865 79.1482C9.78865 79.6838 9.78865 80.2194 9.78865 80.7712C10.9134 80.7712 12.0381 80.7712 13.1969 80.7712C13.1714 79.8996 13.1714 79.8996 13.1384 79.0283C13.1292 78.4017 13.1593 78.0763 13.4835 77.5227C13.8646 77.1842 13.9961 77.0927 14.4953 77.1093C14.6024 77.1091 14.7096 77.1089 14.8199 77.1087C15.3208 77.2505 15.4953 77.4199 15.7937 77.8498C15.8723 78.3534 15.8548 78.843 15.8343 79.3511C15.8209 79.8197 15.8075 80.2883 15.7937 80.7712C16.7578 80.7712 17.7218 80.7712 18.7151 80.7712C18.7113 80.3471 18.7076 79.923 18.7037 79.4861C18.7011 79.0741 18.6992 78.6621 18.6973 78.2501C18.6956 77.9644 18.6934 77.6787 18.6906 77.393C18.6867 76.9816 18.6848 76.5703 18.6834 76.159C18.6817 76.0318 18.68 75.9047 18.6783 75.7736C18.6782 75.0957 18.7184 74.5577 19.0397 73.9546C19.4333 73.561 19.6273 73.5188 20.1758 73.4677C20.6783 73.6197 20.9393 73.7443 21.3119 74.1169C21.3404 74.6177 21.3494 75.1037 21.3436 75.6042C21.3431 75.7515 21.3427 75.8987 21.3422 76.0504C21.3404 76.5218 21.3363 76.993 21.3322 77.4643C21.3305 77.7834 21.3291 78.1025 21.3277 78.4217C21.3244 79.2049 21.3181 79.988 21.3119 80.7712C22.4366 80.7712 23.5613 80.7712 24.7202 80.7712C24.7202 75.0404 24.7202 69.3096 24.7202 63.4052C22.5443 63.4186 20.3685 63.432 18.1268 63.4458C17.0979 63.4496 17.0979 63.4496 16.0482 63.4535C15.431 63.4589 15.431 63.4589 14.8138 63.4652C14.5399 63.4675 14.2659 63.4687 13.9919 63.4687C13.5758 63.4691 13.1599 63.4736 12.7439 63.4789C12.5621 63.4777 12.5621 63.4777 12.3767 63.4764C11.5487 63.493 11.0738 63.6918 10.4378 64.2167C9.78984 65.2384 9.88745 66.3217 9.89643 67.5001C9.8944 67.9224 9.89228 68.3448 9.89009 68.7671C9.88894 69.4306 9.89 70.0942 9.89247 70.7577C9.89458 71.3997 9.89035 72.0416 9.88629 72.6835C9.88845 72.8825 9.89062 73.0815 9.89285 73.2865C9.89123 73.4713 9.88962 73.656 9.88795 73.8463C9.88853 74.0899 9.88853 74.0899 9.88912 74.3383C9.78865 74.7661 9.78865 74.7661 9.41347 75.1488C8.97716 75.4153 8.97716 75.4153 8.38882 75.4052C7.86567 75.2599 7.66371 75.196 7.35417 74.7661C7.13956 74.3369 7.17616 74.007 7.18173 73.5286C7.18319 73.3658 7.18466 73.2031 7.18616 73.0354C7.18805 72.9102 7.18993 72.7851 7.19187 72.6562C7.04793 72.673 6.90399 72.6897 6.75569 72.707C4.93696 72.6996 3.3891 71.5748 2.13588 70.3739C0.713493 68.8906 0.0633542 67.0912 0 65.0586C0.0915679 61.2417 2.98327 57.5893 5.04458 54.5263C5.13157 54.3968 5.21857 54.2674 5.3082 54.134C5.56888 53.8296 5.56888 53.8296 6.15721 53.6064C6.83225 53.6814 7.07648 53.7988 7.51647 54.3165C7.6766 54.9542 7.72907 55.3256 7.48457 55.9426C7.38526 56.1037 7.28595 56.2648 7.18363 56.4308C7.01942 56.7021 7.01942 56.7021 6.8519 56.9789C6.73196 57.17 6.61198 57.3612 6.49196 57.5523C6.37148 57.7494 6.25129 57.9467 6.13138 58.1441C5.55046 59.0969 4.95331 60.0392 4.35112 60.9786C3.30351 62.6181 2.51237 64.1042 2.88651 66.0831C3.22213 67.4015 3.93038 68.4981 5.08198 69.248C5.77064 69.5935 6.44237 69.8793 7.19187 70.0595C7.18932 69.9155 7.18677 69.7716 7.18414 69.6234C7.17577 69.0819 7.16971 68.5405 7.16512 67.999C7.1627 67.7661 7.15939 67.5331 7.15514 67.3002C7.12065 65.3608 7.20147 63.6193 8.60691 62.1372C9.53306 61.2552 10.4487 60.8084 11.7362 60.8084C11.732 60.6889 11.7277 60.5694 11.7234 60.4463C11.7065 59.9043 11.6959 59.3624 11.6855 58.8203C11.6787 58.6322 11.6719 58.4441 11.6649 58.2503C11.6448 56.8595 11.6448 56.8595 12.1141 56.3021C12.641 56.0587 12.9481 56.0041 13.5215 56.1017C13.8953 56.4048 14.1185 56.6465 14.333 57.0755C14.3467 57.358 14.3504 57.641 14.3489 57.9238C14.3481 58.1749 14.3481 58.1749 14.3473 58.431C14.3459 58.6063 14.3446 58.7816 14.3432 58.9623C14.3424 59.1388 14.3417 59.3154 14.3409 59.4973C14.339 59.9344 14.3364 60.3714 14.333 60.8084C15.3279 60.8044 15.3279 60.8044 16.138 60.3095C16.2085 60.1695 16.279 60.0295 16.3516 59.8853C16.425 59.7475 16.4985 59.6096 16.5741 59.4676C17.4301 57.5003 17.3046 55.576 16.9209 53.5075C16.8851 53.3026 16.8492 53.0976 16.8122 52.8864C16.7177 52.3494 16.6207 51.8128 16.5226 51.2764C16.4428 50.8361 16.3653 50.3955 16.288 49.9548C16.1283 49.0456 15.9669 48.1368 15.8014 47.2287C15.758 46.9892 15.758 46.9892 15.7136 46.7449C15.6477 46.3628 15.6477 46.3628 15.4691 46.0392C13.7885 47.551 12.262 49.1065 10.8804 50.9031C10.4974 51.3537 10.2269 51.5429 9.6365 51.6182C9.13946 51.5574 9.13946 51.5574 8.76414 51.2936C8.42576 50.8174 8.33988 50.5183 8.32796 49.9344C10.4592 45.8785 15.0501 42.0601 19.3567 40.6206C20.211 40.3659 20.9017 40.1965 21.7988 40.1965C21.7988 38.8039 21.7988 37.4114 21.7988 35.9767C21.5845 35.8696 21.3703 35.7625 21.1496 35.6521C19.6467 34.5123 18.1454 33.0704 17.8294 31.142C17.7882 30.7514 17.7577 30.364 17.7413 29.9716C17.4532 29.9858 17.4532 29.9858 17.1593 30.0002C15.5051 30.0574 14.1928 30.0579 12.9009 28.8932C11.8249 27.7391 11.6583 26.6992 11.6862 25.1534C11.7296 24.6866 11.7887 24.3819 11.9898 23.9666C12.3917 23.128 12.0273 22.3576 11.7464 21.5118C10.6331 17.9292 10.8472 14.14 12.5515 10.7798C12.7506 10.3539 12.7506 10.3539 12.6168 9.99111C12.3395 9.6234 12.0387 9.31306 11.7058 8.9945C11.0299 8.33378 10.3909 7.65385 9.78865 6.92518C9.69932 6.82058 9.60998 6.71597 9.51794 6.60819C9.26863 6.22509 9.23154 6.00917 9.23075 5.55579C9.22761 5.43549 9.22447 5.31519 9.22124 5.19125C9.33769 4.6475 9.55618 4.39347 9.95095 4.0038C10.3455 3.81873 10.6839 3.68619 11.0972 3.56763C11.2108 3.53413 11.3243 3.50063 11.4413 3.46611C14.9563 2.49393 18.5868 2.87426 22.1234 3.51691C22.0177 3.34159 21.9121 3.16627 21.8032 2.98563C21.4419 2.38607 21.3827 1.95044 21.4742 1.24472C22.2768 -0.475166 24.4569 -0.00178415 26.0388 0.281073ZM24.8825 2.86771C24.9293 2.95433 24.9762 3.04094 25.0245 3.13018C25.4939 4.07241 25.7134 4.89867 25.5316 5.95139C25.2003 6.51743 24.9518 6.5804 24.3245 6.76289C23.5152 6.82847 22.8225 6.55001 22.0638 6.29564C20.4631 5.80167 18.7625 5.54827 17.0921 5.46449C16.9653 5.4578 16.8385 5.4511 16.7079 5.44421C15.4823 5.41206 14.2355 5.54591 13.0346 5.78909C12.9275 5.89621 12.8204 6.00333 12.71 6.11369C13.8815 7.4651 13.8815 7.4651 15.246 8.61157C15.6312 9.06247 15.7111 9.42284 15.7937 10.0089C15.6349 10.5457 15.3792 11.0187 15.1141 11.5101C14.9755 11.7837 14.8379 12.0578 14.7014 12.3324C14.6362 12.4634 14.5711 12.5944 14.504 12.7294C13.3445 15.1928 13.4554 18.1508 14.1707 20.7206C14.3314 21.0419 14.4921 21.3633 14.6576 21.6944C16.0234 21.614 16.0234 21.614 17.4167 21.5321C17.4468 21.1455 17.4468 21.1455 17.4776 20.751C17.5241 20.1536 17.5614 19.9355 17.9036 19.4222C18.1895 19.3105 18.1895 19.3105 18.5369 19.2371C18.6665 19.2079 18.7961 19.1788 18.9295 19.1488C19.0697 19.1185 19.2098 19.0882 19.3541 19.057C22.7598 18.2569 26.8451 16.8711 29.1919 14.0926C29.7936 13.4335 30.2765 13.1917 31.1787 13.1309C31.6637 13.1174 32.1465 13.1202 32.6315 13.1335C33.0074 13.1433 33.3824 13.1435 33.7585 13.1423C34.0004 13.1448 34.2422 13.1479 34.4841 13.1515C34.6502 13.1518 34.6502 13.1518 34.8197 13.1522C35.8518 13.1873 36.5581 13.5515 37.2679 14.2996C37.783 15.0818 37.9128 15.7407 37.9634 16.6726C37.9697 16.7808 37.9761 16.8891 37.9826 17.0006C38.0027 17.3445 38.0208 17.6885 38.0388 18.0325C38.0577 18.376 38.0769 18.7194 38.0967 19.0627C38.1146 19.3747 38.1313 19.6867 38.1479 19.9988C38.1875 20.5129 38.2685 21.0234 38.3533 21.5321C39.1566 21.5321 39.96 21.5321 40.7877 21.5321C41.7582 19.2676 43.1853 15.9354 42.3803 13.478C41.5895 12.0055 40.4489 11.2227 38.8604 10.7291C37.7379 10.3125 37.0615 9.34507 36.2969 8.46687C33.7289 5.57166 29.4226 3.63549 25.6939 2.86771C25.2271 2.83474 25.2271 2.83474 24.8825 2.86771ZM29.8275 16.9273C29.4182 17.3098 28.9567 17.6035 28.4835 17.9006C28.3886 17.9602 28.2937 18.0198 28.196 18.0812C25.6062 19.6787 22.9508 20.7519 20.0135 21.5321C19.8038 22.171 19.8267 22.8153 19.8309 23.4797C19.8316 23.6076 19.8322 23.7355 19.8329 23.8673C19.8513 25.8779 19.9003 27.8826 20.2265 29.8702C20.2436 29.9811 20.2607 30.092 20.2784 30.2062C20.5706 31.8084 21.826 32.9889 23.1117 33.896C24.8018 34.961 26.56 36.0473 28.6153 35.8144C30.7148 35.264 32.7817 33.9532 34.2958 32.4061C34.3753 32.3298 34.4548 32.2534 34.5367 32.1747C36.3173 30.1479 35.7905 25.8794 35.7869 23.3478C35.7867 23.1411 35.7867 23.1411 35.7864 22.9302C35.7823 21.1772 35.7604 19.4272 35.6449 17.6775C35.6363 17.5127 35.6276 17.3478 35.6187 17.178C35.5635 16.3414 35.5635 16.3414 35.1047 15.6747C33.0005 15.033 31.37 15.3692 29.8275 16.9273ZM57.1799 18.773C57.233 19.1975 57.3131 19.5262 57.5045 19.9091C57.7412 19.9135 57.9779 19.9166 58.2146 19.9192C58.4123 19.9221 58.4123 19.9221 58.614 19.9249C58.9732 19.9326 58.9732 19.9326 59.2898 19.7468C59.2898 19.8539 59.2898 19.961 59.2898 20.0714C59.4505 20.1785 59.6112 20.2856 59.7767 20.396C59.8303 20.5567 59.8838 20.7173 59.939 20.8829C59.0821 20.8829 58.2251 20.8829 57.3422 20.8829C57.0726 21.816 57.0726 21.816 57.5045 22.3436C57.9571 22.3795 58.3723 22.3892 58.8232 22.374C58.9456 22.3718 59.068 22.3696 59.1941 22.3674C59.4965 22.3616 59.7989 22.3529 60.1013 22.3436C60.0241 22.5568 59.9462 22.7698 59.868 22.9826C59.8247 23.1013 59.7814 23.2199 59.7368 23.3421C59.6144 23.642 59.6144 23.642 59.4521 23.8043C58.9539 23.8439 58.4558 23.8666 57.9566 23.8892C57.8074 23.9147 57.6582 23.9403 57.5045 23.9666C57.1362 24.4097 57.1362 24.4097 57.212 24.8373C57.3556 25.3089 57.5496 25.6795 57.8025 26.1024C57.895 26.258 57.9874 26.4135 58.0827 26.5738C58.2283 26.8147 58.2283 26.8147 58.3769 27.0604C58.4727 27.2216 58.5685 27.3828 58.6672 27.5489C59.0668 28.217 59.4618 28.8687 59.939 29.4847C60.2604 29.4044 60.2604 29.4044 60.5882 29.3224C60.5105 28.4255 60.1702 27.8488 59.6956 27.1111C59.5612 26.8998 59.4277 26.6881 59.2949 26.4759C59.2059 26.3373 59.2059 26.3373 59.1152 26.1959C58.9521 25.8895 58.8737 25.6036 58.8029 25.265C58.9736 25.265 59.1444 25.265 59.3202 25.265C59.978 25.0924 60.0475 25.0569 60.3955 24.5245C60.652 24.0605 60.8104 23.6314 60.923 23.1145C61.0751 22.5059 61.0751 22.5059 61.4301 22.161C61.5272 22.0606 61.6243 21.9601 61.7243 21.8567C61.701 21.3374 61.701 21.3374 61.562 20.8829C61.3478 20.8829 61.1335 20.8829 60.9128 20.8829C60.8592 20.5615 60.8057 20.2402 60.7505 19.9091C60.9647 19.9091 61.179 19.9091 61.3997 19.9091C61.7755 19.4595 61.7755 19.4595 61.6736 18.9962C61.5987 18.6213 61.5987 18.6213 61.3997 18.4484C60.7549 18.4074 60.1082 18.4183 59.4623 18.418C59.2799 18.416 59.0976 18.414 58.9097 18.412C58.7358 18.4116 58.5618 18.4113 58.3826 18.411C58.2221 18.4103 58.0617 18.4097 57.8964 18.409C57.4748 18.4097 57.4748 18.4097 57.1799 18.773ZM14.7895 24.5245C14.6924 24.6617 14.5953 24.799 14.4953 24.9404C14.4418 24.9939 14.3882 25.0475 14.333 25.1027C14.2467 26.0454 14.2467 26.0454 14.6373 26.8778C15.2165 27.4399 15.5898 27.3928 16.382 27.385C16.6714 27.3828 16.6714 27.3828 16.9666 27.3806C17.1894 27.3777 17.1894 27.3777 17.4167 27.3748C17.4435 25.744 17.4435 25.744 17.2544 24.1289C15.9181 23.9634 15.9181 23.9634 14.7895 24.5245ZM38.3533 24.1289C38.2997 25.2 38.2461 26.2712 38.191 27.3748C38.688 27.3949 38.6881 27.3949 39.1952 27.4154C39.4748 27.4267 39.4748 27.4267 39.7601 27.4382C40.4094 27.3621 40.6575 27.1863 41.1123 26.7257C41.4062 26.0645 41.493 25.7514 41.2544 25.0621C40.9505 24.6164 40.7606 24.3998 40.3008 24.1289C39.8062 24.0702 39.8062 24.0702 39.2865 24.0984C38.9785 24.1085 38.6706 24.1185 38.3533 24.1289ZM49.7142 36.4636C49.5631 37.8369 49.5631 37.8369 50.0996 38.4112C50.7244 38.8872 51.0278 38.9191 51.807 38.923C52.0109 38.9244 52.2147 38.9258 52.4248 38.9273C52.652 38.928 52.8792 38.9287 53.1065 38.9294C53.3448 38.9307 53.5831 38.932 53.8214 38.9334C54.6053 38.9376 55.3892 38.9401 56.1732 38.9424C56.4429 38.9433 56.7127 38.9442 56.9825 38.9451C58.1047 38.9486 59.2268 38.9516 60.349 38.9534C61.9576 38.9561 63.5661 38.9615 65.1747 38.9707C66.3055 38.977 67.4363 38.9802 68.5671 38.981C69.2426 38.9816 69.918 38.9836 70.5935 38.9888C71.2292 38.9937 71.8648 38.9947 72.5006 38.9928C72.7336 38.9928 72.9667 38.9941 73.1997 38.997C74.5912 39.0616 74.5912 39.0616 75.8181 38.5168C76.4195 37.7792 76.3312 37.4853 76.3312 36.4636C67.5476 36.4636 58.764 36.4636 49.7142 36.4636ZM24.3956 37.5997C24.3915 37.7299 24.3874 37.8601 24.3832 37.9942C24.3644 38.5829 24.3445 39.1716 24.3245 39.7603C24.3182 39.9652 24.3118 40.1701 24.3052 40.3813C24.2984 40.5774 24.2916 40.7735 24.2846 40.9756C24.2787 41.1567 24.2727 41.3377 24.2666 41.5242C24.2333 41.9817 24.2333 41.9817 24.071 42.4686C24.2324 43.1394 24.3496 43.4654 24.9294 43.8533C26.3393 44.5686 27.7118 44.8507 29.2791 44.4505C30.5554 44.0167 30.5554 44.0167 31.4251 43.0468C31.5505 42.5795 31.4897 42.4395 31.3744 41.9817C31.3506 41.6415 31.3343 41.3007 31.3231 40.9598C31.3163 40.7642 31.3095 40.5685 31.3025 40.367C31.2961 40.1634 31.2897 39.9599 31.2831 39.7501C31.2761 39.5441 31.2691 39.338 31.2619 39.1257C31.2447 38.617 31.2281 38.1084 31.2121 37.5997C31.0611 37.6496 30.91 37.6995 30.7544 37.7509C28.7882 38.3865 27.0657 38.4993 25.098 37.7417C24.7368 37.5806 24.7368 37.5806 24.3956 37.5997ZM58.316 41.4949C58.1556 43.5757 58.1556 43.5757 59.1275 44.7408C59.2161 45.6374 59.0224 46.3373 58.7218 47.1652C58.6831 47.2762 58.6444 47.3871 58.6045 47.5015C58.5099 47.772 58.4132 48.0418 58.316 48.3114C58.8229 48.5016 59.3302 48.6906 59.8376 48.8794C59.9819 48.9336 60.1263 48.9878 60.275 49.0437C60.4821 49.1205 60.4821 49.1205 60.6935 49.199C60.8209 49.2466 60.9484 49.2942 61.0798 49.3432C61.3951 49.4643 61.3951 49.4643 61.7243 49.4475C61.7718 49.3173 61.8192 49.1871 61.8681 49.053C62.0449 48.5691 62.2222 48.0855 62.3999 47.602C62.4766 47.3929 62.5531 47.1837 62.6294 46.9744C62.7392 46.6732 62.8499 46.3724 62.9606 46.0716C63.0269 45.8905 63.0932 45.7095 63.1615 45.523C63.3473 45.0654 63.3473 45.0654 63.6719 44.5785C64.365 44.295 65.1992 44.3711 65.9409 44.3608C66.7724 44.3271 67.2479 44.1247 67.8917 43.6047C68.5627 42.8101 68.5409 42.6155 68.5409 41.4949C65.1667 41.4949 61.7925 41.4949 58.316 41.4949ZM21.3119 42.7932C20.9226 42.9171 20.5339 43.0424 20.1454 43.1686C20.036 43.2032 19.9267 43.2378 19.8141 43.2735C19.6533 43.326 19.6533 43.326 19.4892 43.3797C19.3914 43.4111 19.2937 43.4426 19.193 43.475C18.7909 43.6403 18.4367 43.8656 18.0659 44.0916C18.157 45.5025 18.3509 46.8759 18.5991 48.267C18.6538 48.5817 18.7085 48.8965 18.7631 49.2112C18.8963 49.9771 19.0313 50.7427 19.1667 51.5082C19.2432 51.9411 19.3189 52.374 19.3939 52.807C19.464 53.2119 19.5353 53.6166 19.6079 54.021C19.8672 55.5238 19.9771 56.896 19.6382 58.3942C19.5986 58.5754 19.5591 58.7566 19.5183 58.9432C19.4007 59.3762 19.2703 59.777 19.1112 60.1946C19.0455 60.3677 19.0455 60.3677 18.9785 60.5443C18.9451 60.6315 18.9118 60.7186 18.8774 60.8084C19.7468 60.8285 20.6161 60.8432 21.4856 60.853C21.7815 60.8571 22.0773 60.8626 22.373 60.8696C22.7981 60.8795 23.2229 60.8841 23.6481 60.8877C23.7805 60.8919 23.9129 60.896 24.0493 60.9004C24.4664 60.9097 24.4664 60.9097 25.0448 60.8084C25.3652 60.4358 25.3652 60.4358 25.5316 59.9969C26.4934 59.1314 27.2687 59.1516 28.5037 59.1449C28.6559 59.1415 28.8082 59.1382 28.965 59.1347C29.8392 59.1298 30.4587 59.1772 31.2121 59.6723C31.8129 60.2731 31.9963 60.8143 32.1859 61.6199C32.3194 61.6419 32.4529 61.6638 32.5904 61.6865C34.0435 61.9667 35.2184 62.4021 36.1876 63.5656C37.1712 65.0381 37.2187 66.7255 37.0549 68.4365C36.8031 69.6123 36.1822 70.5786 35.2696 71.3578C34.0195 72.1542 32.8728 72.3476 31.4061 72.383C31.3018 72.386 31.1975 72.389 31.09 72.3922C30.7047 72.4032 30.3194 72.413 29.934 72.4229C28.6386 72.4581 28.6386 72.4581 27.3169 72.4939C27.3169 75.2254 27.3169 77.9569 27.3169 80.7712C31.9765 80.7712 36.6361 80.7712 41.4369 80.7712C41.5031 78.1033 41.5031 78.1033 41.5479 75.4353C41.5614 74.3459 41.5774 73.2569 41.6084 72.1679C41.6332 71.2891 41.6466 70.4109 41.6525 69.5318C41.6567 69.1975 41.6649 68.8633 41.6772 68.5292C41.7954 66.7882 41.7954 66.7882 41.2161 65.2026C40.6891 64.6615 40.093 64.2658 39.4399 63.8926C37.6792 62.8505 36.6287 60.8398 36.0753 58.9299C35.3497 55.9469 36.1834 52.6824 36.7303 49.7417C36.8471 49.0994 36.9622 48.4568 37.0776 47.8143C37.149 47.4182 37.2212 47.0223 37.2943 46.6265C37.3431 46.3612 37.3431 46.3612 37.3928 46.0905C37.4216 45.9351 37.4504 45.7797 37.4801 45.6196C37.5544 45.2137 37.5544 45.2137 37.5418 44.7408C37.0119 44.5185 36.4807 44.2997 35.9492 44.0815C35.7231 43.9866 35.7231 43.9866 35.4924 43.8897C35.3475 43.8306 35.2027 43.7715 35.0534 43.7106C34.92 43.6554 34.7865 43.6001 34.649 43.5432C34.2716 43.3996 34.2716 43.3996 33.8089 43.6047C33.6267 43.9151 33.6267 43.9151 33.4886 44.3068C33.4305 44.4566 33.3725 44.6064 33.3127 44.7607C33.2513 44.9246 33.19 45.0886 33.1267 45.2575C33.0291 45.5116 33.0291 45.5116 32.9296 45.7707C32.7205 46.316 32.514 46.8623 32.3076 47.4086C32.1711 47.7663 32.0343 48.124 31.8974 48.4816C31.6306 49.1792 31.3647 49.8771 31.0996 50.5753C30.7142 51.5885 30.3222 52.5991 29.9268 53.6084C29.7507 54.0585 29.5797 54.507 29.4268 54.9657C28.7203 55.3987 27.7942 55.4381 26.9923 55.2903C26.0269 54.7776 25.7812 53.821 25.4099 52.8558C25.2999 52.5787 25.2999 52.5787 25.1878 52.296C24.9195 51.6186 24.6573 50.9389 24.3956 50.259C24.34 50.1148 24.2845 49.9706 24.2273 49.822C24.1065 49.508 23.9857 49.1941 23.865 48.8801C23.7398 48.5546 23.6146 48.2292 23.4893 47.9037C23.1765 47.091 22.8649 46.2779 22.5556 45.4639C22.4401 45.1618 22.3245 44.8597 22.209 44.5576C22.1559 44.417 22.1029 44.2763 22.0483 44.1314C21.974 43.938 21.974 43.938 21.8983 43.7407C21.8554 43.6278 21.8124 43.5148 21.7682 43.3985C21.6405 43.0851 21.6405 43.0851 21.3119 42.7932ZM25.8562 47.013C26.1031 47.6809 26.3514 48.3482 26.6012 49.015C26.686 49.242 26.7703 49.4692 26.8543 49.6965C26.9749 50.0229 27.0969 50.3486 27.2193 50.6742C27.2924 50.8706 27.3655 51.0669 27.4408 51.2692C27.5926 51.7382 27.5926 51.7382 27.9661 51.882C28.5553 50.3288 29.1444 48.7756 29.7514 47.1753C29.2203 47.0425 28.862 46.9937 28.3288 46.9972C28.1844 46.9977 28.0401 46.9982 27.8913 46.9987C27.7419 47.0001 27.5926 47.0015 27.4387 47.0029C27.2108 47.004 27.2108 47.004 26.9784 47.0051C26.6043 47.007 26.2303 47.0097 25.8562 47.013ZM27.3169 61.7822C27.3018 62.0363 27.2979 62.291 27.2985 62.5456C27.2985 62.708 27.2985 62.8705 27.2985 63.0378C27.2994 63.2145 27.3002 63.3912 27.3011 63.5732C27.3013 63.7531 27.3015 63.933 27.3018 64.1183C27.3027 64.6955 27.3047 65.2727 27.3068 65.8498C27.3076 66.24 27.3083 66.6303 27.309 67.0205C27.3108 67.9794 27.3135 68.9383 27.3169 69.8972C28.0358 69.9093 28.7546 69.9181 29.4735 69.9239C29.7176 69.9263 29.9617 69.9297 30.2059 69.9339C30.5584 69.9398 30.9109 69.9426 31.2635 69.9447C31.5809 69.9485 31.5809 69.9485 31.9048 69.9524C32.6795 69.8817 33.3269 69.6855 33.9293 69.1668C34.7027 68.1428 34.7324 67.2549 34.6204 66.002C34.4273 65.3083 34.0364 64.8514 33.4234 64.4804C32.6173 64.1208 31.7706 64.1233 30.8996 64.0988C30.4006 64.0544 30.4006 64.0544 29.9137 63.7298C29.7952 63.2366 29.7952 63.2366 29.721 62.6546C29.6953 62.4617 29.6695 62.2688 29.643 62.07C29.6252 61.9215 29.6074 61.773 29.5891 61.6199C29.2409 61.6156 28.8926 61.6124 28.5443 61.6098C28.2534 61.6069 28.2534 61.6069 27.9566 61.6041C27.4973 61.5649 27.4973 61.5649 27.3169 61.7822Z" fill="url(#paint0_linear_177_1229)"/>
<path d="M54.6098 6.08199C54.8075 6.08764 54.8075 6.08764 55.0092 6.0934C55.2081 6.09779 55.2081 6.09779 55.4111 6.10228C55.5636 6.10792 55.5636 6.10792 55.7192 6.11369C55.7192 6.2208 55.7192 6.32792 55.7192 6.43828C55.8029 6.39812 55.8866 6.35795 55.9728 6.31656C56.5887 6.2534 57.0098 6.58031 57.5045 6.92518C57.6116 7.0323 57.7188 7.13942 57.8291 7.24978C58.1511 7.36567 58.4756 7.47475 58.8029 7.57438C58.8029 7.68149 58.8029 7.78861 58.8029 7.89898C59.2314 7.89898 59.6599 7.89898 60.1013 7.89898C60.1013 7.79186 60.1013 7.68474 60.1013 7.57438C60.2084 7.53756 60.3155 7.50073 60.4259 7.4628C60.9597 7.22928 61.422 6.93898 61.9082 6.62024C62.2112 6.43828 62.2112 6.43828 62.6981 6.27599C62.8588 6.32954 63.0194 6.3831 63.185 6.43828C63.185 6.33117 63.185 6.22405 63.185 6.11369C64.379 6.05497 64.379 6.05497 64.808 6.29627C65.0533 6.75625 65.0422 7.06043 64.9703 7.57438C64.666 8.04099 64.666 8.04099 64.3211 8.38587C64.214 8.38587 64.1069 8.38587 63.9965 8.38587C63.953 8.50261 63.9095 8.61935 63.8646 8.73963C63.6712 9.199 63.4449 9.60428 63.185 10.0291C63.1013 10.1668 63.0176 10.3045 62.9314 10.4463C62.7504 10.7365 62.5632 11.0227 62.3735 11.3073C61.913 11.3505 61.4883 11.3637 61.0282 11.3548C60.8954 11.3541 60.7625 11.3534 60.6257 11.3527C60.2006 11.35 59.7757 11.3439 59.3507 11.3377C59.0629 11.3352 58.775 11.333 58.4872 11.331C57.7809 11.3257 57.0747 11.3172 56.3684 11.3073C56.2948 11.1651 56.2211 11.0229 56.1452 10.8764C56.0463 10.6884 55.9473 10.5005 55.8454 10.3068C55.6998 10.0283 55.6998 10.0283 55.5512 9.74409C55.2447 9.21857 54.9119 8.78191 54.5121 8.32501C53.8489 7.53732 53.8489 7.53732 53.8325 6.92518C53.9471 6.37534 54.0234 6.13491 54.6098 6.08199Z" fill="url(#paint1_linear_177_1229)"/>
<path d="M66.28 25.7099C66.4868 25.7089 66.6937 25.7078 66.9069 25.7068C67.1337 25.7074 67.3605 25.708 67.5872 25.7088C67.8189 25.7086 68.0505 25.7082 68.2822 25.7078C68.7679 25.7074 69.2536 25.7081 69.7393 25.7096C70.3626 25.7114 70.9858 25.7104 71.6091 25.7084C72.0875 25.7072 72.5659 25.7076 73.0443 25.7085C73.2741 25.7087 73.504 25.7084 73.7338 25.7076C74.0548 25.7068 74.3757 25.7083 74.6967 25.7099C74.9709 25.7103 74.9709 25.7103 75.2507 25.7107C75.6819 25.7519 75.6819 25.7519 76.0065 26.0765C76.0387 26.5428 76.0517 26.99 76.0471 27.456C76.0489 27.6471 76.0489 27.6471 76.0509 27.8421C76.0476 28.7945 76.0476 28.7945 75.6819 29.1602C75.2507 29.2014 75.2507 29.2014 74.6967 29.2022C74.3864 29.2037 74.3864 29.2037 74.0698 29.2053C73.843 29.2047 73.6162 29.204 73.3894 29.2033C73.1578 29.2035 72.9261 29.2038 72.6945 29.2042C72.2088 29.2047 71.7231 29.204 71.2374 29.2025C70.6141 29.2006 69.9908 29.2017 69.3675 29.2036C68.8891 29.2048 68.4108 29.2044 67.9324 29.2036C67.7025 29.2034 67.4727 29.2037 67.2428 29.2044C66.9219 29.2052 66.6009 29.2038 66.28 29.2022C66.0057 29.2018 66.0057 29.2018 65.7259 29.2014C65.2948 29.1602 65.2948 29.1602 64.9702 28.8356C64.9379 28.3692 64.925 27.922 64.9296 27.456C64.9283 27.3286 64.9271 27.2012 64.9258 27.0699C64.9298 25.8939 65.1326 25.7115 66.28 25.7099Z" fill="url(#paint2_linear_177_1229)"/>
<defs>
<linearGradient id="paint0_linear_177_1229" x1="39.5" y1="0" x2="39.5" y2="83.3134" gradientUnits="userSpaceOnUse">
<stop stop-color="#AB1AF9"/>
<stop offset="0.535" stop-color="#336AF1"/>
<stop offset="1" stop-color="#6BC52D"/>
</linearGradient>
<linearGradient id="paint1_linear_177_1229" x1="59.4239" y1="6.0813" x2="59.4239" y2="11.3574" gradientUnits="userSpaceOnUse">
<stop stop-color="#AB1AF9"/>
<stop offset="0.535" stop-color="#336AF1"/>
<stop offset="1" stop-color="#6BC52D"/>
</linearGradient>
<linearGradient id="paint2_linear_177_1229" x1="70.4883" y1="25.7068" x2="70.4883" y2="29.2053" gradientUnits="userSpaceOnUse">
<stop stop-color="#AB1AF9"/>
<stop offset="0.535" stop-color="#336AF1"/>
<stop offset="1" stop-color="#6BC52D"/>
</linearGradient>
</defs>
</svg>
