<svg width="82" height="77" viewBox="0 0 82 77" fill="none" xmlns="http://www.w3.org/2000/svg">
<path d="M73.5963 24.4592L70.6995 23.5591L71.0136 26.5762C71.0344 26.776 71.0453 26.9742 71.0453 27.171C71.0453 27.7371 70.9622 28.2838 70.8076 28.7996C70.4616 28.5444 70.1579 28.0833 69.9274 27.4087C69.7953 27.0222 69.7176 26.6483 69.6737 26.368C69.6521 26.2302 69.6397 26.1212 69.633 26.0524C69.6297 26.0181 69.6278 25.9943 69.627 25.9824C69.6268 25.9798 69.6266 25.9778 69.6265 25.9763L69.5304 24.0859H67.6295C66.0147 24.0859 65.1176 23.6495 64.5998 23.2292C64.0953 22.8197 63.7926 22.2953 63.6109 21.7932C64.1687 21.6094 64.7648 21.5099 65.3842 21.5099C66.2139 21.5099 67.0006 21.6932 67.7182 22.0194L70.4905 23.2799L70.5457 20.235C70.5508 19.9512 70.6776 19.2352 71.0268 18.656C71.3246 18.162 71.6719 17.9079 72.26 17.9079H72.3068L72.3362 17.9065C72.3437 17.9065 72.3589 17.9064 72.3807 17.9069C72.4338 17.9081 72.5217 17.9121 72.6319 17.9245C72.8631 17.9506 73.1333 18.0072 73.3743 18.1114C73.6084 18.2125 73.7595 18.3333 73.8557 18.467C73.9398 18.5839 74.0753 18.8371 74.0753 19.3835C74.0753 20.6007 74.1955 21.9805 74.5378 23.2827C74.6599 23.7472 74.8167 24.2265 75.0194 24.6977C74.5112 24.6671 74.0251 24.5924 73.5963 24.4592ZM69.6264 25.9738L69.6264 25.9738L69.6264 25.9738Z" stroke="white" stroke-width="4"/>
<path d="M76.7605 65.6026L76.7563 65.6035L70.4537 50.1837C69.8736 48.7642 68.2609 48.0993 66.8554 48.6658L66.8471 48.6692C65.4329 49.2466 64.754 50.8619 65.3324 52.2767C65.3325 52.2769 65.3325 52.2771 65.3326 52.2772L72.8594 70.6918L72.7912 74.2016H53.5499C53.0097 72.6741 52.1414 69.3884 52.1414 64.0324C52.1414 59.0864 53.0636 52.9126 53.8079 48.7529C54.4207 45.3289 53.9597 41.8032 52.4856 38.6523L44.1929 20.9257L45.2988 18.3946L53.9651 32.3878C53.9651 32.3879 53.9651 32.3879 53.9651 32.3879C55.4695 34.8172 57.8811 36.5456 60.665 37.1899C60.665 37.1899 60.665 37.1899 60.665 37.1899L66.0035 38.4256L66.0035 38.4256C68.4475 38.9912 70.4228 40.7849 71.221 43.1629L79.4984 67.8229L79.4982 67.8236L79.6706 68.3368C79.792 68.6987 79.6239 69.0947 79.2787 69.2587C78.8989 69.4386 78.4456 69.2735 78.2704 68.8918L78.2704 68.8917L76.7605 65.6026ZM66.751 51.6969L66.7516 51.6984L66.751 51.6969Z" stroke="white" stroke-width="4"/>
<path d="M41.3064 13.44L41.3064 13.4399C41.27 13.3105 41.1955 13.2208 41.1029 13.1682L41.1026 13.168C41.0292 13.1263 40.9555 13.1088 40.8828 13.1088C40.7184 13.1088 40.5676 13.1952 40.4868 13.3411C40.4866 13.3415 40.4864 13.3419 40.4861 13.3423L31.3462 30.0659C31.3462 30.0659 31.3462 30.066 31.3462 30.066C28.9874 34.3819 24.8353 37.3714 20.0499 38.3518L20.0498 38.3518C16.3354 39.1126 12.3932 40.9466 10.734 45.1735L10.734 45.1735C7.11436 54.3941 3.53378 64.0231 2.03903 68.3978C1.91715 68.7548 2.09301 69.1465 2.44984 69.2914L2.4507 69.2917C2.53957 69.3279 2.62986 69.3445 2.71935 69.3445C2.9719 69.3445 3.21078 69.212 3.34178 68.9863L3.35761 68.959L3.37429 68.9323L7.38802 62.4923L13.2718 48.672L13.2726 48.6702L14.6822 49.2703L15.1085 49.4519L15.1085 49.4519L41.3064 13.44ZM41.3064 13.44C41.3391 13.5558 41.3292 13.6562 41.2928 13.7396C41.2928 13.7397 41.2927 13.7398 41.2927 13.7399M41.3064 13.44L41.2927 13.7399M16.9529 50.2371C16.9529 50.2372 16.9528 50.2374 16.9527 50.2375L16.9529 50.2371ZM16.9529 50.2371L18.3625 50.8373M16.9529 50.2371L18.3626 50.8372L18.3625 50.8373M18.3625 50.8373L12.9908 63.455M18.3625 50.8373L12.9908 63.455M12.9908 63.455L12.831 63.8304L11.4213 63.2303L12.9908 63.455ZM12.9908 63.455V74.2012M12.9908 63.455L10.9908 74.669C10.9908 75.5152 11.6736 76.2012 12.5198 76.2012H27.4449C28.2803 76.2012 28.9608 75.5337 28.9742 74.6983M12.9908 74.2012H12.5198C12.7836 74.2012 12.9908 74.4161 12.9908 74.669V74.2012ZM12.9908 74.2012H26.9826M26.9826 74.2012C26.9796 74.3589 26.9769 74.514 26.9745 74.6663L27.4449 74.6739L28.9742 74.6983M26.9826 74.2012C27.0771 69.1779 27.4337 61.569 27.6355 57.4438C27.734 55.4295 28.2578 53.4279 29.2546 51.6185L29.2547 51.6183C30.0016 50.2629 30.4202 49.2563 30.5878 48.3421C30.7463 47.4782 30.6994 46.5899 30.32 45.4515L28.9742 74.6983M26.9826 74.2012H27.4449C27.192 74.2012 26.9786 74.406 26.9745 74.6662L27.4449 74.6738L28.9742 74.6983M41.2927 13.7399L39.2978 18.3059L39.2977 18.306L30.143 39.2584C30.0766 39.3761 30.008 39.5165 29.9431 39.6812C29.809 40.0216 29.6952 40.4535 29.6417 40.9889C29.5352 42.0562 29.6707 43.5035 30.32 45.4514L41.2927 13.7399Z" stroke="white" stroke-width="4"/>
<path d="M8.24224 30.0109L8.42329 27.0304L5.59817 27.9975C5.39265 28.0678 5.23984 28.0924 5.11657 28.0924C4.28972 28.0924 3.61949 27.422 3.61963 26.5951V26.5948C3.61963 26.2802 3.72205 25.9826 3.91251 25.7212L4.50852 24.9032L4.20231 23.9384C4.13733 23.7337 4.11728 23.5957 4.11728 23.4917C4.11728 22.9453 4.42112 22.4555 4.90763 22.1897L6.10437 21.5357L5.93267 20.1828C5.927 20.1381 5.92085 20.0939 5.91653 20.0627L5.91496 20.0514C5.90997 20.0153 5.90719 19.9946 5.90514 19.9775C5.90486 19.9751 5.90461 19.973 5.90439 19.9711C5.91603 19.2289 6.48223 18.6077 7.23695 18.5239L9.65934 18.2549L8.92266 15.9316C8.85717 15.7251 8.83713 15.5868 8.83713 15.4834C8.83713 14.7669 9.34346 14.1632 10.0228 14.02L11.2463 13.762L11.5502 12.5491C11.6493 12.1533 11.9998 11.8774 12.4007 11.8774C12.6778 11.8774 12.9344 12.0098 13.1078 12.2442L14.1593 13.6653L15.6988 12.7963C15.9458 12.6568 16.1874 12.5915 16.424 12.5915C16.6305 12.5915 16.844 12.6417 17.0685 12.7504L18.9041 13.6389L19.7567 11.7865C19.9029 11.469 20.2118 11.2661 20.5566 11.2661C21.0238 11.2661 21.4067 11.628 21.4401 12.0867C21.4383 12.117 21.4369 12.1504 21.4364 12.1863L21.4115 13.8786L23.0764 14.183C23.779 14.3114 24.3026 14.9234 24.3026 15.6494C24.3026 15.7288 24.2894 15.842 24.242 16.0243L23.6933 18.1331L25.8414 18.4994C26.2666 18.5719 26.5773 18.9377 26.5773 19.365C26.5773 19.6092 26.4797 19.8293 26.3119 19.9947L25.093 21.1961L26.0914 22.586C26.2048 22.7438 26.262 22.9171 26.262 23.0976C26.262 23.5725 25.882 23.9658 25.3967 23.9774L25.3548 23.9784C25.0161 23.1879 24.5562 22.4633 23.9994 21.8267L22.494 23.1434L23.9994 21.8266C23.2637 20.9856 22.3585 20.3 21.3368 19.8188L17.653 18.0836L18.5317 22.0597C18.5505 22.1448 18.556 22.206 18.556 22.2506C18.556 22.7018 18.2063 23.0861 17.7343 23.1209L15.8814 23.2576V25.1155C15.8814 25.1387 15.8818 25.1608 15.8825 25.1818C15.8644 25.5303 15.6372 25.8364 15.2966 25.9606L13.5436 26.5995L14.0594 28.3926C14.1013 28.5382 14.1063 28.6058 14.1063 28.6345C14.1063 29.0724 13.775 29.4495 13.3183 29.5007L12.4083 29.6027L12.2802 29.4668L12.1301 29.6339L9.20463 29.9618L10.558 31.3238C10.3136 31.4953 10.027 31.5897 9.72278 31.5897C8.92246 31.5897 8.26891 30.9619 8.22757 30.1719C8.23238 30.1319 8.23829 30.076 8.24224 30.0109ZM21.4612 11.8894L21.4608 11.8923C21.4612 11.8893 21.4615 11.888 21.4612 11.8894ZM25.4219 25.0289L23.7762 25.4982L4.22818 29.9785C2.72689 29.5854 1.61936 28.2194 1.61963 26.5948C1.61963 25.8258 1.87532 25.121 2.29604 24.5435C2.19006 24.2096 2.11728 23.8607 2.11728 23.4917C2.11728 22.167 2.86263 21.0281 3.94858 20.4346C3.94447 20.4023 3.94 20.37 3.93554 20.3378C3.91987 20.2247 3.90421 20.1117 3.90421 19.9944C3.90421 18.68 4.63226 17.544 5.70599 16.9516L7.01621 16.5361L6.8993 15.4834L6.85732 15.1054C7.01989 13.5934 8.1467 12.3716 9.61015 12.063C9.9242 10.8095 11.0498 9.8774 12.4007 9.8774C13.3525 9.8774 14.1898 10.3441 14.7156 11.0546C15.2228 10.7683 15.7999 10.5915 16.424 10.5915C16.916 10.5915 17.3787 10.7019 17.8023 10.8869L17.9399 10.9502L17.9891 10.8486C18.4655 9.91149 19.4332 9.26611 20.5566 9.26611C22.1504 9.26611 23.4425 10.5582 23.4425 12.1521C23.4425 12.1632 23.4409 12.1739 23.4393 12.1847C23.4378 12.1948 23.4363 12.205 23.4361 12.2156C25.0654 12.5135 26.3026 13.934 26.3026 15.6494C26.3026 15.7094 26.3006 15.7689 26.2969 15.8279L26.1775 16.5279L26.6561 16.6524C27.7748 17.0485 28.5773 18.1102 28.5773 19.365C28.5773 20.1695 28.247 20.8957 27.7158 21.4192C28.0561 21.8929 28.262 22.4697 28.262 23.0976C28.262 24.4059 27.3902 25.5066 26.1966 25.8593L25.9124 25.9037C25.8597 25.5775 25.7879 25.2596 25.7 24.9512C25.6998 24.9507 25.6997 24.9502 25.6995 24.9497L25.4219 25.0289Z" stroke="white" stroke-width="4"/>
<mask id="path-5-inside-1_1_4163" fill="white">
<path d="M41.1465 8.84469C41.9927 8.84469 42.6787 8.15871 42.6787 7.31248V1.53222C42.6787 0.686025 41.9927 0 41.1465 0C40.3002 0 39.6143 0.685984 39.6143 1.53222V7.31248C39.6143 8.15867 40.3002 8.84469 41.1465 8.84469Z"/>
</mask>
<path d="M41.1465 12.8447C44.2017 12.8447 46.6787 10.3679 46.6787 7.31248H38.6787C38.6787 5.9495 39.7836 4.84469 41.1465 4.84469V12.8447ZM46.6787 7.31248V1.53222H38.6787V7.31248H46.6787ZM46.6787 1.53222C46.6787 -1.52305 44.2019 -4 41.1465 -4V4C39.7835 4 38.6787 2.89509 38.6787 1.53222H46.6787ZM41.1465 -4C38.0911 -4 35.6143 -1.52316 35.6143 1.53222H43.6143C43.6143 2.89512 42.5094 4 41.1465 4V-4ZM35.6143 1.53222V7.31248H43.6143V1.53222H35.6143ZM35.6143 7.31248C35.6143 10.3677 38.091 12.8447 41.1465 12.8447V4.84469C42.5094 4.84469 43.6143 5.9496 43.6143 7.31248H35.6143Z" fill="white" mask="url(#path-5-inside-1_1_4163)"/>
<mask id="path-7-inside-2_1_4163" fill="white">
<path d="M45.3062 10.8883C45.6982 10.8883 46.0905 10.7386 46.3897 10.4395L50.4769 6.3523C51.0754 5.7541 51.0754 4.78372 50.4769 4.18546C49.879 3.58694 48.908 3.58694 48.31 4.18546L44.2228 8.27268C43.6243 8.87089 43.6243 9.84126 44.2228 10.4395C44.5219 10.7386 44.9142 10.8883 45.3062 10.8883Z"/>
</mask>
<path d="M46.3897 10.4395L49.218 13.268L49.2181 13.268L46.3897 10.4395ZM50.4769 6.3523L47.6492 3.52312L47.6484 3.52388L50.4769 6.3523ZM50.4769 4.18546L47.6469 7.01238L47.6491 7.01451L50.4769 4.18546ZM48.31 4.18546L51.1385 7.01389L51.1399 7.0125L48.31 4.18546ZM44.2228 8.27268L47.0505 11.1019L47.0512 11.1011L44.2228 8.27268ZM44.2228 10.4395L47.0512 7.6111L47.0506 7.61048L44.2228 10.4395ZM45.3062 14.8883C46.716 14.8883 48.1389 14.3471 49.218 13.268L43.5613 7.61106C44.0422 7.13015 44.6804 6.88834 45.3062 6.88834V14.8883ZM49.2181 13.268L53.3053 9.18073L47.6484 3.52388L43.5612 7.6111L49.2181 13.268ZM53.3046 9.18148C55.4662 7.02094 55.4661 3.51684 53.3047 1.35642L47.6491 7.01451C46.6847 6.0506 46.6845 4.48727 47.6492 3.52312L53.3046 9.18148ZM53.3068 1.35854C51.1464 -0.804149 47.6405 -0.803982 45.4802 1.35843L51.1399 7.0125C50.1754 7.97787 48.6116 7.97803 47.6469 7.01238L53.3068 1.35854ZM45.4816 1.35704L41.3944 5.44426L47.0512 11.1011L51.1385 7.01389L45.4816 1.35704ZM41.3951 5.4435C39.2334 7.60405 39.2336 11.1081 41.395 13.2686L47.0506 7.61048C48.015 8.57438 48.0151 10.1377 47.0505 11.1019L41.3951 5.4435ZM41.3944 13.268C42.4736 14.3471 43.8964 14.8883 45.3062 14.8883V6.88834C45.932 6.88834 46.5703 7.13015 47.0512 7.6111L41.3944 13.268Z" fill="white" mask="url(#path-7-inside-2_1_4163)"/>
<mask id="path-9-inside-3_1_4163" fill="white">
<path d="M35.6762 10.4399C35.975 10.7393 36.3677 10.8887 36.7597 10.8887C37.1517 10.8887 37.544 10.739 37.8431 10.4399C38.4416 9.84169 38.4416 8.87131 37.8431 8.27305L33.7559 4.18583C33.158 3.58731 32.187 3.58731 31.589 4.18583C30.9905 4.78403 30.9905 5.75441 31.589 6.35267L35.6762 10.4399Z"/>
</mask>
<path d="M35.6762 10.4399L38.5077 7.61452L38.5047 7.61146L35.6762 10.4399ZM37.8431 10.4399L35.0154 7.61071L35.0147 7.61142L37.8431 10.4399ZM37.8431 8.27305L35.0147 11.1015L35.0153 11.1021L37.8431 8.27305ZM33.7559 4.18583L30.9259 7.01275L30.9274 7.01426L33.7559 4.18583ZM31.589 4.18583L34.4167 7.01501L34.4188 7.01287L31.589 4.18583ZM31.589 6.35267L34.4175 3.52424L34.4168 3.52363L31.589 6.35267ZM32.8448 13.2653C33.927 14.3499 35.3531 14.8887 36.7597 14.8887V6.8887C37.3822 6.8887 38.023 7.12876 38.5077 7.61452L32.8448 13.2653ZM36.7597 14.8887C38.1695 14.8887 39.5923 14.3475 40.6715 13.2684L35.0147 7.61142C35.4956 7.13052 36.1338 6.8887 36.7597 6.8887V14.8887ZM40.6708 13.2691C42.8325 11.1085 42.8323 7.60443 40.6709 5.444L35.0153 11.1021C34.051 10.1382 34.0508 8.57485 35.0154 7.61071L40.6708 13.2691ZM40.6715 5.44462L36.5843 1.3574L30.9274 7.01426L35.0147 11.1015L40.6715 5.44462ZM36.5858 1.35891C34.4254 -0.803782 30.9195 -0.803616 28.7592 1.35879L34.4188 7.01287C33.4544 7.97823 31.8906 7.9784 30.9259 7.01275L36.5858 1.35891ZM28.7614 1.35665C26.5997 3.51719 26.5999 7.02129 28.7612 9.18172L34.4168 3.52363C35.3812 4.48753 35.3814 6.05087 34.4167 7.01501L28.7614 1.35665ZM28.7606 9.1811L32.8478 13.2683L38.5047 7.61146L34.4175 3.52424L28.7606 9.1811Z" fill="white" mask="url(#path-9-inside-3_1_4163)"/>
</svg>
