<svg width="93" height="93" viewBox="0 0 93 93" fill="none" xmlns="http://www.w3.org/2000/svg">
<path d="M15.394 0.269646C10.0626 1.43355 5.98893 6.50215 5.98893 12.0025C5.98893 14.9311 7.22793 18.0285 9.23659 20.1498L10.4005 21.3701L9.18028 21.7643C5.59471 22.9282 2.3095 26.0632 0.9391 29.63C0.0567876 31.9203 -0.055848 33.2344 0.0192424 39.786C0.0943329 45.5867 0.0943329 45.7181 0.563648 46.9384C1.27701 48.7781 1.95282 49.8293 3.22936 51.0683C4.28063 52.1008 6.58966 53.49 7.22793 53.49C7.43442 53.49 7.49074 56.5312 7.52829 71.0987L7.5846 88.6886L8.09146 89.6461C8.84237 91.0728 9.40555 91.6547 10.7196 92.3681C11.7709 92.9313 12.0525 92.9876 13.4041 93.0063C15.1312 93.0063 16.3514 92.5558 17.4027 91.5609L18.0034 90.9601L18.6229 91.5609C19.6554 92.5558 20.8756 93.0063 22.6027 93.0063C23.9543 92.9876 24.2359 92.9313 25.2872 92.3681C26.6013 91.6547 27.1832 91.054 27.8966 89.6461C28.3096 88.8388 28.4034 88.3695 28.4785 86.7175L28.5536 84.7464L34.8612 78.42L41.1688 72.0749L40.4367 71.324L39.7045 70.5731L41.6006 68.6583L43.4966 66.7622L44.6981 67.5319C47.101 69.09 50.6114 70.6106 52.958 71.1363L54.0468 71.3803L54.0844 75.3225L54.1407 79.2836L55.7927 79.6966C56.7125 79.9218 57.4822 80.1471 57.5198 80.1847C57.5761 80.2222 57.1818 80.9731 56.6562 81.8366L55.7176 83.4135L59.7349 87.4121L63.7335 91.4294L65.3104 90.4908C66.1739 89.9652 66.9248 89.571 66.9624 89.6273C66.9999 89.6648 67.2252 90.4345 67.4505 91.3544L67.8635 93.0063H73.5703H79.2772L79.6902 91.3544C79.9155 90.4345 80.1407 89.6648 80.1783 89.6273C80.2158 89.571 80.9667 89.9652 81.8303 90.4908L83.4072 91.4294L87.4057 87.4121L91.4231 83.4135L90.4845 81.8366C89.9588 80.9731 89.5646 80.2222 89.6209 80.1847C89.6585 80.1471 90.4281 79.9218 91.348 79.6966L93 79.2836V73.5767V67.8698L91.348 67.4568C90.4281 67.2316 89.6585 67.0063 89.6209 66.9687C89.5646 66.9312 89.9588 66.1803 90.4845 65.3167L91.4231 63.7586L88.2317 60.5485L85.0216 57.3384L85.7725 55.799C86.7487 53.8467 87.7061 50.8994 88.1379 48.5153C88.626 45.981 88.626 40.9687 88.1379 38.5658C86.9177 32.3708 84.1956 27.2647 79.8404 23.0596C75.6541 19.0235 70.9046 16.6018 65.0288 15.4379C62.6259 14.9686 57.6136 14.9874 55.0793 15.4567C51.2122 16.1701 47.176 17.8408 44.0598 19.9809L42.558 21.0134H34.298H26.0381L26.8641 20.0748C27.9904 18.7982 28.8352 17.3527 29.4172 15.7195C29.8301 14.5368 29.9052 14.0487 29.924 12.0964C29.924 10.2755 29.8489 9.59963 29.511 8.52959C27.615 2.55991 21.4763 -1.04443 15.394 0.269646ZM20.1623 3.27326C24.6114 4.43716 27.5399 8.73609 26.8828 13.204C26.3572 16.8459 23.729 19.7932 20.1623 20.7318C15.4503 21.952 10.5319 18.9672 9.27414 14.1614C7.60338 7.74115 13.742 1.6025 20.1623 3.27326ZM64.8974 18.4791C72.6129 19.9809 79.3523 25.1058 82.9191 32.2019C83.7263 33.8163 84.7588 36.8762 85.153 38.8098C85.6036 41.0625 85.6036 46.0185 85.153 48.2712C83.7826 55.1795 79.6714 61.2619 73.8519 64.9788C71.1862 66.7059 67.9386 68.0012 64.7848 68.6395C62.532 69.09 57.5761 69.09 55.3234 68.6395C42.1074 66.0113 33.1154 53.734 34.711 40.5369C36.119 28.9542 45.1861 19.7932 56.7688 18.2163C58.571 17.9722 63.0201 18.1036 64.8974 18.4791ZM14.568 24.9932C14.5117 25.5376 14.2301 28.3722 13.9485 31.3008L13.4229 36.6134L15.7131 38.9037L18.0034 41.1939L20.2937 38.9037L22.5839 36.6134L22.0583 31.3008C21.7767 28.3722 21.4951 25.5376 21.4388 24.9932L21.3262 24.017H30.2807H39.2352L38.1276 25.3686C37.5269 26.1195 36.7572 27.1333 36.4193 27.6213L35.8186 28.5224H32.9464C29.267 28.5224 28.4597 28.7477 27.0893 30.0993C25.5875 31.6011 25.5124 32.0329 25.5124 38.3217V43.5405H18.4727H11.4142L10.9637 43.0712L10.4944 42.6207V37.064V31.526H8.99255H7.49074V36.0315V40.5369H5.23803H2.98532V37.1015C2.98532 32.9903 3.15427 31.9203 4.11167 29.9116C5.10662 27.8654 6.75861 26.1946 8.86114 25.1621C10.5507 24.3361 11.6395 24.0733 13.4792 24.0358L14.6807 24.017L14.568 24.9932ZM18.3789 24.43C18.3976 24.674 18.6417 27.2271 18.9233 30.1181L19.4489 35.3744L18.7355 36.1253L18.0034 36.8762L17.2713 36.1253L16.5579 35.3744L17.0835 30.1181C17.3651 27.2271 17.6092 24.674 17.628 24.43C17.628 24.1484 17.7406 24.017 18.0034 24.017C18.2662 24.017 18.3789 24.1484 18.3789 24.43ZM34.0915 31.7513C32.5146 35.412 31.5197 39.7672 31.5197 42.9961V44.0662L30.8251 43.8033C30.4309 43.6719 29.7551 43.5593 29.3045 43.5405H28.4973L28.5536 38.2091L28.6099 32.8777L29.0792 32.3708C29.7551 31.6387 30.0742 31.5448 32.2518 31.5448C33.7349 31.526 34.1666 31.5824 34.0915 31.7513ZM8.05392 44.1037C8.31674 44.742 9.51818 45.8871 10.2691 46.225C10.6258 46.394 13.498 46.469 20.4814 46.5441L30.2056 46.638L30.8063 47.2575C31.332 47.7831 31.4258 47.9896 31.4258 48.7968C31.4258 49.6041 31.332 49.8106 30.8063 50.3362L30.2056 50.9557H19.4489H8.71096L7.49074 50.3737C5.72612 49.529 4.61853 48.4589 3.83008 46.8633C3.4734 46.1124 3.1355 45.0611 3.06041 44.5167L2.929 43.5405H5.36944H7.82865L8.05392 44.1037ZM33.6785 54.3348C34.467 56.1933 34.9551 57.1131 36.0814 58.8965L36.8323 60.098L34.9363 61.994L33.0215 63.89L32.2706 63.1579L31.5197 62.4258L30.0179 63.9088L28.5161 65.4106V59.7601V54.1095L29.6049 54.0156C30.6561 53.903 32.4771 53.1709 32.7399 52.7391C32.9089 52.4575 32.8525 52.3824 33.6785 54.3348ZM25.4749 71.1175C25.4186 88.0316 25.4186 88.2006 25.0244 88.7074C24.2922 89.7024 23.6915 90.0027 22.5088 90.0027C21.3262 90.0027 20.7254 89.7024 19.9933 88.7074C19.5991 88.2006 19.5991 87.9941 19.5428 74.1211L19.5052 60.0604H18.0034H16.5016L16.4641 74.1211C16.4077 87.9941 16.4077 88.2006 16.0135 88.7074C15.2814 89.7024 14.6807 90.0027 13.498 90.0027C12.3153 90.0027 11.7146 89.7024 10.9824 88.7074C10.5882 88.2006 10.5882 88.0316 10.5319 71.1175L10.4944 54.0532H18.0034H25.5124L25.4749 71.1175ZM85.5097 62.1442L87.6122 64.2279L86.6924 65.7673C86.1855 66.5933 85.7725 67.4193 85.7725 67.5695C85.7725 67.7196 85.9415 68.189 86.1292 68.602C86.4671 69.3529 86.4859 69.3716 88.2693 69.8034L90.0902 70.2352V73.5767V76.9182L88.3819 77.3312C87.4621 77.5565 86.5798 77.8756 86.4296 78.0258C86.2794 78.176 86.0541 78.6265 85.9415 79.0208C85.7162 79.7341 85.7538 79.8092 86.6548 81.3298L87.6122 82.9255L85.2281 85.272L82.8628 87.6186L81.361 86.6988C80.535 86.1919 79.7277 85.7789 79.5776 85.7789C79.4274 85.7789 78.9581 85.9478 78.5451 86.1356C77.7942 86.4735 77.7754 86.4923 77.3436 88.2756L76.9119 90.0966H73.5703H70.2288L69.8158 88.3883C69.5905 87.4684 69.2714 86.5861 69.1212 86.4359C68.971 86.2858 68.5205 86.0605 68.1263 85.9478C67.4129 85.7226 67.3378 85.7601 65.8172 86.6612L64.2216 87.6186L61.875 85.2345L59.5284 82.8691L60.4483 81.3673C60.9551 80.5413 61.3681 79.7341 61.3681 79.5839C61.3681 79.4337 61.1992 78.9644 61.0115 78.5514C60.6736 77.8005 60.6548 77.7818 58.8714 77.35L57.0504 76.9182V74.459V71.981H60.1104H63.1703L63.0952 73.0511C62.7573 77.6504 65.8548 82.0619 70.5667 83.6388C71.9934 84.1269 75.1472 84.1269 76.574 83.6388C80.0469 82.4749 82.4686 80.0345 83.6325 76.5803C84.1581 75.0222 84.1205 71.9998 83.5574 70.3478C82.9566 68.6395 81.9429 67.1377 80.4599 65.7673L79.2209 64.6222L80.2909 63.5709C80.8916 62.9702 81.7927 61.9564 82.2996 61.2806C82.8252 60.6236 83.2758 60.0792 83.3321 60.0792C83.3884 60.0604 84.3646 60.999 85.5097 62.1442ZM39.3103 66.6308L37.5269 68.4142L36.363 67.2316L35.1803 66.0676L36.9637 64.2843L38.7471 62.5009L39.911 63.6648L41.0937 64.8474L39.3103 66.6308ZM34.2417 69.4467L36.8699 72.0749L32.6836 76.2612L28.5161 80.4287V75.0785V69.7283L29.9616 68.2828C30.7688 67.4756 31.4634 66.8186 31.5197 66.8186C31.576 66.8186 32.7962 68.0012 34.2417 69.4467ZM77.7566 67.4005C78.9393 68.1702 79.709 69.1088 80.4036 70.5731C80.9292 71.6807 80.9855 71.9622 80.9855 73.5955C80.9855 75.285 80.948 75.454 80.2909 76.8056C79.4462 78.5139 78.3574 79.5652 76.6115 80.3912C75.4664 80.9356 75.1848 80.9919 73.5703 80.9919C71.9559 80.9919 71.6743 80.9356 70.5292 80.3912C68.8209 79.5839 67.6945 78.4951 66.8873 76.8807C66.1364 75.3413 65.8736 73.4641 66.2302 72.1312C66.418 71.4178 66.5306 71.324 67.244 71.1175C69.8909 70.4229 73.4577 68.846 75.5039 67.4756C76.0483 67.1189 76.574 66.8186 76.6866 66.8186C76.7992 66.8186 77.2685 67.0814 77.7566 67.4005Z" fill="url(#paint0_linear_217_3)"/>
<path d="M57.8012 21.1072C57.651 21.1448 56.8813 21.2762 56.1116 21.3888C49.391 22.4776 43.0834 27.1896 39.9296 33.4971C38.2589 36.8199 37.6394 39.5044 37.6206 43.4466C37.6206 46.5066 37.8271 47.9333 38.6719 50.5239C40.4928 56.1557 44.6603 60.9803 50.0668 63.7023C51.6625 64.5095 54.1217 65.3355 56.0178 65.7109C57.9513 66.1052 62.5694 66.0489 64.5593 65.6171C71.355 64.1528 77.0994 59.7225 80.2157 53.5275C81.7926 50.3737 82.4871 47.3513 82.4871 43.5405C82.4871 40.5932 82.2619 39.1102 81.4359 36.5571C79.6337 30.9816 75.4474 26.1007 70.1911 23.4538C67.0561 21.8769 64.4279 21.2199 60.7109 21.1072C59.2654 21.0697 57.9513 21.0697 57.8012 21.1072ZM62.7947 24.2235C65.6669 24.6177 69.0084 25.9506 71.4113 27.6776C72.6878 28.5787 75.2597 31.1881 76.142 32.4647C80.0655 38.1903 80.6287 45.7557 77.5687 51.9506L76.6676 53.7716L76.6113 44.8921L76.5738 36.0315H72.0683H67.5629V39.0351V42.0387H66.0611H64.5593V34.5296V27.0206H60.0539H55.5484V37.5333V48.0459H54.0466H52.5448V43.5405V39.0351H48.0394H43.534L43.4964 46.3939L43.4401 53.7716L42.7455 52.4199C39.8545 46.8632 39.817 40.443 42.6329 34.8112C43.6842 32.7087 44.7354 31.3008 46.5564 29.5549C48.3961 27.7903 49.2972 27.1332 51.3434 26.1195C54.9102 24.3173 58.8524 23.6791 62.7947 24.2235ZM61.5557 46.5441V63.064H60.0539H58.5521V46.5441V30.0242H60.0539H61.5557V46.5441ZM73.5702 48.29V57.5449L72.9694 58.108C72.1998 58.8214 70.8294 59.8727 70.6792 59.8727C70.6229 59.8727 70.5665 55.1795 70.5665 49.4539V39.0351H72.0683H73.5702V48.29ZM49.5412 50.9744V59.8914L48.978 59.5535C48.6589 59.3658 47.9831 58.8589 47.4762 58.4084L46.5376 57.5824V49.8105V42.0387H48.0394H49.5412V50.9744ZM67.5254 53.3398L67.4691 61.6185L66.5304 61.9377C66.0236 62.1066 65.3665 62.3131 65.0849 62.3882L64.5593 62.5008V53.7716V45.0423H66.0611H67.5629L67.5254 53.3398ZM55.5484 56.7752V62.5008L55.0416 62.3882C54.7412 62.3131 54.103 62.1066 53.5773 61.9377L52.6387 61.6185L52.5824 56.3434L52.5448 51.0495H54.0466H55.5484V56.7752Z" fill="url(#paint1_linear_217_3)"/>
<path d="M77.8127 0.194541C76.6301 0.47613 74.9405 1.47108 74.1145 2.37216C73.7015 2.82271 73.082 3.76134 72.7629 4.45592L72.1622 5.71369L72.1059 10.3693L72.0308 15.0249L79.7088 14.9686L87.3868 14.9123L88.8135 14.2177C90.5218 13.3729 91.573 12.2841 92.399 10.5382C92.9434 9.39312 92.9998 9.11153 92.9998 7.49709C92.9998 5.88264 92.9434 5.60105 92.399 4.45592C91.573 2.71007 90.5218 1.62126 88.8135 0.776492L87.3868 0.0819054L82.9752 0.0443602C80.5348 0.0255871 78.2257 0.100677 77.8127 0.194541ZM86.9738 3.21693C88.5882 3.70502 90.09 5.77001 90.09 7.49709C90.09 9.22417 88.5882 11.2892 86.9738 11.7772C86.4481 11.9274 84.4582 12.0025 80.6286 12.0025H75.0719V9.44944C75.0719 7.98517 75.1658 6.55846 75.2972 6.10791C75.5788 5.15051 77.1557 3.53607 78.0755 3.2357C79.0142 2.93534 85.9788 2.93534 86.9738 3.21693Z" fill="url(#paint2_linear_217_3)"/>
<path d="M78.0757 7.49709V8.9989H79.5775H81.0793V7.49709V5.99528H79.5775H78.0757V7.49709Z" fill="url(#paint3_linear_217_3)"/>
<path d="M84.083 7.49709V8.9989H85.5848H87.0866V7.49709V5.99528H85.5848H84.083V7.49709Z" fill="url(#paint4_linear_217_3)"/>
<defs>
<linearGradient id="paint0_linear_217_3" x1="47.4929" y1="11.0871" x2="47.4929" y2="79.7615" gradientUnits="userSpaceOnUse">
<stop stop-color="#67BD35"/>
<stop offset="0.483917" stop-color="#215EC7"/>
<stop offset="1" stop-color="#821AC8"/>
</linearGradient>
<linearGradient id="paint1_linear_217_3" x1="60.5329" y1="26.4312" x2="60.5329" y2="59.5826" gradientUnits="userSpaceOnUse">
<stop stop-color="#67BD35"/>
<stop offset="0.483917" stop-color="#215EC7"/>
<stop offset="1" stop-color="#821AC8"/>
</linearGradient>
<linearGradient id="paint2_linear_217_3" x1="82.7391" y1="1.82762" x2="82.7391" y2="12.8911" gradientUnits="userSpaceOnUse">
<stop stop-color="#67BD35"/>
<stop offset="0.483917" stop-color="#215EC7"/>
<stop offset="1" stop-color="#821AC8"/>
</linearGradient>
<linearGradient id="paint3_linear_217_3" x1="79.6096" y1="6.35334" x2="79.6096" y2="8.57116" gradientUnits="userSpaceOnUse">
<stop stop-color="#67BD35"/>
<stop offset="0.483917" stop-color="#215EC7"/>
<stop offset="1" stop-color="#821AC8"/>
</linearGradient>
<linearGradient id="paint4_linear_217_3" x1="85.6169" y1="6.35334" x2="85.6169" y2="8.57116" gradientUnits="userSpaceOnUse">
<stop stop-color="#67BD35"/>
<stop offset="0.483917" stop-color="#215EC7"/>
<stop offset="1" stop-color="#821AC8"/>
</linearGradient>
</defs>
</svg>
