<svg width="106" height="98" viewBox="0 0 106 98" fill="none" xmlns="http://www.w3.org/2000/svg">
<path d="M51.8853 0.620629L51.2646 1.24128L51.3474 3.39285C51.4302 5.91681 51.6784 6.41333 52.9611 6.41333C54.2438 6.41333 54.492 5.91681 54.5748 3.39285L54.6575 1.24128L54.0369 0.620629C53.6852 0.289618 53.2093 -1.71661e-05 52.9611 -1.71661e-05C52.7128 -1.71661e-05 52.237 0.289618 51.8853 0.620629Z" fill="url(#paint0_linear_217_19)"/>
<path d="M43.155 2.29621C42.3895 2.89617 42.4516 3.74439 43.4239 5.85459C44.4583 8.1096 45.2238 8.56474 46.4237 7.63377C47.1478 7.0545 47.1271 6.41317 46.2375 4.30297C45.2031 1.86176 44.3756 1.32387 43.155 2.29621Z" fill="url(#paint1_linear_217_19)"/>
<path d="M60.8441 2.21346C60.3268 2.6686 58.9614 5.8339 58.9614 6.62005C58.9614 7.01313 59.1476 7.36483 59.4993 7.63377C60.6992 8.56474 61.4647 8.1096 62.4991 5.85459C63.4715 3.74439 63.5335 2.89617 62.7681 2.29621C62.0853 1.75832 61.4233 1.73763 60.8441 2.21346Z" fill="url(#paint2_linear_217_19)"/>
<path d="M35.9979 7.3031C35.3979 7.61342 35.0669 8.42026 35.2324 9.14435C35.3152 9.4133 36.0807 10.2615 36.9289 11.027C38.2115 12.1441 38.646 12.4131 39.2046 12.4131C40.3424 12.4131 41.0872 11.1511 40.5493 10.1581C40.239 9.53742 37.5702 7.28241 37.0116 7.15828C36.7427 7.07553 36.2875 7.15828 35.9979 7.3031Z" fill="url(#paint3_linear_217_19)"/>
<path d="M68.5812 7.24097C68.3536 7.32372 67.4847 8.04781 66.6779 8.83396C65.0228 10.3856 64.8367 10.9028 65.6021 11.8751C66.3055 12.7647 67.1951 12.6199 68.6226 11.3579C70.4018 9.80631 70.7535 9.35117 70.7535 8.70984C70.7535 7.59267 69.5743 6.80652 68.5812 7.24097Z" fill="url(#paint4_linear_217_19)"/>
<path d="M46.0313 14.2749C45.4727 14.5024 44.6452 14.9576 44.2314 15.3093C43.2384 16.1368 42.204 18.2056 42.204 19.3849C42.204 20.2331 42.1626 20.2745 41.6247 20.2745C40.4041 20.2745 38.9352 20.8951 37.8594 21.8468C36.6181 22.9846 35.9975 24.1018 35.8113 25.5293L35.6872 26.543L34.3838 26.8119C33.6597 26.9567 32.7494 27.2671 32.3564 27.4946C31.715 27.867 31.5288 27.8877 30.5772 27.7015C27.3291 26.9981 23.3156 29.1083 21.7226 32.3564C21.0192 33.7839 21.0399 33.6804 19.84 43.1349L18.9918 49.962L9.49589 59.4786C1.26198 67.7332 0 69.078 0 69.6158C0 70.1537 1.7585 71.995 13.8197 84.0562C21.4123 91.6488 27.8257 97.9173 28.0532 97.9794C28.3015 98.0415 28.7773 97.9587 29.0876 97.7932C29.4186 97.607 33.3908 93.759 37.9215 89.2283C45.4313 81.6978 46.1347 80.9116 46.1347 80.291C46.1347 79.7117 45.8865 79.3393 44.5831 77.9946L43.0315 76.4016L44.0038 75.4913C45.5968 74.0018 47.5208 72.7398 50.2103 71.395C51.5964 70.6916 52.817 70.1331 52.9205 70.1331C53.2928 70.1331 56.1478 71.5192 57.7615 72.4708C59.4993 73.4845 60.7613 74.4155 62.0853 75.6154L62.9336 76.3809L61.3613 77.9946C60.0372 79.3393 59.7889 79.7117 59.7889 80.291C59.7889 80.9116 60.4923 81.6978 68.0229 89.2283C72.5329 93.759 76.505 97.607 76.836 97.7932C77.1464 97.9587 77.6222 98.0415 77.8705 97.9794C78.098 97.9173 84.5114 91.6488 92.1246 84.0562C104.082 72.0571 105.924 70.1537 105.924 69.6158C105.924 69.1193 105.282 68.3746 101.848 64.9196C97.8139 60.8647 97.7311 60.8027 96.945 60.8647C96.345 60.9061 96.0347 61.0716 95.7244 61.4854C95.2072 62.1681 95.352 62.8301 96.2416 63.8438L96.8829 64.5886L84.6562 76.8153L72.4088 89.0628L68.0229 84.6562L63.6163 80.2703L75.8637 68.0229L88.1318 55.7547L89.4145 57.0374C90.1386 57.7201 90.9247 58.4028 91.173 58.527C92.166 59.0442 93.3039 58.2373 93.3039 57.0167C93.3039 56.5202 92.8487 55.9409 90.6558 53.7066C88.8766 51.886 86.9939 49.6517 84.9665 46.9416L81.946 42.8867L82.4632 41.8936C83.0632 40.673 83.1459 38.6663 82.608 37.1147C82.1115 35.6458 80.291 33.8666 78.8221 33.4322C78.2015 33.246 77.4981 33.1012 77.2498 33.1012C76.8567 33.1012 76.7533 32.9563 76.6498 32.315C76.4223 30.9082 75.8637 29.729 75.0362 28.8187C73.919 27.6188 73.0708 27.1223 71.5399 26.8119L70.2365 26.543L70.1124 25.5293C69.9262 24.1018 69.3055 22.9846 68.0642 21.8468C66.9884 20.8951 65.5196 20.2745 64.3197 20.2745C63.8025 20.2745 63.7611 20.2124 63.6783 19.178C63.4301 16.2609 60.844 14.0059 57.7201 13.9852C56.0858 13.9852 55.0927 14.2956 53.8514 15.2472L52.9205 15.9713L52.3619 15.4541C50.8103 13.9852 48.038 13.468 46.0313 14.2749ZM49.3 17.254C49.6724 17.3988 50.1275 17.7091 50.3137 17.9367C50.6654 18.3091 50.6034 18.3918 48.5966 20.3779L46.5278 22.4467L46.0313 21.8674C44.0659 19.6124 46.5485 16.0954 49.3 17.254ZM58.7545 17.4195C59.8924 18.0194 60.4303 18.7435 60.5544 19.8814C60.6372 20.6468 60.5544 20.9365 60.0165 21.7226C59.189 22.9225 59.1683 23.8121 59.9338 24.4121C60.5958 24.9293 61.4854 24.8465 62.1681 24.2052C63.5749 22.8812 65.7885 23.4398 66.8023 25.3844C67.216 26.1706 67.0712 27.1843 66.4092 28.1567C66.0782 28.6532 65.7885 29.1497 65.7885 29.2738C65.7885 29.398 63.0784 29.4807 58.0925 29.4807H50.3758L49.2793 30.0807C47.314 31.1771 46.2382 33.0391 46.2382 35.3769C46.2382 38.1904 47.7484 40.1558 50.5413 40.9834C56.934 42.8246 59.7476 43.7349 60.4717 44.19C60.9475 44.5004 62.9542 46.3209 64.8989 48.2656L68.478 51.8033L65.9954 54.3273C63.8232 56.5202 63.5128 56.9133 63.5128 57.5132C63.5128 58.4235 64.1955 59.1683 65.0438 59.1683C65.5816 59.1683 66.1609 58.6718 69.078 55.7754C72.3674 52.486 72.4708 52.3619 72.326 51.6792C72.1398 50.6654 63.5128 42.1419 61.7543 41.2316C61.0716 40.8799 58.4235 39.9696 55.8582 39.2042C53.2928 38.4594 50.9965 37.6939 50.7275 37.5284C49.5483 36.763 49.0311 34.5493 49.8172 33.5977C50.5206 32.7081 50.7896 32.6874 58.0098 32.6874C64.9196 32.6874 64.961 32.6874 66.3264 33.2046C68.4366 34.0114 69.8641 35.17 74.8086 40.1765C78.6152 44.0245 79.7324 45.3072 81.5736 47.8932C82.7942 49.6103 84.2424 51.555 84.8217 52.2377L85.8561 53.479L75.5327 63.8025L65.1886 74.1466L63.5542 72.5743C61.6923 70.7951 59.9131 69.5331 58.0098 68.6435L56.6857 68.0229L58.9614 65.8299C60.9475 63.9059 61.2371 63.5335 61.2371 62.9336C61.2371 62.044 60.6165 61.444 59.6648 61.444C59.0235 61.444 58.6925 61.6716 57.2443 63.0577C54.679 65.4782 54.079 65.892 49.9 68.0435C45.6589 70.2158 43.5487 71.5605 41.8316 73.1122L40.7351 74.1259L33.7425 67.1746C27.1429 60.5751 26.7292 60.2027 26.0258 60.2027C25.4465 60.2027 25.1569 60.3268 24.8465 60.7406C23.9156 61.9198 23.7501 61.713 33.3494 71.3123L42.3074 80.2703L37.9008 84.6769L33.5149 89.0628L21.2675 76.7947L8.99937 64.5472L13.3853 60.1613L17.7712 55.7754L18.8056 56.7478C19.9641 57.8236 20.7089 57.9891 21.5364 57.327C21.8674 57.0581 22.0123 56.7271 22.0123 56.1892C22.0123 55.5686 21.8468 55.2582 21.0399 54.4514L20.0676 53.4584L20.8744 52.6722C21.3296 52.2171 21.7847 51.6171 21.9088 51.3275C22.0123 51.0378 22.364 48.7828 22.6536 46.3416C22.9639 43.9004 23.2329 41.873 23.2742 41.8316C23.2949 41.7902 23.5225 42.0798 23.7708 42.4729C23.9983 42.8453 24.7431 43.6935 25.4258 44.3349C27.536 46.3623 25.9637 47.5829 42.1005 31.4461C49.8379 23.7294 56.3961 17.2954 56.6857 17.1919C57.4719 16.8816 57.7615 16.923 58.7545 17.4195ZM42.6384 23.5846C43.0315 23.7087 43.5694 23.9983 43.8176 24.2673L44.2728 24.7431L42.204 26.7912C40.4041 28.5704 40.1145 28.798 39.8248 28.5497C39.1835 28.0118 38.8525 27.0809 38.9559 26.1292C39.08 24.95 39.5766 24.2466 40.611 23.7708C41.6247 23.3156 41.6661 23.3156 42.6384 23.5846ZM37.2181 30.5772L37.9008 31.0944L35.8734 33.1218C34.7562 34.2597 33.7425 35.1493 33.6184 35.1079C33.1839 34.9631 32.4805 33.639 32.4805 32.9563C32.4805 32.1288 32.8943 31.0323 33.3701 30.6393C33.9287 30.1841 35.232 29.8117 35.8941 29.9359C36.2458 29.9979 36.825 30.2876 37.2181 30.5772ZM72.0778 30.3703C72.4088 30.5565 72.8432 31.053 73.0501 31.4461C73.4225 32.1288 73.588 33.5149 73.319 33.7839C73.257 33.8459 72.6363 33.4529 71.9743 32.8943C71.2916 32.3357 70.3193 31.6323 69.7607 31.322C68.478 30.5772 68.5194 30.6186 68.9952 30.3496C70.0089 29.7497 71.002 29.7497 72.0778 30.3703ZM29.5221 31.1771C29.46 31.384 29.3566 31.8805 29.2945 32.2943C29.1704 32.9977 29.1083 33.0598 28.2187 33.1839C26.9154 33.3494 25.6948 33.9287 24.7638 34.7976C23.8742 35.6458 23.8121 35.4803 24.4948 34.0321C25.3844 32.1702 27.1636 30.8461 28.8187 30.8254C29.4807 30.8254 29.6048 30.8875 29.5221 31.1771ZM78.7187 36.9078C79.5462 37.4664 80.2289 39.7007 79.7117 40.2179C79.5669 40.3627 75.9258 36.8664 75.9258 36.5768C75.9258 36.1216 77.8705 36.3492 78.7187 36.9078ZM30.391 36.7009C31.6116 37.3422 31.5702 37.425 29.3773 39.6179C27.5774 41.3971 27.2878 41.6247 26.9981 41.3764C26.0878 40.611 25.7982 38.9766 26.3775 37.8387C27.0395 36.5768 29.0256 35.9975 30.391 36.7009ZM19.1366 79.029L31.3426 91.235L29.8945 92.6832L28.4463 94.1314L16.1989 81.884L3.93076 69.6158L5.31687 68.2297C6.08234 67.4436 6.76505 66.8229 6.82711 66.8229C6.88918 66.8229 12.4129 72.3053 19.1366 79.029ZM100.607 68.2297L101.993 69.6158L89.7248 81.884L77.4774 94.1314L76.0292 92.6832L74.581 91.235L86.7871 79.029C93.5107 72.3053 99.0345 66.8229 99.0966 66.8229C99.1586 66.8229 99.8413 67.4436 100.607 68.2297Z" fill="url(#paint5_linear_217_19)"/>
<path d="M32.3765 79.1322C31.6317 79.8563 31.6524 81.1183 32.3972 81.6976C33.3488 82.4424 34.5694 82.2562 35.0659 81.2838C35.5211 80.4149 35.4383 79.8977 34.7763 79.215C33.9902 78.4495 33.0799 78.4082 32.3765 79.1322Z" fill="url(#paint6_linear_217_19)"/>
<defs>
<linearGradient id="paint0_linear_217_19" x1="52.9611" y1="-1.71661e-05" x2="52.9611" y2="6.41333" gradientUnits="userSpaceOnUse">
<stop stop-color="#6AC32D"/>
<stop offset="0.535" stop-color="#2D54C8"/>
<stop offset="1" stop-color="#821AC8"/>
</linearGradient>
<linearGradient id="paint1_linear_217_19" x1="44.785" y1="1.83904" x2="44.785" y2="8.08813" gradientUnits="userSpaceOnUse">
<stop stop-color="#6AC32D"/>
<stop offset="0.535" stop-color="#2D54C8"/>
<stop offset="1" stop-color="#821AC8"/>
</linearGradient>
<linearGradient id="paint2_linear_217_19" x1="61.1263" y1="1.8737" x2="61.1263" y2="8.08813" gradientUnits="userSpaceOnUse">
<stop stop-color="#6AC32D"/>
<stop offset="0.535" stop-color="#2D54C8"/>
<stop offset="1" stop-color="#821AC8"/>
</linearGradient>
<linearGradient id="paint3_linear_217_19" x1="37.9588" y1="7.12541" x2="37.9588" y2="12.4131" gradientUnits="userSpaceOnUse">
<stop stop-color="#6AC32D"/>
<stop offset="0.535" stop-color="#2D54C8"/>
<stop offset="1" stop-color="#821AC8"/>
</linearGradient>
<linearGradient id="paint4_linear_217_19" x1="67.9615" y1="7.11942" x2="67.9615" y2="12.4425" gradientUnits="userSpaceOnUse">
<stop stop-color="#6AC32D"/>
<stop offset="0.535" stop-color="#2D54C8"/>
<stop offset="1" stop-color="#821AC8"/>
</linearGradient>
<linearGradient id="paint5_linear_217_19" x1="52.9618" y1="13.8949" x2="52.9618" y2="98" gradientUnits="userSpaceOnUse">
<stop stop-color="#6AC32D"/>
<stop offset="0.535" stop-color="#2D54C8"/>
<stop offset="1" stop-color="#821AC8"/>
</linearGradient>
<linearGradient id="paint6_linear_217_19" x1="33.5899" y1="78.6141" x2="33.5899" y2="82.1542" gradientUnits="userSpaceOnUse">
<stop stop-color="#6AC32D"/>
<stop offset="0.535" stop-color="#2D54C8"/>
<stop offset="1" stop-color="#821AC8"/>
</linearGradient>
</defs>
</svg>
