<svg width="50" height="50" viewBox="0 0 50 50" fill="none" xmlns="http://www.w3.org/2000/svg">
<g clip-path="url(#clip0_176_14)">
<path d="M39.3365 0H10.6635C4.77423 0 0 4.77423 0 10.6635V39.3365C0 45.2258 4.77423 50 10.6635 50H39.3365C45.2258 50 50 45.2258 50 39.3365V10.6635C50 4.77423 45.2258 0 39.3365 0Z" fill="#0A93E2"/>
<path fill-rule="evenodd" clip-rule="evenodd" d="M40.208 17.4162C39.1118 17.9015 37.9491 18.22 36.7585 18.361C38.0036 17.6139 38.9557 16.4348 39.3951 15.0359C38.2173 15.734 36.9296 16.2268 35.5867 16.4934C34.7638 15.6101 33.6939 14.9952 32.5164 14.7291C31.3388 14.4629 30.1085 14.5578 28.9857 15.0014C27.8629 15.445 26.8999 16.2166 26.2222 17.2157C25.5446 18.2148 25.1837 19.3949 25.1868 20.6021C25.1853 21.063 25.237 21.5225 25.3406 21.9716C22.9517 21.8518 20.6146 21.2311 18.4811 20.1499C16.3475 19.0686 14.4651 17.5508 12.956 15.6951C12.184 17.0179 11.9466 18.5858 12.2924 20.0779C12.6382 21.57 13.541 22.8736 14.8162 23.722C13.8608 23.6921 12.9265 23.4334 12.0917 22.9677V23.0409C12.0917 25.9558 14.1644 28.3873 16.9108 28.9366C16.0273 29.1777 15.1002 29.2128 14.201 29.0392C14.5851 30.2325 15.3321 31.2761 16.3378 32.0245C17.3435 32.7729 18.5577 33.1886 19.8111 33.2138C18.5645 34.1936 17.1368 34.918 15.6099 35.3453C14.083 35.7725 12.4867 35.8944 10.9126 35.7039C13.5712 37.4103 16.7277 38.399 20.126 38.399C31.185 38.399 37.2272 29.2442 37.2272 21.2978C37.2272 21.0415 37.2272 20.7852 37.2126 20.5215C38.3844 19.6793 39.4097 18.6173 40.2154 17.4162H40.208Z" fill="white"/>
</g>
<defs>
<clipPath id="clip0_176_14">
<rect width="50" height="50" fill="white"/>
</clipPath>
</defs>
</svg>
