<svg width="74" height="82" viewBox="0 0 74 82" fill="none" xmlns="http://www.w3.org/2000/svg">
<mask id="path-1-inside-1_1_2065" fill="white">
<path d="M63.3717 64.0525C63.763 64.6362 63.6065 65.4261 63.0228 65.8173C59.665 68.0651 56.058 69.8246 52.301 71.1317L55.7749 76.9214C56.1363 77.5237 55.9413 78.3049 55.339 78.6663C55.134 78.7892 54.908 78.8476 54.6857 78.8476C54.2535 78.8476 53.8325 78.6278 53.594 78.2304L49.8139 71.9301C46.0395 73.0107 42.1282 73.6072 38.1519 73.7138V80.1193C38.1519 80.8223 37.5825 81.3911 36.8802 81.3911C36.1779 81.3911 35.6084 80.8223 35.6084 80.1193V73.7138C31.6322 73.6072 27.7209 73.0106 23.9465 71.93L20.1663 78.2304C19.9278 78.6278 19.5068 78.8476 19.0746 78.8476C18.8517 78.8476 18.6263 78.7892 18.4214 78.6663C17.819 78.3049 17.6241 77.5237 17.9855 76.9214L21.4594 71.1316C17.7026 69.8245 14.0959 68.065 10.7382 65.8173C10.1545 65.4261 9.99799 64.6362 10.3886 64.0525C10.7798 63.4688 11.5703 63.3135 12.1527 63.7035C19.495 68.6191 28.0457 71.2172 36.8802 71.2172C45.7152 71.2172 54.2659 68.6191 61.607 63.7035C62.1894 63.3135 62.9793 63.4688 63.3717 64.0525ZM12.1527 17.6876C19.495 12.772 28.0457 10.1739 36.8802 10.1739C45.7152 10.1739 54.2659 12.772 61.607 17.6876C61.8243 17.8329 62.0702 17.9024 62.3136 17.9024C62.7235 17.9024 63.1258 17.7049 63.3717 17.3386C63.763 16.7549 63.6065 15.965 63.0228 15.5738C59.665 13.326 56.0581 11.5665 52.3011 10.2593L55.7749 4.4697C56.1363 3.86737 55.9413 3.08619 55.339 2.72479C54.7354 2.36339 53.9542 2.55837 53.594 3.16071L49.8139 9.46094C46.0395 8.38038 42.1283 7.78379 38.1519 7.67714V1.27174C38.1519 0.568803 37.5825 0 36.8802 0C36.1779 0 35.6084 0.568803 35.6084 1.27174V7.67714C31.6322 7.78379 27.7209 8.38046 23.9465 9.46109L20.1663 3.16071C19.8049 2.55837 19.0237 2.36339 18.4214 2.72479C17.819 3.08619 17.6241 3.86737 17.9855 4.4697L21.4593 10.2595C17.7025 11.5666 14.0958 13.3261 10.7382 15.5738C10.1545 15.965 9.99799 16.7549 10.3886 17.3386C10.7792 17.9223 11.5684 18.0775 12.1527 17.6876ZM47.054 40.6955C47.054 41.3985 47.6229 41.9673 48.3258 41.9673H50.8048C50.1974 48.6668 44.8514 54.0128 38.1519 54.6202V52.1411C38.1519 51.4382 37.5825 50.8694 36.8802 50.8694C36.1779 50.8694 35.6084 51.4382 35.6084 52.1411V54.6202C28.9089 54.0128 23.5629 48.6668 22.9555 41.9673H25.4345C26.1369 41.9673 26.7063 41.3985 26.7063 40.6955C26.7063 39.9926 26.1369 39.4238 25.4345 39.4238H22.9555C23.5629 32.7243 28.9089 27.3782 35.6084 26.7709V29.2499C35.6084 29.9528 36.1779 30.5216 36.8802 30.5216C37.5825 30.5216 38.1519 29.9528 38.1519 29.2499V26.7709C44.8514 27.3782 50.1974 32.7243 50.8048 39.4238H48.3258C47.6229 39.4238 47.054 39.9926 47.054 40.6955ZM41.9671 40.6955C41.9671 37.89 39.6857 35.6086 36.8802 35.6086C34.0753 35.6086 31.7932 37.89 31.7932 40.6955C31.7932 43.501 34.0753 45.7825 36.8802 45.7825C39.6857 45.7825 41.9671 43.501 41.9671 40.6955ZM73.6649 41.1799C67.4267 56.3364 52.988 66.1302 36.8802 66.1302C20.7723 66.1302 6.33368 56.3364 0.0954733 41.1799C-0.0318244 40.8694 -0.0318244 40.5217 0.0954733 40.2112C6.33368 25.0547 20.7723 15.2608 36.8802 15.2608C52.988 15.2608 67.4267 25.0547 73.6649 40.2112C73.7928 40.5217 73.7928 40.8694 73.6649 41.1799ZM57.2279 40.6955C57.2279 39.9926 56.6591 39.4238 55.9562 39.4238H53.3483C52.7271 31.3229 46.2528 24.8486 38.1519 24.2274V21.6195C38.1519 20.9166 37.5825 20.3478 36.8802 20.3478C36.1779 20.3478 35.6084 20.9166 35.6084 21.6195V24.2274C27.5071 24.8486 21.0332 31.3229 20.412 39.4238H17.8041C17.1018 39.4238 16.5324 39.9926 16.5324 40.6955C16.5324 41.3985 17.1018 41.9673 17.8041 41.9673H20.412C21.0332 50.0681 27.5071 56.5425 35.6084 57.1637V59.7716C35.6084 60.4745 36.1779 61.0433 36.8802 61.0433C37.5825 61.0433 38.1519 60.4745 38.1519 59.7716V57.1637C46.2528 56.5425 52.7271 50.0681 53.3483 41.9673H55.9562C56.6591 41.9673 57.2279 41.3985 57.2279 40.6955ZM36.8802 38.1521C35.4774 38.1521 34.3367 39.2934 34.3367 40.6955C34.3367 42.0977 35.4774 43.239 36.8802 43.239C38.2823 43.239 39.4236 42.0977 39.4236 40.6955C39.4236 39.2934 38.2823 38.1521 36.8802 38.1521Z"/>
</mask>
<path d="M63.3717 64.0525C63.763 64.6362 63.6065 65.4261 63.0228 65.8173C59.665 68.0651 56.058 69.8246 52.301 71.1317L55.7749 76.9214C56.1363 77.5237 55.9413 78.3049 55.339 78.6663C55.134 78.7892 54.908 78.8476 54.6857 78.8476C54.2535 78.8476 53.8325 78.6278 53.594 78.2304L49.8139 71.9301C46.0395 73.0107 42.1282 73.6072 38.1519 73.7138V80.1193C38.1519 80.8223 37.5825 81.3911 36.8802 81.3911C36.1779 81.3911 35.6084 80.8223 35.6084 80.1193V73.7138C31.6322 73.6072 27.7209 73.0106 23.9465 71.93L20.1663 78.2304C19.9278 78.6278 19.5068 78.8476 19.0746 78.8476C18.8517 78.8476 18.6263 78.7892 18.4214 78.6663C17.819 78.3049 17.6241 77.5237 17.9855 76.9214L21.4594 71.1316C17.7026 69.8245 14.0959 68.065 10.7382 65.8173C10.1545 65.4261 9.99799 64.6362 10.3886 64.0525C10.7798 63.4688 11.5703 63.3135 12.1527 63.7035C19.495 68.6191 28.0457 71.2172 36.8802 71.2172C45.7152 71.2172 54.2659 68.6191 61.607 63.7035C62.1894 63.3135 62.9793 63.4688 63.3717 64.0525ZM12.1527 17.6876C19.495 12.772 28.0457 10.1739 36.8802 10.1739C45.7152 10.1739 54.2659 12.772 61.607 17.6876C61.8243 17.8329 62.0702 17.9024 62.3136 17.9024C62.7235 17.9024 63.1258 17.7049 63.3717 17.3386C63.763 16.7549 63.6065 15.965 63.0228 15.5738C59.665 13.326 56.0581 11.5665 52.3011 10.2593L55.7749 4.4697C56.1363 3.86737 55.9413 3.08619 55.339 2.72479C54.7354 2.36339 53.9542 2.55837 53.594 3.16071L49.8139 9.46094C46.0395 8.38038 42.1283 7.78379 38.1519 7.67714V1.27174C38.1519 0.568803 37.5825 0 36.8802 0C36.1779 0 35.6084 0.568803 35.6084 1.27174V7.67714C31.6322 7.78379 27.7209 8.38046 23.9465 9.46109L20.1663 3.16071C19.8049 2.55837 19.0237 2.36339 18.4214 2.72479C17.819 3.08619 17.6241 3.86737 17.9855 4.4697L21.4593 10.2595C17.7025 11.5666 14.0958 13.3261 10.7382 15.5738C10.1545 15.965 9.99799 16.7549 10.3886 17.3386C10.7792 17.9223 11.5684 18.0775 12.1527 17.6876ZM47.054 40.6955C47.054 41.3985 47.6229 41.9673 48.3258 41.9673H50.8048C50.1974 48.6668 44.8514 54.0128 38.1519 54.6202V52.1411C38.1519 51.4382 37.5825 50.8694 36.8802 50.8694C36.1779 50.8694 35.6084 51.4382 35.6084 52.1411V54.6202C28.9089 54.0128 23.5629 48.6668 22.9555 41.9673H25.4345C26.1369 41.9673 26.7063 41.3985 26.7063 40.6955C26.7063 39.9926 26.1369 39.4238 25.4345 39.4238H22.9555C23.5629 32.7243 28.9089 27.3782 35.6084 26.7709V29.2499C35.6084 29.9528 36.1779 30.5216 36.8802 30.5216C37.5825 30.5216 38.1519 29.9528 38.1519 29.2499V26.7709C44.8514 27.3782 50.1974 32.7243 50.8048 39.4238H48.3258C47.6229 39.4238 47.054 39.9926 47.054 40.6955ZM41.9671 40.6955C41.9671 37.89 39.6857 35.6086 36.8802 35.6086C34.0753 35.6086 31.7932 37.89 31.7932 40.6955C31.7932 43.501 34.0753 45.7825 36.8802 45.7825C39.6857 45.7825 41.9671 43.501 41.9671 40.6955ZM73.6649 41.1799C67.4267 56.3364 52.988 66.1302 36.8802 66.1302C20.7723 66.1302 6.33368 56.3364 0.0954733 41.1799C-0.0318244 40.8694 -0.0318244 40.5217 0.0954733 40.2112C6.33368 25.0547 20.7723 15.2608 36.8802 15.2608C52.988 15.2608 67.4267 25.0547 73.6649 40.2112C73.7928 40.5217 73.7928 40.8694 73.6649 41.1799ZM57.2279 40.6955C57.2279 39.9926 56.6591 39.4238 55.9562 39.4238H53.3483C52.7271 31.3229 46.2528 24.8486 38.1519 24.2274V21.6195C38.1519 20.9166 37.5825 20.3478 36.8802 20.3478C36.1779 20.3478 35.6084 20.9166 35.6084 21.6195V24.2274C27.5071 24.8486 21.0332 31.3229 20.412 39.4238H17.8041C17.1018 39.4238 16.5324 39.9926 16.5324 40.6955C16.5324 41.3985 17.1018 41.9673 17.8041 41.9673H20.412C21.0332 50.0681 27.5071 56.5425 35.6084 57.1637V59.7716C35.6084 60.4745 36.1779 61.0433 36.8802 61.0433C37.5825 61.0433 38.1519 60.4745 38.1519 59.7716V57.1637C46.2528 56.5425 52.7271 50.0681 53.3483 41.9673H55.9562C56.6591 41.9673 57.2279 41.3985 57.2279 40.6955ZM36.8802 38.1521C35.4774 38.1521 34.3367 39.2934 34.3367 40.6955C34.3367 42.0977 35.4774 43.239 36.8802 43.239C38.2823 43.239 39.4236 42.0977 39.4236 40.6955C39.4236 39.2934 38.2823 38.1521 36.8802 38.1521Z" stroke="url(#paint0_linear_1_2065)" stroke-width="8" mask="url(#path-1-inside-1_1_2065)"/>
<defs>
<linearGradient id="paint0_linear_1_2065" x1="13" y1="16" x2="49" y2="69.5" gradientUnits="userSpaceOnUse">
<stop stop-color="#6CC727"/>
<stop offset="0.52" stop-color="#3063FD"/>
<stop offset="1" stop-color="#BD0EFA"/>
</linearGradient>
</defs>
</svg>
