<?xml version="1.0" encoding="utf-8"?>
<!-- Generator: Adobe Illustrator 27.5.0, SVG Export Plug-In . SVG Version: 6.00 Build 0)  -->
<svg version="1.1" id="Layer_1" xmlns="http://www.w3.org/2000/svg" xmlns:xlink="http://www.w3.org/1999/xlink" x="0px" y="0px"
	 viewBox="0 0 595.3 841.9" style="enable-background:new 0 0 595.3 841.9;" xml:space="preserve">
<style type="text/css">
	.st0{fill:#957AE4;}
</style>
<g>
	<path class="st0" d="M-497.2,547.1c33.2-26.9,76.4-40.5,119.1-37.4c17,1.2,34,2.9,50.5,7.3c16.4,4.3,31.9,12.1,48.9,14.3
		c35.1,5.2,66.8-3.8,99.8-14.6c8.1-2.6,16.1-5.5,23.8-8.9c15.7-6.6,30.2-15.7,46-22.1c23.8-9.6,49.2-14.6,74.8-16.3
		c25.5-1.4,51.3-0.7,76.5,3.9c16.8,2.9,33.3,7.6,50.2,8.8c8.4,0.6,16.9,0.4,25.3-0.4c3.8-0.5,9-1,12.6-1.6
		c25-3.7,49.9-11.8,70.8-26.3c10.3-7.6,20.7-15.4,32.7-20c23.8-10.2,50.2-11,75.7-10.8c29.5,2.3,72,8.7,101.5,11.8
		c8.4,0.9,16.9,1.9,25.4,2.3c4.2,0.2,8.4,0,12.5-0.8c12.4-2.6,23.8-8.6,35.2-14.1c7.6-3.8,15.2-7.7,22.7-11.6
		c11.1-5.6,22.8-12,33.7-18.1c11.1-6.5,23.9-10.1,36.7-11.2c25.5-2.1,51.2-0.5,76.6,1.8c16.9,1.7,33.7,4.7,50.7,6
		c8.5,0.7,16.9,1.2,25.5,1.6c43.1,2.1,58.6,2.3,98.2-18.7c22.7-11.7,45-24,67.1-36.8c22.5-12.2,45.9-22.5,69.8-31.5
		c31.9-12,64.6-21.7,97.9-28.8c-66.3,14.9-131.3,38.2-189.4,73.8c-14.8,8.4-29.9,16.4-44.9,24.3c-39.6,21.1-55.3,21.1-98.7,19.1
		c-8.5-0.4-17-0.8-25.5-1.5c-17-1.3-33.8-4.2-50.7-5.9c-16.9-1.6-33.9-2.5-50.9-2.7c-12.7,0-25.5,0.2-37.9,2.8
		c-4.1,0.9-8.1,2.1-12.1,3.6c-6.5,2.4-16.2,8.3-22.5,11.7c-14.9,8.2-30.1,15.9-45.3,23.6c-11.5,5.6-23,11.6-35.7,14.3
		c-12.6,2.3-25.8-0.3-38.4-1.4c-8.5-0.9-16.9-1.9-25.4-3c-18-2-58.5-7.7-76-8.7c-16.8-0.2-34.1,0.3-50.6,3.3
		c-16.6,3.2-32.6,9.6-46.3,19.6c-23.7,18.9-52,29.9-81.9,34c-3.8,0.6-8.9,1.2-12.7,1.6c-17,1.7-34.3,0.2-51-3.4
		c-16.6-3.5-33.3-7-50.2-8.5c-8.3-0.7-17.1-1-25.4-1.1c-33.9-0.5-68.2,4-99.8,16.6c-15.8,6.4-30.3,15.4-46,22
		c-7.8,3.4-15.9,6.3-24,8.9c-33.2,10.7-65.1,19.6-100.4,14.3c-17-2.2-32.5-10.2-48.9-14.5c-16.4-4.4-33.4-6.2-50.4-7.5
		C-420.7,507-463.9,520.4-497.2,547.1L-497.2,547.1z"/>
</g>
</svg>
