<svg xmlns="http://www.w3.org/2000/svg" version="1.1" xmlns:xlink="http://www.w3.org/1999/xlink" width="512" height="512" x="0" y="0" viewBox="0 0 48 60" style="enable-background:new 0 0 512 512" xml:space="preserve" class=""><g><path d="M4 60h40a4 4 0 0 0 4-4V8.829a2.984 2.984 0 0 0-.255-1.2c-.008-.021-.021-.038-.031-.059a3 3 0 0 0-.593-.862L41.293.879a3 3 0 0 0-.867-.6c-.018-.008-.033-.02-.052-.027A2.977 2.977 0 0 0 39.172 0H4a4 4 0 0 0-4 4v52a4 4 0 0 0 4 4zM44.586 7H43a2 2 0 0 1-2-2V3.414zM2 4a2 2 0 0 1 2-2h35v3a4 4 0 0 0 4 4h3v47a2 2 0 0 1-2 2H4a2 2 0 0 1-2-2z" fill="#ffffff" opacity="1" data-original="#000000" class=""></path><path d="M9 23h6a3 3 0 0 0 3-3v-5.586l2.707-2.707a1 1 0 0 0-1.414-1.414L17.385 12.2A2.985 2.985 0 0 0 15 11H9a3 3 0 0 0-3 3v6a3 3 0 0 0 3 3zm-1-9a1 1 0 0 1 1-1h6a.994.994 0 0 1 .93.656L13 16.586l-1.293-1.293a1 1 0 0 0-1.414 1.414l2 2a1 1 0 0 0 1.414 0L16 16.414V20a1 1 0 0 1-1 1H9a1 1 0 0 1-1-1zM9 37h6a3 3 0 0 0 3-3v-6a3 3 0 0 0-3-3H9a3 3 0 0 0-3 3v6a3 3 0 0 0 3 3zm-1-9a1 1 0 0 1 1-1h6a1 1 0 0 1 1 1v6a1 1 0 0 1-1 1H9a1 1 0 0 1-1-1zM9 51h6a3 3 0 0 0 3-3v-6a3 3 0 0 0-3-3H9a3 3 0 0 0-3 3v6a3 3 0 0 0 3 3zm-1-9a1 1 0 0 1 1-1h6a1 1 0 0 1 1 1v6a1 1 0 0 1-1 1H9a1 1 0 0 1-1-1zM24 15h17a1 1 0 0 0 0-2H24a1 1 0 0 0 0 2zM24 20h10a1 1 0 0 0 0-2H24a1 1 0 0 0 0 2zM24 29h17a1 1 0 0 0 0-2H24a1 1 0 0 0 0 2zM24 34h10a1 1 0 0 0 0-2H24a1 1 0 0 0 0 2zM24 43h17a1 1 0 0 0 0-2H24a1 1 0 0 0 0 2zM24 48h10a1 1 0 0 0 0-2H24a1 1 0 0 0 0 2z" fill="#ffffff" opacity="1" data-original="#000000" class=""></path></g></svg>