<svg xmlns="http://www.w3.org/2000/svg" version="1.1" xmlns:xlink="http://www.w3.org/1999/xlink" width="512" height="512" x="0" y="0" viewBox="0 0 480 480" style="enable-background:new 0 0 512 512" xml:space="preserve" class=""><g><path d="M472 80H280a8 8 0 0 0-8 8v72a8 8 0 0 0 10.528 7.584l10.056-3.352c10.918-3.574 22.665 2.38 26.238 13.298 3.573 10.918-2.38 22.665-13.298 26.238a20.8 20.8 0 0 1-12.941 0l-10.056-3.352A8 8 0 0 0 271.999 208v64h-64a8 8 0 0 0-7.584 10.528l3.352 10.056c3.574 10.918-2.38 22.665-13.298 26.238-10.918 3.574-22.665-2.38-26.238-13.298a20.8 20.8 0 0 1 0-12.941l3.352-10.056a8 8 0 0 0-7.584-10.528H88a8 8 0 0 0-8 8v192a8 8 0 0 0 8 8h384a8 8 0 0 0 8-8V88a8 8 0 0 0-8-8zM272.41 397.478A8.006 8.006 0 0 0 272 400v64H96V288h52.904c-6.113 19.383 4.645 40.052 24.028 46.164 19.383 6.113 40.052-4.645 46.164-24.028a36.8 36.8 0 0 0 0-22.137H272v64a8 8 0 0 0 10.528 7.584l10.056-3.352c10.918-3.573 22.665 2.38 26.238 13.298 3.573 10.918-2.38 22.665-13.298 26.238a20.8 20.8 0 0 1-12.941 0l-10.056-3.352a8 8 0 0 0-10.117 5.063zM464 464H288v-52.904c19.383 6.113 40.052-4.645 46.164-24.028 6.113-19.383-4.645-40.052-24.028-46.164a36.8 36.8 0 0 0-22.137 0V288h64a8 8 0 0 0 7.584-10.528l-3.352-10.056c-3.573-10.918 2.38-22.665 13.298-26.238 10.918-3.573 22.665 2.38 26.238 13.298a20.8 20.8 0 0 1 0 12.941l-3.352 10.056a8 8 0 0 0 7.584 10.528h64V464zm0-192h-52.904c6.113-19.383-4.645-40.052-24.028-46.164-19.383-6.113-40.052 4.645-46.164 24.028a36.8 36.8 0 0 0 0 22.137H288v-52.904a36.447 36.447 0 0 0 32.712-5.224c16.546-11.802 20.392-34.783 8.59-51.329-9.32-13.066-26.033-18.585-41.302-13.639V96h176v176z" fill="#ffffff" opacity="1" data-original="#000000"></path><path d="M230.137 68.904a36.8 36.8 0 0 0-22.137 0V8a8 8 0 0 0-8-8H8a8 8 0 0 0-8 8v192a8 8 0 0 0 8 8h60.904c-6.113 19.383 4.645 40.052 24.028 46.164s40.052-4.645 46.164-24.028a36.8 36.8 0 0 0 0-22.137H200a8 8 0 0 0 8-8v-60.904c19.383 6.113 40.052-4.645 46.164-24.028 6.113-19.382-4.644-40.05-24.027-46.163zm-4.612 54.864a20.8 20.8 0 0 1-12.941 0l-10.056-3.352A8 8 0 0 0 192 128v64h-64a8 8 0 0 0-7.584 10.528l3.352 10.056c3.574 10.918-2.38 22.665-13.298 26.238-10.918 3.573-22.665-2.38-26.238-13.298a20.8 20.8 0 0 1 0-12.941l3.352-10.056A8 8 0 0 0 80 191.999H16V16h176v64a8 8 0 0 0 10.528 7.584l10.056-3.352c10.918-3.573 22.665 2.38 26.238 13.298 3.574 10.917-2.38 22.665-13.297 26.238z" fill="#ffffff" opacity="1" data-original="#000000"></path></g></svg>