<svg xmlns="http://www.w3.org/2000/svg" version="1.1" xmlns:xlink="http://www.w3.org/1999/xlink" width="512" height="512" x="0" y="0" viewBox="0 0 512 512" style="enable-background:new 0 0 512 512" xml:space="preserve" class=""><g><path d="M432.949 342.676c-1.975-5.159-7.758-7.737-12.914-5.766-5.158 1.975-7.739 7.756-5.765 12.914 7.388 19.304 11.134 39.671 11.134 60.536v55.374c0 14.483-11.783 26.266-26.266 26.266h-57.447v-40.31h21.623c5.523 0 10-4.478 10-10v-58.291c0-5.522-4.477-10-10-10s-10 4.478-10 10v48.291H316.31c-25.58 0-48.006 13.736-60.309 34.215-12.303-20.479-34.729-34.215-60.309-34.215h-37.004v-48.291c0-5.522-4.477-10-10-10s-10 4.478-10 10v58.291c0 5.522 4.477 10 10 10h21.623V492h-57.447c-14.483 0-26.266-11.783-26.266-26.266V410.36c0-93.409 75.995-169.403 169.404-169.403 40.08 0 78.961 14.251 109.482 40.127 4.212 3.572 10.523 3.052 14.094-1.161 3.572-4.213 3.052-10.523-1.161-14.095-20.335-17.24-43.987-29.862-69.262-37.251 39.847-19.674 67.324-60.735 67.324-108.098C376.479 54.047 322.432 0 256 0S135.521 54.047 135.521 120.479c0 47.355 27.468 88.41 67.304 108.088-78.634 23.038-136.23 95.811-136.23 181.794v55.374c0 25.511 20.755 46.266 46.266 46.266h286.276c25.511 0 46.266-20.755 46.266-46.266V410.36c.001-23.318-4.189-46.09-12.454-67.684zM155.521 120.479C155.521 65.074 200.596 20 256 20s100.479 45.074 100.479 100.479S311.404 220.957 256 220.957s-100.479-45.074-100.479-100.478zM190.309 492v-40.31h5.382c24.317 0 44.66 17.344 49.311 40.31h-54.693zm126-40.31h5.382V492h-54.693c4.651-22.966 24.994-40.31 49.311-40.31z" fill="#ffffff" opacity="1" data-original="#000000"></path><path d="M255.145 284.39c-8.427-5.779-18.389-8.889-28.829-8.889-13.651 0-26.487 5.316-36.143 14.97-9.655 9.65-14.972 22.486-14.972 36.143 0 13.655 5.317 26.492 14.97 36.146l42.765 42.762c5.998 5.998 13.972 9.301 22.453 9.301s16.455-3.304 22.452-9.301l43.987-43.983.001-.001c9.654-9.654 14.971-22.491 14.971-36.146s-5.317-26.491-14.973-36.146c-9.656-9.653-22.492-14.969-36.143-14.969-11.155-.002-21.765 3.547-30.539 10.113zm61.655 41.001c0 8.312-3.237 16.126-9.113 22.003l-43.988 43.984a11.671 11.671 0 0 1-8.31 3.443 11.68 11.68 0 0 1-8.311-3.443l-42.765-42.762c-5.876-5.876-9.112-13.69-9.112-22.003s3.236-16.125 9.111-21.998c5.879-5.878 13.694-9.114 22.004-9.114 8.311 0 16.124 3.236 22 9.113a10.002 10.002 0 0 0 14.143-.002l1.225-1.225c5.876-5.876 13.689-9.112 22-9.112 8.31 0 16.125 3.236 22.002 9.112 5.877 5.878 9.114 13.692 9.114 22.004z" fill="#ffffff" opacity="1" data-original="#000000"></path><circle cx="402.555" cy="306.687" r="10" fill="#ffffff" opacity="1" data-original="#000000"></circle></g></svg>