<svg xmlns="http://www.w3.org/2000/svg" version="1.1" xmlns:xlink="http://www.w3.org/1999/xlink" width="512" height="512" x="0" y="0" viewBox="0 0 512 512" style="enable-background:new 0 0 512 512" xml:space="preserve" class=""><g><circle cx="279.273" cy="349.091" r="11.636" fill="#ffffff" opacity="1" data-original="#000000"></circle><circle cx="81.455" cy="418.909" r="11.636" fill="#ffffff" opacity="1" data-original="#000000"></circle><path d="M477.091 46.545H81.455c-19.782 0-34.909 15.127-34.909 34.909v116.364c0 6.982 4.655 11.636 11.636 11.636s11.636-4.655 11.636-11.636V81.455c0-6.982 4.655-11.636 11.636-11.636H477.09c6.982 0 11.636 4.655 11.636 11.636v279.273c0 6.982-4.655 11.636-11.636 11.636H197.818c-6.982 0-11.636 4.655-11.636 11.636s4.655 11.636 11.636 11.636h23.273v34.909c0 6.982-4.655 11.636-11.636 11.636h-11.636c-6.982 0-11.636 4.655-11.636 11.636s4.655 11.636 11.636 11.636h162.909c6.982 0 11.636-4.655 11.636-11.636s-4.655-11.636-11.636-11.636h-11.636c-6.982 0-11.636-4.655-11.636-11.636v-34.909h139.636c19.782 0 34.909-15.127 34.909-34.909V81.455c-.001-19.782-15.128-34.91-34.91-34.91zM242.036 442.182c1.164-3.491 2.327-6.982 2.327-11.636v-34.909h69.818v34.909c0 4.655 1.164 8.145 2.327 11.636h-74.472z" fill="#ffffff" opacity="1" data-original="#000000"></path><path d="M453.818 302.545h-256c-6.982 0-11.636 4.655-11.636 11.636s4.655 11.636 11.636 11.636h256c6.982 0 11.636-4.655 11.636-11.636s-4.654-11.636-11.636-11.636zM128 232.727H34.909C15.127 232.727 0 247.855 0 267.636v162.909c0 19.782 15.127 34.909 34.909 34.909H128c19.782 0 34.909-15.127 34.909-34.909V267.636c0-19.781-15.127-34.909-34.909-34.909zm11.636 197.818c0 6.982-4.655 11.636-11.636 11.636H34.909c-6.982 0-11.636-4.655-11.636-11.636V267.636c0-6.982 4.655-11.636 11.636-11.636H128c6.982 0 11.636 4.655 11.636 11.636v162.909z" fill="#ffffff" opacity="1" data-original="#000000"></path></g></svg>