<svg xmlns="http://www.w3.org/2000/svg" version="1.1" xmlns:xlink="http://www.w3.org/1999/xlink" width="512" height="512" x="0" y="0" viewBox="0 0 468 468" style="enable-background:new 0 0 512 512" xml:space="preserve" class=""><g><path d="M250.004 332.057h24.006v24h-24.006z" fill="#ffffff" opacity="1" data-original="#000000"></path><path d="m464.367 83.369-36.963-35.691a12.002 12.002 0 0 0-8.339-3.369H274.011V28c0-15.439-12.564-28-28.007-28h-24.006c-15.444 0-28.007 12.561-28.007 28v88.309H48.935a12.006 12.006 0 0 0-8.339 3.369L3.633 155.369c-4.845 4.489-4.845 12.774 0 17.263l36.963 35.691a12.002 12.002 0 0 0 8.339 3.369h117.047v-24H53.785L29.25 164l24.536-23.691H193.99v239.24h-34.355c-15.444 0-28.007 12.561-28.007 28V440c0 15.439 12.564 28 28.007 28h148.732c15.444 0 28.007-12.561 28.007-28v-32.452c0-15.439-12.564-28-28.007-28h-90.37V28c0-2.206 1.795-4 4.001-4h24.006a4.005 4.005 0 0 1 4.001 4v276.564h24.006V68.309h140.204L438.75 92l-24.536 23.691H302.018v24h117.047c3.111 0 6.101-1.208 8.339-3.369l36.963-35.691c4.844-4.489 4.844-12.774 0-17.262zm-152 324.179V440c0 2.206-1.795 4-4.001 4H159.634a4.005 4.005 0 0 1-4.001-4v-32.452c0-2.206 1.795-4 4.001-4h148.732a4.006 4.006 0 0 1 4.001 4z" fill="#ffffff" opacity="1" data-original="#000000"></path></g></svg>