<svg xmlns="http://www.w3.org/2000/svg" version="1.1" xmlns:xlink="http://www.w3.org/1999/xlink" width="512" height="512" x="0" y="0" viewBox="0 0 60 60" style="enable-background:new 0 0 512 512" xml:space="preserve"><g><path d="M53 2H7a7.009 7.009 0 0 0-7 7v31a7.009 7.009 0 0 0 7 7h17.041a5.929 5.929 0 0 1-2.406 5H19a3 3 0 0 0 0 6h22a3 3 0 0 0 0-6h-2.635a5.929 5.929 0 0 1-2.406-5H53a7.009 7.009 0 0 0 7-7V9a7.009 7.009 0 0 0-7-7zM42 55a1 1 0 0 1-1 1H19a1 1 0 0 1 0-2h22a1 1 0 0 1 1 1zm-6.482-3H24.482a8.208 8.208 0 0 0 1.556-5h7.924a8.208 8.208 0 0 0 1.556 5zM58 40a5.006 5.006 0 0 1-5 5H7a5.006 5.006 0 0 1-5-5V9a5.006 5.006 0 0 1 5-5h46a5.006 5.006 0 0 1 5 5z" fill="#ffffff" opacity="1" data-original="#000000"></path><path d="M45.66 20.783a3.006 3.006 0 0 0-4.149-.829 2.963 2.963 0 0 0-.812.793 3 3 0 0 0-4.873 1.511 2.963 2.963 0 0 0-2.095.472 3 3 0 0 0-.732.7l-3.884-5.82a3.126 3.126 0 0 0-3.658-1.292 2.97 2.97 0 0 0-1.857 2.214 3 3 0 0 0 .446 2.292l6.761 10.133-2.373-.474a2.881 2.881 0 0 0-2.817.967 2.924 2.924 0 0 0 1.064 4.588c2.489 1.077 7.67 3.319 10.88 4.991a8.664 8.664 0 0 0 4 .978 10.029 10.029 0 0 0 5.339-1.615l1.531-1.02a7.993 7.993 0 0 0 2.217-11.1zM49.882 33.9a5.945 5.945 0 0 1-2.556 3.81l-1.55 1.033a7.442 7.442 0 0 1-7.294.512c-3.268-1.7-8.3-3.88-11.005-5.052a.921.921 0 0 1-.4-.333.946.946 0 0 1 .081-1.137.861.861 0 0 1 .67-.312.968.968 0 0 1 .2.021l4.761.951a1 1 0 0 0 1.027-1.536l-8.1-12.135a1.023 1.023 0 0 1-.153-.795.976.976 0 0 1 .612-.739 1.134 1.134 0 0 1 1.274.53l5.442 8.151.022.034a1 1 0 0 0 1.66-1.117l-.014-.02a.979.979 0 0 1-.158-.534 1 1 0 0 1 1.82-.567l.01.017a1 1 0 0 0 1.664-1.112l-.012-.017a.944.944 0 0 1-.152-.531.994.994 0 0 1 .449-.84.972.972 0 0 1 .746-.152.984.984 0 0 1 .634.429l1.1 1.638.018.026A1 1 0 0 0 42.331 23l-.011-.016a.946.946 0 0 1-.15-.527.991.991 0 0 1 .442-.836 1 1 0 0 1 1.388.272l4.991 7.493a5.96 5.96 0 0 1 .891 4.514z" fill="#ffffff" opacity="1" data-original="#000000"></path><path d="M23.5 23.331a5 5 0 1 1 7.214-6 1 1 0 0 0 1.887-.666 7 7 0 1 0-10.1 8.4 1 1 0 0 0 1-1.732z" fill="#ffffff" opacity="1" data-original="#000000"></path><path d="M21.829 28.092a10 10 0 1 1 13.8-11.82 1 1 0 1 0 1.924-.544 12 12 0 1 0-16.555 14.18.989.989 0 0 0 .412.092 1 1 0 0 0 .419-1.908z" fill="#ffffff" opacity="1" data-original="#000000"></path></g></svg>